<?xml version="1.0" encoding="UTF-8" standalone="no"?>
<!-- Created with Inkscape (http://www.inkscape.org/) -->

<svg
   xmlns:dc="http://purl.org/dc/elements/1.1/"
   xmlns:cc="http://creativecommons.org/ns#"
   xmlns:rdf="http://www.w3.org/1999/02/22-rdf-syntax-ns#"
   xmlns:svg="http://www.w3.org/2000/svg"
   xmlns="http://www.w3.org/2000/svg"
   xmlns:sodipodi="http://sodipodi.sourceforge.net/DTD/sodipodi-0.dtd"
   xmlns:inkscape="http://www.inkscape.org/namespaces/inkscape"
   id="svg2"
   version="1.1"
   inkscape:version="0.48.1 r9760"
   width="744.09448"
   height="1052.3622"
   sodipodi:docname="textallion_cover.svg"
   inkscape:export-filename="sample_cover.png"
   inkscape:export-xdpi="200"
   inkscape:export-ydpi="200">
  <metadata
     id="metadata8">
    <rdf:RDF>
      <cc:Work
         rdf:about="">
        <dc:format>image/svg+xml</dc:format>
        <dc:type
           rdf:resource="http://purl.org/dc/dcmitype/StillImage" />
        <dc:title></dc:title>
      </cc:Work>
    </rdf:RDF>
  </metadata>
  <defs
     id="defs6" />
  <sodipodi:namedview
     pagecolor="#ffffff"
     bordercolor="#666666"
     borderopacity="1"
     objecttolerance="10"
     gridtolerance="10"
     guidetolerance="10"
     inkscape:pageopacity="0"
     inkscape:pageshadow="2"
     inkscape:window-width="1003"
     inkscape:window-height="837"
     id="namedview4"
     showgrid="false"
     inkscape:zoom="0.41583333"
     inkscape:cx="556.85722"
     inkscape:cy="366.56799"
     inkscape:window-x="39"
     inkscape:window-y="86"
     inkscape:window-maximized="0"
     inkscape:current-layer="svg2" />
  <rect
     y="-0.27587843"
     x="-0.54758579"
     height="1053.2277"
     width="745.18964"
     id="rect3974"
     style="color:#000000;fill:#fff6d5;stroke:none;stroke-width:1.97989988;marker:none;visibility:visible;display:inline;overflow:visible;enable-background:accumulate"
     inkscape:export-filename="sample_cover.png"
     inkscape:export-xdpi="68.358444"
     inkscape:export-ydpi="68.358444" />
  <rect
     style="color:#000000;fill:#f4eed7;stroke:#000000;stroke-width:1.67507278999999998;stroke-miterlimit:4;stroke-opacity:1;stroke-dasharray:none;marker:none;visibility:visible;display:inline;overflow:visible;enable-background:accumulate"
     id="rect3964"
     width="629.49408"
     height="888.69757"
     x="57.300201"
     y="69.770317"
     inkscape:export-filename="sample_cover.png"
     inkscape:export-xdpi="68.358444"
     inkscape:export-ydpi="68.358444" />
  <text
     xml:space="preserve"
     style="font-size:80.23126221px;font-style:normal;font-variant:normal;font-weight:normal;font-stretch:normal;text-align:start;line-height:125%;letter-spacing:0px;word-spacing:0px;writing-mode:lr-tb;text-anchor:start;color:#000000;fill:#d40000;fill-opacity:1;fill-rule:nonzero;stroke:none;stroke-width:1;marker:none;visibility:visible;display:inline;overflow:visible;enable-background:accumulate;font-family:Cheboygan;-inkscape-font-specification:Cheboygan"
     x="370.51941"
     y="265.47427"
     id="text3924"
     sodipodi:linespacing="125%"
     inkscape:export-filename="sample_cover.png"
     inkscape:export-xdpi="68.358444"
     inkscape:export-ydpi="68.358444"><tspan
       sodipodi:role="line"
       id="tspan3926"
       x="370.51941"
       y="265.47427"
       style="text-align:center;text-anchor:middle;color:#000000;fill:#d40000;fill-opacity:1;fill-rule:nonzero;stroke:none;stroke-width:1;marker:none;visibility:visible;display:inline;overflow:visible;enable-background:accumulate">Garvuino Manual</tspan><tspan
       sodipodi:role="line"
       x="370.51941"
       y="365.76337"
       id="tspan3930"
       style="text-align:center;text-anchor:middle;color:#000000;fill:#d40000;fill-opacity:1;fill-rule:nonzero;stroke:none;stroke-width:1;marker:none;visibility:visible;display:inline;overflow:visible;enable-background:accumulate" /></text>
  <text
     sodipodi:linespacing="125%"
     id="text3932"
     y="142.19354"
     x="371.12012"
     style="font-size:38.75020599px;font-style:normal;font-variant:normal;font-weight:normal;font-stretch:normal;text-align:start;line-height:125%;letter-spacing:0px;word-spacing:0px;writing-mode:lr-tb;text-anchor:start;fill:#000000;fill-opacity:1;stroke:none;font-family:Cheboygan;-inkscape-font-specification:Cheboygan"
     xml:space="preserve"
     inkscape:export-filename="sample_cover.png"
     inkscape:export-xdpi="68.358444"
     inkscape:export-ydpi="68.358444"><tspan
       style="text-align:center;text-anchor:middle"
       id="tspan3938"
       y="142.19354"
       x="371.12012"
       sodipodi:role="line">Garvalf</tspan></text>
  <text
     xml:space="preserve"
     style="font-size:24.74302101px;font-style:normal;font-variant:normal;font-weight:normal;font-stretch:normal;text-align:start;line-height:125%;letter-spacing:0px;word-spacing:0px;writing-mode:lr-tb;text-anchor:start;fill:#000000;fill-opacity:1;stroke:none;font-family:Cheboygan;-inkscape-font-specification:Cheboygan"
     x="371.85394"
     y="931.11517"
     id="text3966"
     sodipodi:linespacing="125%"
     inkscape:export-filename="sample_cover.png"
     inkscape:export-xdpi="68.358444"
     inkscape:export-ydpi="68.358444"><tspan
       sodipodi:role="line"
       x="371.85394"
       y="931.11517"
       id="tspan3968"
       style="text-align:center;text-anchor:middle">TEXTALLION EDITIONS</tspan></text>
  <text
     sodipodi:linespacing="125%"
     id="text3970"
     y="419.27548"
     x="371.35153"
     style="font-size:36.53349686px;font-style:normal;font-variant:normal;font-weight:normal;font-stretch:normal;text-align:start;line-height:125%;letter-spacing:0px;word-spacing:0px;writing-mode:lr-tb;text-anchor:start;fill:#000000;fill-opacity:1;stroke:none;font-family:Cheboygan;-inkscape-font-specification:Cheboygan"
     xml:space="preserve"
     inkscape:export-filename="sample_cover.png"
     inkscape:export-xdpi="68.358444"
     inkscape:export-ydpi="68.358444"><tspan
       style="text-align:center;text-anchor:middle"
       id="tspan3972"
       y="419.27548"
       x="371.35153"
       sodipodi:role="line">roman</tspan></text>
  <g
     id="g3193"
     transform="matrix(0.97201656,0,0,0.97201656,-651.78423,373.51272)"
     inkscape:export-filename="sample_cover.png"
     inkscape:export-xdpi="68.358444"
     inkscape:export-ydpi="68.358444">
    <g
       inkscape:export-ydpi="78.444138"
       inkscape:export-xdpi="78.444138"
       inkscape:export-filename="logo_textallion.png"
       transform="matrix(1.7144514,0,0,1.7144514,882.29009,113.86097)"
       id="g2461">
      <path
         id="path2465"
         d="M 0,100 0,0 l 100,0 100,0 0,100 0,100 -100,0 -100,0 0,-100 z"
         style="fill:#e3dedb"
         inkscape:connector-curvature="0"
         inkscape:export-filename="sample_cover.png"
         inkscape:export-xdpi="68.358444"
         inkscape:export-ydpi="68.358444" />
      <path
         id="path2463"
         d="m 0.30281039,197.22792 c 0.33375174,-2.49221 0.65045691,-2.63999 5.27612721,-2.46206 3.6397361,0.14 4.4003105,-0.047 2.9210624,-0.718 -2,-0.90729 -2,-0.90729 0,-0.99289 1.4556353,-0.0623 1.644237,-0.31123 0.6929233,-0.91458 -0.7188922,-0.45593 -3.0813922,-0.65154 -5.25,-0.43468 C 0.23952839,192.07605 0,191.938 0,189.43337 c 0,-2.17386 0.36940005,-2.57003 1.9990041,-2.14388 1.0994522,0.28751 2.2510099,0.115 2.559017,-0.38337 0.3080071,-0.49837 -0.7040448,-0.95098 -2.2490041,-1.0058 L -0.5,185.80064 2,185 c 2.3984057,-0.7681 2.4085651,-0.80469 0.25,-0.90032 C 1.0125,184.04486 0,183.59483 0,183.09961 c 0,-0.49521 1.35,-0.80692 3,-0.69269 1.65,0.11424 3,-0.15559 3,-0.59961 0,-0.44402 -0.7875,-0.8142 -1.75,-0.82262 C 2.754453,180.9716 2.7181026,180.82843 4,180 5.3217388,179.14583 5.3157967,179.02881 3.95,179.01531 3.0975,179.00689 1.86,179.54 1.2,180.2 0.26666667,181.13333 0,181.06096 0,179.87431 c 0,-1.99357 4.4033455,-6.11507 5.4845124,-5.13346 0.459876,0.41753 0.5123193,0.19646 0.1165405,-0.49126 C 5.2052742,173.56186 4.868213,153.83235 4.852028,130.40623 4.8229526,88.32239 4.7996008,87.83798 2.8983274,89.878758 1.5108328,91.368059 1.0965794,92.932083 1.4132895,95.485556 1.6648169,97.513494 1.4566849,98.782247 0.92626253,98.454428 0.41681814,98.139574 0,90.258524 0,80.940983 L 0,64 14.5,64 c 7.975,0 14.5,-0.375 14.5,-0.833333 0,-1.667821 -1.307928,-2.072236 -3.283113,-1.015149 -1.747685,0.935332 -1.93193,0.829432 -1.366064,-0.785184 0.57633,-1.644474 0.505199,-1.678479 -0.598369,-0.286056 -0.893113,1.12688 -2.874767,1.557245 -6.906889,1.5 -3.10994,-0.04415 -5.465099,-0.386684 -5.233688,-0.76118 0.231411,-0.374496 -0.04774,-0.970444 -0.620342,-1.324329 -0.572598,-0.353886 -0.917439,-0.04748 -0.766312,0.680901 C 10.419707,62.113014 8.9658826,62.588324 5.25,62.80226 2.0513434,62.986417 0,62.693368 0,62.05226 0,61.473517 0.5625,60.964474 1.25,60.921053 2.1494331,60.864246 2.1714095,60.707974 1.3283602,60.363839 0.524436,60.035676 0.12796573,55.810249 0.06510058,46.900507 -0.02368558,34.317034 0.0338688,33.947759 1.9260521,34.960424 4.535247,36.356823 5.1621045,35.041761 3.3431941,31.987451 2.5284606,30.619353 2.0750384,30.2125 2.3355894,31.083333 c 0.2746075,0.917814 -0.1166885,1.583334 -0.9309302,1.583334 -1.74297962,0 -1.8335864,-2.0658 -0.1518244,-3.461538 C 2.137043,28.471301 3.0759817,28.582391 4.4439644,29.582684 5.5100266,30.362208 6.0178409,31 5.5724408,31 c -0.4454002,0 0.3935124,1.577648 1.8642503,3.505885 1.4707378,1.928237 2.354619,4.022765 1.9641803,4.654508 -0.4385279,0.709553 -0.2685683,0.875873 0.4446201,0.435099 1.4441725,-0.892548 1.4683845,-0.05049 0.073488,2.555896 -1.3051887,2.438767 -0.4959196,3.572319 1.4169685,1.984763 1.623084,-1.34704 1.072283,-5.55246 -0.946687,-7.228056 C 9.6251674,36.273953 9,35.121088 9,34.34617 9,33.571253 8.3275846,32.6792 7.5057436,32.36383 6.6839025,32.04846 6.2503161,31.403997 6.5422181,30.93169 6.8341201,30.459382 6.1940355,29.194035 5.1198078,28.119808 4.0455802,27.04558 3.4291667,25.904167 3.75,25.583333 4.0708333,25.2625 3.8983333,25 3.3666667,25 2.835,25 1.86,25.54 1.2,26.2 0.26666667,27.133333 0,26.58643 0,23.738933 L 0,20.077866 8.75,19.744568 17.5,19.41127 8.7954545,19.205635 0.09090909,19 l 0,-9.5 0,-9.49999980769627 7.07699021,0 C 13.171072,1.9230373e-7 14.065905,0.21566319 13.065294,1.4213262 12.089595,2.5969705 12.284497,2.7448582 14.192849,2.2768935 15.461782,1.9657268 16.95,1.3888472 17.5,0.99493919 19.070681,-0.12997781 28,-0.13254181 28,0.99192419 28,1.5463662 28.476558,2 29.059017,2 29.641476,2 29.839919,1.5500002 29.5,1.0000002 29.095157,0.34495019 36.443167,1.9230373e-7 50.801637,1.9230373e-7 l 21.91967,0 L 72.337275,9.75 c -0.211217,5.3625 -0.523034,12.1125 -0.692926,15 -0.169892,2.8875 0.06563,5.25 0.523378,5.25 0.839182,0 1.110634,-5.340918 0.845959,-16.644555 -0.07913,-3.3795052 0.222917,-7.8795052 0.671219,-10 C 74.332685,0.29140819 74.602635,1.9632429 75,11.5 c 0.653036,15.672874 0.336878,18.245177 -2.355446,19.164205 -1.179505,0.402625 -2.435902,0.658273 -2.791994,0.568107 -0.356093,-0.09017 -0.406161,0.758718 -0.111263,1.886409 0.362552,1.3864 0.775875,1.662511 1.27639,0.852661 0.556118,-0.899818 0.875034,-0.858666 1.282315,0.165465 0.374459,0.941602 0.566518,0.815341 0.621051,-0.408286 0.04342,-0.974291 1.225631,-2.293903 2.627133,-2.93247 L 78.096371,29.63506 77.798186,14.816034 77.5,-0.00299281 122,0.07745119 c 24.475,0.044244 43.9375,0.307417 43.25,0.58483 -0.6875,0.277412 -1.21837,1.47938551 -1.17971,2.67105211 C 164.13835,5.431446 164.16776,5.4367194 165,3.5 165.47269,2.4 165.89106,2.0625 165.92971,2.75 166.05049,4.897881 168,4.1131607 168,1.9166667 c 0,-1.24444451 0.50333,-1.89877751 1.25,-1.62500051 0.6875,0.252084 1.1467,0.93697401 1.02045,1.52197751 -0.27043,1.2530693 3.81801,0.6549845 4.65606,-0.6811195 0.31542,-0.50288101 6.08599,-0.98394801 12.82349,-1.06903901 l 12.25,-0.154711 0,4.04561291 C 200,7.911278 199.92324,8 196.5,8 194.575,8 193,8.3596397 193,8.7991993 c 0,0.4395595 1.575,0.6153268 3.5,0.3905939 2.86099,-0.3340045 3.5,-0.078255 3.5,1.4008008 0,1.265336 -0.31617,1.493235 -1.05149,0.75792 C 197.79622,10.196217 193,10.748306 193,12.033244 c 0,0.440049 0.5625,1.027063 1.25,1.304475 0.76015,0.306727 0.57792,0.535324 -0.46502,0.583334 -1.48109,0.06818 -1.75922,1.477035 -2.0391,10.328947 -0.28795,9.107029 -0.35155,8.633114 -0.57042,-4.25 C 190.95227,6.8619456 190.79489,5.7348182 189.5,8 c -1.11183,1.9449353 -1.41372,6.829505 -1.35971,22 0.0625,17.551082 0.20117,19.100222 1.38771,15.5 0.72506,-2.2 1.4203,-5.575 1.54498,-7.5 0.19126,-2.952989 0.29024,-3.086262 0.63336,-0.852736 0.37764,2.458231 0.68827,2.609495 4.35017,2.118331 C 199.25271,38.836894 200,39.045862 200,40.368331 200,41.265749 199.52344,42 198.94098,42 c -0.58246,0 -0.7809,-0.45 -0.44098,-1 0.78687,-1.273187 -1.52988,-1.273187 -3.5,0 -1.30363,0.842473 -1.28596,0.971379 0.13499,0.984687 2.35764,0.02208 4.88189,4.233768 3.74985,6.256604 -0.57725,1.031495 -0.52196,1.864949 0.15134,2.281068 0.73369,0.453447 0.69658,1.094714 -0.1203,2.079 -0.89519,1.078636 -1.51235,1.148505 -2.54856,0.288527 C 195.28196,51.989117 195,52.204957 195,53.936572 c 0,1.234826 0.4447,1.906624 1.02478,1.548115 0.56362,-0.34834 0.90112,-0.262398 0.75,0.190983 C 196.62365,56.129052 196.95,56.5 197.5,56.5 c 0.55,0 0.8875,-0.3375 0.75,-0.75 -0.1375,-0.4125 0.2,-0.75 0.75,-0.75 1.3478,0 1.26293,1.337066 -0.17621,2.776206 -0.85892,0.858922 -1.5333,0.879843 -2.5,0.07756 C 195.31791,57.018956 195,57.144746 195,58.377555 195,59.2699 195.45,60 196,60 c 0.55,0 1,0.476558 1,1.059017 0,0.582459 -0.41594,0.80195 -0.92432,0.487757 -0.50837,-0.314193 -1.13117,0.221749 -1.384,1.190983 C 194.43886,63.706991 194.1798,59.8875 194.116,54.25 c -0.0638,-5.6375 -0.4535,-10.246489 -0.866,-10.242198 -0.99621,0.01036 -3.25,4.939728 -3.25,7.108229 0,0.944516 0.48056,1.877488 1.0679,2.07327 0.61062,0.20354 1.14588,3.627811 1.25,7.996791 0.14631,6.139222 0.43742,7.429227 1.48126,6.564123 1.02437,-0.848966 1.19701,-0.513394 0.81622,1.586542 C 194.3419,70.844918 194.59054,72 195.18867,72 c 0.69133,0 0.72391,0.431836 0.0943,1.25 -0.52905,0.6875 -0.99047,2.967712 -1.02537,5.067137 -0.0632,3.801926 -0.0549,3.809938 2.08946,2.010656 1.18411,-0.993564 1.81933,-1.402679 1.41161,-0.909146 -0.40773,0.493534 -0.20443,1.613739 0.45177,2.489344 0.99141,1.322889 0.96015,1.384726 -0.18488,0.365803 -1.71733,-1.528177 -4.17363,0.17679 -3.34935,2.324843 0.45697,1.190846 0.84102,1.222701 2.13252,0.176886 1.32178,-1.070332 1.43298,-1.034221 0.69126,0.224477 -0.7624,1.293788 -0.65132,1.311324 0.80804,0.127555 C 199.8879,83.846038 200,85.253902 200,106.37756 L 200,129 l -2.25,0.0997 c -2.15006,0.0952 -2.13896,0.13336 0.25,0.85804 2.36579,0.71764 2.31211,0.78422 -1,1.24028 l -3.5,0.48193 3.25,0.16003 L 200,132 l 0,34 0,34 -19.25945,0 c -18.17645,0 -19.32969,-0.11246 -20.50848,-2 -0.97802,-1.56606 -2.33202,-2 -6.24054,-2 -5.07156,0 -5.94586,0.64567 -3.79153,2.8 0.66,0.66 0.82211,1.2 0.36024,1.2 -0.46186,0 -1.41295,-0.78389 -2.11353,-1.74199 -0.70057,-0.95809 -3.22518,-2.29913 -5.61024,-2.98008 l -4.33647,-1.2381 3.87393,0.54865 3.87394,0.54865 -2.32115,-3.81857 c -2.94884,-4.85118 -3.61714,-5.28463 -8.17672,-5.30325 -3.66459,-0.015 -5.21712,1.95993 -2.74289,3.48909 0.55391,0.34233 1.71608,1.99342 2.5826,3.66908 1.14512,2.21442 1.21514,2.82395 0.25633,2.23137 -0.72553,-0.4484 -4.9252,-0.77442 -9.33259,-0.72448 -5.22109,0.0592 -7.1423,-0.18305 -5.51345,-0.6951 1.375,-0.43225 2.07649,-0.83077 1.55887,-0.88559 -0.51762,-0.0548 -0.243,-0.66218 0.61026,-1.34968 0.85327,-0.6875 1.81229,-2.00398 2.13116,-2.92551 0.5266,-1.52183 0.0665,-1.49891 -5.01681,0.25 -4.85235,1.66946 -10.37225,2.73159 -6.28348,1.20906 0.825,-0.3072 3.89375,-1.4407 6.81945,-2.51888 4.20915,-1.55117 5.17573,-2.30518 4.63089,-3.6125 -0.37871,-0.90869 -0.70996,-2.16384 -0.73612,-2.78922 -0.0625,-1.49405 -2.40599,-1.11139 -3.97434,0.64894 -1.05155,1.18027 -0.97407,1.19051 0.51012,0.0674 1.01539,-0.76834 1.75,-0.89072 1.75,-0.29153 0,0.56797 -3.4875,2.83482 -7.75,5.03744 -4.2625,2.20262 -9.05232,4.68698 -10.64404,5.52081 l -2.89404,1.51605 3.39404,0.42562 c 2.68904,0.33722 2.56318,0.38418 -0.60596,0.22607 -2.2,-0.10975 -5.620883,0.42695 -7.601961,1.19267 -1.981079,0.76573 -4.006079,1.28087 -4.5,1.14476 -0.493922,-0.13611 -1.851102,0.0781 -3.015957,0.47612 -1.164855,0.39798 -3.414855,0.19668 -5,-0.44733 -1.585145,-0.64401 -6.584952,-1.16403 -11.110681,-1.15559 -4.525729,0.008 -7.997335,-0.35885 -7.71468,-0.8162 0.537237,-0.86926 -7.465743,-5.47404 -8.854191,-5.09454 -0.438609,0.11988 -0.663609,-0.57665 -0.5,-1.54786 0.233832,-1.38806 -0.397799,-1.76375 -2.95253,-1.75615 -3.511538,0.0104 -3.724855,-0.22749 -2.25,-2.50967 0.64625,-1 0.974479,-1.08333 0.984687,-0.25 0.0084,0.6875 0.780313,1.25 1.715313,1.25 2.388289,0 0.602322,-1.56072 -3.970703,-3.46991 l -3.770704,-1.57423 -2.227615,3.77207 c -1.225189,2.07464 -2.130101,4.06688 -2.010916,4.42721 0.119186,0.36033 -0.454483,0.91271 -1.27482,1.2275 -1.180991,0.45319 -1.285831,0.18802 -0.503565,-1.27366 0.543376,-1.01531 0.666288,-2.20233 0.273139,-2.63782 -0.393149,-0.4355 -0.253959,-0.53093 0.309312,-0.21207 0.56327,0.31886 2.070347,-1.2381 3.34906,-3.45991 1.278714,-2.22181 1.826329,-3.73151 1.216924,-3.35487 -1.486114,0.91847 -5.270248,-0.34383 -4.545616,-1.51631 0.315446,-0.5104 -0.0977,-0.928 -0.918091,-0.928 -1.38078,0 -3.27924,3.5287 -2.82453,5.25 0.108969,0.4125 -0.364375,0.6375 -1.051875,0.5 -0.6875,-0.1375 -1.147628,0.28211 -1.022508,0.93248 0.134609,0.69968 -1.090265,1.21695 -3,1.26691 -1.77512,0.0464 -4.127492,0.10376 -5.227492,0.12738 -1.776345,0.0382 -1.720431,0.20003 0.5,1.44765 1.375,0.77259 1.9375,1.42066 1.25,1.44014 -0.6875,0.0195 -1.25,0.56388 -1.25,1.20975 0,0.64588 1.067215,0.17172 2.371589,-1.05367 l 2.37159,-2.228 -0.470832,2.463 c -0.258958,1.35465 -1.320755,2.68526 -2.359549,2.95691 -1.993077,0.5212 -4.322821,5.215 -3.360935,6.77137 C 25.863257,197.58776 26.766476,198 27.559017,198 28.351558,198 29,198.44956 29,198.99903 c 0,0.62225 -5.478479,0.97663 -14.526127,0.93964 l -14.5261275,-0.0594 0.35506489,-2.65136 z m 15.02953461,-0.4888 c -0.580284,-0.95192 -6.3172638,-0.57254 -6.9553823,0.45996 -0.2590444,0.41914 1.3043038,0.65832 3.4741073,0.5315 2.169803,-0.12682 3.736377,-0.57297 3.481275,-0.99146 z m 78.34599,-3.5896 c 4.934932,-3.70804 5.678147,-5.66362 2.142244,-5.63677 -0.923681,0.007 -2.048681,0.41667 -2.5,0.91033 -0.478066,0.52292 -0.234332,0.55746 0.583929,0.0827 0.974449,-0.56534 1.173127,-0.44045 0.64885,0.40785 -0.415613,0.67247 -1.408513,0.97215 -2.206446,0.66596 -0.918805,-0.35258 -1.191061,-0.13647 -0.742478,0.58935 0.481775,0.77953 0.01821,0.9656 -1.449442,0.5818 -1.186764,-0.31034 -1.905573,-0.15623 -1.597355,0.34248 0.485567,0.78566 -6.222455,1.49199 -9.057637,0.95373 -1.650296,-0.31331 0.691321,1.66792 4,3.38437 4.11753,2.13606 4.375677,2.07819 10.178335,-2.28184 z m 3.27723,1.16905 c 1.320318,-0.92479 5.807945,-3.34851 9.972505,-5.38604 8.06669,-3.94668 15.66761,-10.15969 14.58072,-11.91831 -0.3616,-0.58508 -0.0615,-0.94012 0.66688,-0.789 0.72838,0.15113 1.18808,-0.35898 1.02154,-1.13358 -0.16653,-0.7746 0.10021,-1.6746 0.59276,-2 0.49254,-0.3254 1.19067,-2.16664 1.55138,-4.09164 0.75821,-4.04625 -0.0131,-3.20208 -3.91735,4.28749 -1.37263,2.63312 -2.22111,5.23177 -1.88552,5.77478 0.3356,0.54301 0.15849,0.86363 -0.39357,0.71251 -0.55206,-0.15113 -1.69991,0.62522 -2.55077,1.72522 -0.85087,1.1 0.47301,-2.05 2.94194,-7 2.46894,-4.95 4.90629,-9.51455 5.41634,-10.14344 0.51004,-0.6289 0.72336,-1.34745 0.47403,-1.59678 -0.24933,-0.24933 -0.6779,-5.13478 -0.95236,-10.85655 -0.27446,-5.72178 -0.63611,-12.95795 -0.80365,-16.08038 -0.16754,-3.12243 -0.89203,-6.38493 -1.60998,-7.25 C 121.34252,127.70778 121.09031,127 121.5,127 c 0.40969,0 0.18469,-0.675 -0.5,-1.5 -0.68469,-0.825 -0.88635,-1.5 -0.44813,-1.5 1.30452,0 -3.76131,-4.96632 -7.29104,-7.14782 -1.80031,-1.11265 -3.03288,-2.41199 -2.73905,-2.88742 0.29383,-0.47543 -0.34878,-1.33699 -1.42803,-1.91459 -2.97366,-1.59145 -3.95709,-1.187 -1.09375,0.44983 2.93473,1.67764 2.2245,1.91605 -1.49507,0.50187 -1.44391,-0.54897 -2.3606,-1.42639 -2.0371,-1.94982 0.69472,-1.12407 -2.481,-3.02261 -4.536487,-2.71206 -0.787238,0.11894 -2.063372,0.61063 -2.835851,1.09264 -0.918179,0.57293 -1.177399,0.50892 -0.748621,-0.18486 1.050635,-1.69997 -3.576453,-0.21564 -5.921058,1.89941 -1.140803,1.02911 -2.341844,1.60346 -2.66898,1.27632 -0.327136,-0.32714 -1.10383,0.35635 -1.725986,1.51886 -0.622156,1.16251 -1.464252,1.90782 -1.871323,1.65623 -0.987673,-0.61041 -0.84587,5.56149 0.164307,7.15141 0.436812,0.6875 0.456264,1.8125 0.04323,2.5 -0.562942,0.93702 -0.349625,0.92486 0.851955,-0.0486 1.235525,-1.00092 1.773355,-1.0228 2.346467,-0.0955 0.471383,0.76271 0.320957,0.9419 -0.410973,0.48954 C 86.519529,125.20305 86,125.35852 86,125.94098 c 0,0.58246 0.5625,1.09455 1.25,1.13797 1,0.0632 1,0.17982 0,0.58333 -1.902464,0.76766 -1.502151,1.9018 1.087792,3.08186 1.99635,0.9096 2.799643,0.63353 5.5,-1.89017 C 95.577006,127.22853 97,126.42654 97,127.07176 c 0,0.84671 0.433067,0.81372 1.556424,-0.11859 0.856034,-0.71044 1.459596,-0.87804 1.341242,-0.37244 -0.118351,0.5056 0.04125,1.59427 0.354664,2.41927 1.26117,3.31977 1.50491,6 0.54564,6 -0.59187,0 -0.74453,1.0768 -0.3663,2.58379 0.45492,1.81254 0.30606,2.37215 -0.498722,1.87477 -0.772091,-0.47718 -0.950168,-0.0882 -0.544599,1.18966 0.331439,1.04427 -0.552982,5.93812 -1.965381,10.87523 -1.412399,4.9371 -3.038508,10.65776 -3.613576,12.71258 -0.599493,2.1421 -1.487753,3.46275 -2.081993,3.09549 -0.602833,-0.37257 -0.7356,-0.15381 -0.31736,0.52292 0.829404,1.342 -0.217272,5.3825 -1.232035,4.75604 -0.372902,-0.23021 -0.736962,0.56787 -0.809021,1.77351 -0.07206,1.20565 -1.123155,4.49837 -2.335768,7.31716 -1.64147,3.8157 -2.885425,5.30417 -4.868984,5.82603 -5.355392,1.40898 -13.189775,1.37509 -17.299274,-0.0748 -2.297314,-0.81054 -4.362135,-1.28851 -4.588489,-1.06215 -0.611641,0.61164 8.039295,8.5557 9.348688,8.5848 0.618837,0.0138 4.469674,-1.49915 8.557418,-3.36199 l 7.43226,-3.38699 4.250713,-9.65431 C 97.160608,162.00302 101.20386,149.83828 102.51963,140.5 c 0.89206,-6.33109 1.29958,-7.72218 1.37424,-4.69098 0.0704,2.85825 0.4764,4.08017 1.2059,3.62932 0.75668,-0.46766 0.82675,-0.0961 0.2246,1.19098 -0.7851,1.67814 -0.9315,4.00236 -0.33831,5.37068 0.11922,0.275 0.3683,7.475 0.55351,16 0.44465,20.46643 0.75862,21.73252 4.91916,19.83685 1.86565,-0.85005 2.75188,-2.57539 4.05572,-7.89582 1.23387,-5.0349 2.03528,-6.66731 3.07698,-6.26757 0.77471,0.29728 1.40857,0.96893 1.40857,1.49255 0,0.52361 -0.51953,0.63094 -1.15451,0.2385 -0.69675,-0.43062 -0.88378,-0.27549 -0.47172,0.39125 0.37554,0.60763 -0.42341,3.82716 -1.77543,7.15451 -1.61742,3.98049 -2.05464,6.07187 -1.27828,6.11446 0.64897,0.0356 -2.19506,1.75068 -6.32006,3.81129 -10.334722,5.16261 -16,8.25194 -16,8.72495 0,0.96988 2.759501,0.25578 4.955565,-1.2824 z m 11.669295,-22.5166 C 107.44487,154.41234 107.19608,135 108.15319,135 c 0.53067,0 0.70595,-0.41891 0.38952,-0.9309 -0.31644,-0.512 -0.11065,-1.21809 0.45729,-1.5691 0.56794,-0.35101 0.73075,-1.12663 0.3618,-1.72361 -0.38691,-0.62604 -0.20822,-0.79951 0.42222,-0.40987 1.2434,0.76846 0.7743,4.47516 -0.76061,6.01007 -1.60753,1.60753 -1.19548,3.0111 0.47659,1.62341 1.2405,-1.02952 1.51787,-0.92096 1.60327,0.62756 0.53513,9.70273 1.18937,12.37244 3.03201,12.37244 0.65893,0 0.90505,-0.29301 0.54693,-0.65112 -0.35812,-0.35812 0.12938,-1.29149 1.08333,-2.07416 0.95395,-0.78267 1.08346,-1.08341 0.28779,-0.66831 -0.84864,0.44273 -0.51246,-0.55725 0.81324,-2.41902 1.24294,-1.74556 1.93692,-3.69634 1.54216,-4.33507 -0.42823,-0.69289 -0.28258,-0.89239 0.36108,-0.49459 0.59335,0.36672 1.28568,-0.12625 1.53851,-1.09549 0.25282,-0.96923 0.51188,0.40182 0.57568,3.04678 0.0638,2.64496 0.5265,4.55531 1.02822,4.24523 1.37666,-0.85082 0.70148,1.99672 -0.95605,4.0321 -1.30203,1.59884 -1.27432,1.71999 0.2618,1.14455 0.94489,-0.35395 2.02692,-0.14368 2.40451,0.46728 0.42032,0.68009 0.2303,0.82887 -0.49003,0.38368 -1.37538,-0.85003 -4.68058,5.90848 -9.03502,18.47487 -1.59681,4.60821 -3.35463,8.529 -3.90626,8.71288 -0.58863,0.19621 -1.2357,-3.09533 -1.56631,-7.96764 z M 110,141.44098 c 0,-0.85746 -0.45734,-1.27636 -1.01631,-0.9309 -0.55897,0.34546 -0.75742,1.04702 -0.44098,1.55902 0.85723,1.38704 1.45729,1.12841 1.45729,-0.62812 z m 7.22088,24.39639 c 0.21314,-0.63944 1.11949,-1.27005 2.01409,-1.40135 1.03374,-0.15172 1.43056,0.27201 1.0888,1.16263 -0.64403,1.67831 -3.6601,1.91035 -3.10289,0.23872 z M 110.87244,129.25 c -1.24387,-1.58606 -1.2085,-1.62143 0.37756,-0.37756 0.9625,0.75485 1.75,1.54235 1.75,1.75 0,0.82304 -0.82119,0.29331 -2.12756,-1.37244 z m -26.426291,-7.33713 c -0.369536,-0.59793 -0.221884,-1.53713 0.328116,-2.08713 0.666666,-0.66667 1.223961,-0.63763 1.671884,0.0871 C 86.815686,120.51079 86.614919,121 86,121 c -0.614919,0 -0.839919,0.45 -0.5,1 0.339919,0.55 0.393034,1 0.118034,1 -0.275,0 -0.802348,-0.48921 -1.171885,-1.08713 z m 1.310082,-4.57723 c 0.690926,-0.27855 1.021086,-0.88693 0.733688,-1.35195 -0.287399,-0.46502 0.0473,-1.17373 0.743769,-1.57492 0.696472,-0.40118 0.932716,-0.36118 0.524988,0.0889 -0.407728,0.45007 -0.240128,1.42222 0.372445,2.16032 0.88022,1.0606 0.616287,1.32546 -1.258676,1.26306 -1.304845,-0.0434 -1.807141,-0.30685 -1.116214,-0.58541 z m 3.514602,-1.93981 c 0.332292,-0.33229 1.194792,-0.36781 1.916667,-0.0789 0.797733,0.31922 0.560776,0.55618 -0.604167,0.60416 -1.054166,0.0434 -1.644791,-0.19292 -1.3125,-0.52522 z M 99,110.60699 c 0,-0.94863 2.99338,-1.42672 3.52699,-0.56332 C 102.85207,110.56965 102.19148,111 101.05902,111 99.926558,111 99,110.82314 99,110.60699 z m -85,83.33399 c 0,-0.58246 -0.45,-0.7809 -1,-0.44098 -0.55,0.33992 -1,0.81648 -1,1.05902 0,0.24254 0.45,0.44098 1,0.44098 0.55,0 1,-0.47656 1,-1.05902 z M 24.127555,193.25 C 25.371426,191.66394 25.336056,191.62857 23.75,192.87244 22.42214,193.91382 22,193.94459 22,193 c 0,-0.94293 -0.410405,-0.91199 -1.691958,0.12756 -0.930578,0.75484 -1.413616,0.90637 -1.073419,0.33673 0.340196,-0.56965 -0.23728,-1.03572 -1.283282,-1.03572 -1.046002,0 -2.12384,0.57857 -2.395197,1.28572 -0.797209,2.07749 6.905213,1.66027 8.571411,-0.46429 z m 129.886965,-1.73502 c -1.8578,-1.91676 -3.0892,-3.77363 -2.73645,-4.12638 0.35275,-0.35275 2.30831,1.21551 4.34569,3.48502 5.15551,5.7429 8.91446,5.19521 4.78705,-0.69749 -0.87406,-1.24789 -1.37514,-2.8267 -1.11353,-3.50846 0.57233,-1.49145 -5.59688,-1.13239 -8.97023,0.52208 -1.19513,0.58616 -3.33263,0.77468 -4.75,0.41894 -3.12028,-0.78314 -3.20571,-0.22746 -0.49714,3.23358 1.53274,1.95854 3.30852,2.81371 6.75,3.25063 2.56855,0.32609 4.87087,0.66359 5.11626,0.75 0.24539,0.0864 -1.07385,-1.41116 -2.93165,-3.32792 z m -23.51721,-3.14229 c 0.22515,-1.57998 0.16693,-2.30739 -0.12938,-1.61646 -0.29631,0.69093 -1.06282,0.96241 -1.70334,0.6033 -0.87376,-0.48988 -0.87195,-0.33614 0.007,0.61562 0.64452,0.69771 0.91032,2.00123 0.59067,2.89671 -0.31966,0.89547 -0.2647,1.34585 0.12211,1.00083 0.38682,-0.34501 0.88752,-1.92001 1.11267,-3.5 z M 7.3688549,189.32281 c 1.7221298,-0.22673 4.3464221,-0.50462 5.8317611,-0.61753 1.485339,-0.1129 3.262839,-0.76778 3.95,-1.45528 0.999419,-0.99991 0.259033,-1.27321 -3.700616,-1.366 -2.7225,-0.0638 -4.1625,-0.3218 -3.2,-0.57333 0.9625,-0.25152 1.75,-0.92942 1.75,-1.50644 0,-0.69857 0.417672,-0.71961 1.25,-0.063 2.090429,1.64916 4.608417,1.11986 4.221842,-0.88746 -0.192021,-0.99709 -0.03924,-1.7688 0.339514,-1.71492 2.556187,0.36366 3.119253,-0.50613 0.688644,-1.06377 -2.553056,-0.58573 -3.722908,-0.0839 -7.85234,3.36832 -8.1728081,6.83251 -9.1982377,7.75671 -7.7788051,7.01088 0.7528701,-0.39558 2.7778701,-0.90476 4.5,-1.13149 z m 17.2978121,-2.05872 c 0,-1.66903 -4.120487,-1.62712 -5.517449,0.0561 -0.871124,1.04964 -0.418022,1.30871 2.210889,1.26409 1.968643,-0.0334 3.30656,-0.56759 3.30656,-1.3202 z m 53.488321,-0.0891 c 2.024106,-0.16437 2.054341,-0.28621 0.497818,-2.00615 -0.911443,-1.00713 -1.431188,-2.13213 -1.154988,-2.5 0.2762,-0.36787 0.206086,-0.44775 -0.155809,-0.17753 -0.361895,0.27023 -1.348276,-0.0673 -2.191958,-0.75 -1.073272,-0.86851 -1.321253,-0.88666 -0.825698,-0.0604 0.389549,0.6495 0.220252,1.48252 -0.376215,1.85115 -0.596467,0.36864 -0.840357,1.30644 -0.541978,2.084 0.402221,1.04817 -0.102597,1.29678 -1.9522,0.96138 -1.372089,-0.24881 -2.275699,-0.098 -2.008022,0.3351 0.441148,0.71379 2.417829,0.77336 8.70905,0.26247 z m -3.584771,-1.06139 c -1.311076,-2.12136 0.931941,-3.42336 2.522165,-1.46403 0.77419,0.95388 0.883553,1.42015 0.243028,1.03615 -0.640524,-0.38401 -1.345636,-0.15505 -1.566915,0.50879 -0.30443,0.91328 -0.596001,0.8936 -1.198278,-0.0809 z M 21,182.88197 c 0,-0.55 -0.45,-0.72189 -1,-0.38197 -0.55,0.33992 -1,1.06803 -1,1.61803 0,0.55 0.45,0.72189 1,0.38197 0.55,-0.33992 1,-1.06803 1,-1.61803 z m 113.2503,1.29388 c -0.81727,-0.51893 1.19219,-1.9249 5.80717,-4.06311 4.41051,-2.04348 7.37408,-4.08395 7.90274,-5.44117 0.9605,-2.46585 3.07661,-31.6246 3.05444,-42.08824 -0.008,-3.80416 0.25353,-6.64848 0.58131,-6.3207 1.10743,1.10743 1.45103,20.0903 0.37567,20.75491 -1.68043,1.03856 -0.032,22.74533 1.78014,23.4407 1.25338,0.48097 1.40763,-2.22636 1.10272,-19.3547 -0.19497,-10.95263 -0.0737,-19.45924 0.26951,-18.90356 0.34321,0.55568 0.39437,-2.19918 0.1137,-6.1219 l -0.51031,-7.13222 2.85353,1.08491 c 3.68267,1.40014 5.53964,2.96515 4.84738,4.08524 -0.60229,0.97453 -4.48387,-0.74982 -5.66299,-2.51571 -0.45768,-0.68545 -0.74046,-0.71279 -0.75,-0.0725 -0.0178,1.19171 3.60921,4.51439 4.23964,3.88396 0.23319,-0.23319 1.24096,0.47878 2.2395,1.58215 0.99854,1.10337 2.39842,2.00613 3.11085,2.00613 0.71242,0 1.754,0.7875 2.3146,1.75 0.56061,0.9625 1.03297,1.2775 1.04969,0.7 0.0167,-0.5775 -0.50959,-1.59 -1.16959,-2.25 -0.93333,-0.93333 -0.74427,-1.2 0.85078,-1.2 3.14731,0 8.41471,2.08501 7.7961,3.08596 -0.30292,0.49012 0.26012,0.58703 1.25118,0.21535 1.63805,-0.61431 1.66551,-0.5077 0.30194,1.17211 -1.39775,1.72192 -1.36366,1.76175 0.5,0.58422 2.48872,-1.57246 13.09995,-16.70606 12.72522,-18.14856 -0.15112,-0.58176 0.0739,-0.84566 0.5,-0.58644 0.42613,0.25921 1.54658,-0.55868 2.4899,-1.81754 1.70057,-2.26941 1.67512,-2.30602 -3,-4.31613 -5.18741,-2.23038 -9.36756,-3.41844 -12.60367,-3.58215 C 177.20227,104.53553 176.5,103.8348 176.5,102.5 c 0,-2.969284 -3.3174,-4.387621 -8.81344,-3.768138 -4.52679,0.510235 -5.00051,0.854999 -8.3331,6.064678 -2.51922,3.93817 -3.41382,6.33884 -3.11665,8.36357 0.22924,1.56194 0.0447,2.83989 -0.41,2.83989 C 155.37206,116 155,113.075 155,109.5 c 0,-3.66667 -0.4359,-6.5 -1,-6.5 -0.55,0 -1,1.125 -1,2.5 0,1.55556 -0.56667,2.5 -1.5,2.5 -0.825,0 -1.5,0.49814 -1.5,1.10699 0,0.60884 0.62213,0.86825 1.38251,0.57647 1.04581,-0.40132 1.50037,0.85124 1.86645,5.14301 0.26617,3.12044 0.11932,5.8151 -0.32633,5.98814 -0.44565,0.17303 -0.56348,1.07303 -0.26185,2 0.30163,0.92696 -0.34858,0.33539 -1.44491,-1.31461 -1.67562,-2.52183 -1.77199,-3.17696 -0.60461,-4.11024 0.76381,-0.61064 1.3355,-2.41064 1.27043,-4 L 151.76337,110.5 151,113.5 l -0.76337,3 -0.29801,-3.5 c -0.16391,-1.925 -0.19194,-5.0084 -0.0623,-6.852 0.16813,-2.39093 -0.13875,-3.22323 -1.0703,-2.90288 -0.89193,0.30673 -1.30601,2.47919 -1.30601,6.852 0,3.61283 -0.43575,6.39575 -1,6.38652 -1.77327,-0.029 -8.93111,-2.74208 -11.30023,-4.28318 -1.26512,-0.82297 -2.07295,-2.08857 -1.79517,-2.81245 0.27778,-0.72388 -0.71829,-2.18725 -2.21349,-3.25193 -2.77747,-1.97773 -5.39451,-2.42907 -13.00013,-2.24204 -5.84206,0.14366 -4.41627,2.10596 1.53018,2.10596 5.00682,0 15.54285,5.07046 12.02884,5.78887 -2.46823,0.50462 -2.17291,1.69741 0.75,3.02918 1.38161,0.6295 2.5,0.72458 2.5,0.21253 0,-0.52796 1.38653,-0.44319 3.22315,0.19706 1.77273,0.61797 2.69801,1.29864 2.05618,1.51258 -0.64184,0.21395 -0.9201,1.03234 -0.61837,1.81864 0.30174,0.78631 1.02099,1.13771 1.59833,0.78089 0.6334,-0.39146 0.75043,-0.16449 0.29508,0.57227 -0.41505,0.67157 -0.98463,0.99106 -1.26572,0.70996 -1.09905,-1.09905 -5.29432,5.19966 -4.625,6.94389 0.41053,1.06983 0.28203,1.51859 -0.32704,1.14216 -0.5518,-0.34103 -1.00328,0.0154 -1.00328,0.79197 0,0.77661 0.32785,1.2094 0.72855,0.96175 0.4007,-0.24764 0.98105,0.20774 1.28966,1.01197 0.30861,0.80423 0.10891,1.7417 -0.44377,2.08328 -0.64209,0.39684 -0.53607,1.19976 0.29367,2.22399 0.97342,1.20158 0.98558,1.41489 0.0486,0.85195 -1.2829,-0.77074 -1.45848,-0.29901 -1.69089,4.54299 -0.0707,1.47177 0.2233,2.45855 0.6532,2.19286 0.90349,-0.55839 -0.46513,3.28565 -2.72735,7.6603 -1.11839,2.16273 -1.27466,3.50409 -0.55258,4.74321 0.88333,1.51582 1.01053,1.5295 1.03721,0.11159 0.0258,-1.37386 8.52977,-20.47614 9.72934,-21.85493 0.2254,-0.25907 0.83442,0.19093 1.35337,1 1.27782,1.99215 0.9565,13.09451 -0.3555,12.28365 -0.62518,-0.38638 -0.68686,-0.10554 -0.16298,0.74212 0.88344,1.42943 0.79503,7.6682 -0.20471,14.44527 -0.32454,2.2 -0.63898,6.1375 -0.69875,8.75 -0.0598,2.6125 -0.4992,4.75 -0.97651,4.75 -0.4773,0 -0.61996,-0.64593 -0.31702,-1.43539 0.30295,-0.78947 0.0437,-1.60443 -0.57611,-1.81104 -0.61981,-0.2066 -1.15703,-1.92317 -1.19382,-3.8146 -0.0541,-2.78018 -0.49792,-3.50019 -2.3169,-3.75852 -1.32945,-0.18881 -2.25,0.20495 -2.25,0.96243 0,0.7051 -1.14018,2.19889 -2.53374,3.31956 -2.11096,1.69758 -2.42436,2.57714 -1.87824,5.27133 0.37587,1.8543 1.09604,2.96149 1.68824,2.59549 0.61129,-0.3778 0.72932,-0.14731 0.28922,0.56479 -0.56017,0.90638 -1.0832,0.92117 -2.12089,0.06 -0.75754,-0.62871 -1.95498,-0.91108 -2.66097,-0.62751 -0.85503,0.34344 -0.73825,0.54196 0.34975,0.59454 2.32109,0.11219 3.06058,3.83759 1.02363,5.15681 -1.40955,0.91289 -1.41946,1.00102 -0.0663,0.59017 0.87488,-0.26565 2.22488,-0.0815 3,0.40918 0.77513,0.49069 1.85932,0.89216 2.40932,0.89216 0.55,0 0.43763,-0.35708 -0.2497,-0.79352 z m 1.24249,-7.79515 c 0.1948,-1.03439 0.44487,-1.9932 0.5557,-2.1307 0.11083,-0.1375 0.25776,-0.6625 0.32651,-1.16667 0.30025,-2.20185 1.30475,-1.87008 1.18396,0.39104 -0.0735,1.37512 -0.64808,3.01475 -1.27696,3.64363 -0.85786,0.85786 -1.05495,0.67374 -0.78921,-0.7373 z M 152.19495,150.5 c -0.0204,-1.65 0.18706,-2.44606 0.46099,-1.76903 0.27392,0.67703 0.29059,2.02703 0.0371,3 -0.25354,0.97297 -0.47766,0.41903 -0.49804,-1.23097 z m -15.16432,-11 c 0,-0.55 0.43621,-1.675 0.96937,-2.5 0.53316,-0.825 0.96937,-1.05 0.96937,-0.5 0,0.55 -0.43621,1.675 -0.96937,2.5 -0.53316,0.825 -0.96937,1.05 -0.96937,0.5 z m 3.04832,-8.91667 c -0.0434,-1.05416 0.19292,-1.64479 0.52522,-1.3125 0.33229,0.3323 0.36781,1.19479 0.0789,1.91667 -0.31922,0.79773 -0.55618,0.56078 -0.60416,-0.60417 z M 136.88158,130.25 c -0.0651,-0.4125 -0.0225,-1.2 0.0948,-1.75 0.11729,-0.55 0.38147,-1.84839 0.58706,-2.88531 0.2056,-1.03692 0.67444,-2.16192 1.04188,-2.5 0.36743,-0.33808 0.36345,0.73531 -0.009,2.38531 -0.3723,1.65 -0.73382,3.5625 -0.80337,4.25 -0.13865,1.37048 -0.72346,1.69126 -0.91155,0.5 z m 16.19737,-2.66667 c -0.0434,-1.05416 0.19292,-1.64479 0.52522,-1.3125 0.33229,0.3323 0.36781,1.1948 0.0789,1.91667 -0.31922,0.79773 -0.55618,0.56078 -0.60416,-0.60417 z m 9.99494,-0.9943 c -0.64406,-0.77604 -0.80669,-1.63613 -0.36142,-1.91133 1.07277,-0.66301 4.44272,1.83378 3.60532,2.67118 -1.00582,1.00582 -1.96499,0.78115 -3.2439,-0.75985 z m 4.46882,-1.51993 c -0.31644,-0.512 -0.0485,-1.25653 0.59549,-1.65451 0.69784,-0.43129 0.9039,-0.29172 0.51008,0.34549 -0.36341,0.58801 -0.0954,1.29701 0.59549,1.57556 0.89914,0.3625 0.91769,0.52891 0.0652,0.58541 -0.65504,0.0434 -1.44988,-0.33996 -1.76631,-0.85195 z m 11.19062,-2.19319 c 0.67834,-0.68342 1.48524,-0.99067 1.79313,-0.68278 0.30789,0.30789 -0.24711,0.86705 -1.23333,1.24258 -1.4252,0.54268 -1.54006,0.42782 -0.5598,-0.5598 z m -14.78488,-1.71657 c -1.5911,-1.28839 -1.91694,-2.06078 -1.086,-2.57433 0.6529,-0.40352 1.06345,-0.28198 0.91233,0.27008 -0.15113,0.55206 0.62522,1.6962 1.72522,2.54252 1.1,0.84633 1.71235,1.55309 1.36078,1.57059 -0.35156,0.0175 -1.66211,-0.7965 -2.91233,-1.80886 z m 21.38488,-0.61535 c 0,-0.80081 0.38234,-1.21971 0.84965,-0.9309 0.4673,0.28881 0.59075,0.94401 0.27431,1.45601 -0.80862,1.30838 -1.12396,1.16106 -1.12396,-0.52511 z m -3.6,-1.66808 c 0.67834,-0.68342 1.48524,-0.99067 1.79313,-0.68278 0.30789,0.30789 -0.24711,0.86705 -1.23333,1.24258 -1.4252,0.54268 -1.54006,0.42782 -0.5598,-0.5598 z m -39.06666,-0.54258 c -1.45574,-1.45574 -0.54934,-2.3409 1.354,-1.32227 1.11136,0.59479 2.46136,0.80906 3,0.47617 0.53863,-0.3329 0.97933,-0.12871 0.97933,0.45375 0,1.15596 -4.25658,1.4691 -5.33333,0.39235 z m 22.77446,-0.8885 c -1.86402,-1.49339 -1.85176,-1.51185 0.30887,-0.46481 1.2375,0.59969 2.25,1.29951 2.25,1.55516 0,0.76522 -0.51861,0.54424 -2.55887,-1.09035 z M 165,115 c -0.825,-0.53316 -1.05,-0.96937 -0.5,-0.96937 0.55,0 1.675,0.43621 2.5,0.96937 0.825,0.53316 1.05,0.96937 0.5,0.96937 -0.55,0 -1.675,-0.43621 -2.5,-0.96937 z m 8.56429,-0.29313 c 0.37553,-0.98622 0.93469,-1.54122 1.24258,-1.23333 0.30789,0.30789 6.4e-4,1.11479 -0.68278,1.79313 -0.98762,0.98026 -1.10248,0.8654 -0.5598,-0.5598 z M 133,113 c 0,-0.55 0.19844,-1 0.44098,-1 0.24254,0 0.7191,0.45 1.05902,1 0.33992,0.55 0.14148,1 -0.44098,1 C 133.47656,114 133,113.55 133,113 z m 25,-0.38337 c 0,-0.21085 0.90062,-0.61888 2.00138,-0.90674 1.10076,-0.28785 1.7492,-0.11534 1.44098,0.38337 C 160.90411,112.96417 158,113.4057 158,112.61663 z m 19,-1.55761 C 177,110.47656 177.45,110 178,110 c 0.55,0 1,0.19844 1,0.44098 0,0.24254 -0.45,0.7191 -1,1.05902 -0.55,0.33992 -1,0.14148 -1,-0.44098 z m 0.0789,-3.47569 c -0.0434,-1.05416 0.19292,-1.64479 0.52522,-1.3125 0.33229,0.3323 0.36781,1.1948 0.0789,1.91667 -0.31922,0.79773 -0.55618,0.56078 -0.60416,-0.60417 z m -31.10791,75.37761 c -2.07778,-1.31403 0.5639,-1.2802 3.02843,0.0388 1.6493,0.88267 1.81469,0.6778 1.41272,-1.75 -0.34476,-2.08232 -0.21103,-2.38564 0.55096,-1.24972 0.55342,0.825 1.01312,2.2875 1.02154,3.25 0.0108,1.23017 0.8162,1.75 2.71148,1.75 l 2.69616,0 -3.37065,-3.47763 c -2.64695,-2.73096 -3.66542,-3.23301 -4.7435,-2.33827 -1.1153,0.92561 -1.12947,1.29374 -0.0755,1.96232 0.91278,0.57901 0.9443,0.82749 0.10635,0.83827 -2.19472,0.0282 -2.52255,-2.09037 -0.65698,-4.24559 l 1.84796,-2.13488 -3.5,2.14824 c -3.9294,2.41181 -5.15398,5.8487 -2.30847,6.47889 2.42706,0.53751 3.09289,-0.12359 1.27951,-1.27041 z M 28.637722,181.69561 C 29.020308,181.31302 30.328233,181 31.544222,181 c 1.215989,0 2.771089,-0.675 3.455778,-1.5 1.021222,-1.2305 0.947748,-1.5 -0.40894,-1.5 -0.909606,0 -1.917259,-0.68649 -2.239228,-1.52552 -0.449046,-1.1702 -0.905015,-1.26027 -1.957605,-0.3867 -0.754713,0.62636 -1.080014,1.65035 -0.722891,2.27553 0.357123,0.62518 0.276186,0.79821 -0.179859,0.38451 C 28.649602,177.98411 25,180.68075 25,182.0665 c 0,0.89592 2.640092,0.62674 3.637722,-0.37089 z M 31,178.5 c 0,-0.825 0.176855,-1.5 0.393011,-1.5 0.216156,0 0.652033,0.675 0.968615,1.5 0.316583,0.825 0.139728,1.5 -0.393011,1.5 C 31.435877,180 31,179.325 31,178.5 z m 34.562607,-1.44972 c -0.05309,-5.04567 -0.324602,-5.91063 -1.786837,-5.69244 -0.948327,0.14151 -2.073327,0.64103 -2.5,1.11005 -0.426674,0.46902 -0.202656,0.5225 0.497816,0.11884 0.983921,-0.56699 1.125432,0.19258 0.622191,3.33968 C 61.857975,179.28964 62.028243,180 63.372192,180 64.267486,180 65,180.675 65,181.5 c 0,0.825 0.140673,1.5 0.312607,1.5 0.171934,0 0.284434,-2.67738 0.25,-5.94972 z M 10.5,181 c 0.339919,-0.55 -0.05697,-1 -0.881966,-1 -0.825,0 -1.7781153,0.45 -2.118034,1 -0.3399187,0.55 0.056966,1 0.881966,1 0.825,0 1.778115,-0.45 2.118034,-1 z m 14.041119,-1.06653 c 1.07627,-1.74144 -0.149522,-2.11024 -1.521063,-0.45764 C 22.231307,180.42622 22.155445,181 22.818538,181 c 0.584886,0 1.360047,-0.47994 1.722581,-1.06653 z M 59,179.99457 c 1.154567,-0.75032 0.883309,-0.92822 -1.177907,-0.77254 -1.472848,0.11124 -2.45879,0.55679 -2.190983,0.99011 0.637936,1.0322 1.534916,0.97427 3.36889,-0.21757 z M 21.5,178 c 2,-0.85943 2,-0.85943 0,-1.06136 C 20.324737,176.81999 20.94329,176.43292 23,176 l 3.5,-0.73672 -3.095012,-0.13164 C 21.452401,175.04859 19.64188,175.73824 18.5,177 c -1.983898,2.19218 -0.739584,2.60695 3,1 z M 11,177.15451 c -1.9224089,-0.44071 -1.3448178,-0.70706 2.5,-1.15287 l 5,-0.57975 -5.585743,-0.46094 c -4.3929623,-0.36252 -5.9784908,-0.0872 -7.4249654,1.28905 -1.7636963,1.67814 -1.6369829,1.74441 3.085743,1.61382 C 11.888234,177.7722 12.681839,177.54007 11,177.15451 z m 43.954896,-6.85028 C 54.930089,169.31191 54.268076,167.15 53.483757,165.5 l -1.426035,-3 0.19264,4 c 0.183273,3.80548 0.05602,3.99026 -2.616778,3.7997 -2.293524,-0.16352 -2.677845,0.11192 -2.092906,1.5 0.394083,0.93516 0.946067,2.76491 1.226632,4.0661 l 0.510119,2.36581 2.861285,-3.06157 c 1.573707,-1.68387 2.840989,-3.87348 2.816182,-4.86581 z m -18.461975,5.70722 c 0.350339,-0.56686 -0.05106,-0.7345 -0.940983,-0.39301 C 33.819521,176.28323 33.502551,177 34.940983,177 c 0.517541,0 1.215913,-0.44485 1.551938,-0.98855 z M 19,171.94098 C 19,171.42344 18.55,171 18,171 c -0.55,0 -1,0.70156 -1,1.55902 0,0.85746 0.45,1.2809 1,0.94098 0.55,-0.33992 1,-1.04148 1,-1.55902 z m 4.166426,-0.54472 c -0.582201,-3.30962 -1.833093,-3.58381 -1.833093,-0.40182 0,1.76584 0.458401,2.89968 1.083334,2.67959 0.595833,-0.20983 0.933225,-1.23483 0.749759,-2.27777 z m 5.079739,0.77041 c 0.28189,-1.07795 -0.05199,-1.83334 -0.810322,-1.83334 -0.709362,0 -1.505491,0.825 -1.769176,1.83334 -0.28189,1.07795 0.05198,1.83333 0.810321,1.83333 0.709362,0 1.505492,-0.825 1.769177,-1.83333 z M 32,173 c 0,-0.55 -0.675,-1 -1.5,-1 -0.825,0 -1.5,0.45 -1.5,1 0,0.55 0.675,1 1.5,1 0.825,0 1.5,-0.45 1.5,-1 z m 7.337866,-0.45629 c 1.010826,-0.76598 1.680604,-2.21417 1.488396,-3.2182 -0.283291,-1.47982 -1.672836,-1.95022 -7.337865,-2.4841 -7.900032,-0.7445 -12.806762,-2.55553 -17.403592,-6.4235 -6.541529,-5.50434 -6.551764,-5.566 -6.9070508,-41.6088 C 8.9035058,90.987406 8.6428496,86.199821 7.4277542,86.666097 6.2329675,87.12458 6,92.304357 6,118.41064 l 0,31.19667 2.5902311,5.19792 c 3.0810759,6.18291 8.1213629,10.6061 14.5000629,12.72476 5.281968,1.75439 12.444291,2.26743 15.409706,1.1038 1.769059,-0.69418 1.797927,-0.65487 0.25,0.34039 -0.9625,0.61886 -1.756891,1.89034 -1.765313,2.82551 -0.01182,1.31295 -0.207937,1.39644 -0.860836,0.36646 -0.680768,-1.07393 -0.963954,-1.02522 -1.453303,0.25 -0.770054,2.00673 2.084505,2.08475 4.667318,0.12756 z M 9.9846872,171.25 C 9.9762652,170.2875 9.5331559,168.825 9,168 8.264402,166.86174 8.0269327,167.28378 8.0153128,169.75 8.0068907,171.5375 8.45,173 9,173 c 0.55,0 0.9931093,-0.7875 0.9846872,-1.75 z M 16,172.10699 c 0,-0.49116 -0.6,-1.12325 -1.333333,-1.40466 -0.733334,-0.28141 -1.333334,0.12045 -1.333334,0.89301 0,0.77256 0.6,1.40466 1.333334,1.40466 C 15.4,173 16,172.59814 16,172.10699 z m 2,-4.22502 c 0,-0.55 -0.45,-0.72189 -1,-0.38197 -0.55,0.33992 -1,1.06803 -1,1.61803 0,0.55 0.45,0.72189 1,0.38197 0.55,-0.33992 1,-1.06803 1,-1.61803 z m 15.004015,-2.62371 c -4.349446,-0.52461 -6.715248,-2.19631 -4.801349,-3.39268 0.816932,-0.51066 0.186437,-0.75665 -1.702666,-0.66431 -3.620724,0.17699 -5.749912,-0.36087 -6.734687,-1.70127 -0.42238,-0.57491 -0.741197,-0.30767 -0.75,0.62868 -0.0087,0.92916 1.380563,2.15038 3.234687,2.84335 1.7875,0.66807 4.15,1.59221 5.25,2.05364 1.1,0.46143 3.575,0.79741 5.5,0.74661 l 3.5,-0.0923 -3.495985,-0.42167 z M 42.984687,164.75 C 42.993109,165.4375 43.45,166 44,166 c 0.55,0 1,-0.62686 1,-1.39301 0,-0.76616 0.675,-1.65203 1.5,-1.96862 0.825,-0.31658 1.493109,-1.37722 1.484687,-2.35699 -0.01137,-1.3228 -0.227818,-1.44635 -0.840809,-0.47994 -0.512878,0.80858 -0.778031,-0.0654 -0.700161,-2.30781 0.06894,-1.98509 0.559799,-3.92074 1.09081,-4.30144 0.53101,-0.38071 1.053519,-2.71719 1.161132,-5.19219 l 0.195659,-4.5 -0.917088,4.3881 c -1.36545,6.53342 -1.808744,6.06908 -1.764514,-1.8483 0.02189,-3.91799 -0.241345,-7.40476 -0.58496,-7.74838 C 45.28114,137.94781 45,138.91481 45,140.44032 c 0,1.80881 -0.434825,2.60632 -1.25,2.29262 -0.926277,-0.35646 -1.158495,0.84597 -0.89667,4.64301 0.194332,2.81823 0.05448,4.8342 -0.310776,4.47994 -0.365258,-0.35426 -0.846283,-4.80129 -1.068944,-9.88228 C 40.815826,126.96335 40,130.39197 40,148.16667 c 0,15.8927 0.445868,19.30884 2.166382,16.59836 0.634627,-0.99979 0.806203,-1.00294 0.818305,-0.015 z M 42.157895,155 c 0,-1.375 0.226973,-1.9375 0.504386,-1.25 0.277412,0.6875 0.277412,1.8125 0,2.5 -0.277413,0.6875 -0.504386,0.125 -0.504386,-1.25 z m 46.199154,6.66157 c 1.807671,-1.22672 3.083458,-2.84005 2.835081,-3.58518 -0.298384,-0.89515 -0.0159,-1.08551 0.832647,-0.56108 0.841976,0.52037 1.038518,0.39612 0.570715,-0.3608 C 92.203052,156.51953 92.368897,156 92.964036,156 c 0.633617,0 0.416544,-1.01572 -0.523776,-2.45083 -0.883216,-1.34796 -1.414415,-3.26046 -1.180444,-4.25 0.339389,-1.43539 0.665078,-1.21509 1.610772,1.08952 1.407167,3.4292 2.594953,2.96341 1.275023,-0.5 -0.50069,-1.31378 -3.024388,-3.90508 -5.608218,-5.75845 -3.74002,-2.6827 -4.936377,-3.11154 -5.867633,-2.1033 -0.91199,0.98739 -0.856861,1.08781 0.250179,0.45572 1.064056,-0.60755 1.254901,-0.38067 0.761454,0.90523 -0.426212,1.11069 -0.271996,1.47712 0.437195,1.03882 0.731042,-0.45181 0.8967,0.1133 0.497777,1.69806 -0.328847,1.30638 -0.339557,1.81273 -0.0238,1.12523 0.315757,-0.6875 1.01316,-1.25 1.549786,-1.25 0.536626,0 0.697569,0.45 0.35765,1 -0.339919,0.55 -0.114919,1 0.5,1 0.614919,0 0.835382,0.45734 0.489919,1.01631 -0.345464,0.55897 -1.11655,0.71444 -1.713526,0.34549 -0.653225,-0.40371 -0.797286,-0.20462 -0.361803,0.5 0.397984,0.64395 1.192824,0.88083 1.766312,0.5264 0.573488,-0.35444 1.435503,-0.0243 1.915589,0.73368 1.260156,1.98955 1.076659,3.6614 -0.206136,1.87812 -0.867354,-1.20575 -0.940641,-1.10767 -0.373601,0.5 1.600558,4.53789 1.22738,4.98568 -4.198001,5.03726 -2.849685,0.0271 -5.031029,-0.1952 -4.84743,-0.494 0.183598,-0.29879 -0.978747,-0.63815 -2.582991,-0.75412 -2.635136,-0.1905 -2.8127,-0.0163 -1.838747,1.80351 0.592932,1.1079 2.397723,2.81691 4.010646,3.79778 1.612924,0.98088 2.596704,2.14276 2.186178,2.58195 -1.048411,1.12162 3.187775,-1.14868 7.11064,-3.81081 z m -6.754043,-0.4949 c -0.283266,-0.45834 0.120382,-0.83334 0.896994,-0.83334 0.776612,0 1.18026,0.375 0.896994,0.83334 C 83.113729,161.625 82.710081,162 82.5,162 c -0.210081,0 -0.613729,-0.375 -0.896994,-0.83333 z M 9.8676294,160.75266 c -0.8376738,-1.5652 -1.3406401,-1.83363 -1.6570685,-0.88434 -0.2498817,0.74964 0.1630178,1.75405 0.9175544,2.23202 1.9983887,1.2659 2.0691967,1.13686 0.7395141,-1.34768 z m 8.5286266,-2.3429 c 0.335628,-0.87464 0.360401,-1.99448 0.05505,-2.48855 -0.305351,-0.49406 0.110356,-0.64291 0.923792,-0.33077 1.089093,0.41793 1.340249,0.037 0.952733,-1.44481 -0.449958,-1.72064 -0.869713,-1.85585 -2.89568,-0.93276 -1.303191,0.59377 -2.135177,1.45863 -1.848857,1.9219 0.286319,0.46328 -0.251612,0.546 -1.195402,0.18384 -1.288199,-0.49433 -1.511625,-0.30451 -0.896238,0.76145 2.434506,4.21698 3.911214,4.91842 4.904601,2.3297 z m -0.931206,-6.37741 c 2.240669,-1.47698 3.175417,-1.6586 3.826131,-0.74341 0.614425,0.86415 0.74557,0.78139 0.457831,-0.28894 -0.61448,-2.28573 -5.421759,-2.40258 -8.222073,-0.19985 -4.2765099,3.3639 -0.899021,4.42069 3.938111,1.2322 z M 167,142.88197 c 0,-0.55 -0.45,-0.72189 -1,-0.38197 -0.55,0.33992 -1,1.06803 -1,1.61803 0,0.55 0.45,0.72189 1,0.38197 0.55,-0.33992 1,-1.06803 1,-1.61803 z M 163.2,140.8 c -0.93333,-0.93333 -1.2,-0.66667 -1.2,1.2 0,1.86667 0.26667,2.13333 1.2,1.2 0.93333,-0.93333 0.93333,-1.46667 0,-2.4 z M 42.655937,136.73097 c -0.273923,-0.67703 -0.481368,0.11903 -0.460988,1.76903 0.02038,1.65 0.244498,2.20394 0.498042,1.23097 0.253543,-0.97297 0.236869,-2.32297 -0.03705,-3 z m 127.107693,1.20653 c 0.32862,-1.21553 0.2381,-1.22207 -0.58622,-0.0423 -0.7952,1.13803 -1.06429,1.04589 -1.46013,-0.5 -0.39833,-1.5556 -0.50606,-1.4771 -0.60128,0.43818 -0.12455,2.50533 1.97613,2.58797 2.64763,0.10417 z m 14.58571,0.59453 c 0.30982,-0.80739 0.22638,-1.67622 -0.18543,-1.93073 -0.41181,-0.25451 -0.81419,0.40608 -0.89418,1.46798 -0.17299,2.29656 0.29838,2.4986 1.07961,0.46275 z m 8.22266,-3.92785 C 192.82675,132.5502 192.58482,131 192.00951,131 191.45428,131 191,132.875 191,135.16667 c 0,4.91245 0.9344,4.57811 1.572,-0.56249 z m 0.36886,-8.82999 c 3.42207,-5.48865 2.33121,-7.54011 -1.22588,-2.30538 -1.31575,1.93631 -2.78755,3.18545 -3.27066,2.77587 -0.48311,-0.40957 -0.29133,0.0239 0.42618,0.96325 1.11164,1.45536 0.95889,2.06479 -1.03297,4.12121 -1.28564,1.32731 -2.45511,3.03374 -2.59881,3.79207 -0.35059,1.85005 4.0525,-3.49336 7.70214,-9.34702 z M 17,131 c 0,-0.55 -0.476558,-1 -1.059017,-1 -0.582459,0 -0.780902,0.45 -0.440983,1 0.339919,0.55 0.816476,1 1.059017,1 C 16.801558,132 17,131.55 17,131 z m 23.604167,-3.72917 c -0.332292,-0.33229 -0.568641,0.25834 -0.52522,1.3125 0.04798,1.16495 0.284941,1.4019 0.604167,0.60417 0.288871,-0.72188 0.253344,-1.58437 -0.07895,-1.91667 z m 156.843043,-9.35624 c -0.32197,-0.52097 -1.01165,-0.68378 -1.53262,-0.3618 -0.52097,0.32197 -0.68378,1.01165 -0.3618,1.53262 0.32197,0.52097 1.01165,0.68378 1.53262,0.3618 0.52097,-0.32197 0.68378,-1.01165 0.3618,-1.53262 z M 44.984687,104.75 C 44.972305,102.93056 44.783874,102.78704 44,104 c -1.252922,1.93876 -1.252922,3 0,3 0.55,0 0.993109,-1.0125 0.984687,-2.25 z m 106.677593,-1 c -0.27741,-0.6875 -0.50439,-0.125 -0.50439,1.25 0,1.375 0.22698,1.9375 0.50439,1.25 0.27741,-0.6875 0.27741,-1.8125 0,-2.5 z m -43.39829,1 c 0.3601,-0.94175 -1.89458,-1.27897 -9.14301,-1.36748 -8.17079,-0.0998 -8.942686,0.0182 -5.12098,0.78254 2.475,0.49502 5.625,0.71019 7,0.47817 1.99803,-0.33716 4.21159,0.0915 6.64301,1.28648 0.0787,0.0387 0.3581,-0.49221 0.62098,-1.17971 z m 23.23164,-1.75706 c -0.987,-1.597 2.12937,-2.264 4.54289,-0.97232 1.78059,0.95294 2.49632,0.87311 3.79243,-0.423 C 140.87353,100.55504 141.00671,100 140.21429,100 139.54643,100 139,100.45604 139,101.01342 c 0,0.59253 -1.50432,0.38488 -3.62212,-0.5 C 130.3973,98.432404 128,98.566683 128,100.92668 c 0,1.05967 0.7875,2.13247 1.75,2.38399 0.9625,0.25153 1.88906,0.50953 2.05902,0.57333 0.16996,0.0638 0.0289,-0.33718 -0.31339,-0.89106 z M 130,101.05902 C 130,100.47656 130.45,100 131,100 c 0.55,0 1,0.19844 1,0.44098 0,0.24254 -0.45,0.7191 -1,1.05902 -0.55,0.33992 -1,0.14148 -1,-0.44098 z M 179.5,103 c 0.33992,-0.55 -0.0835,-1 -0.94098,-1 -0.85746,0 -1.55902,0.45 -1.55902,1 0,0.55 0.42344,1 0.94098,1 0.51754,0 1.2191,-0.45 1.55902,-1 z m -66.10631,-2.58356 c 0.37373,-0.973914 0.15024,-1.431083 -0.58051,-1.1875 -1.49484,0.498279 -2.31789,2.77106 -1.0035,2.77106 0.53699,0 1.24979,-0.7126 1.58401,-1.58356 z M 100,99.440983 C 100,99.198442 99.55,99 99,99 c -0.55,0 -1,0.476558 -1,1.05902 0,0.58246 0.45,0.7809 1,0.44098 0.55,-0.33992 1,-0.816476 1,-1.059017 z M 105,100 c 0,-0.55 -0.47656,-1 -1.05902,-1 -0.58246,0 -0.7809,0.45 -0.44098,1 0.33992,0.55 0.81648,1 1.05902,1 0.24254,0 0.44098,-0.45 0.44098,-1 z m 5,-0.559017 C 110,99.198442 109.55,99 109,99 c -0.55,0 -1,0.476558 -1,1.05902 0,0.58246 0.45,0.7809 1,0.44098 0.55,-0.33992 1,-0.816476 1,-1.059017 z m 16,-0.04797 C 126,99.176855 125.07344,99 123.94098,99 c -1.13246,0 -1.79305,0.430347 -1.46797,0.956326 C 123.00662,100.81973 126,100.34164 126,99.393011 z M 16,98.440983 C 16,98.198442 15.55,98 15,98 c -0.55,0 -1,0.476558 -1,1.059017 0,0.582459 0.45,0.780902 1,0.440983 0.55,-0.339919 1,-0.816476 1,-1.059017 z m 8,0 C 24,98.198442 23.298442,98 22.440983,98 21.583524,98 21.164618,98.45734 21.510081,99.016312 22.080887,99.939894 24,99.496458 24,98.440983 z M 56,94 c 0,-0.55 -0.45,-1 -1,-1 -0.55,0 -1,0.45 -1,1 0,0.55 0.45,1 1,1 0.55,0 1,-0.45 1,-1 z M 23.995269,90.287676 c -1.089605,-1.699289 -1.117825,-1.697108 -0.570774,0.04411 0.316528,1.007484 0.611031,2.357484 0.654452,3 0.05698,0.84316 0.215798,0.830886 0.570775,-0.04411 0.270505,-0.666778 -0.024,-2.016778 -0.654453,-3 z M 13,90 c 0,-0.55 -0.675,-1 -1.5,-1 -0.825,0 -1.5,0.45 -1.5,1 0,0.55 0.675,1 1.5,1 0.825,0 1.5,-0.45 1.5,-1 z m 4.637722,-0.304389 C 18.020308,89.313025 17.358333,89 16.166667,89 14.975,89 14,89.410182 14,89.911516 c 0,1.016664 2.556911,0.864906 3.637722,-0.215905 z M 191.36383,89.505744 c -0.31537,-0.821841 -1.02429,-1.215591 -1.57538,-0.875 -0.6161,0.380773 -0.47947,0.950332 0.35479,1.478943 1.82081,1.153723 1.88322,1.122842 1.22059,-0.603943 z M 15,87 c 0,-0.55 -1.125,-1 -2.5,-1 -1.375,0 -2.5,0.45 -2.5,1 0,0.55 1.125,1 2.5,1 1.375,0 2.5,-0.45 2.5,-1 z m 11,0.116577 c 0,-0.485882 -1.111382,-1.095877 -2.469738,-1.355543 -1.358355,-0.259666 -2.220651,-0.06909 -1.916211,0.423505 0.30535,0.494066 -0.556017,0.617147 -1.921168,0.274516 -1.376158,-0.345394 -2.771274,-0.141233 -3.142806,0.459918 C 16.104914,87.639263 17.570154,88 20.940983,88 23.723442,88 26,87.60246 26,87.116577 z m 0.921053,-3.928726 c -0.04342,-0.928318 -0.289998,-1.173122 -0.547948,-0.544009 -0.25795,0.629113 -1.417791,0.895727 -2.577424,0.592476 -1.188905,-0.310905 -1.855334,-0.141855 -1.528096,0.387626 1.062412,1.71902 4.738159,1.374553 4.653468,-0.436093 z M 13.371705,79.792414 C 12.686419,78.683598 10,78.799475 10,79.937851 c 0,0.515818 0.868825,0.872405 1.930722,0.792414 1.061897,-0.07999 1.710339,-0.502023 1.440983,-0.937851 z M 27,80 c 0,-0.55 -1.2375,-0.955144 -2.75,-0.90032 L 21.5,79.19936 24,80 c 1.375,0.440352 2.6125,0.845496 2.75,0.90032 C 26.8875,80.955144 27,80.55 27,80 z m 13.957994,-0.550615 c -1.086678,-1.309366 -0.951895,-1.638219 0.866307,-2.11369 2.883116,-0.753951 1.88088,-2.138078 -1.295677,-1.78938 -1.386009,0.152145 -2.814073,-0.199164 -3.173474,-0.780687 -0.431659,-0.69844 0.245721,-0.831635 1.995697,-0.392419 C 40.827766,74.743892 42,74.616571 42,74.085474 c 0,-0.523946 -1.2375,-1.140095 -2.75,-1.36922 l -2.75,-0.41659 2.697841,-0.149832 c 2.613217,-0.145132 2.696953,-0.335525 2.669527,-6.06976 l -0.02831,-5.919927 -3.03278,1.057233 C 35.988402,62.199694 35.81021,62.548323 36.291594,66.137305 36.585355,68.32748 36.388718,70 35.837456,70 c -0.550123,0 -0.665425,0.966662 -0.265573,2.226485 0.971194,3.05996 4.735819,8.746029 5.800562,8.761136 0.479844,0.0068 0.293341,-0.685398 -0.414451,-1.538236 z M 45,79.440983 C 45,79.198442 44.55,79 44,79 c -0.55,0 -1,0.476558 -1,1.059017 0,0.582459 0.45,0.780902 1,0.440983 0.55,-0.339919 1,-0.816476 1,-1.059017 z M 48,78.5 C 48,77.675 47.823145,77 47.606989,77 47.390833,77 46.954956,77.675 46.638374,78.5 46.321791,79.325 46.498646,80 47.031385,80 47.564123,80 48,79.325 48,78.5 z m 131.55133,-2.583047 c 0.34195,-0.553299 -25.53249,-0.823168 -65.24231,-0.680474 L 48.5,75.472958 l 52,0.536342 c 28.6,0.294988 57.95904,0.601201 65.24231,0.680474 7.28327,0.07927 13.49733,-0.268496 13.80902,-0.772821 z M 73.404026,72.25 c 1.963341,-1.666667 1.996974,-1.666667 0.706296,0 -1.659194,2.142536 0.140975,2.357058 1.908416,0.227422 C 76.74822,71.59845 78.068103,71.204227 79.141183,71.54481 80.163532,71.869291 81,71.654451 81,71.067388 81,70.480324 82.382996,70 84.073324,70 c 2.398409,0 2.993715,-0.384308 2.710812,-1.75 -0.247972,-1.197067 -1.200658,-1.693031 -3.015195,-1.569695 -1.931824,0.131307 -2.503531,-0.208377 -2.103823,-1.25 0.920167,-2.397917 3.803054,-1.60063 5.675811,1.569695 1.030554,1.74459 2.610122,3 3.774624,3 1.205804,0 1.731095,0.439112 1.32034,1.103727 -0.375177,0.607049 0.593361,0.269549 2.152308,-0.75 1.850221,-1.210044 2.534293,-1.36683 1.97004,-0.451525 -0.709239,1.150495 -0.08335,1.29744 3.486699,0.818595 2.81335,-0.377349 3.83935,-0.259842 2.90309,0.332486 -1.23693,0.782542 -1.22078,0.918324 0.11084,0.931404 0.85738,0.0084 2.43238,-0.645375 3.5,-1.452884 1.36491,-1.032368 1.5206,-1.477637 0.52446,-1.5 -0.77916,-0.01749 -1.12754,-0.320928 -0.77416,-0.674304 0.35337,-0.353375 1.33867,-0.06473 2.18956,0.641444 1.30312,1.081492 1.44774,1.025122 0.91717,-0.357499 C 109.06566,67.728717 109.27747,67 109.89301,67 110.50186,67 111,67.525 111,68.166667 c 0,0.641666 0.30475,0.861914 0.67723,0.48944 1.20211,-1.202119 -3.0983,-4.171335 -5.67723,-3.919835 l -2.5,0.243802 2.5,-1.065853 c 2.26907,-0.967398 2.87449,-0.643176 6.55411,3.509963 C 116.26962,71.617839 116.99547,72 121.24509,72 c 2.55028,0 4.91499,0.45 5.25491,1 0.34177,0.552988 4.50301,0.96471 9.30902,0.921053 4.78004,-0.04342 8.12568,-0.306856 7.43475,-0.585411 -0.69093,-0.278554 -1.00187,-0.918028 -0.69098,-1.421052 0.69682,-1.127486 0.67587,-1.127353 -3.32869,0.02114 -1.79448,0.51465 -3.02891,0.557457 -2.74317,0.09513 0.28574,-0.462331 -1.39308,-0.673567 -3.7307,-0.469414 -2.33763,0.204153 -3.35023,0.117667 -2.25023,-0.192191 1.1,-0.309858 2.39018,-0.93238 2.86707,-1.383381 1.52538,-1.442587 -9.85191,-17.635574 -14.41457,-20.515854 -4.20903,-2.657043 -9.59062,-3.798763 -9.28583,-1.970014 0.0917,0.55 -0.80834,1.039309 -2,1.087353 C 106.475,48.635397 102.35,48.799103 98.5,48.951144 94.65,49.103185 90.20009,48.713787 88.611312,48.085813 87.022533,47.45784 85.485033,47.181634 85.194645,47.472022 84.904257,47.76241 85.266667,48 86,48 c 0.733333,0 1.075152,0.258181 0.759597,0.573736 -0.315555,0.315555 -2.011097,-0.169552 -3.767872,-1.078015 -3.102662,-1.604449 -3.2405,-1.585082 -4.813098,0.676264 C 77.288198,49.452393 75.554195,51.5125 74.325287,52.75 73.096379,53.9875 72.328116,55 72.618035,55 72.907954,55 72.212499,56.185686 71.07258,57.634859 69.932661,59.084031 69,61.060886 69,62.02787 c 0,0.966984 -0.750248,2.04605 -1.667217,2.397924 -1.757072,0.674251 -0.965347,2.026731 1.667217,2.848058 0.825,0.257389 0.356365,0.331091 -1.04141,0.163782 -2.350792,-0.281382 -2.511347,-0.04668 -2.140594,3.129084 C 66.158107,73.48002 66.606812,74 68.780665,74 c 1.40902,0 3.489532,-0.7875 4.623361,-1.75 z m 44.407104,-1.906404 c 1.01948,-0.428447 0.92495,-0.977743 -0.42497,-2.469387 -1.70145,-1.88008 -1.66339,-1.88799 1.90675,-0.39629 C 121.29648,68.315064 123.92522,69 125.13455,69 c 4.06971,0 0.96554,1.277259 -3.85803,1.587449 -2.62708,0.16894 -4.18651,0.05921 -3.46539,-0.243853 z M 97.530497,67.25 c -0.377475,-1.5125 -1.438759,-3.65 -2.358408,-4.75 -1.649259,-1.972693 -1.642347,-1.974875 0.506247,-0.159867 1.406442,1.188081 3.001019,1.629151 4.500004,1.244729 2.22551,-0.570744 2.23488,-0.550299 0.22635,0.493658 -1.504052,0.781747 -1.964975,1.770871 -1.633423,3.50527 0.63691,3.331782 -0.395249,3.054112 -1.24077,-0.33379 z M 129,68.90638 C 129,68.407871 129.9,68 131,68 c 1.1,0 2,0.172516 2,0.383369 0,0.210852 -0.9,0.618724 -2,0.90638 -1.1,0.287656 -2,0.115141 -2,-0.383369 z M 75.397246,67.833741 c -0.247866,-0.401056 0.522241,-0.541829 1.711351,-0.312827 2.96752,0.571492 3.611793,1.409054 0.928392,1.206919 -1.203992,-0.09069 -2.391876,-0.493035 -2.639743,-0.894092 z m 2.226293,-5.3724 c -0.342947,-0.893704 -0.571789,-2.825612 -0.50854,-4.293128 0.08613,-1.998486 0.310671,-1.664205 0.894562,1.331787 0.828384,4.250503 0.645893,5.650469 -0.386022,2.961341 z M 111,60 c 0,-0.55 0.45,-1 1,-1 0.55,0 1,0.45 1,1 0,0.55 -0.45,1 -1,1 -0.55,0 -1,-0.45 -1,-1 z m -1.5,13 c -1.67602,-0.720209 -1.47353,-0.870815 1.25,-0.929715 C 112.5375,72.031628 114,71.55 114,71 c 0,-1.324052 -1.27207,-1.261358 -4.6849,0.230899 C 107.76679,71.907893 99.975,72.719042 92,73.033453 l -14.5,0.571655 17,0.127161 c 10.24682,0.07665 16.20551,-0.214244 15,-0.732269 z m 15.6875,0.316886 c -0.72187,-0.288871 -1.58437,-0.253344 -1.91667,0.07895 -0.33229,0.332292 0.25834,0.568641 1.3125,0.52522 1.16495,-0.04798 1.4019,-0.284941 0.60417,-0.604167 z m 61.16184,-3.848911 C 185.72195,67.833038 180,67.411304 180,69 c 0,0.55 1.37656,1 3.05902,1 2.05762,0 2.82544,0.377936 2.34549,1.154508 -0.43207,0.699101 -0.27535,0.883698 0.39731,0.467975 0.61096,-0.377593 0.85734,-1.347122 0.54752,-2.154508 z M 163.0819,66.009453 c 0.045,-1.380199 0.0116,-5.137039 -0.0744,-8.348534 -0.11314,-4.227516 0.30643,-6.350361 1.52021,-7.691571 0.92206,-1.01887 2.02871,-4.241284 2.45922,-7.16092 0.5562,-3.772095 0.97492,-4.7296 1.44679,-3.308428 0.58927,1.774739 1.39066,1.962232 7.11516,1.664673 L 182,40.829346 l 0,-9.883288 c 0,-8.374303 -0.22902,-9.795405 -1.5,-9.307684 -0.825,0.316582 -1.5,0.977459 -1.5,1.468615 0,0.491156 -1.9125,0.829154 -4.25,0.751106 L 170.5,23.716189 174.5,23 c 3.49379,-0.625554 2.62651,-1.435833 -1.34157,-1.253384 -0.83687,0.03848 -1.15424,-0.654645 -0.84362,-1.842466 C 172.58868,18.856867 172.37833,18 171.84736,18 c -0.53097,0 -0.68728,-0.45 -0.34736,-1 0.33992,-0.55 0.12735,-1 -0.47237,-1 -1.74781,0 -2.45235,3.117453 -0.92335,4.085612 1.14608,0.725689 1.153,0.886501 0.0387,0.899075 -0.74634,0.0084 -1.12548,0.618621 -0.84252,1.355997 0.28296,0.737376 0.16946,1.898919 -0.25222,2.581208 -1.02851,1.664166 -2.24685,-6.13738 -1.51317,-9.689499 0.51554,-2.495994 0.39065,-2.429583 -1.44345,0.767607 -1.76612,3.078671 -2.01286,5.355854 -2.04973,18.916667 -0.0389,14.312339 -0.61501,19.492109 -1.20068,10.795622 C 162.65186,42.90034 162.15574,42 160.79561,42 159.80803,42 159,41.592129 159,41.09362 c 0,-0.49851 0.8755,-0.677431 1.94556,-0.397604 1.54485,0.403986 1.91517,0.02427 1.79798,-1.84362 -0.0812,-1.293818 -0.61918,-2.683005 -1.19556,-3.087083 -0.68548,-0.480557 -0.6156,-0.739984 0.20202,-0.75 0.93216,-0.01142 1.25,-3.176862 1.25,-12.448891 l 0,-12.433577 -2.75,-0.4803545 c -1.60166,-0.2797696 -1.02609,-0.4057088 1.37837,-0.3015957 3.10608,0.1344931 3.99991,-0.1560014 3.60961,-1.1731132 C 164.87412,7.2295752 163.26795,6.9265507 159.85892,7.162955 157.18575,7.3483297 154.80946,7.05 154.57826,6.5 154.34706,5.95 154.06313,7.075 153.94731,9 l -0.21059,3.5 -0.71978,-3.5 c -0.39588,-1.925 -0.7244,10.45 -0.73006,27.5 -0.006,17.05 0.31825,29.425 0.71978,27.5 l 0.73006,-3.5 0.13164,3.25 c 0.0876,2.163715 0.633,3.25 1.63164,3.25 1.81631,0 1.99117,1.63514 0.25,2.337719 -0.90131,0.363686 -0.91777,0.526409 -0.059,0.583334 C 156.34602,69.964474 157.16008,69.55 157.5,69 c 0.33992,-0.55 1.32158,-1 2.18146,-1 1.34124,0 1.36838,0.236012 0.19098,1.660655 -1.25624,1.52005 -1.18194,1.542018 0.87756,0.259454 1.30718,-0.814058 2.28432,-2.452737 2.3319,-3.910656 z m -9.41523,-19.67612 C 153.3,45.966667 153,44.541667 153,43.166667 c 0,-3.140108 1.06003,-2.224141 1.44085,1.245029 0.30589,2.786588 0.24411,2.939932 -0.77418,1.921637 z m -0.22052,-9.420465 c -0.36954,-0.597923 -0.10508,-1.610423 0.58769,-2.25 0.97438,-0.899574 1.08414,-0.854532 0.48475,0.198935 -0.4589,0.806547 -0.21291,1.717711 0.60329,2.234688 0.90607,0.573892 0.97017,0.878129 0.18714,0.888196 -0.65504,0.0084 -1.49333,-0.473897 -1.86287,-1.071819 z m 13.98242,-2.986287 C 167.42857,32.866962 167.78214,32 168.21429,32 168.64643,32 169,32.648442 169,33.440983 c 0,0.792541 -0.35357,1.659502 -0.78571,1.926581 -0.43215,0.267079 -0.78572,-0.381363 -0.78572,-1.440983 z M 155.15789,30 c 0,-1.375 0.22698,-1.9375 0.50439,-1.25 0.27741,0.6875 0.27741,1.8125 0,2.5 -0.27741,0.6875 -0.50439,0.125 -0.50439,-1.25 z m 12.4064,-1.293128 c 0.37553,-0.986221 0.93469,-1.541221 1.24258,-1.233333 0.30789,0.307887 6.4e-4,1.114794 -0.68278,1.793128 -0.98762,0.980267 -1.10248,0.865403 -0.5598,-0.559795 z M 178,70 c 0,-1.252922 -1.06124,-1.252922 -3,0 -1.21296,0.783874 -1.06944,0.972305 0.75,0.984687 C 176.9875,70.993109 178,70.55 178,70 z m -37.7,-0.863153 c 0.42422,1.066732 0.55927,1.078504 0.62105,0.05414 0.0434,-0.719959 0.52759,-1.031742 1.07593,-0.692851 0.62732,0.387708 0.60126,-0.424648 -0.0703,-2.190983 C 141.33968,64.763217 140.89104,63.3875 140.9297,63.25 140.96837,63.1125 141,62.025 141,60.833333 c 0,-3.110254 -1.04513,-1.627512 -1.5249,2.163395 -0.22355,1.76639 -0.67638,4.17724 -1.00628,5.357445 -0.42691,1.527199 -0.32755,1.752839 0.34462,0.782674 0.79738,-1.15087 1.02888,-1.15087 1.48656,0 z m 35.43899,-1.405388 c 1.39888,-1.081708 0.64107,-3.084384 -0.8244,-2.178673 -0.52097,0.321976 -0.64534,1.073845 -0.27639,1.670821 0.41004,0.663463 0.20313,0.796364 -0.53225,0.341874 -0.90174,-0.557307 -0.91888,-1.085963 -0.0684,-2.110704 0.62406,-0.751942 0.83085,-1.858731 0.45953,-2.45953 C 173.36307,61.160406 171,63.928068 171,67.09106 c 0,2.281629 0.34711,2.722429 1.75,2.222321 0.9625,-0.343118 2.30755,-1.054983 2.98899,-1.581922 z m -38.32244,-0.374587 c 0.9187,-2.394095 0.20261,-2.577944 -1.21288,-0.311394 C 135.53233,68.120465 135.38872,69 135.88454,69 c 0.49581,0 1.18522,-0.739408 1.53201,-1.643128 z m 14.49777,0.53562 c -1.64198,-0.603029 -3.46685,-0.59735 -5,0.01556 -2.03073,0.811828 -1.61992,0.962702 2.58568,0.949613 4.31406,-0.01343 4.64528,-0.145835 2.41432,-0.965174 z M 180,66.556704 c 0,-0.793813 -1.00013,-2.143813 -2.22251,-3 C 176.55512,62.700517 175.90667,62 176.33651,62 c 0.42984,0 0.49887,-0.45734 0.15341,-1.016312 -0.34546,-0.558971 -1.05517,-0.752379 -1.57712,-0.429794 -0.53285,0.32932 -0.077,1.811149 1.03955,3.37919 1.09371,1.53597 1.70186,3.079377 1.35144,3.429794 C 176.95337,67.713295 177.41667,68 178.33333,68 179.25,68 180,67.350517 180,66.556704 z m 1.5884,-3.30164 c -1.07549,-1.075492 -1.64645,0.430751 -0.89148,2.351808 0.7082,1.802064 0.76169,1.805184 1.11193,0.06486 0.20237,-1.005548 0.10317,-2.093048 -0.22045,-2.416667 z M 135,64.940983 c 0,-0.582459 -0.45,-0.780902 -1,-0.440983 -0.55,0.339919 -1,0.816476 -1,1.059017 C 133,65.801558 133.45,66 134,66 c 0.55,0 1,-0.476558 1,-1.059017 z m 9.52639,-4.008835 c 0.30655,-2.437681 0.61351,-4.974853 0.68215,-5.638159 0.0686,-0.663307 0.49979,-0.974249 0.95813,-0.690983 C 146.625,54.886271 147,53.666476 147,51.89235 c 0,-1.774126 0.28466,-2.941028 0.63257,-2.593115 0.34791,0.347912 0.55539,4.247912 0.46106,8.666667 C 147.98689,62.96608 148.31446,66 148.96106,66 149.61079,66 150,62.231648 150,55.940983 c 0,-7.798712 -0.28088,-9.882836 -1.25,-9.274958 -0.6875,0.431232 -2.0375,0.654503 -3,0.496158 -1.39754,-0.229915 -1.75,0.441561 -1.75,3.333976 0,1.992031 -0.38965,3.381058 -0.86589,3.086725 -0.47624,-0.294332 -0.64878,-1.67089 -0.38342,-3.059017 C 143.11559,48.614981 142.81318,48 141.50959,48 c -1.12563,0 -1.52272,0.523394 -1.14463,1.508684 0.31841,0.829776 0.13834,2.667538 -0.40017,4.083916 -1.25521,3.301456 -0.2012,5.092125 1.59941,2.717241 1.25025,-1.64901 1.38486,-1.498814 1.51469,1.690159 0.0784,1.925 0.0489,4.625 -0.0654,6 -0.35117,4.222071 0.92049,1.643484 1.51295,-3.067852 z M 136.70573,57.75 c -0.23835,-1.2375 -0.43337,-0.225 -0.43337,2.25 0,2.475 0.19502,3.4875 0.43337,2.25 0.23836,-1.2375 0.23836,-3.2625 0,-4.5 z M 46.768747,56.638775 c 8.397811,-3.488614 15.560311,-6.634499 15.916666,-6.990855 1.361247,-1.361247 -1.675748,-0.538473 -8.692093,2.354835 -4.317007,1.78019 -7.731972,2.657689 -8.387538,2.155234 -2.114579,-1.620706 -4.765567,-2.224568 -3.93584,-0.896535 0.4256,0.6812 0.854587,1.769933 0.953306,2.419406 0.229167,1.507694 -2.967133,2.787485 -3.437505,1.376369 C 38.991918,56.475753 38.195833,56 37.416667,56 36.6375,56 36,55.55 36,55 c 0,-1.567708 2.154328,-1.171203 3.478931,0.640299 1.103057,1.508521 1.24941,1.510016 1.821717,0.01861 0.46216,-1.20437 -0.179953,-1.829575 -2.495226,-2.429522 -2.93494,-0.76052 -2.732526,-0.888175 3.456083,-2.179617 6.570391,-1.371112 6.572859,-1.372929 5.041042,-3.710776 C 46.459635,46.052547 46.02628,45 46.339536,45 46.652791,45 45.756818,43.847727 44.348485,42.439394 42.940152,41.031061 42.030667,39.636 42.327408,39.339258 43.232294,38.434373 45,40.017861 45,41.733331 c 0,1.290426 0.551646,1.127715 2.742846,-0.809017 2.300633,-2.033456 2.446063,-2.071719 0.902038,-0.237327 -1.775873,2.109841 -1.46673,4.938976 0.41276,3.777387 0.505696,-0.312537 0.668924,0.08461 0.362728,0.882538 -0.306196,0.797933 -0.0687,1.752399 0.527766,2.121036 0.596467,0.368637 0.805348,1.121904 0.464179,1.673927 -0.341169,0.552022 1.518167,-0.628657 4.131859,-2.623733 2.613691,-1.995076 6.022598,-3.881497 7.575347,-4.192047 2.318011,-0.463602 2.655667,-0.87764 1.887013,-2.313883 -0.514893,-0.962085 -0.614501,-2.10556 -0.221352,-2.541054 0.393149,-0.435495 0.191824,-0.492522 -0.447388,-0.126727 C 62.661971,37.731177 60.79481,36.228909 58.87621,33.754756 57.06155,31.41464 53.154402,26.701527 50.193659,23.28117 l -5.383169,-6.21883 -4.835633,2.450401 c -2.659598,1.34772 -5.597327,3.471193 -6.528288,4.71883 -1.347328,1.805635 -1.559949,1.880133 -1.042181,0.365157 0.623075,-1.823101 0.133314,-1.878667 -11.626957,-1.319148 -6.752587,0.321268 -13.0251345,0.873114 -13.9389943,1.226325 -1.5487511,0.598598 -1.5487511,0.840496 0,3.562825 C 8.9296599,31.742593 9.9239106,31.732633 13.5,28 c 2.448866,-2.556065 3.549394,-2.973327 7.437091,-2.819752 L 25.5,25.360496 20.870877,25.730103 c -3.488945,0.27857 -5.222909,1.03603 -7.039896,3.075288 -3.936992,4.418602 -4.0278662,4.916917 -0.87347,4.789735 C 15.921839,33.475608 17.5,32.545051 17.5,30.916667 17.5,30.4125 17.946946,30.1125 18.493213,30.25 c 0.546268,0.1375 0.853671,0.857658 0.683119,1.600352 -0.170553,0.742694 0.147423,1.06759 0.706613,0.721992 0.55919,-0.345598 1.46498,0.209243 2.012868,1.232981 0.742876,1.388076 0.652744,1.861342 -0.354486,1.861342 -0.742855,0 -1.149184,-0.525 -0.902953,-1.166667 C 21.237068,32.939829 17.886231,32.945715 16,34.5081 c -0.825,0.683377 -2.289643,1.11311 -3.254763,0.954962 -0.96512,-0.158148 -1.532087,0.07276 -1.259928,0.513118 0.272159,0.440363 2.08973,0.693793 4.039046,0.563178 1.949316,-0.130615 3.823312,0.214114 4.164436,0.766064 0.341125,0.55195 0.131791,0.701677 -0.465184,0.332726 -0.596976,-0.368952 -1.368062,-0.21348 -1.713526,0.345491 C 17.164618,38.54266 17.385081,39 18,39 c 0.614919,0 0.837954,0.453178 0.495635,1.007063 -0.34232,0.553884 0.07854,1.276038 0.935239,1.604785 0.856702,0.328747 1.340178,0.94958 1.074393,1.37963 -0.265785,0.43005 0.129763,1.29066 0.878995,1.912468 1.521768,1.262955 4.921901,0.400453 4.040896,-1.025043 -0.309845,-0.50134 -1.051789,-0.609658 -1.648765,-0.240706 -0.663463,0.410042 -0.796364,0.203134 -0.341874,-0.532247 0.52197,-0.844565 1.116912,-0.893193 1.996518,-0.163184 0.68914,0.571935 1.504016,0.788847 1.810837,0.482027 0.30682,-0.30682 0.861364,-0.06677 1.23232,0.533452 0.370956,0.60022 0.303517,0.984555 -0.149864,0.85408 -0.453382,-0.130476 -1.910295,0.363524 -3.237585,1.097778 l -2.413255,1.335007 2.413255,1.855209 c 1.32729,1.020365 2.020655,1.865215 1.54081,1.877445 -0.479844,0.01223 -0.303219,0.708111 0.392501,1.546402 0.69572,0.838291 0.989058,1.800053 0.651863,2.137248 -0.951633,0.951633 -6.736651,-5.716526 -6.437612,-7.420379 0.146131,-0.83262 -0.524364,-1.638027 -1.489989,-1.789795 -1.597144,-0.251023 -1.574569,-0.02159 0.25,2.54078 2.3892,3.355322 2.606832,4.75178 0.4633,2.972806 -1.254661,-1.041276 -1.767654,-1.036751 -2.75,0.02426 -0.926097,1.000258 -0.927914,1.147033 -0.0078,0.62961 1.372774,-0.771968 3.606569,2.700994 2.514989,3.910146 -0.393149,0.435495 -0.152316,0.468105 0.535184,0.07247 0.6875,-0.395638 1.262105,-1.480284 1.276901,-2.410325 0.01907,-1.198864 0.898346,-0.672394 3.021299,1.809017 1.64692,1.925 2.931525,3.05 2.854678,2.5 -0.31313,-2.241117 0.17675,-2.678804 1.639504,-1.464826 1.168259,0.969568 1.823175,0.999269 2.7,0.122444 C 33.688221,54.711779 35,54.664875 35,56.059017 c 0,0.582459 -0.508379,0.744821 -1.129732,0.360804 -0.689683,-0.426247 -0.938883,-0.157098 -0.639768,0.690983 0.272383,0.772286 1.551205,1.276833 2.879732,1.13617 1.853431,-0.196239 2.054986,-0.03726 0.898076,0.708391 -0.820431,0.528779 -2.620431,0.752449 -4,0.497044 -1.37957,-0.255405 -1.921957,-0.191231 -1.205305,0.14261 0.989996,0.461174 0.869886,0.93541 -0.5,1.974179 -3.364268,2.551084 0.163327,1.4265 15.465744,-4.930423 z M 30.314272,52.33541 c 0.384004,-0.640524 0.172203,-1.339918 -0.470668,-1.554209 -1.675236,-0.558412 -1.881842,-3.447868 -0.246535,-3.447868 1.101482,0 1.128439,0.29908 0.137055,1.520564 -1.026465,1.264707 -0.951963,1.41493 0.442763,0.892775 0.999843,-0.37432 2.197783,0.05477 2.967032,1.062769 0.70958,0.929807 0.896385,1.356963 0.415123,0.949235 -0.481263,-0.407728 -1.565309,-0.182728 -2.408991,0.5 -1.030708,0.834074 -1.304908,0.859248 -0.835779,0.07673 z M 35,48 c 0.825,-0.533156 2.175,-0.944637 3,-0.914402 0.989055,0.03625 0.81874,0.34772 -0.5,0.914402 -2.749085,1.181322 -4.327966,1.181322 -2.5,0 z m 16.4,-5.531256 c 0,-1.321143 0.223025,-2.179052 0.495611,-1.906466 0.828605,0.828604 0.971796,3.401635 0.215322,3.869161 C 51.71992,44.673099 51.4,43.789886 51.4,42.468744 z M 36.75,39.337719 c 0.6875,-0.277412 1.8125,-0.277412 2.5,0 0.6875,0.277413 0.125,0.504386 -1.25,0.504386 -1.375,0 -1.9375,-0.226973 -1.25,-0.504386 z m 22.006231,-0.0021 c 0.690926,-0.278554 0.958898,-0.987557 0.595491,-1.575561 -0.393821,-0.637216 -0.187764,-0.776783 0.510081,-0.345491 1.376715,0.850856 0.550061,2.620536 -1.17082,2.506463 -0.852441,-0.05651 -0.833894,-0.222912 0.06525,-0.585411 z m -20.9914,-2.054024 c 1.245657,-0.233534 1.978852,-0.88733 1.629323,-1.452881 -0.385211,-0.623284 0.199728,-0.581268 1.485169,0.106679 2.886945,1.545046 2.707734,1.738154 -1.629323,1.755666 -2.0625,0.0083 -2.730826,-0.17593 -1.485169,-0.409464 z M 36.5,32 C 36.160081,31.45 36.358524,31 36.940983,31 37.523442,31 38,31.45 38,32 38,32.55 37.801558,33 37.559017,33 37.316476,33 36.839919,32.55 36.5,32 z M 34.872445,27.25 C 33.628574,25.663944 33.663944,25.628574 35.25,26.872445 c 0.9625,0.754844 1.75,1.542344 1.75,1.75 0,0.823034 -0.821186,0.293303 -2.127555,-1.372445 z M 174.4174,58.866353 C 174.12291,58.389859 174.35852,58 174.94098,58 175.52344,58 176,57.255256 176,56.345012 c 0,-1.538472 -0.12907,-1.538179 -1.83333,0.0042 -1.50383,1.360941 -1.83334,1.398783 -1.83334,0.210543 0,-0.796731 0.2625,-1.361101 0.58334,-1.254156 C 173.2375,55.4125 173.5,55.05 173.5,54.5 c 0,-0.55 -0.24107,-0.919643 -0.53571,-0.821429 -0.29465,0.09822 -0.53572,-0.656247 -0.53572,-1.676581 0,-1.020334 0.32248,-1.65585 0.71662,-1.412259 0.39414,0.243591 1.0014,-0.0179 1.34947,-0.58109 0.39856,-0.644881 1.20866,-0.448179 2.18815,0.531307 0.8554,0.85541 1.25225,1.858329 0.88186,2.228711 C 177.19429,53.13904 176.49019,52.793144 176,52 c -0.49019,-0.793144 -1.22644,-1.106897 -1.6361,-0.69723 -0.40967,0.409667 -0.007,1.482979 0.89544,2.385137 1.41176,1.411767 1.89108,1.447872 3.44047,0.259158 0.99011,-0.759621 1.46659,-0.987369 1.05887,-0.506107 -0.40773,0.481263 -0.18273,1.591428 0.5,2.467033 1.08346,1.389556 1.0301,1.426874 -0.41965,0.293451 -1.12615,-0.88043 -1.87105,-0.958654 -2.31338,-0.242937 -0.35883,0.580591 0.0511,1.325587 0.91097,1.655547 0.85986,0.329959 1.56338,1.056881 1.56338,1.615382 0,0.578148 -0.65638,0.470705 -1.52417,-0.24949 -2.1109,-1.751895 -2.88599,-0.609575 -1.30457,1.922677 1.40297,2.246516 2.82874,2.769881 2.82874,1.038362 0,-0.582459 0.3375,-0.850502 0.75,-0.59565 0.4125,0.254851 0.83062,-3.543591 0.92915,-8.440983 L 181.85829,44 l -2.92914,0 c -3.1295,0 -3.66386,0.865289 -1.72915,2.8 1.77147,1.771468 3.11198,1.457429 2.34774,-0.55 -0.53418,-1.403147 -0.41665,-1.502248 0.59301,-0.5 0.96527,0.958174 0.98465,1.524598 0.083,2.426206 -0.8728,0.872805 -0.8878,1.582166 -0.0582,2.75 0.61493,0.865587 -0.4822,-0.176653 -2.43807,-2.316088 -5.27283,-5.767694 -6.5054,-4.654859 -6.43615,5.810919 0.0542,8.195494 0.13627,8.501883 1.85907,6.942767 0.99129,-0.897104 1.5614,-2.020957 1.26691,-2.497451 z M 172.33333,47.456011 C 172.33333,46.655205 172.70833,46 173.16667,46 173.625,46 174,46.423442 174,46.940983 c 0,0.517541 -0.375,1.172746 -0.83333,1.456011 -0.45834,0.283266 -0.83334,-0.140176 -0.83334,-0.940983 z m 18.27084,12.814822 c -0.3323,-0.332291 -0.56864,0.258334 -0.52522,1.3125 0.048,1.164943 0.28494,1.4019 0.60416,0.604167 0.28887,-0.721875 0.25335,-1.584375 -0.0789,-1.916667 z M 9,61.106989 C 9,59.982949 6.3988806,58.934453 5.5977657,59.735568 4.3940024,60.939331 5.0508144,62 7,62 8.1,62 9,61.598145 9,61.106989 z M 17,60 c 0,-0.55 -0.45,-1 -1,-1 -0.55,0 -1,0.45 -1,1 0,0.55 0.45,1 1,1 0.55,0 1,-0.45 1,-1 z m 5.779398,-2.078328 c 0.270569,-2.345138 0.231064,-2.360325 -1.25,-0.480542 -1.851943,2.350507 -1.980397,3.874064 -0.279398,3.313875 0.6875,-0.226413 1.375729,-1.501413 1.529398,-2.833333 z m 6.887269,1.622317 c 0,-0.800807 -0.382341,-1.219712 -0.849646,-0.930902 -0.467304,0.28881 -0.590747,0.944015 -0.274316,1.456011 0.808625,1.308382 1.123962,1.161058 1.123962,-0.525109 z M 18.68708,54.238341 C 18.436788,53.282253 18.241084,54.3 18.252183,56.5 c 0.0111,2.2 0.215885,2.982253 0.455078,1.738341 0.239193,-1.243913 0.230112,-3.043913 -0.02018,-4 z M 189,57.440983 c 0,-1.407459 -0.40775,-2.307011 -0.90612,-1.999004 -0.49837,0.308007 -0.67088,1.459565 -0.38337,2.559017 C 188.43006,60.752546 189,60.505025 189,57.440983 z M 7,55.531385 c 0,-0.929147 -0.5817963,-1.245359 -1.5838458,-0.860837 -1.2752235,0.489349 -1.3239375,0.772535 -0.25,1.453303 C 6.9422749,57.249732 7,57.231083 7,55.531385 z M 137.18979,51.5 C 136.96506,49.575 136.60542,48 136.39059,48 136.17577,48 136,49.575 136,51.5 c 0,1.925 0.35964,3.5 0.7992,3.5 0.43956,0 0.61533,-1.575 0.39059,-3.5 z M 49.5,52 C 49.850523,51.432842 49.010384,51 47.559017,51 46.151558,51 45,51.45 45,52 c 0,0.55 0.873442,1 1.940983,1 1.067541,0 2.219098,-0.45 2.559017,-1 z m 148.94721,-1.08541 c -0.32197,-0.520968 -1.05099,-0.659468 -1.62003,-0.307778 -0.56905,0.351689 -0.2612,-0.54097 0.6841,-1.983688 1.55199,-2.368633 1.3684,-3.065611 -0.72529,-2.753541 -0.39271,0.05853 -0.45706,-0.563177 -0.14301,-1.381579 C 196.95703,43.669602 196.76037,43 196.20597,43 c -1.26845,0 -1.21352,7.072667 0.0679,8.73899 1.0763,1.399622 3.07851,0.640146 2.17337,-0.8244 z M 2.3815568,49.448062 C 2.7230531,48.558137 2.5554057,48.15674 1.9885456,48.507079 1.4448455,48.843104 1,49.541476 1,50.059017 1,51.497449 1.7167659,51.180479 2.3815568,49.448062 z M 17.296685,46.531425 C 15.462116,44.010798 13.301947,42.985579 14.596683,45.25 15.972519,47.65626 17.252637,49 18.16913,49 c 0.508332,0 0.115732,-1.110859 -0.872445,-2.468575 z M 94.345704,44.730382 C 91.98647,42.658948 89.501289,41.465494 87.246745,41.321264 l -3.468939,-0.221919 4.361097,2.210143 c 2.398603,1.215579 4.286837,2.655726 4.196074,3.200328 -0.09076,0.544601 1.141276,1.08414 2.737862,1.198975 l 2.902884,0.208791 -3.630019,-3.1872 z m 16.496116,-0.09532 c 2.96501,-2.703226 4.71188,-5.769533 3.076,-5.399339 -0.6423,0.145351 -1.37454,-0.299649 -1.62721,-0.988888 -0.27924,-0.761749 0.25995,-1.153888 1.375,-1 1.00892,0.139239 1.83439,-0.193784 1.83439,-0.740051 0,-0.546268 -0.60766,-0.853671 -1.35035,-0.683119 -0.80335,0.184482 -1.06145,-0.157367 -0.63714,-0.843904 0.39226,-0.6347 1.56242,-0.931926 2.60035,-0.660502 2.97104,0.776946 2.20327,-1.237144 -1.18773,-3.115772 -1.69118,-0.93692 -3.82868,-2.280311 -4.75,-2.985314 -1.48347,-1.135166 -0.248,-0.729319 7.73222,2.540004 1.16813,0.478556 1.26863,-0.429287 0.59123,-5.340809 C 118.04972,22.162817 117.64141,18.3 117.59123,16.833333 117.54105,15.366667 117.275,14.207697 117,14.257845 c -1.10566,0.201625 -5.90915,-2.595828 -5.52489,-3.217578 0.53641,-0.867919 -8.60124,0.301621 -10.23225,1.309639 -0.93663,0.578866 -0.97508,1.281926 -0.15403,2.816079 0.60734,1.134823 0.80722,3.574595 0.44919,5.483025 -0.35477,1.891129 -0.35066,4.365935 0.009,5.499569 0.53903,1.698335 1.20855,1.954926 3.80351,1.457684 2.10149,-0.402683 2.67243,-0.297059 1.716,0.317458 -1.1133,0.715298 -0.67474,1.230469 1.96414,2.30724 2.21818,0.905113 2.97603,1.646777 2.18333,2.136693 C 110.54636,32.780363 110,32.641476 110,32.059017 110,31.476558 109.325,31 108.5,31 c -0.825,0 -1.5,0.675 -1.5,1.5 0,0.825 0.45,1.5 1,1.5 0.55,0 1,0.45 1,1 0,0.55 -0.88588,1 -1.96862,1 -1.33903,0 -1.78453,-0.479711 -1.39301,-1.5 0.62504,-1.628814 -0.41442,-1.929216 -2.37231,-0.685597 -2.06184,1.30965 -2.54728,9.107451 -0.7388,11.867552 1.82629,2.787263 4.4749,2.453775 8.31456,-1.04689 z M 105,44 c 0,-1.679994 0.4625,-2.512499 1.25,-2.25 0.4125,0.1375 0.75,-0.4801 0.75,-1.372445 0,-1.307099 0.28303,-1.387548 1.4562,-0.41391 0.8009,0.664694 1.9259,0.918237 2.5,0.563428 0.57409,-0.354809 1.0438,-0.39484 1.0438,-0.08896 0,0.305882 -1.4625,1.227802 -3.25,2.048711 -2.43611,1.118784 -2.62393,1.353524 -0.75,0.937361 1.94343,-0.431597 2.16606,-0.321398 1,0.494994 -1.90844,1.336154 -4,1.378413 -4,0.08082 z m 37,2 c 1.21296,-0.783874 1.06944,-0.972305 -0.75,-0.984687 C 140.0125,45.006891 139,45.45 139,46 c 0,1.252922 1.06124,1.252922 3,0 z m 7.41821,-0.606989 c 1.04636,-0.401524 1.57661,-1.840139 1.56648,-4.25 -0.0167,-3.970518 -1.41861,-7.042422 -2.65136,-5.809678 -0.42647,0.426477 -0.33844,1.088445 0.19563,1.47104 0.53407,0.382595 0.97539,2.158127 0.98071,3.945627 0.009,3.155016 -0.78591,3.775733 -4.25967,3.324646 -0.6875,-0.08928 -1.25,0.307407 -1.25,0.881517 0,1.149529 2.94271,1.386787 5.41821,0.436848 z M 18.447214,41.91459 c -0.321976,-0.520968 -1.019652,-0.678838 -1.550391,-0.350823 -0.56792,0.350994 -0.766543,-0.497921 -0.482716,-2.06313 0.378667,-2.088226 0.205114,-2.429508 -0.807931,-1.588755 -0.709607,0.588921 -1.665563,0.73717 -2.124347,0.329442 -0.458784,-0.407728 0.17953,0.726467 1.418476,2.520434 1.238945,1.793967 2.675559,3.000373 3.192474,2.680902 0.516914,-0.319471 0.67641,-1.007103 0.354435,-1.52807 z M 85.5,39.234687 c -0.55,-0.404078 -1.114365,-1.444407 -1.254145,-2.311844 -0.204722,-1.270449 0.621769,-1.52771 4.25,-1.322891 C 90.973135,35.739798 93,35.483957 93,35.031416 c 0,-0.45254 -2.5875,-0.757239 -5.75,-0.677108 -5.080591,0.128731 -5.785911,0.397787 -6.058467,2.311108 -0.201928,1.417526 0.316141,2.327255 1.5,2.633999 2.986982,0.773941 3.920708,0.752421 2.808467,-0.06473 z M 143.96603,36.922465 147.5,36.229998 143.42319,36.114999 C 139.4816,36.003814 139.36099,35.900502 139.78669,33 c 0.27212,-1.854028 -3.4e-4,-3 -0.71325,-3 -0.74069,0 -1.04974,1.576205 -0.8635,4.403988 0.16559,2.514152 0.7046,4.148009 1.25609,3.807466 0.53132,-0.328087 2.55632,-0.908132 4.5,-1.288989 z m 3.28397,1.415254 c -0.6875,-0.277412 -1.8125,-0.277412 -2.5,0 -0.6875,0.277413 -0.125,0.504386 1.25,0.504386 1.375,0 1.9375,-0.226973 1.25,-0.504386 z M 149.73899,17.25 c -0.19845,-3.1625 -0.36082,-0.575 -0.36082,5.75 0,6.325 0.16237,8.9125 0.36082,5.75 0.19845,-3.1625 0.19845,-8.3375 0,-11.5 z M 70.823089,11.780461 C 71.296329,4.6952848 71.202916,1.3970842 70.547567,2.0524325 70.002236,2.5977637 69.47888,9.2215563 69.384553,16.771972 69.204705,31.167948 69.625718,29.707095 70.823089,11.780461 z M 138,24.940983 c 0,-1.132459 -0.43035,-1.793048 -0.95633,-1.467975 -0.52598,0.325073 -0.70283,1.251631 -0.39301,2.059017 C 137.44389,27.599138 138,27.355548 138,24.940983 z M 30.25,19.267795 c -2.3375,-0.210535 -6.1625,-0.210535 -8.5,0 -2.3375,0.210535 -0.425,0.382791 4.25,0.382791 4.675,0 6.5875,-0.172256 4.25,-0.382791 z m 6.9375,0.04909 c -0.721875,-0.288871 -1.584375,-0.253344 -1.916667,0.07895 -0.332291,0.332292 0.258334,0.568641 1.3125,0.52522 1.164943,-0.04798 1.4019,-0.284941 0.604167,-0.604167 z m 21.849967,-0.0615 c -3.837641,-0.263204 -5.027486,-0.649816 -4,-1.299705 C 56.258084,17.183638 56.210535,17.028093 54.75,17.015313 53.7875,17.006891 53,17.42011 53,17.933578 c 0,0.513467 -1.2375,1.121043 -2.75,1.350168 -1.5125,0.229124 1.075,0.400772 5.75,0.38144 5.547934,-0.02294 6.602852,-0.165267 3.037467,-0.409799 z M 19.16845,14.76845 c -0.742068,-0.742068 -0.872211,-0.351636 -0.437237,1.311709 0.353609,1.352204 0.806902,1.805497 1.05655,1.056551 0.240481,-0.721441 -0.03821,-1.787158 -0.619313,-2.36826 z M 35.25,17.337719 c -0.6875,-0.277412 -1.8125,-0.277412 -2.5,0 -0.6875,0.277413 -0.125,0.504386 1.25,0.504386 1.375,0 1.9375,-0.226973 1.25,-0.504386 z m 6.099337,-1.869744 C 40.556111,13.400862 40,13.644452 40,16.059017 c 0,1.132459 0.430347,1.793048 0.956326,1.467975 0.525979,-0.325073 0.702834,-1.251631 0.393011,-2.059017 z m 17,0 C 57.556111,13.400862 57,13.644452 57,16.059017 c 0,1.132459 0.430347,1.793048 0.956326,1.467975 0.525979,-0.325073 0.702834,-1.251631 0.393011,-2.059017 z m 2.93004,0.492362 C 60.986016,14.838522 60.522552,14.144114 60.249458,14.417209 59.708465,14.958202 60.664049,18 61.374996,18 c 0.24077,0 0.197742,-0.917848 -0.09562,-2.039663 z M 182,16.031385 c 0,-1.312258 -0.48526,-1.782402 -1.45545,-1.410106 -1.14824,0.440618 -1.20101,0.848129 -0.25,1.930578 C 181.89065,18.368565 182,18.335192 182,16.031385 z m -42.07596,-2.078331 c -0.93366,-0.577034 -0.45738,-1.04396 1.62811,-1.596127 1.62132,-0.429269 3.24785,-0.797687 3.61452,-0.818708 0.36666,-0.02102 1.04166,-0.415852 1.5,-0.877404 0.72016,-0.7252243 -6.61506,0.136604 -7.49171,0.880213 -0.17876,0.15164 -0.45253,1.104443 -0.60835,2.117341 -0.31067,2.019343 1.70639,3.938976 2.30527,2.193931 0.20454,-0.595985 -0.22199,-1.450645 -0.94784,-1.899246 z m 7.7319,-1.222086 C 147.38201,12.053936 147.17457,12.85 147.19495,14.5 c 0.0204,1.65 0.2445,2.203936 0.49804,1.230968 0.25354,-0.972967 0.23687,-2.322967 -0.0371,-3 z M 3,12.983192 C 3,11.442873 3.6335106,11.13431 6.3557762,11.348698 9.0467225,11.560621 9.6264282,11.287463 9.281882,9.9699165 9.0189519,8.9644701 9.9480674,7.6135619 11.676106,6.4887815 14.289304,4.7878507 14.391352,4.7831841 13.043831,6.4262361 11.716236,8.0449913 10.471659,11.861675 11.658369,10.674965 11.937933,10.395401 12.113095,9.8880952 12.047619,9.547619 11.902473,8.7928592 14.610585,6 15.487588,6 15.834333,6 15.839919,6.45 15.5,7 15.160081,7.55 15.358524,8 15.940983,8 16.523442,8 17,7.3625 17,6.5833333 17,5.8041667 17.5625,4.9354528 18.25,4.6528581 18.9375,4.3702634 17.925,4.2802166 16,4.4527541 14.075,4.6252915 11.997205,4.3634563 11.382679,3.8708981 10.684235,3.3110782 9.7948187,3.5423021 9.010234,4.4876688 8.3199161,5.319451 8.0510434,6 8.412739,6 8.7744347,6 8.5561657,6.9607948 7.9276969,8.1350996 7.0147448,9.8409662 6.608677,9.9917436 5.9078259,8.8850996 5.23583,7.8240179 5.0270434,7.8026687 5.0153128,8.7938368 c -0.00842,0.7116102 -0.7515662,1.1616102 -1.6514315,1 C 2.1505017,9.5759213 1.698338,10.315114 1.6138813,12.654719 1.5512466,14.389814 1.8375,15.600756 2.25,15.345702 2.6625,15.090647 3,14.027518 3,12.983192 z m 42,1.957791 C 45,14.358524 44.55,14.160081 44,14.5 43.45,14.839919 43,15.316476 43,15.559017 43,15.801558 43.45,16 44,16 c 0.55,0 1,-0.476558 1,-1.059017 z m 5.1875,0.375903 c -0.721875,-0.288871 -1.584375,-0.253344 -1.916667,0.07895 -0.332291,0.332292 0.258334,0.568641 1.3125,0.52522 1.164943,-0.04798 1.4019,-0.284941 0.604167,-0.604167 z M 56,14.5 C 56,13.675 55.307258,13 54.460573,13 c -1.2719,0 -1.315345,0.254065 -0.25,1.461963 C 55.849748,16.320473 56,16.323667 56,14.5 z m 8,-0.559017 C 64,13.358524 63.55,13.160081 63,13.5 62.45,13.839919 62,14.316476 62,14.559017 62,14.801558 62.45,15 63,15 c 0.55,0 1,-0.476558 1,-1.059017 z m 107,-0.5 C 171,13.198442 170.55,13 170,13 c -0.55,0 -1,0.476558 -1,1.059017 0,0.582459 0.45,0.780902 1,0.440983 0.55,-0.339919 1,-0.816476 1,-1.059017 z M 12.232091,13.275269 C 10.434741,13.052707 7.7347409,13.0573 6.2320909,13.285474 4.7294409,13.513648 6.2,13.695744 9.5,13.690131 c 3.3,-0.0056 4.529441,-0.192301 2.732091,-0.414862 z M 21.5,12 C 21.258554,10.746271 21.653114,10 22.557418,10 23.350838,10 24,9.5234424 24,8.940983 c 0,-0.5824593 0.5625,-0.7414424 1.25,-0.3532956 0.989048,0.5583936 0.994015,0.429548 0.02379,-0.6171894 -0.968276,-1.0446379 -0.968276,-1.6539566 0,-2.8967044 1.079835,-1.3859316 1.018625,-1.4110572 -0.512784,-0.2104868 -0.956444,0.7498188 -1.492386,1.7623188 -1.190983,2.25 C 23.871431,7.6009881 23.416476,8 22.559017,8 21.154717,8 20.552615,9.1665607 20.881579,11.25 20.946711,11.6625 20.2125,12.006891 19.25,12.015313 17.754453,12.028399 17.718103,12.171574 19,13 c 2.269184,1.466459 2.924515,1.204327 2.5,-1 z m 155.47928,-0.417373 c -0.55434,-0.556374 -1.81227,-0.489134 -3.19665,0.17087 -2.14121,1.020818 -2.08458,1.077655 0.91402,0.917372 1.93642,-0.103506 2.83632,-0.532531 2.28263,-1.088242 z m 4.20822,0.734259 c -0.72188,-0.288871 -1.58437,-0.253344 -1.91667,0.07895 -0.33229,0.332292 0.25834,0.568641 1.3125,0.52522 1.16495,-0.04798 1.4019,-0.284941 0.60417,-0.604167 z M 150,10 c 0,-0.55 -0.45,-1 -1,-1 -0.55,0 -1,0.45 -1,1 0,0.55 0.45,1 1,1 0.55,0 1,-0.45 1,-1 z M 53.75,9.2837456 c -1.5125,-0.2291247 -3.9875,-0.2291247 -5.5,0 -1.5125,0.2291246 -0.275,0.4165902 2.75,0.4165902 3.025,0 4.2625,-0.1874656 2.75,-0.4165902 z M 65,9.1386719 C 65,8.6649414 63.875,8.4924011 62.5,8.755249 61.125,9.0180969 60,9.4056946 60,9.6165772 60,9.8274597 61.125,10 62.5,10 63.875,10 65,9.6124023 65,9.1386719 z M 145,7.3930112 C 145,7.176855 144.325,7 143.5,7 142.675,7 142,7.4358768 142,7.9686152 c 0,0.5327384 0.675,0.7095934 1.5,0.3930112 0.825,-0.3165822 1.5,-0.752459 1.5,-0.9686152 z M 50.75,7.3106745 c -0.9625,-0.2515276 -2.5375,-0.2515276 -3.5,0 -0.9625,0.2515275 -0.175,0.4573228 1.75,0.4573228 1.925,0 2.7125,-0.2057953 1.75,-0.4573228 z M 62.809017,5.0061607 c 0.735445,-0.00346 0.996371,0.4997104 0.595491,1.1483478 -0.442079,0.7152993 -0.274316,0.8830623 0.440984,0.440983 C 66.228487,5.1227195 64.856718,3.2013513 60.669466,2.1469889 56.44771,1.0839382 45.236574,2.0950867 42.573071,3.7791282 41.245245,4.618667 46.067407,5.7234888 51.75,5.8816852 54.0875,5.9467583 56,6.4233136 56,6.9406969 56,7.4580801 57.2375,7.2358525 58.75,6.4468576 60.2625,5.6578627 62.089058,5.0095491 62.809017,5.0061607 z M 197,6.1666667 c 0,-0.4583334 -0.675,-0.8333334 -1.5,-0.8333334 -0.825,0 -1.5,0.375 -1.5,0.8333334 C 194,6.625 194.675,7 195.5,7 196.325,7 197,6.625 197,6.1666667 z M 113.68799,194.28123 c 1.91741,-0.2398 3.36574,-1.07275 3.634,-2.08996 0.31691,-1.20173 0.47958,-1.04 0.56201,0.55873 0.10209,1.98016 -0.33373,2.23081 -3.634,2.08996 -3.60277,-0.15375 -3.62484,-0.17569 -0.56201,-0.55873 z M 47.5,191 c 0.853248,-1.65 1.77636,-3 2.05136,-3 0.275,0 -0.198112,1.35 -1.05136,3 -0.853248,1.65 -1.77636,3 -2.05136,3 -0.275,0 0.198112,-1.35 1.05136,-3 z m 58.77083,1.39583 c 0.3323,-0.33229 1.1948,-0.36781 1.91667,-0.0789 0.79773,0.31922 0.56078,0.55618 -0.60417,0.60416 -1.05416,0.0434 -1.64479,-0.19292 -1.3125,-0.52522 z m -71.999997,-3 c 0.332292,-0.33229 1.194792,-0.36781 1.916667,-0.0789 0.797733,0.31922 0.560776,0.55618 -0.604167,0.60416 -1.054166,0.0434 -1.644791,-0.19292 -1.3125,-0.52522 z M 36,186.05902 C 36,185.47656 36.45,185 37,185 c 0.55,0 1,0.19844 1,0.44098 0,0.24254 -0.45,0.7191 -1,1.05902 -0.55,0.33992 -1,0.14148 -1,-0.44098 z m 9.75,-0.7213 c 0.6875,-0.27741 1.8125,-0.27741 2.5,0 0.6875,0.27741 0.125,0.50439 -1.25,0.50439 -1.375,0 -1.9375,-0.22698 -1.25,-0.50439 z M 0.04085214,167.5 c -0.02157272,-0.55 0.87038571,-3.25 1.98212986,-6 1.6924873,-4.18652 1.9171308,-4.43056 1.3807576,-1.5 -0.6386876,3.48958 -3.28840126,9.39904 -3.36288746,7.5 z M 3.0789474,128.58333 c -0.043421,-1.05416 0.1929276,-1.64479 0.5252193,-1.3125 0.3322916,0.3323 0.3678179,1.19479 0.078947,1.91667 -0.3192263,0.79773 -0.5561827,0.56078 -0.6041666,-0.60417 z M 0.07894737,113.75 C 0.03552632,106.1875 0.35270725,100 0.78379389,100 c 0.74501111,0 0.50421181,24.39835 -0.26154152,26.5 -0.2003967,0.55 -0.39988395,-5.1875 -0.443305,-12.75 z M 197.26524,71.865243 c -0.84634,-0.846342 -0.74003,-1.737189 0.41829,-3.505006 1.19997,-1.831383 1.28777,-2.68989 0.3862,-3.776215 -0.81191,-0.978292 -0.84293,-1.606159 -0.10198,-2.064093 0.58568,-0.361969 0.80598,-1.077031 0.48954,-1.589027 C 198.14086,60.418906 198.35852,60 198.94098,60 c 1.36454,0 1.37153,1.688827 0.0105,2.530011 -0.71725,0.443285 -0.67987,1.092281 0.11829,2.054011 0.90157,1.086325 0.81377,1.944832 -0.3862,3.776215 -1.15832,1.767817 -1.26463,2.658664 -0.41829,3.505006 C 198.88936,72.489359 199.175,73 198.9,73 c -0.275,0 -1.01064,-0.510641 -1.63476,-1.134757 z m 0.46809,-35.989331 c 0.67834,-0.683418 1.48524,-0.990671 1.79313,-0.682784 0.30789,0.307887 -0.24711,0.867048 -1.23333,1.242579 -1.4252,0.542685 -1.54006,0.427821 -0.5598,-0.559795 z M 197,19.606989 c 0,-0.216156 0.675,-0.652033 1.5,-0.968615 0.825,-0.316583 1.5,-0.139728 1.5,0.393011 C 200,19.564123 199.325,20 198.5,20 197.675,20 197,19.823145 197,19.606989 z M 196,14 c 0,-0.55 0.92656,-1 2.05902,-1 1.13246,0 1.7809,0.45 1.44098,1 -0.33992,0.55 -1.26648,1 -2.05902,1 C 196.64844,15 196,14.55 196,14 z M 172,1.0590172 C 172,0.47655719 172.45,1.9230373e-7 173,1.9230373e-7 c 0.55,0 1,0.19844199769627 1,0.44098299769627 0,0.24254 -0.45,0.71909801 -1,1.05901701 -0.55,0.3399185 -1,0.141476 -1,-0.440983 z"
         style="fill:#ac9d93"
         inkscape:connector-curvature="0"
         inkscape:export-filename="sample_cover.png"
         inkscape:export-xdpi="68.358444"
         inkscape:export-ydpi="68.358444" />
    </g>
    <g
       inkscape:export-ydpi="68.358444"
       inkscape:export-xdpi="68.358444"
       inkscape:export-filename="sample_cover.png"
       transform="translate(1294.9604,-138.87421)"
       id="g3352">
      <path
         style="fill:#000000"
         d="m -358.22709,285.87996 c -1.1673,6.44557 2.76467,17.88821 2.14065,23.28332 6.02945,12.24518 10.14036,26.50761 20.27174,36.34441 1.96767,1.51498 9.05891,4.99049 5.38777,5.19851 -1.86384,0.10563 -15.33247,-8.42885 -7.44978,-1.56087 0.0312,3.61342 13.10803,12.74292 15.49676,15.28083 1.23065,1.30752 -3.09001,-0.49096 -7.79209,-2.86136 -2.24139,1.79453 16.30255,12.56767 18.10416,16.65477 -3.61487,0.1557 -13.63113,-5.24907 -6.20428,1.39475 8.79169,8.83561 12.37758,21.04192 21.13261,30.5328 2.46148,13.53362 21.48792,11.06279 23.27055,24.34135 7.66655,9.00102 15.19974,18.44292 24.04925,26.25698 2.41141,6.25668 17.07136,14.00008 22.31337,22.6416 11.46635,4.16237 -3.95234,6.39832 7.91914,9.5441 7.57748,1.82522 0.62583,5.25155 9.85465,5.20225 -3.04638,2.68193 -6.1215,3.86416 2.40521,2.38791 11.68509,2.11168 -9.59426,1.62095 -2.07137,3.53908 -0.10672,-0.11547 3.98018,7.11009 9.94168,4.54737 7.09014,5.34022 -13.93965,9.36602 -2.11072,9.41194 0.43335,8.9946 3.55467,5.77612 8.48489,1.6715 -3.67858,11.49244 4.51048,-6.52974 7.18236,1.04908 0.0382,-1.29445 0.75136,-2.96135 1.87447,-4.35598 0.52846,-0.65623 1.15913,-1.26031 1.84549,-1.72704 0.55166,-0.37516 1.1471,-0.67067 1.7701,-0.84448 2.36218,-0.65902 5.13532,0.37108 7.58016,5.0302 15.48999,18.88073 29.85637,38.81946 47.24301,56.07683 -1.13081,-3.93545 -3.49887,-7.48192 -5.11598,-11.24268 -13.93032,-21.99544 -31.86432,-41.2944 -47.09788,-62.40742 9.2203,12.57222 7.82801,-11.18072 11.14998,-16.67635 2.75911,-12.08722 -0.93788,1.13854 -2.68486,-1.45612 -2.00793,-12.04529 -6.91083,-20.88412 -13.60938,-31.23707 -4.24178,-11.47164 -13.27514,-20.98781 -20.58313,-31.24151 -6.88472,-10.4413 -15.70617,-19.36673 -22.8089,-29.53809 -7.9895,-10.31973 -16.15775,-19.88214 -23.16526,-30.77754 -8.72607,-13.19859 -20.94228,-23.30456 -30.52484,-35.78891 -10.35142,-15.31103 -23.61243,-28.19096 -37.12155,-40.62394 -8.97013,-7.86741 -20.75979,-13.35234 -32.92412,-11.49765 -1.43196,0.62623 -4.5446,-0.44884 -4.04956,1.66768 0.87378,3.73587 7.88622,7.49009 9.73388,8.64566 1.03662,0.64833 -2.08083,-0.39075 -6.41942,-1.29062 -4.81037,-0.94123 -6.80732,1.04845 -7.41876,4.42471 z m 10.63,-12.61808 c 1.55586,1.46756 2.59873,3.35339 3.7306,5.13698 7.48354,11.37624 -2.34857,-0.51241 -3.7306,-5.13698 z m 9.27657,14.93624 c 0.0528,-0.23893 0.48095,0.0511 1.64499,1.50509 2.35918,3.66381 0.54179,2.1448 -0.62692,0.62654 -0.51139,-0.66437 -1.08587,-1.82447 -1.01807,-2.13163 z m 10.18478,15.59605 c -0.003,-0.0693 0.0114,-0.11153 0.0352,-0.15255 1.16234,1.63568 3.17169,2.73203 4.32471,4.3743 8.14637,13.02529 -4.2709,-2.0727 -4.35995,-4.22175 z m 9.01889,13.2696 c 0.0489,-0.35017 0.25081,-0.50604 0.71601,-0.31666 1.24636,3.80512 1.41565,5.81991 0.9327,5.00467 -0.46242,-0.7805 -1.79554,-3.63758 -1.64871,-4.68801 z m 8.7208,13.16855 c 0.0357,-0.16874 0.0839,-0.3237 0.14335,-0.48116 1.66709,1.50018 2.58069,3.53344 3.66008,5.44211 4.98485,10.4929 -4.90857,0.27009 -3.80343,-4.96095 z m 10.32568,15.40364 c -0.0482,-0.35437 0.805,0.52714 3.0551,3.47021 30.98788,44.67 64.93645,87.15636 99.94774,128.7154 2.81413,3.44465 5.86835,6.72542 8.36018,10.41743 -8.97325,-8.44473 -16.59497,-18.21332 -24.34219,-27.77106 -26.89566,-32.00594 -52.69838,-64.95797 -76.52618,-99.325 -2.19674,-2.14578 -10.34987,-14.44384 -10.49465,-15.50698 z m 24.15177,82.56116 c 0.0434,-0.25904 0.24311,-0.55441 0.71384,-0.86356 7.37444,3.10152 -1.01791,2.67702 -0.71384,0.86356 z m 19.18058,19.92489 c 0.0768,-0.40505 0.56048,-1.11559 1.73767,-2.23409 1.38123,1.87515 -1.96821,3.44922 -1.73767,2.23409 z m 4.94877,-2.35986 c 0.0889,-0.20609 0.42741,-0.49911 1.14576,-0.92447 2.67566,0.88238 -1.53108,1.81752 -1.14576,0.92447 z m 20.56515,-2.06167 c 6.22055,6.96837 3.15173,5.97202 0,0 z m 7.21736,9.38193 c 0.13215,-0.24941 8.60378,9.39028 11.42028,12.8924 4.92373,5.93045 10.07806,11.71233 14.62511,17.94001 -7.62216,-7.50751 -14.38969,-16.74283 -21.53568,-25.03326 -3.34347,-4.09044 -4.56141,-5.70155 -4.50971,-5.79915 z m 2.24581,32.56447 c 0.0463,-0.23836 0.48721,-0.37098 1.5892,-0.33985 5.55314,4.01022 -1.78993,1.37281 -1.5892,0.33985 z m 7.10477,-6.26505 c -0.006,-0.17298 0.52754,-0.54269 1.9228,-1.22704 8.06644,-1.1301 -1.89785,1.97661 -1.9228,1.22704 z m -0.28252,25.84111 c 0.008,0.16664 0.19112,0.33165 0.63127,0.4673 8.01925,-3.1863 -0.68734,-1.63379 -0.63127,-0.4673 z m 15.38178,-54.04375 c 0.97188,-4.55308 2.47687,-9.47865 3.98252,-12.64359 -0.43541,7.79095 -2.83886,15.45392 -4.80018,22.99718 -0.58129,-1.64076 -0.15419,-5.80051 0.81766,-10.35359 z m -8.51608,62.0266 c -0.0491,0.40727 0.206,0.5132 0.98819,0.0355 5.2592,-9.27804 -0.77554,-1.8004 -0.98819,-0.0355 z m 29.434,-4.83346 c 0.0781,-1.24897 11.30035,10.91627 2.13499,3.41829 -1.5531,-2.12281 -2.15299,-3.13007 -2.13499,-3.41829 z m 8.7295,-7.59314 c -0.0253,0.28106 0.29093,0.43054 1.15245,0.29847 5.33105,-5.27354 -1.0426,-1.51641 -1.15245,-0.29847 z m -1.13805,6.45468 c -0.0921,0.7554 0.51092,1.24751 2.32113,1.08281 l 1.45806,-1.30231 c 5.70495,-8.54459 -3.45022,-2.4783 -3.77919,0.2195 z m 0.80038,0.15281 c 0.0918,-0.28474 0.44818,-0.89901 1.2705,-2.02061 3.22299,-1.83191 -1.66846,3.25453 -1.2705,2.02061 z m 0.26592,13.17537 c 1.31808,-1.21157 0.97716,-1.4631 3.03354,-2.8346 11.80076,14.50217 21.27678,26.07863 34.53825,44.84829 1.81169,3.2904 2.92653,5.20992 4.39614,8.79424 -17.7121,-19.56559 -26.57214,-31.51953 -41.96793,-50.80793 z"
         id="path2449"
         inkscape:connector-curvature="0" />
    </g>
  </g>
  <g
     inkscape:export-ydpi="68.358444"
     inkscape:export-xdpi="68.358444"
     transform="matrix(0.2292073,0,0,0.2292073,173.13941,335.17263)"
     id="g3670"
     inkscape:export-filename="sample_cover.png">
    <rect
       style="color:#000000;fill:none;stroke:none;stroke-width:0.96509928;marker:none;visibility:visible;display:inline;overflow:visible;enable-background:accumulate"
       id="rect3668"
       width="256"
       height="256"
       x="-508.29984"
       y="2465.915" />
    <g
       id="g3660"
       transform="matrix(1.1143527,-1.1143527,1.1143527,1.1143527,-2052.1263,-10.064136)">
      <rect
         style="color:#000000;fill:#85b916;fill-opacity:1;fill-rule:nonzero;stroke:none;stroke-width:1;marker:none;visibility:visible;display:inline;overflow:visible;enable-background:accumulate"
         id="rect3612"
         width="8.4173317"
         height="100.40916"
         x="-401.88315"
         y="1887.8271" />
      <path
         sodipodi:nodetypes="ssccccccssccsccccssccs"
         inkscape:connector-curvature="0"
         id="path3614"
         d="m -464.70393,1873.3238 c -4.92114,0 -9.84227,4.9211 -9.84227,9.8423 l 0,1.8422 0,3.9817 4.92113,0 4.42653,0 29.47191,0 10.39178,0 0,93.5016 c 0,2.7263 2.19483,4.9211 4.92114,4.9211 l 14.76341,0 13.84227,0 c -2.71432,0 -8.92114,-0.5453 -8.92114,-4.9211 l 0,-93.5016 44.29022,0 4.92114,0 0,-3.9817 0,-6.7634 c 0,-2.7263 -2.19483,-4.9211 -4.92114,-4.9211 l -44.29022,0 -14.7634,0 z"
         style="color:#000000;fill:#000000;fill-opacity:1;fill-rule:nonzero;stroke:#000000;stroke-width:1.77160883;stroke-linecap:butt;stroke-linejoin:miter;stroke-miterlimit:4;stroke-opacity:1;stroke-dasharray:none;stroke-dashoffset:0;marker:none;visibility:visible;display:inline;overflow:visible;enable-background:accumulate" />
      <rect
         style="color:#000000;fill:#000000;fill-opacity:1;fill-rule:nonzero;stroke:none;stroke-width:1;marker:none;visibility:visible;display:inline;overflow:visible;enable-background:accumulate"
         id="rect3634"
         width="32.468369"
         height="5.0000215"
         x="-468.46469"
         y="1904.5978" />
      <rect
         y="1927.5978"
         x="-468.46469"
         height="5"
         width="32.468369"
         id="rect3638"
         style="color:#000000;fill:#000000;fill-opacity:1;fill-rule:nonzero;stroke:none;stroke-width:1;marker:none;visibility:visible;display:inline;overflow:visible;enable-background:accumulate" />
      <rect
         style="color:#000000;fill:#000000;fill-opacity:1;fill-rule:nonzero;stroke:none;stroke-width:1;marker:none;visibility:visible;display:inline;overflow:visible;enable-background:accumulate"
         id="rect3640"
         width="32.468369"
         height="5"
         x="-468.46469"
         y="1950.5978" />
      <rect
         y="1973.5978"
         x="-468.46469"
         height="5"
         width="32.468369"
         id="rect3642"
         style="color:#000000;fill:#000000;fill-opacity:1;fill-rule:nonzero;stroke:none;stroke-width:1;marker:none;visibility:visible;display:inline;overflow:visible;enable-background:accumulate" />
    </g>
  </g>
</svg>
