G04 MADE WITH FRITZING*
G04 WWW.FRITZING.ORG*
G04 DOUBLE SIDED*
G04 HOLES PLATED*
G04 CONTOUR ON CENTER OF CONTOUR VECTOR*
%ASAXBY*%
%FSLAX23Y23*%
%MOIN*%
%OFA0B0*%
%SFA1.0B1.0*%
%ADD10C,0.065972*%
%ADD11C,0.075000*%
%ADD12C,0.039370*%
%ADD13C,0.078000*%
%ADD14C,0.070000*%
%ADD15C,0.062992*%
%ADD16C,0.090000*%
%ADD17C,0.059370*%
%ADD18C,0.087695*%
%ADD19C,0.087722*%
%ADD20C,0.070925*%
%ADD21C,0.070866*%
%ADD22R,0.062992X0.062992*%
%ADD23R,0.075000X0.075000*%
%ADD24R,0.069972X0.070000*%
%ADD25C,0.016000*%
%ADD26C,0.012000*%
%ADD27C,0.024000*%
%ADD28R,0.001000X0.001000*%
%LNCOPPER0*%
G90*
G70*
G54D10*
X1484Y792D03*
X1484Y892D03*
X1484Y992D03*
X1484Y1092D03*
X1484Y1192D03*
X1484Y1292D03*
X1484Y792D03*
X1484Y892D03*
X1484Y992D03*
X1484Y1092D03*
X1484Y1192D03*
X1484Y1292D03*
G54D11*
X1647Y382D03*
X1647Y482D03*
X1647Y582D03*
X1647Y682D03*
X1647Y782D03*
X1647Y882D03*
X1647Y982D03*
X1647Y1082D03*
X1647Y1182D03*
X1647Y1282D03*
X1647Y1382D03*
X1647Y1482D03*
X1647Y1582D03*
X1314Y1682D03*
X1314Y1582D03*
X1314Y1482D03*
X1314Y1382D03*
X1314Y1282D03*
X1314Y1182D03*
X1314Y1082D03*
X1314Y982D03*
X1314Y882D03*
X1314Y782D03*
X1314Y682D03*
X1314Y582D03*
X1314Y482D03*
X1314Y382D03*
X1647Y1682D03*
G54D12*
X2194Y1482D03*
X1514Y112D03*
X1444Y212D03*
X1744Y2432D03*
X2294Y1472D03*
G54D13*
X1714Y1882D03*
X1614Y1882D03*
X1354Y1882D03*
X1254Y1882D03*
X884Y1882D03*
X784Y1882D03*
X1154Y1082D03*
X1154Y982D03*
X1154Y882D03*
X1154Y782D03*
X1154Y682D03*
X1154Y582D03*
X324Y1082D03*
X324Y982D03*
X324Y882D03*
X324Y782D03*
X1174Y1682D03*
X1174Y1582D03*
X1174Y1482D03*
X1174Y1382D03*
G54D14*
X1774Y1082D03*
X1774Y982D03*
G54D15*
X184Y1182D03*
X184Y1280D03*
G54D11*
X174Y942D03*
X174Y542D03*
G54D13*
X1884Y2382D03*
X1884Y2282D03*
X1884Y2182D03*
X2254Y1602D03*
X1784Y632D03*
X1784Y732D03*
X1784Y832D03*
X324Y482D03*
X475Y2482D03*
X575Y2482D03*
X2784Y2082D03*
X2784Y2182D03*
X1944Y1382D03*
X1944Y1282D03*
X1944Y1182D03*
X1944Y1082D03*
X1944Y982D03*
X1944Y882D03*
X1944Y782D03*
X1944Y682D03*
X2044Y682D03*
X2044Y782D03*
X2044Y882D03*
X2044Y982D03*
X2044Y1082D03*
X2044Y1182D03*
X2044Y1282D03*
X2044Y1382D03*
G54D16*
X2584Y1385D03*
X2584Y1679D03*
X2584Y1088D03*
X2485Y1188D03*
X2484Y1582D03*
X2977Y1188D03*
X2977Y1582D03*
G54D14*
X1264Y2112D03*
X1364Y2112D03*
X1264Y2302D03*
X1364Y2302D03*
G54D17*
X684Y2232D03*
X984Y2232D03*
X684Y2032D03*
X984Y2032D03*
G54D18*
X184Y2082D03*
G54D19*
X381Y2279D03*
X381Y2180D03*
G54D18*
X381Y1984D03*
G54D19*
X381Y1885D03*
G54D11*
X1484Y2482D03*
X1484Y2082D03*
X1674Y2482D03*
X1674Y2082D03*
X984Y2412D03*
X1084Y2412D03*
X704Y2412D03*
X804Y2412D03*
G54D14*
X424Y1682D03*
X424Y1582D03*
X424Y1482D03*
X424Y1382D03*
X424Y1282D03*
X424Y1182D03*
X424Y1082D03*
X424Y982D03*
X424Y882D03*
X424Y782D03*
X424Y682D03*
X424Y582D03*
X424Y482D03*
X424Y382D03*
X424Y282D03*
X1024Y1682D03*
X1024Y1582D03*
X1024Y1482D03*
X1024Y1382D03*
X1024Y1282D03*
X1024Y1182D03*
X1024Y1082D03*
X1024Y982D03*
X1024Y882D03*
X1024Y782D03*
X1024Y682D03*
X1024Y582D03*
X1024Y482D03*
X1024Y382D03*
X1024Y282D03*
G54D20*
X1994Y1812D03*
G54D21*
X1994Y1619D03*
G54D22*
X184Y1182D03*
G54D23*
X984Y2412D03*
X704Y2412D03*
G54D24*
X424Y1682D03*
G54D25*
X955Y251D02*
X964Y1842D01*
D02*
X1005Y212D02*
X955Y251D01*
D02*
X964Y1842D02*
X906Y1871D01*
D02*
X1345Y212D02*
X1005Y212D01*
D02*
X1424Y272D02*
X1345Y212D01*
D02*
X1554Y272D02*
X1424Y272D01*
D02*
X1584Y302D02*
X1554Y272D01*
D02*
X1584Y432D02*
X1584Y302D01*
D02*
X1629Y468D02*
X1584Y432D01*
D02*
X1554Y1272D02*
X1505Y1286D01*
G54D26*
D02*
X1524Y532D02*
X1484Y573D01*
D02*
X1874Y582D02*
X1824Y532D01*
D02*
X1824Y532D02*
X1524Y532D01*
D02*
X1875Y951D02*
X1874Y582D01*
D02*
X1484Y573D02*
X1484Y771D01*
D02*
X1922Y972D02*
X1875Y951D01*
G54D27*
D02*
X1975Y982D02*
X2014Y982D01*
G54D26*
D02*
X1835Y1033D02*
X1575Y1031D01*
D02*
X1545Y1002D02*
X1544Y922D01*
D02*
X1544Y922D02*
X1503Y902D01*
D02*
X1575Y1031D02*
X1545Y1002D01*
D02*
X1930Y1162D02*
X1835Y1033D01*
G54D27*
D02*
X1975Y1182D02*
X2014Y1182D01*
D02*
X884Y2482D02*
X605Y2482D01*
D02*
X961Y2428D02*
X884Y2482D01*
D02*
X475Y2402D02*
X475Y2452D01*
D02*
X404Y2309D02*
X475Y2402D01*
G54D25*
D02*
X1555Y1173D02*
X1631Y1098D01*
D02*
X1554Y1272D02*
X1555Y1173D01*
D02*
X1584Y1322D02*
X1554Y1272D01*
D02*
X1585Y1721D02*
X1584Y1322D01*
D02*
X1765Y1762D02*
X1645Y1762D01*
D02*
X1645Y1762D02*
X1585Y1721D01*
D02*
X1794Y1802D02*
X1765Y1762D01*
D02*
X1794Y2142D02*
X1794Y1802D01*
D02*
X1795Y2223D02*
X1794Y2142D01*
D02*
X1864Y2268D02*
X1795Y2223D01*
G54D27*
D02*
X644Y2402D02*
X676Y2407D01*
D02*
X475Y2402D02*
X644Y2402D01*
D02*
X1340Y1593D02*
X1436Y1633D01*
D02*
X1434Y1841D02*
X1585Y1875D01*
D02*
X1436Y1633D02*
X1434Y1841D01*
D02*
X1674Y1962D02*
X1674Y2053D01*
D02*
X1701Y1909D02*
X1674Y1962D01*
D02*
X1715Y1352D02*
X1666Y1302D01*
D02*
X1724Y1582D02*
X1715Y1352D01*
D02*
X1934Y1661D02*
X1905Y1631D01*
D02*
X1905Y1631D02*
X1754Y1622D01*
D02*
X1935Y1742D02*
X1934Y1661D01*
D02*
X1754Y1622D02*
X1724Y1582D01*
D02*
X1977Y1792D02*
X1935Y1742D01*
D02*
X2194Y1463D02*
X2194Y1133D01*
D02*
X2194Y1133D02*
X2066Y1003D01*
D02*
X1264Y2276D02*
X1264Y2138D01*
D02*
X1047Y1601D02*
X1094Y1642D01*
D02*
X1164Y1973D02*
X1249Y2091D01*
D02*
X1095Y1872D02*
X1164Y1973D01*
D02*
X1094Y1642D02*
X1095Y1872D01*
D02*
X713Y2242D02*
X854Y2292D01*
D02*
X1205Y2292D02*
X1238Y2298D01*
D02*
X854Y2292D02*
X1205Y2292D01*
D02*
X1875Y2482D02*
X1795Y2552D01*
D02*
X1882Y2412D02*
X1875Y2482D01*
D02*
X1795Y2552D02*
X1596Y2552D01*
X1596Y2552D02*
X1454Y2552D01*
D02*
X1454Y2552D02*
X1275Y2453D01*
D02*
X1275Y2453D02*
X1266Y2328D01*
D02*
X1955Y2352D02*
X1912Y2370D01*
D02*
X2634Y2341D02*
X1955Y2352D01*
D02*
X2685Y2182D02*
X2685Y2323D01*
D02*
X2685Y2323D02*
X2634Y2341D01*
D02*
X2763Y2103D02*
X2685Y2182D01*
D02*
X2070Y697D02*
X2164Y753D01*
D02*
X2164Y753D02*
X2164Y1003D01*
D02*
X2164Y1003D02*
X2555Y1359D01*
D02*
X254Y542D02*
X402Y664D01*
D02*
X203Y542D02*
X254Y542D01*
D02*
X665Y2008D02*
X540Y1856D01*
X540Y1856D02*
X544Y772D01*
D02*
X544Y772D02*
X448Y699D01*
D02*
X1504Y128D02*
X1455Y197D01*
D02*
X1164Y1832D02*
X1294Y1702D01*
D02*
X1184Y1881D02*
X1164Y1832D01*
D02*
X1224Y1882D02*
X1184Y1881D01*
D02*
X1375Y1883D02*
X1385Y1883D01*
D02*
X1414Y1912D02*
X1375Y1883D01*
D02*
X1474Y2056D02*
X1414Y1912D01*
D02*
X1564Y2143D02*
X1507Y2099D01*
D02*
X1565Y2272D02*
X1564Y2143D01*
D02*
X1730Y2419D02*
X1565Y2272D01*
D02*
X494Y282D02*
X845Y63D01*
D02*
X454Y282D02*
X494Y282D01*
D02*
X845Y63D02*
X1634Y63D01*
D02*
X1634Y63D02*
X2685Y991D01*
D02*
X2685Y1421D02*
X2634Y1472D01*
D02*
X2685Y991D02*
X2685Y1421D01*
D02*
X2634Y1472D02*
X2313Y1472D01*
D02*
X1776Y956D02*
X1782Y862D01*
D02*
X2415Y1602D02*
X2285Y1602D01*
D02*
X2447Y1593D02*
X2415Y1602D01*
D02*
X235Y1282D02*
X345Y1382D01*
D02*
X345Y1382D02*
X395Y1382D01*
D02*
X211Y1281D02*
X235Y1282D01*
D02*
X176Y971D02*
X183Y1155D01*
D02*
X475Y1882D02*
X419Y1884D01*
D02*
X514Y1932D02*
X475Y1882D01*
D02*
X515Y2283D02*
X514Y1932D01*
D02*
X574Y2332D02*
X515Y2283D01*
D02*
X914Y2332D02*
X574Y2332D01*
D02*
X965Y2391D02*
X914Y2332D01*
D02*
X1389Y2311D02*
X1555Y2372D01*
D02*
X1555Y2372D02*
X1653Y2463D01*
G54D28*
X655Y2262D02*
X713Y2262D01*
X955Y2262D02*
X1013Y2262D01*
X655Y2261D02*
X713Y2261D01*
X955Y2261D02*
X1013Y2261D01*
X655Y2260D02*
X713Y2260D01*
X955Y2260D02*
X1013Y2260D01*
X655Y2259D02*
X713Y2259D01*
X955Y2259D02*
X1013Y2259D01*
X655Y2258D02*
X713Y2258D01*
X955Y2258D02*
X1013Y2258D01*
X655Y2257D02*
X713Y2257D01*
X955Y2257D02*
X1013Y2257D01*
X655Y2256D02*
X713Y2256D01*
X955Y2256D02*
X1013Y2256D01*
X655Y2255D02*
X713Y2255D01*
X955Y2255D02*
X1013Y2255D01*
X655Y2254D02*
X713Y2254D01*
X955Y2254D02*
X1013Y2254D01*
X655Y2253D02*
X713Y2253D01*
X955Y2253D02*
X1013Y2253D01*
X655Y2252D02*
X679Y2252D01*
X689Y2252D02*
X713Y2252D01*
X955Y2252D02*
X979Y2252D01*
X989Y2252D02*
X1013Y2252D01*
X655Y2251D02*
X676Y2251D01*
X692Y2251D02*
X713Y2251D01*
X955Y2251D02*
X976Y2251D01*
X992Y2251D02*
X1013Y2251D01*
X655Y2250D02*
X674Y2250D01*
X694Y2250D02*
X713Y2250D01*
X955Y2250D02*
X974Y2250D01*
X994Y2250D02*
X1013Y2250D01*
X655Y2249D02*
X672Y2249D01*
X695Y2249D02*
X713Y2249D01*
X955Y2249D02*
X972Y2249D01*
X995Y2249D02*
X1013Y2249D01*
X655Y2248D02*
X671Y2248D01*
X697Y2248D02*
X713Y2248D01*
X955Y2248D02*
X971Y2248D01*
X997Y2248D02*
X1013Y2248D01*
X655Y2247D02*
X670Y2247D01*
X698Y2247D02*
X713Y2247D01*
X955Y2247D02*
X970Y2247D01*
X998Y2247D02*
X1013Y2247D01*
X655Y2246D02*
X669Y2246D01*
X699Y2246D02*
X713Y2246D01*
X955Y2246D02*
X969Y2246D01*
X999Y2246D02*
X1013Y2246D01*
X655Y2245D02*
X668Y2245D01*
X700Y2245D02*
X713Y2245D01*
X955Y2245D02*
X968Y2245D01*
X1000Y2245D02*
X1013Y2245D01*
X655Y2244D02*
X667Y2244D01*
X700Y2244D02*
X713Y2244D01*
X955Y2244D02*
X967Y2244D01*
X1000Y2244D02*
X1013Y2244D01*
X655Y2243D02*
X667Y2243D01*
X701Y2243D02*
X713Y2243D01*
X955Y2243D02*
X966Y2243D01*
X1001Y2243D02*
X1013Y2243D01*
X655Y2242D02*
X666Y2242D01*
X702Y2242D02*
X713Y2242D01*
X955Y2242D02*
X966Y2242D01*
X1002Y2242D02*
X1013Y2242D01*
X655Y2241D02*
X665Y2241D01*
X702Y2241D02*
X713Y2241D01*
X955Y2241D02*
X965Y2241D01*
X1002Y2241D02*
X1013Y2241D01*
X655Y2240D02*
X665Y2240D01*
X703Y2240D02*
X713Y2240D01*
X955Y2240D02*
X965Y2240D01*
X1003Y2240D02*
X1013Y2240D01*
X655Y2239D02*
X665Y2239D01*
X703Y2239D02*
X713Y2239D01*
X955Y2239D02*
X965Y2239D01*
X1003Y2239D02*
X1013Y2239D01*
X655Y2238D02*
X664Y2238D01*
X703Y2238D02*
X713Y2238D01*
X955Y2238D02*
X964Y2238D01*
X1003Y2238D02*
X1013Y2238D01*
X655Y2237D02*
X664Y2237D01*
X703Y2237D02*
X713Y2237D01*
X955Y2237D02*
X964Y2237D01*
X1003Y2237D02*
X1013Y2237D01*
X655Y2236D02*
X664Y2236D01*
X704Y2236D02*
X713Y2236D01*
X955Y2236D02*
X964Y2236D01*
X1004Y2236D02*
X1013Y2236D01*
X655Y2235D02*
X664Y2235D01*
X704Y2235D02*
X713Y2235D01*
X955Y2235D02*
X964Y2235D01*
X1004Y2235D02*
X1013Y2235D01*
X655Y2234D02*
X664Y2234D01*
X704Y2234D02*
X713Y2234D01*
X955Y2234D02*
X964Y2234D01*
X1004Y2234D02*
X1013Y2234D01*
X655Y2233D02*
X664Y2233D01*
X704Y2233D02*
X713Y2233D01*
X955Y2233D02*
X964Y2233D01*
X1004Y2233D02*
X1013Y2233D01*
X655Y2232D02*
X664Y2232D01*
X704Y2232D02*
X713Y2232D01*
X955Y2232D02*
X964Y2232D01*
X1004Y2232D02*
X1013Y2232D01*
X655Y2231D02*
X664Y2231D01*
X704Y2231D02*
X713Y2231D01*
X955Y2231D02*
X964Y2231D01*
X1004Y2231D02*
X1013Y2231D01*
X655Y2230D02*
X664Y2230D01*
X704Y2230D02*
X713Y2230D01*
X955Y2230D02*
X964Y2230D01*
X1004Y2230D02*
X1013Y2230D01*
X655Y2229D02*
X664Y2229D01*
X704Y2229D02*
X713Y2229D01*
X955Y2229D02*
X964Y2229D01*
X1003Y2229D02*
X1013Y2229D01*
X655Y2228D02*
X664Y2228D01*
X703Y2228D02*
X713Y2228D01*
X955Y2228D02*
X964Y2228D01*
X1003Y2228D02*
X1013Y2228D01*
X655Y2227D02*
X665Y2227D01*
X703Y2227D02*
X713Y2227D01*
X955Y2227D02*
X965Y2227D01*
X1003Y2227D02*
X1013Y2227D01*
X655Y2226D02*
X665Y2226D01*
X703Y2226D02*
X713Y2226D01*
X955Y2226D02*
X965Y2226D01*
X1003Y2226D02*
X1013Y2226D01*
X655Y2225D02*
X665Y2225D01*
X702Y2225D02*
X713Y2225D01*
X955Y2225D02*
X965Y2225D01*
X1002Y2225D02*
X1013Y2225D01*
X655Y2224D02*
X666Y2224D01*
X702Y2224D02*
X713Y2224D01*
X955Y2224D02*
X966Y2224D01*
X1002Y2224D02*
X1013Y2224D01*
X655Y2223D02*
X666Y2223D01*
X701Y2223D02*
X713Y2223D01*
X955Y2223D02*
X966Y2223D01*
X1001Y2223D02*
X1013Y2223D01*
X655Y2222D02*
X667Y2222D01*
X701Y2222D02*
X713Y2222D01*
X955Y2222D02*
X967Y2222D01*
X1001Y2222D02*
X1013Y2222D01*
X655Y2221D02*
X668Y2221D01*
X700Y2221D02*
X713Y2221D01*
X955Y2221D02*
X968Y2221D01*
X1000Y2221D02*
X1013Y2221D01*
X655Y2220D02*
X668Y2220D01*
X699Y2220D02*
X713Y2220D01*
X955Y2220D02*
X968Y2220D01*
X999Y2220D02*
X1013Y2220D01*
X655Y2219D02*
X669Y2219D01*
X698Y2219D02*
X713Y2219D01*
X955Y2219D02*
X969Y2219D01*
X998Y2219D02*
X1013Y2219D01*
X655Y2218D02*
X670Y2218D01*
X697Y2218D02*
X713Y2218D01*
X955Y2218D02*
X970Y2218D01*
X997Y2218D02*
X1013Y2218D01*
X655Y2217D02*
X672Y2217D01*
X696Y2217D02*
X713Y2217D01*
X955Y2217D02*
X972Y2217D01*
X996Y2217D02*
X1013Y2217D01*
X655Y2216D02*
X673Y2216D01*
X694Y2216D02*
X713Y2216D01*
X955Y2216D02*
X973Y2216D01*
X994Y2216D02*
X1013Y2216D01*
X655Y2215D02*
X675Y2215D01*
X693Y2215D02*
X713Y2215D01*
X955Y2215D02*
X975Y2215D01*
X992Y2215D02*
X1013Y2215D01*
X655Y2214D02*
X678Y2214D01*
X690Y2214D02*
X713Y2214D01*
X955Y2214D02*
X978Y2214D01*
X990Y2214D02*
X1013Y2214D01*
X655Y2213D02*
X713Y2213D01*
X955Y2213D02*
X1013Y2213D01*
X655Y2212D02*
X713Y2212D01*
X955Y2212D02*
X1013Y2212D01*
X655Y2211D02*
X713Y2211D01*
X955Y2211D02*
X1013Y2211D01*
X655Y2210D02*
X713Y2210D01*
X955Y2210D02*
X1013Y2210D01*
X655Y2209D02*
X713Y2209D01*
X955Y2209D02*
X1013Y2209D01*
X655Y2208D02*
X713Y2208D01*
X955Y2208D02*
X1013Y2208D01*
X655Y2207D02*
X713Y2207D01*
X955Y2207D02*
X1013Y2207D01*
X655Y2206D02*
X713Y2206D01*
X955Y2206D02*
X1013Y2206D01*
X655Y2205D02*
X713Y2205D01*
X955Y2205D02*
X1013Y2205D01*
X655Y2204D02*
X713Y2204D01*
X955Y2204D02*
X1013Y2204D01*
X655Y2062D02*
X713Y2062D01*
X955Y2062D02*
X1013Y2062D01*
X655Y2061D02*
X713Y2061D01*
X955Y2061D02*
X1013Y2061D01*
X655Y2060D02*
X713Y2060D01*
X955Y2060D02*
X1013Y2060D01*
X655Y2059D02*
X713Y2059D01*
X955Y2059D02*
X1013Y2059D01*
X655Y2058D02*
X713Y2058D01*
X955Y2058D02*
X1013Y2058D01*
X655Y2057D02*
X713Y2057D01*
X955Y2057D02*
X1013Y2057D01*
X655Y2056D02*
X713Y2056D01*
X955Y2056D02*
X1013Y2056D01*
X655Y2055D02*
X713Y2055D01*
X955Y2055D02*
X1013Y2055D01*
X655Y2054D02*
X713Y2054D01*
X955Y2054D02*
X1013Y2054D01*
X655Y2053D02*
X713Y2053D01*
X955Y2053D02*
X1013Y2053D01*
X655Y2052D02*
X679Y2052D01*
X689Y2052D02*
X713Y2052D01*
X955Y2052D02*
X979Y2052D01*
X989Y2052D02*
X1013Y2052D01*
X655Y2051D02*
X676Y2051D01*
X692Y2051D02*
X713Y2051D01*
X955Y2051D02*
X976Y2051D01*
X992Y2051D02*
X1013Y2051D01*
X655Y2050D02*
X674Y2050D01*
X694Y2050D02*
X713Y2050D01*
X955Y2050D02*
X974Y2050D01*
X994Y2050D02*
X1013Y2050D01*
X655Y2049D02*
X672Y2049D01*
X696Y2049D02*
X713Y2049D01*
X955Y2049D02*
X972Y2049D01*
X995Y2049D02*
X1013Y2049D01*
X655Y2048D02*
X671Y2048D01*
X697Y2048D02*
X713Y2048D01*
X955Y2048D02*
X971Y2048D01*
X997Y2048D02*
X1013Y2048D01*
X655Y2047D02*
X670Y2047D01*
X698Y2047D02*
X713Y2047D01*
X955Y2047D02*
X970Y2047D01*
X998Y2047D02*
X1013Y2047D01*
X655Y2046D02*
X669Y2046D01*
X699Y2046D02*
X713Y2046D01*
X955Y2046D02*
X969Y2046D01*
X999Y2046D02*
X1013Y2046D01*
X655Y2045D02*
X668Y2045D01*
X700Y2045D02*
X713Y2045D01*
X955Y2045D02*
X968Y2045D01*
X1000Y2045D02*
X1013Y2045D01*
X655Y2044D02*
X667Y2044D01*
X700Y2044D02*
X713Y2044D01*
X955Y2044D02*
X967Y2044D01*
X1000Y2044D02*
X1013Y2044D01*
X655Y2043D02*
X666Y2043D01*
X701Y2043D02*
X713Y2043D01*
X955Y2043D02*
X966Y2043D01*
X1001Y2043D02*
X1013Y2043D01*
X655Y2042D02*
X666Y2042D01*
X702Y2042D02*
X713Y2042D01*
X955Y2042D02*
X966Y2042D01*
X1002Y2042D02*
X1013Y2042D01*
X655Y2041D02*
X665Y2041D01*
X702Y2041D02*
X713Y2041D01*
X955Y2041D02*
X965Y2041D01*
X1002Y2041D02*
X1013Y2041D01*
X655Y2040D02*
X665Y2040D01*
X703Y2040D02*
X713Y2040D01*
X955Y2040D02*
X965Y2040D01*
X1003Y2040D02*
X1013Y2040D01*
X655Y2039D02*
X665Y2039D01*
X703Y2039D02*
X713Y2039D01*
X955Y2039D02*
X965Y2039D01*
X1003Y2039D02*
X1013Y2039D01*
X655Y2038D02*
X664Y2038D01*
X703Y2038D02*
X713Y2038D01*
X955Y2038D02*
X964Y2038D01*
X1003Y2038D02*
X1013Y2038D01*
X655Y2037D02*
X664Y2037D01*
X703Y2037D02*
X713Y2037D01*
X955Y2037D02*
X964Y2037D01*
X1003Y2037D02*
X1013Y2037D01*
X655Y2036D02*
X664Y2036D01*
X704Y2036D02*
X713Y2036D01*
X955Y2036D02*
X964Y2036D01*
X1004Y2036D02*
X1013Y2036D01*
X655Y2035D02*
X664Y2035D01*
X704Y2035D02*
X713Y2035D01*
X955Y2035D02*
X964Y2035D01*
X1004Y2035D02*
X1013Y2035D01*
X655Y2034D02*
X664Y2034D01*
X704Y2034D02*
X713Y2034D01*
X955Y2034D02*
X964Y2034D01*
X1004Y2034D02*
X1013Y2034D01*
X655Y2033D02*
X664Y2033D01*
X704Y2033D02*
X713Y2033D01*
X955Y2033D02*
X964Y2033D01*
X1004Y2033D02*
X1013Y2033D01*
X655Y2032D02*
X664Y2032D01*
X704Y2032D02*
X713Y2032D01*
X955Y2032D02*
X964Y2032D01*
X1004Y2032D02*
X1013Y2032D01*
X655Y2031D02*
X664Y2031D01*
X704Y2031D02*
X713Y2031D01*
X955Y2031D02*
X964Y2031D01*
X1004Y2031D02*
X1013Y2031D01*
X655Y2030D02*
X664Y2030D01*
X704Y2030D02*
X713Y2030D01*
X955Y2030D02*
X964Y2030D01*
X1004Y2030D02*
X1013Y2030D01*
X655Y2029D02*
X664Y2029D01*
X704Y2029D02*
X713Y2029D01*
X955Y2029D02*
X964Y2029D01*
X1003Y2029D02*
X1013Y2029D01*
X655Y2028D02*
X664Y2028D01*
X703Y2028D02*
X713Y2028D01*
X955Y2028D02*
X964Y2028D01*
X1003Y2028D02*
X1013Y2028D01*
X655Y2027D02*
X665Y2027D01*
X703Y2027D02*
X713Y2027D01*
X955Y2027D02*
X965Y2027D01*
X1003Y2027D02*
X1013Y2027D01*
X655Y2026D02*
X665Y2026D01*
X703Y2026D02*
X713Y2026D01*
X955Y2026D02*
X965Y2026D01*
X1003Y2026D02*
X1013Y2026D01*
X655Y2025D02*
X665Y2025D01*
X702Y2025D02*
X713Y2025D01*
X955Y2025D02*
X965Y2025D01*
X1002Y2025D02*
X1013Y2025D01*
X655Y2024D02*
X666Y2024D01*
X702Y2024D02*
X713Y2024D01*
X955Y2024D02*
X966Y2024D01*
X1002Y2024D02*
X1013Y2024D01*
X655Y2023D02*
X666Y2023D01*
X701Y2023D02*
X713Y2023D01*
X955Y2023D02*
X966Y2023D01*
X1001Y2023D02*
X1013Y2023D01*
X655Y2022D02*
X667Y2022D01*
X701Y2022D02*
X713Y2022D01*
X955Y2022D02*
X967Y2022D01*
X1001Y2022D02*
X1013Y2022D01*
X655Y2021D02*
X668Y2021D01*
X700Y2021D02*
X713Y2021D01*
X955Y2021D02*
X968Y2021D01*
X1000Y2021D02*
X1013Y2021D01*
X655Y2020D02*
X669Y2020D01*
X699Y2020D02*
X713Y2020D01*
X955Y2020D02*
X968Y2020D01*
X999Y2020D02*
X1013Y2020D01*
X655Y2019D02*
X669Y2019D01*
X698Y2019D02*
X713Y2019D01*
X955Y2019D02*
X969Y2019D01*
X998Y2019D02*
X1013Y2019D01*
X655Y2018D02*
X671Y2018D01*
X697Y2018D02*
X713Y2018D01*
X955Y2018D02*
X970Y2018D01*
X997Y2018D02*
X1013Y2018D01*
X655Y2017D02*
X672Y2017D01*
X696Y2017D02*
X713Y2017D01*
X955Y2017D02*
X972Y2017D01*
X996Y2017D02*
X1013Y2017D01*
X655Y2016D02*
X673Y2016D01*
X694Y2016D02*
X713Y2016D01*
X955Y2016D02*
X973Y2016D01*
X994Y2016D02*
X1013Y2016D01*
X655Y2015D02*
X675Y2015D01*
X692Y2015D02*
X713Y2015D01*
X955Y2015D02*
X975Y2015D01*
X992Y2015D02*
X1013Y2015D01*
X655Y2014D02*
X678Y2014D01*
X689Y2014D02*
X713Y2014D01*
X955Y2014D02*
X978Y2014D01*
X989Y2014D02*
X1013Y2014D01*
X655Y2013D02*
X713Y2013D01*
X955Y2013D02*
X1013Y2013D01*
X655Y2012D02*
X713Y2012D01*
X955Y2012D02*
X1013Y2012D01*
X655Y2011D02*
X713Y2011D01*
X955Y2011D02*
X1013Y2011D01*
X655Y2010D02*
X713Y2010D01*
X955Y2010D02*
X1013Y2010D01*
X655Y2009D02*
X713Y2009D01*
X955Y2009D02*
X1013Y2009D01*
X655Y2008D02*
X713Y2008D01*
X955Y2008D02*
X1013Y2008D01*
X655Y2007D02*
X713Y2007D01*
X955Y2007D02*
X1013Y2007D01*
X655Y2006D02*
X713Y2006D01*
X955Y2006D02*
X1013Y2006D01*
X655Y2005D02*
X713Y2005D01*
X955Y2005D02*
X1013Y2005D01*
X655Y2004D02*
X713Y2004D01*
X955Y2004D02*
X1013Y2004D01*
X1482Y1326D02*
X1485Y1326D01*
X1476Y1325D02*
X1491Y1325D01*
X1473Y1324D02*
X1494Y1324D01*
X1471Y1323D02*
X1497Y1323D01*
X1468Y1322D02*
X1499Y1322D01*
X1467Y1321D02*
X1500Y1321D01*
X1465Y1320D02*
X1502Y1320D01*
X1464Y1319D02*
X1503Y1319D01*
X1463Y1318D02*
X1505Y1318D01*
X1461Y1317D02*
X1506Y1317D01*
X1460Y1316D02*
X1507Y1316D01*
X1459Y1315D02*
X1508Y1315D01*
X1459Y1314D02*
X1509Y1314D01*
X1458Y1313D02*
X1509Y1313D01*
X1457Y1312D02*
X1510Y1312D01*
X1457Y1311D02*
X1511Y1311D01*
X1456Y1310D02*
X1511Y1310D01*
X1455Y1309D02*
X1512Y1309D01*
X1455Y1308D02*
X1478Y1308D01*
X1489Y1308D02*
X1512Y1308D01*
X1454Y1307D02*
X1476Y1307D01*
X1491Y1307D02*
X1513Y1307D01*
X1454Y1306D02*
X1474Y1306D01*
X1493Y1306D02*
X1513Y1306D01*
X1454Y1305D02*
X1473Y1305D01*
X1494Y1305D02*
X1514Y1305D01*
X1453Y1304D02*
X1472Y1304D01*
X1495Y1304D02*
X1514Y1304D01*
X1453Y1303D02*
X1471Y1303D01*
X1496Y1303D02*
X1514Y1303D01*
X1453Y1302D02*
X1470Y1302D01*
X1497Y1302D02*
X1515Y1302D01*
X1452Y1301D02*
X1470Y1301D01*
X1498Y1301D02*
X1515Y1301D01*
X1452Y1300D02*
X1469Y1300D01*
X1498Y1300D02*
X1515Y1300D01*
X1452Y1299D02*
X1468Y1299D01*
X1499Y1299D02*
X1515Y1299D01*
X1452Y1298D02*
X1468Y1298D01*
X1499Y1298D02*
X1516Y1298D01*
X1451Y1297D02*
X1468Y1297D01*
X1499Y1297D02*
X1516Y1297D01*
X1451Y1296D02*
X1468Y1296D01*
X1500Y1296D02*
X1516Y1296D01*
X1451Y1295D02*
X1468Y1295D01*
X1500Y1295D02*
X1516Y1295D01*
X1451Y1294D02*
X1468Y1294D01*
X1500Y1294D02*
X1516Y1294D01*
X1451Y1293D02*
X1468Y1293D01*
X1500Y1293D02*
X1516Y1293D01*
X1451Y1292D02*
X1468Y1292D01*
X1500Y1292D02*
X1516Y1292D01*
X1451Y1291D02*
X1468Y1291D01*
X1500Y1291D02*
X1516Y1291D01*
X1451Y1290D02*
X1468Y1290D01*
X1499Y1290D02*
X1516Y1290D01*
X1451Y1289D02*
X1468Y1289D01*
X1499Y1289D02*
X1516Y1289D01*
X1452Y1288D02*
X1468Y1288D01*
X1499Y1288D02*
X1516Y1288D01*
X1452Y1287D02*
X1469Y1287D01*
X1499Y1287D02*
X1515Y1287D01*
X1452Y1286D02*
X1469Y1286D01*
X1498Y1286D02*
X1515Y1286D01*
X1452Y1285D02*
X1470Y1285D01*
X1498Y1285D02*
X1515Y1285D01*
X1453Y1284D02*
X1470Y1284D01*
X1497Y1284D02*
X1515Y1284D01*
X1453Y1283D02*
X1471Y1283D01*
X1496Y1283D02*
X1514Y1283D01*
X1453Y1282D02*
X1472Y1282D01*
X1495Y1282D02*
X1514Y1282D01*
X1454Y1281D02*
X1473Y1281D01*
X1494Y1281D02*
X1514Y1281D01*
X1454Y1280D02*
X1475Y1280D01*
X1493Y1280D02*
X1513Y1280D01*
X1455Y1279D02*
X1476Y1279D01*
X1491Y1279D02*
X1513Y1279D01*
X1455Y1278D02*
X1479Y1278D01*
X1488Y1278D02*
X1512Y1278D01*
X1456Y1277D02*
X1512Y1277D01*
X1456Y1276D02*
X1511Y1276D01*
X1457Y1275D02*
X1511Y1275D01*
X1457Y1274D02*
X1510Y1274D01*
X1458Y1273D02*
X1509Y1273D01*
X1459Y1272D02*
X1508Y1272D01*
X1460Y1271D02*
X1508Y1271D01*
X1461Y1270D02*
X1507Y1270D01*
X1462Y1269D02*
X1506Y1269D01*
X1463Y1268D02*
X1504Y1268D01*
X1464Y1267D02*
X1503Y1267D01*
X1466Y1266D02*
X1502Y1266D01*
X1467Y1265D02*
X1500Y1265D01*
X1469Y1264D02*
X1498Y1264D01*
X1471Y1263D02*
X1496Y1263D01*
X1474Y1262D02*
X1493Y1262D01*
X1477Y1261D02*
X1490Y1261D01*
X1481Y1226D02*
X1486Y1226D01*
X1476Y1225D02*
X1491Y1225D01*
X1473Y1224D02*
X1494Y1224D01*
X1471Y1223D02*
X1497Y1223D01*
X1468Y1222D02*
X1499Y1222D01*
X1467Y1221D02*
X1501Y1221D01*
X1465Y1220D02*
X1502Y1220D01*
X1464Y1219D02*
X1504Y1219D01*
X1462Y1218D02*
X1505Y1218D01*
X1461Y1217D02*
X1506Y1217D01*
X1460Y1216D02*
X1507Y1216D01*
X1459Y1215D02*
X1508Y1215D01*
X1459Y1214D02*
X1509Y1214D01*
X1458Y1213D02*
X1509Y1213D01*
X1457Y1212D02*
X1510Y1212D01*
X1457Y1211D02*
X1511Y1211D01*
X1456Y1210D02*
X1511Y1210D01*
X1455Y1209D02*
X1512Y1209D01*
X1455Y1208D02*
X1478Y1208D01*
X1489Y1208D02*
X1512Y1208D01*
X1454Y1207D02*
X1476Y1207D01*
X1492Y1207D02*
X1513Y1207D01*
X1454Y1206D02*
X1474Y1206D01*
X1493Y1206D02*
X1513Y1206D01*
X1454Y1205D02*
X1473Y1205D01*
X1494Y1205D02*
X1514Y1205D01*
X1453Y1204D02*
X1472Y1204D01*
X1495Y1204D02*
X1514Y1204D01*
X1453Y1203D02*
X1471Y1203D01*
X1496Y1203D02*
X1514Y1203D01*
X1453Y1202D02*
X1470Y1202D01*
X1497Y1202D02*
X1515Y1202D01*
X1452Y1201D02*
X1470Y1201D01*
X1498Y1201D02*
X1515Y1201D01*
X1452Y1200D02*
X1469Y1200D01*
X1498Y1200D02*
X1515Y1200D01*
X1452Y1199D02*
X1468Y1199D01*
X1499Y1199D02*
X1515Y1199D01*
X1452Y1198D02*
X1468Y1198D01*
X1499Y1198D02*
X1516Y1198D01*
X1451Y1197D02*
X1468Y1197D01*
X1499Y1197D02*
X1516Y1197D01*
X1451Y1196D02*
X1468Y1196D01*
X1500Y1196D02*
X1516Y1196D01*
X1451Y1195D02*
X1468Y1195D01*
X1500Y1195D02*
X1516Y1195D01*
X1451Y1194D02*
X1468Y1194D01*
X1500Y1194D02*
X1516Y1194D01*
X1451Y1193D02*
X1468Y1193D01*
X1500Y1193D02*
X1516Y1193D01*
X1451Y1192D02*
X1468Y1192D01*
X1500Y1192D02*
X1516Y1192D01*
X1451Y1191D02*
X1468Y1191D01*
X1500Y1191D02*
X1516Y1191D01*
X1451Y1190D02*
X1468Y1190D01*
X1500Y1190D02*
X1516Y1190D01*
X1451Y1189D02*
X1468Y1189D01*
X1499Y1189D02*
X1516Y1189D01*
X1452Y1188D02*
X1468Y1188D01*
X1499Y1188D02*
X1516Y1188D01*
X1452Y1187D02*
X1469Y1187D01*
X1499Y1187D02*
X1515Y1187D01*
X1452Y1186D02*
X1469Y1186D01*
X1498Y1186D02*
X1515Y1186D01*
X1452Y1185D02*
X1470Y1185D01*
X1498Y1185D02*
X1515Y1185D01*
X1453Y1184D02*
X1470Y1184D01*
X1497Y1184D02*
X1515Y1184D01*
X1453Y1183D02*
X1471Y1183D01*
X1496Y1183D02*
X1514Y1183D01*
X1453Y1182D02*
X1472Y1182D01*
X1495Y1182D02*
X1514Y1182D01*
X1454Y1181D02*
X1473Y1181D01*
X1494Y1181D02*
X1514Y1181D01*
X1454Y1180D02*
X1475Y1180D01*
X1493Y1180D02*
X1513Y1180D01*
X1455Y1179D02*
X1476Y1179D01*
X1491Y1179D02*
X1513Y1179D01*
X1455Y1178D02*
X1479Y1178D01*
X1488Y1178D02*
X1512Y1178D01*
X1456Y1177D02*
X1512Y1177D01*
X1456Y1176D02*
X1511Y1176D01*
X1457Y1175D02*
X1511Y1175D01*
X1457Y1174D02*
X1510Y1174D01*
X1458Y1173D02*
X1509Y1173D01*
X1459Y1172D02*
X1508Y1172D01*
X1460Y1171D02*
X1507Y1171D01*
X1461Y1170D02*
X1507Y1170D01*
X1462Y1169D02*
X1505Y1169D01*
X1463Y1168D02*
X1504Y1168D01*
X1464Y1167D02*
X1503Y1167D01*
X1466Y1166D02*
X1502Y1166D01*
X1467Y1165D02*
X1500Y1165D01*
X1469Y1164D02*
X1498Y1164D01*
X1471Y1163D02*
X1496Y1163D01*
X1474Y1162D02*
X1493Y1162D01*
X1477Y1161D02*
X1490Y1161D01*
X1481Y1126D02*
X1486Y1126D01*
X1476Y1125D02*
X1491Y1125D01*
X1473Y1124D02*
X1494Y1124D01*
X1470Y1123D02*
X1497Y1123D01*
X1468Y1122D02*
X1499Y1122D01*
X1467Y1121D02*
X1501Y1121D01*
X1465Y1120D02*
X1502Y1120D01*
X1464Y1119D02*
X1504Y1119D01*
X1462Y1118D02*
X1505Y1118D01*
X1461Y1117D02*
X1506Y1117D01*
X1460Y1116D02*
X1507Y1116D01*
X1459Y1115D02*
X1508Y1115D01*
X1459Y1114D02*
X1509Y1114D01*
X1458Y1113D02*
X1509Y1113D01*
X1457Y1112D02*
X1510Y1112D01*
X1457Y1111D02*
X1511Y1111D01*
X1456Y1110D02*
X1511Y1110D01*
X1455Y1109D02*
X1512Y1109D01*
X1455Y1108D02*
X1478Y1108D01*
X1489Y1108D02*
X1512Y1108D01*
X1454Y1107D02*
X1476Y1107D01*
X1492Y1107D02*
X1513Y1107D01*
X1454Y1106D02*
X1474Y1106D01*
X1493Y1106D02*
X1513Y1106D01*
X1454Y1105D02*
X1473Y1105D01*
X1494Y1105D02*
X1514Y1105D01*
X1453Y1104D02*
X1472Y1104D01*
X1495Y1104D02*
X1514Y1104D01*
X1453Y1103D02*
X1471Y1103D01*
X1496Y1103D02*
X1514Y1103D01*
X1452Y1102D02*
X1470Y1102D01*
X1497Y1102D02*
X1515Y1102D01*
X1452Y1101D02*
X1469Y1101D01*
X1498Y1101D02*
X1515Y1101D01*
X1452Y1100D02*
X1469Y1100D01*
X1498Y1100D02*
X1515Y1100D01*
X1452Y1099D02*
X1468Y1099D01*
X1499Y1099D02*
X1515Y1099D01*
X1452Y1098D02*
X1468Y1098D01*
X1499Y1098D02*
X1516Y1098D01*
X1451Y1097D02*
X1468Y1097D01*
X1499Y1097D02*
X1516Y1097D01*
X1451Y1096D02*
X1468Y1096D01*
X1500Y1096D02*
X1516Y1096D01*
X1451Y1095D02*
X1468Y1095D01*
X1500Y1095D02*
X1516Y1095D01*
X1451Y1094D02*
X1468Y1094D01*
X1500Y1094D02*
X1516Y1094D01*
X1451Y1093D02*
X1468Y1093D01*
X1500Y1093D02*
X1516Y1093D01*
X1451Y1092D02*
X1468Y1092D01*
X1500Y1092D02*
X1516Y1092D01*
X1451Y1091D02*
X1468Y1091D01*
X1500Y1091D02*
X1516Y1091D01*
X1451Y1090D02*
X1468Y1090D01*
X1499Y1090D02*
X1516Y1090D01*
X1452Y1089D02*
X1468Y1089D01*
X1499Y1089D02*
X1516Y1089D01*
X1452Y1088D02*
X1468Y1088D01*
X1499Y1088D02*
X1516Y1088D01*
X1452Y1087D02*
X1469Y1087D01*
X1499Y1087D02*
X1515Y1087D01*
X1452Y1086D02*
X1469Y1086D01*
X1498Y1086D02*
X1515Y1086D01*
X1452Y1085D02*
X1470Y1085D01*
X1497Y1085D02*
X1515Y1085D01*
X1453Y1084D02*
X1471Y1084D01*
X1497Y1084D02*
X1515Y1084D01*
X1453Y1083D02*
X1471Y1083D01*
X1496Y1083D02*
X1514Y1083D01*
X1453Y1082D02*
X1472Y1082D01*
X1495Y1082D02*
X1514Y1082D01*
X1454Y1081D02*
X1473Y1081D01*
X1494Y1081D02*
X1514Y1081D01*
X1454Y1080D02*
X1475Y1080D01*
X1493Y1080D02*
X1513Y1080D01*
X1455Y1079D02*
X1476Y1079D01*
X1491Y1079D02*
X1513Y1079D01*
X1455Y1078D02*
X1479Y1078D01*
X1488Y1078D02*
X1512Y1078D01*
X1456Y1077D02*
X1512Y1077D01*
X1456Y1076D02*
X1511Y1076D01*
X1457Y1075D02*
X1510Y1075D01*
X1457Y1074D02*
X1510Y1074D01*
X1458Y1073D02*
X1509Y1073D01*
X1459Y1072D02*
X1508Y1072D01*
X1460Y1071D02*
X1507Y1071D01*
X1461Y1070D02*
X1507Y1070D01*
X1462Y1069D02*
X1505Y1069D01*
X1463Y1068D02*
X1504Y1068D01*
X1464Y1067D02*
X1503Y1067D01*
X1466Y1066D02*
X1502Y1066D01*
X1467Y1065D02*
X1500Y1065D01*
X1469Y1064D02*
X1498Y1064D01*
X1471Y1063D02*
X1496Y1063D01*
X1474Y1062D02*
X1493Y1062D01*
X1478Y1061D02*
X1490Y1061D01*
X1481Y1026D02*
X1487Y1026D01*
X1476Y1025D02*
X1491Y1025D01*
X1473Y1024D02*
X1494Y1024D01*
X1470Y1023D02*
X1497Y1023D01*
X1468Y1022D02*
X1499Y1022D01*
X1467Y1021D02*
X1501Y1021D01*
X1465Y1020D02*
X1502Y1020D01*
X1464Y1019D02*
X1504Y1019D01*
X1462Y1018D02*
X1505Y1018D01*
X1461Y1017D02*
X1506Y1017D01*
X1460Y1016D02*
X1507Y1016D01*
X1459Y1015D02*
X1508Y1015D01*
X1459Y1014D02*
X1509Y1014D01*
X1458Y1013D02*
X1509Y1013D01*
X1457Y1012D02*
X1510Y1012D01*
X1456Y1011D02*
X1511Y1011D01*
X1456Y1010D02*
X1511Y1010D01*
X1455Y1009D02*
X1512Y1009D01*
X1455Y1008D02*
X1478Y1008D01*
X1490Y1008D02*
X1512Y1008D01*
X1454Y1007D02*
X1476Y1007D01*
X1492Y1007D02*
X1513Y1007D01*
X1454Y1006D02*
X1474Y1006D01*
X1493Y1006D02*
X1513Y1006D01*
X1454Y1005D02*
X1473Y1005D01*
X1494Y1005D02*
X1514Y1005D01*
X1453Y1004D02*
X1472Y1004D01*
X1495Y1004D02*
X1514Y1004D01*
X1453Y1003D02*
X1471Y1003D01*
X1496Y1003D02*
X1514Y1003D01*
X1452Y1002D02*
X1470Y1002D01*
X1497Y1002D02*
X1515Y1002D01*
X1452Y1001D02*
X1469Y1001D01*
X1498Y1001D02*
X1515Y1001D01*
X1452Y1000D02*
X1469Y1000D01*
X1498Y1000D02*
X1515Y1000D01*
X1452Y999D02*
X1468Y999D01*
X1499Y999D02*
X1515Y999D01*
X1452Y998D02*
X1468Y998D01*
X1499Y998D02*
X1516Y998D01*
X1451Y997D02*
X1468Y997D01*
X1499Y997D02*
X1516Y997D01*
X1451Y996D02*
X1468Y996D01*
X1500Y996D02*
X1516Y996D01*
X1451Y995D02*
X1468Y995D01*
X1500Y995D02*
X1516Y995D01*
X1451Y994D02*
X1468Y994D01*
X1500Y994D02*
X1516Y994D01*
X1451Y993D02*
X1468Y993D01*
X1500Y993D02*
X1516Y993D01*
X1451Y992D02*
X1468Y992D01*
X1500Y992D02*
X1516Y992D01*
X1451Y991D02*
X1468Y991D01*
X1500Y991D02*
X1516Y991D01*
X1451Y990D02*
X1468Y990D01*
X1499Y990D02*
X1516Y990D01*
X1452Y989D02*
X1468Y989D01*
X1499Y989D02*
X1516Y989D01*
X1452Y988D02*
X1468Y988D01*
X1499Y988D02*
X1516Y988D01*
X1452Y987D02*
X1469Y987D01*
X1499Y987D02*
X1515Y987D01*
X1452Y986D02*
X1469Y986D01*
X1498Y986D02*
X1515Y986D01*
X1452Y985D02*
X1470Y985D01*
X1497Y985D02*
X1515Y985D01*
X1453Y984D02*
X1471Y984D01*
X1497Y984D02*
X1515Y984D01*
X1453Y983D02*
X1471Y983D01*
X1496Y983D02*
X1514Y983D01*
X1453Y982D02*
X1472Y982D01*
X1495Y982D02*
X1514Y982D01*
X1454Y981D02*
X1473Y981D01*
X1494Y981D02*
X1514Y981D01*
X1454Y980D02*
X1475Y980D01*
X1493Y980D02*
X1513Y980D01*
X1455Y979D02*
X1476Y979D01*
X1491Y979D02*
X1513Y979D01*
X1455Y978D02*
X1479Y978D01*
X1488Y978D02*
X1512Y978D01*
X1456Y977D02*
X1512Y977D01*
X1456Y976D02*
X1511Y976D01*
X1457Y975D02*
X1510Y975D01*
X1457Y974D02*
X1510Y974D01*
X1458Y973D02*
X1509Y973D01*
X1459Y972D02*
X1508Y972D01*
X1460Y971D02*
X1507Y971D01*
X1461Y970D02*
X1506Y970D01*
X1462Y969D02*
X1505Y969D01*
X1463Y968D02*
X1504Y968D01*
X1464Y967D02*
X1503Y967D01*
X1466Y966D02*
X1502Y966D01*
X1467Y965D02*
X1500Y965D01*
X1469Y964D02*
X1498Y964D01*
X1471Y963D02*
X1496Y963D01*
X1474Y962D02*
X1493Y962D01*
X1478Y961D02*
X1490Y961D01*
X1481Y926D02*
X1487Y926D01*
X1476Y925D02*
X1492Y925D01*
X1473Y924D02*
X1495Y924D01*
X1470Y923D02*
X1497Y923D01*
X1468Y922D02*
X1499Y922D01*
X1467Y921D02*
X1501Y921D01*
X1465Y920D02*
X1502Y920D01*
X1464Y919D02*
X1504Y919D01*
X1462Y918D02*
X1505Y918D01*
X1461Y917D02*
X1506Y917D01*
X1460Y916D02*
X1507Y916D01*
X1459Y915D02*
X1508Y915D01*
X1459Y914D02*
X1509Y914D01*
X1458Y913D02*
X1509Y913D01*
X1457Y912D02*
X1510Y912D01*
X1456Y911D02*
X1511Y911D01*
X1456Y910D02*
X1511Y910D01*
X1455Y909D02*
X1512Y909D01*
X1455Y908D02*
X1478Y908D01*
X1490Y908D02*
X1512Y908D01*
X1454Y907D02*
X1476Y907D01*
X1492Y907D02*
X1513Y907D01*
X1454Y906D02*
X1474Y906D01*
X1493Y906D02*
X1513Y906D01*
X1454Y905D02*
X1473Y905D01*
X1494Y905D02*
X1514Y905D01*
X1453Y904D02*
X1472Y904D01*
X1495Y904D02*
X1514Y904D01*
X1453Y903D02*
X1471Y903D01*
X1496Y903D02*
X1514Y903D01*
X1452Y902D02*
X1470Y902D01*
X1497Y902D02*
X1515Y902D01*
X1452Y901D02*
X1469Y901D01*
X1498Y901D02*
X1515Y901D01*
X1452Y900D02*
X1469Y900D01*
X1498Y900D02*
X1515Y900D01*
X1452Y899D02*
X1468Y899D01*
X1499Y899D02*
X1515Y899D01*
X1452Y898D02*
X1468Y898D01*
X1499Y898D02*
X1516Y898D01*
X1451Y897D02*
X1468Y897D01*
X1499Y897D02*
X1516Y897D01*
X1451Y896D02*
X1468Y896D01*
X1500Y896D02*
X1516Y896D01*
X1451Y895D02*
X1468Y895D01*
X1500Y895D02*
X1516Y895D01*
X1451Y894D02*
X1468Y894D01*
X1500Y894D02*
X1516Y894D01*
X1451Y893D02*
X1468Y893D01*
X1500Y893D02*
X1516Y893D01*
X1451Y892D02*
X1468Y892D01*
X1500Y892D02*
X1516Y892D01*
X1451Y891D02*
X1468Y891D01*
X1500Y891D02*
X1516Y891D01*
X1451Y890D02*
X1468Y890D01*
X1499Y890D02*
X1516Y890D01*
X1452Y889D02*
X1468Y889D01*
X1499Y889D02*
X1516Y889D01*
X1452Y888D02*
X1468Y888D01*
X1499Y888D02*
X1516Y888D01*
X1452Y887D02*
X1469Y887D01*
X1499Y887D02*
X1515Y887D01*
X1452Y886D02*
X1469Y886D01*
X1498Y886D02*
X1515Y886D01*
X1452Y885D02*
X1470Y885D01*
X1497Y885D02*
X1515Y885D01*
X1453Y884D02*
X1471Y884D01*
X1497Y884D02*
X1515Y884D01*
X1453Y883D02*
X1471Y883D01*
X1496Y883D02*
X1514Y883D01*
X1453Y882D02*
X1472Y882D01*
X1495Y882D02*
X1514Y882D01*
X1454Y881D02*
X1474Y881D01*
X1494Y881D02*
X1514Y881D01*
X1454Y880D02*
X1475Y880D01*
X1492Y880D02*
X1513Y880D01*
X1455Y879D02*
X1477Y879D01*
X1491Y879D02*
X1513Y879D01*
X1455Y878D02*
X1480Y878D01*
X1488Y878D02*
X1512Y878D01*
X1456Y877D02*
X1512Y877D01*
X1456Y876D02*
X1511Y876D01*
X1457Y875D02*
X1510Y875D01*
X1457Y874D02*
X1510Y874D01*
X1458Y873D02*
X1509Y873D01*
X1459Y872D02*
X1508Y872D01*
X1460Y871D02*
X1507Y871D01*
X1461Y870D02*
X1506Y870D01*
X1462Y869D02*
X1505Y869D01*
X1463Y868D02*
X1504Y868D01*
X1464Y867D02*
X1503Y867D01*
X1466Y866D02*
X1501Y866D01*
X1467Y865D02*
X1500Y865D01*
X1469Y864D02*
X1498Y864D01*
X1471Y863D02*
X1496Y863D01*
X1474Y862D02*
X1493Y862D01*
X1478Y861D02*
X1489Y861D01*
X1480Y826D02*
X1487Y826D01*
X1476Y825D02*
X1492Y825D01*
X1473Y824D02*
X1495Y824D01*
X1470Y823D02*
X1497Y823D01*
X1468Y822D02*
X1499Y822D01*
X1466Y821D02*
X1501Y821D01*
X1465Y820D02*
X1502Y820D01*
X1464Y819D02*
X1504Y819D01*
X1462Y818D02*
X1505Y818D01*
X1461Y817D02*
X1506Y817D01*
X1460Y816D02*
X1507Y816D01*
X1459Y815D02*
X1508Y815D01*
X1459Y814D02*
X1509Y814D01*
X1458Y813D02*
X1509Y813D01*
X1457Y812D02*
X1510Y812D01*
X1456Y811D02*
X1511Y811D01*
X1456Y810D02*
X1511Y810D01*
X1455Y809D02*
X1512Y809D01*
X1455Y808D02*
X1477Y808D01*
X1490Y808D02*
X1512Y808D01*
X1454Y807D02*
X1475Y807D01*
X1492Y807D02*
X1513Y807D01*
X1454Y806D02*
X1474Y806D01*
X1493Y806D02*
X1513Y806D01*
X1453Y805D02*
X1473Y805D01*
X1494Y805D02*
X1514Y805D01*
X1453Y804D02*
X1472Y804D01*
X1495Y804D02*
X1514Y804D01*
X1453Y803D02*
X1471Y803D01*
X1496Y803D02*
X1515Y803D01*
X1452Y802D02*
X1470Y802D01*
X1497Y802D02*
X1515Y802D01*
X1452Y801D02*
X1469Y801D01*
X1498Y801D02*
X1515Y801D01*
X1452Y800D02*
X1469Y800D01*
X1498Y800D02*
X1515Y800D01*
X1452Y799D02*
X1468Y799D01*
X1499Y799D02*
X1516Y799D01*
X1452Y798D02*
X1468Y798D01*
X1499Y798D02*
X1516Y798D01*
X1451Y797D02*
X1468Y797D01*
X1499Y797D02*
X1516Y797D01*
X1451Y796D02*
X1468Y796D01*
X1500Y796D02*
X1516Y796D01*
X1451Y795D02*
X1468Y795D01*
X1500Y795D02*
X1516Y795D01*
X1451Y794D02*
X1468Y794D01*
X1500Y794D02*
X1516Y794D01*
X1451Y793D02*
X1468Y793D01*
X1500Y793D02*
X1516Y793D01*
X1451Y792D02*
X1468Y792D01*
X1500Y792D02*
X1516Y792D01*
X1451Y791D02*
X1468Y791D01*
X1500Y791D02*
X1516Y791D01*
X1451Y790D02*
X1468Y790D01*
X1499Y790D02*
X1516Y790D01*
X1452Y789D02*
X1468Y789D01*
X1499Y789D02*
X1516Y789D01*
X1452Y788D02*
X1468Y788D01*
X1499Y788D02*
X1516Y788D01*
X1452Y787D02*
X1469Y787D01*
X1499Y787D02*
X1515Y787D01*
X1452Y786D02*
X1469Y786D01*
X1498Y786D02*
X1515Y786D01*
X1452Y785D02*
X1470Y785D01*
X1497Y785D02*
X1515Y785D01*
X1453Y784D02*
X1471Y784D01*
X1497Y784D02*
X1515Y784D01*
X1453Y783D02*
X1471Y783D01*
X1496Y783D02*
X1514Y783D01*
X1453Y782D02*
X1472Y782D01*
X1495Y782D02*
X1514Y782D01*
X1454Y781D02*
X1474Y781D01*
X1494Y781D02*
X1514Y781D01*
X1454Y780D02*
X1475Y780D01*
X1492Y780D02*
X1513Y780D01*
X1455Y779D02*
X1477Y779D01*
X1491Y779D02*
X1513Y779D01*
X1455Y778D02*
X1480Y778D01*
X1488Y778D02*
X1512Y778D01*
X1456Y777D02*
X1512Y777D01*
X1456Y776D02*
X1511Y776D01*
X1457Y775D02*
X1510Y775D01*
X1458Y774D02*
X1510Y774D01*
X1458Y773D02*
X1509Y773D01*
X1459Y772D02*
X1508Y772D01*
X1460Y771D02*
X1507Y771D01*
X1461Y770D02*
X1506Y770D01*
X1462Y769D02*
X1505Y769D01*
X1463Y768D02*
X1504Y768D01*
X1464Y767D02*
X1503Y767D01*
X1466Y766D02*
X1501Y766D01*
X1468Y765D02*
X1500Y765D01*
X1469Y764D02*
X1498Y764D01*
X1472Y763D02*
X1496Y763D01*
X1474Y762D02*
X1493Y762D01*
X1478Y761D02*
X1489Y761D01*
X2591Y438D02*
X2591Y438D01*
X2589Y437D02*
X2592Y437D01*
X2588Y436D02*
X2593Y436D01*
X2587Y435D02*
X2593Y435D01*
X2586Y434D02*
X2593Y434D01*
X2584Y433D02*
X2593Y433D01*
X2583Y432D02*
X2593Y432D01*
X2582Y431D02*
X2593Y431D01*
X2581Y430D02*
X2594Y430D01*
X2580Y429D02*
X2594Y429D01*
X2579Y428D02*
X2587Y428D01*
X2590Y428D02*
X2594Y428D01*
X2578Y427D02*
X2587Y427D01*
X2590Y427D02*
X2594Y427D01*
X2577Y426D02*
X2586Y426D01*
X2590Y426D02*
X2594Y426D01*
X2577Y425D02*
X2585Y425D01*
X2590Y425D02*
X2595Y425D01*
X2576Y424D02*
X2585Y424D01*
X2590Y424D02*
X2595Y424D01*
X2575Y423D02*
X2584Y423D01*
X2590Y423D02*
X2595Y423D01*
X2451Y422D02*
X2454Y422D01*
X2574Y422D02*
X2583Y422D01*
X2591Y422D02*
X2595Y422D01*
X2450Y421D02*
X2456Y421D01*
X2573Y421D02*
X2583Y421D01*
X2591Y421D02*
X2595Y421D01*
X2449Y420D02*
X2458Y420D01*
X2572Y420D02*
X2582Y420D01*
X2591Y420D02*
X2596Y420D01*
X2448Y419D02*
X2461Y419D01*
X2571Y419D02*
X2581Y419D01*
X2591Y419D02*
X2596Y419D01*
X2447Y418D02*
X2463Y418D01*
X2570Y418D02*
X2581Y418D01*
X2591Y418D02*
X2596Y418D01*
X2447Y417D02*
X2465Y417D01*
X2569Y417D02*
X2580Y417D01*
X2592Y417D02*
X2596Y417D01*
X2446Y416D02*
X2467Y416D01*
X2568Y416D02*
X2579Y416D01*
X2592Y416D02*
X2596Y416D01*
X2445Y415D02*
X2450Y415D01*
X2453Y415D02*
X2469Y415D01*
X2567Y415D02*
X2579Y415D01*
X2592Y415D02*
X2597Y415D01*
X2445Y414D02*
X2450Y414D01*
X2453Y414D02*
X2457Y414D01*
X2460Y414D02*
X2471Y414D01*
X2566Y414D02*
X2578Y414D01*
X2592Y414D02*
X2597Y414D01*
X2444Y413D02*
X2449Y413D01*
X2454Y413D02*
X2457Y413D01*
X2462Y413D02*
X2473Y413D01*
X2565Y413D02*
X2577Y413D01*
X2592Y413D02*
X2597Y413D01*
X2443Y412D02*
X2448Y412D01*
X2454Y412D02*
X2458Y412D01*
X2464Y412D02*
X2475Y412D01*
X2564Y412D02*
X2576Y412D01*
X2593Y412D02*
X2597Y412D01*
X2443Y411D02*
X2448Y411D01*
X2455Y411D02*
X2458Y411D01*
X2466Y411D02*
X2477Y411D01*
X2563Y411D02*
X2576Y411D01*
X2593Y411D02*
X2597Y411D01*
X2442Y410D02*
X2447Y410D01*
X2456Y410D02*
X2457Y410D01*
X2468Y410D02*
X2479Y410D01*
X2562Y410D02*
X2575Y410D01*
X2593Y410D02*
X2598Y410D01*
X2442Y409D02*
X2447Y409D01*
X2470Y409D02*
X2481Y409D01*
X2561Y409D02*
X2574Y409D01*
X2593Y409D02*
X2598Y409D01*
X2442Y408D02*
X2447Y408D01*
X2472Y408D02*
X2483Y408D01*
X2561Y408D02*
X2574Y408D01*
X2593Y408D02*
X2598Y408D01*
X2441Y407D02*
X2446Y407D01*
X2474Y407D02*
X2485Y407D01*
X2560Y407D02*
X2573Y407D01*
X2594Y407D02*
X2598Y407D01*
X2441Y406D02*
X2446Y406D01*
X2476Y406D02*
X2487Y406D01*
X2559Y406D02*
X2572Y406D01*
X2594Y406D02*
X2598Y406D01*
X2441Y405D02*
X2446Y405D01*
X2478Y405D02*
X2489Y405D01*
X2558Y405D02*
X2572Y405D01*
X2594Y405D02*
X2599Y405D01*
X2441Y404D02*
X2446Y404D01*
X2480Y404D02*
X2491Y404D01*
X2557Y404D02*
X2571Y404D01*
X2594Y404D02*
X2599Y404D01*
X2441Y403D02*
X2446Y403D01*
X2482Y403D02*
X2493Y403D01*
X2556Y403D02*
X2570Y403D01*
X2594Y403D02*
X2599Y403D01*
X2441Y402D02*
X2445Y402D01*
X2484Y402D02*
X2495Y402D01*
X2555Y402D02*
X2570Y402D01*
X2595Y402D02*
X2599Y402D01*
X2441Y401D02*
X2445Y401D01*
X2486Y401D02*
X2497Y401D01*
X2554Y401D02*
X2569Y401D01*
X2595Y401D02*
X2600Y401D01*
X2441Y400D02*
X2445Y400D01*
X2488Y400D02*
X2499Y400D01*
X2553Y400D02*
X2568Y400D01*
X2595Y400D02*
X2600Y400D01*
X2440Y399D02*
X2445Y399D01*
X2490Y399D02*
X2501Y399D01*
X2552Y399D02*
X2568Y399D01*
X2595Y399D02*
X2600Y399D01*
X2440Y398D02*
X2445Y398D01*
X2492Y398D02*
X2503Y398D01*
X2551Y398D02*
X2567Y398D01*
X2596Y398D02*
X2600Y398D01*
X2440Y397D02*
X2445Y397D01*
X2494Y397D02*
X2505Y397D01*
X2550Y397D02*
X2566Y397D01*
X2596Y397D02*
X2600Y397D01*
X2440Y396D02*
X2445Y396D01*
X2496Y396D02*
X2507Y396D01*
X2549Y396D02*
X2566Y396D01*
X2596Y396D02*
X2601Y396D01*
X2440Y395D02*
X2444Y395D01*
X2498Y395D02*
X2509Y395D01*
X2548Y395D02*
X2565Y395D01*
X2596Y395D02*
X2601Y395D01*
X2440Y394D02*
X2444Y394D01*
X2500Y394D02*
X2511Y394D01*
X2547Y394D02*
X2564Y394D01*
X2596Y394D02*
X2601Y394D01*
X2440Y393D02*
X2444Y393D01*
X2502Y393D02*
X2514Y393D01*
X2546Y393D02*
X2563Y393D01*
X2597Y393D02*
X2601Y393D01*
X2440Y392D02*
X2444Y392D01*
X2504Y392D02*
X2516Y392D01*
X2546Y392D02*
X2563Y392D01*
X2597Y392D02*
X2602Y392D01*
X2440Y391D02*
X2444Y391D01*
X2506Y391D02*
X2518Y391D01*
X2545Y391D02*
X2562Y391D01*
X2597Y391D02*
X2602Y391D01*
X2439Y390D02*
X2444Y390D01*
X2508Y390D02*
X2520Y390D01*
X2544Y390D02*
X2561Y390D01*
X2597Y390D02*
X2602Y390D01*
X2439Y389D02*
X2444Y389D01*
X2510Y389D02*
X2522Y389D01*
X2543Y389D02*
X2561Y389D01*
X2598Y389D02*
X2602Y389D01*
X2439Y388D02*
X2444Y388D01*
X2512Y388D02*
X2524Y388D01*
X2542Y388D02*
X2560Y388D01*
X2598Y388D02*
X2603Y388D01*
X2439Y387D02*
X2444Y387D01*
X2514Y387D02*
X2526Y387D01*
X2541Y387D02*
X2559Y387D01*
X2598Y387D02*
X2603Y387D01*
X2439Y386D02*
X2443Y386D01*
X2516Y386D02*
X2528Y386D01*
X2540Y386D02*
X2559Y386D01*
X2598Y386D02*
X2603Y386D01*
X2439Y385D02*
X2443Y385D01*
X2518Y385D02*
X2530Y385D01*
X2539Y385D02*
X2558Y385D01*
X2599Y385D02*
X2603Y385D01*
X2439Y384D02*
X2443Y384D01*
X2520Y384D02*
X2532Y384D01*
X2538Y384D02*
X2557Y384D01*
X2599Y384D02*
X2604Y384D01*
X2439Y383D02*
X2443Y383D01*
X2523Y383D02*
X2534Y383D01*
X2537Y383D02*
X2556Y383D01*
X2599Y383D02*
X2604Y383D01*
X2439Y382D02*
X2443Y382D01*
X2525Y382D02*
X2556Y382D01*
X2599Y382D02*
X2605Y382D01*
X2439Y381D02*
X2443Y381D01*
X2527Y381D02*
X2555Y381D01*
X2598Y381D02*
X2609Y381D01*
X2438Y380D02*
X2443Y380D01*
X2529Y380D02*
X2554Y380D01*
X2592Y380D02*
X2615Y380D01*
X2438Y379D02*
X2443Y379D01*
X2531Y379D02*
X2554Y379D01*
X2586Y379D02*
X2620Y379D01*
X2438Y378D02*
X2443Y378D01*
X2533Y378D02*
X2553Y378D01*
X2579Y378D02*
X2626Y378D01*
X2438Y377D02*
X2443Y377D01*
X2535Y377D02*
X2552Y377D01*
X2573Y377D02*
X2632Y377D01*
X2438Y376D02*
X2442Y376D01*
X2537Y376D02*
X2552Y376D01*
X2567Y376D02*
X2638Y376D01*
X2438Y375D02*
X2442Y375D01*
X2539Y375D02*
X2551Y375D01*
X2561Y375D02*
X2644Y375D01*
X2438Y374D02*
X2442Y374D01*
X2542Y374D02*
X2550Y374D01*
X2555Y374D02*
X2650Y374D01*
X2438Y373D02*
X2442Y373D01*
X2544Y373D02*
X2651Y373D01*
X2438Y372D02*
X2442Y372D01*
X2542Y372D02*
X2651Y372D01*
X2438Y371D02*
X2442Y371D01*
X2536Y371D02*
X2651Y371D01*
X2438Y370D02*
X2442Y370D01*
X2530Y370D02*
X2651Y370D01*
X2437Y369D02*
X2442Y369D01*
X2524Y369D02*
X2652Y369D01*
X2437Y368D02*
X2442Y368D01*
X2518Y368D02*
X2643Y368D01*
X2647Y368D02*
X2652Y368D01*
X2437Y367D02*
X2442Y367D01*
X2512Y367D02*
X2637Y367D01*
X2647Y367D02*
X2652Y367D01*
X2437Y366D02*
X2442Y366D01*
X2506Y366D02*
X2632Y366D01*
X2648Y366D02*
X2653Y366D01*
X2437Y365D02*
X2441Y365D01*
X2500Y365D02*
X2626Y365D01*
X2648Y365D02*
X2653Y365D01*
X2437Y364D02*
X2441Y364D01*
X2495Y364D02*
X2621Y364D01*
X2648Y364D02*
X2653Y364D01*
X2437Y363D02*
X2441Y363D01*
X2490Y363D02*
X2615Y363D01*
X2649Y363D02*
X2653Y363D01*
X2437Y362D02*
X2441Y362D01*
X2487Y362D02*
X2610Y362D01*
X2649Y362D02*
X2654Y362D01*
X2437Y361D02*
X2441Y361D01*
X2484Y361D02*
X2604Y361D01*
X2649Y361D02*
X2654Y361D01*
X2437Y360D02*
X2441Y360D01*
X2483Y360D02*
X2599Y360D01*
X2650Y360D02*
X2654Y360D01*
X2437Y359D02*
X2441Y359D01*
X2484Y359D02*
X2593Y359D01*
X2650Y359D02*
X2654Y359D01*
X2437Y358D02*
X2441Y358D01*
X2485Y358D02*
X2587Y358D01*
X2650Y358D02*
X2655Y358D01*
X2437Y357D02*
X2441Y357D01*
X2497Y357D02*
X2582Y357D01*
X2650Y357D02*
X2655Y357D01*
X2437Y356D02*
X2441Y356D01*
X2524Y356D02*
X2576Y356D01*
X2651Y356D02*
X2655Y356D01*
X2436Y355D02*
X2441Y355D01*
X2555Y355D02*
X2571Y355D01*
X2651Y355D02*
X2656Y355D01*
X2436Y354D02*
X2441Y354D01*
X2651Y354D02*
X2656Y354D01*
X2436Y353D02*
X2441Y353D01*
X2651Y353D02*
X2656Y353D01*
X2436Y352D02*
X2441Y352D01*
X2652Y352D02*
X2657Y352D01*
X2436Y351D02*
X2441Y351D01*
X2652Y351D02*
X2657Y351D01*
X2436Y350D02*
X2440Y350D01*
X2649Y350D02*
X2660Y350D01*
X2436Y349D02*
X2440Y349D01*
X2646Y349D02*
X2664Y349D01*
X2436Y348D02*
X2440Y348D01*
X2641Y348D02*
X2669Y348D01*
X2436Y347D02*
X2440Y347D01*
X2637Y347D02*
X2673Y347D01*
X2436Y346D02*
X2440Y346D01*
X2632Y346D02*
X2678Y346D01*
X2436Y345D02*
X2440Y345D01*
X2627Y345D02*
X2683Y345D01*
X2436Y344D02*
X2440Y344D01*
X2622Y344D02*
X2687Y344D01*
X2715Y344D02*
X2732Y344D01*
X2436Y343D02*
X2440Y343D01*
X2617Y343D02*
X2693Y343D01*
X2697Y343D02*
X2733Y343D01*
X2436Y342D02*
X2440Y342D01*
X2613Y342D02*
X2734Y342D01*
X2436Y341D02*
X2440Y341D01*
X2608Y341D02*
X2734Y341D01*
X2436Y340D02*
X2440Y340D01*
X2603Y340D02*
X2734Y340D01*
X2436Y339D02*
X2440Y339D01*
X2598Y339D02*
X2734Y339D01*
X2436Y338D02*
X2440Y338D01*
X2594Y338D02*
X2727Y338D01*
X2730Y338D02*
X2735Y338D01*
X2436Y337D02*
X2440Y337D01*
X2590Y337D02*
X2722Y337D01*
X2731Y337D02*
X2735Y337D01*
X2436Y336D02*
X2440Y336D01*
X2586Y336D02*
X2718Y336D01*
X2731Y336D02*
X2735Y336D01*
X2436Y335D02*
X2440Y335D01*
X2584Y335D02*
X2712Y335D01*
X2731Y335D02*
X2735Y335D01*
X2436Y334D02*
X2440Y334D01*
X2583Y334D02*
X2705Y334D01*
X2731Y334D02*
X2736Y334D01*
X2436Y333D02*
X2440Y333D01*
X2583Y333D02*
X2697Y333D01*
X2731Y333D02*
X2736Y333D01*
X2436Y332D02*
X2440Y332D01*
X2583Y332D02*
X2689Y332D01*
X2732Y332D02*
X2736Y332D01*
X2436Y331D02*
X2440Y331D01*
X2588Y331D02*
X2681Y331D01*
X2732Y331D02*
X2736Y331D01*
X2436Y330D02*
X2440Y330D01*
X2605Y330D02*
X2672Y330D01*
X2732Y330D02*
X2736Y330D01*
X2435Y329D02*
X2440Y329D01*
X2624Y329D02*
X2662Y329D01*
X2732Y329D02*
X2737Y329D01*
X2435Y328D02*
X2440Y328D01*
X2644Y328D02*
X2653Y328D01*
X2732Y328D02*
X2737Y328D01*
X2435Y327D02*
X2440Y327D01*
X2732Y327D02*
X2737Y327D01*
X2435Y326D02*
X2440Y326D01*
X2733Y326D02*
X2737Y326D01*
X2435Y325D02*
X2440Y325D01*
X2733Y325D02*
X2737Y325D01*
X2435Y324D02*
X2440Y324D01*
X2733Y324D02*
X2738Y324D01*
X2434Y323D02*
X2440Y323D01*
X2733Y323D02*
X2738Y323D01*
X2434Y322D02*
X2439Y322D01*
X2733Y322D02*
X2738Y322D01*
X2433Y321D02*
X2439Y321D01*
X2734Y321D02*
X2738Y321D01*
X2433Y320D02*
X2438Y320D01*
X2734Y320D02*
X2738Y320D01*
X2432Y319D02*
X2437Y319D01*
X2734Y319D02*
X2739Y319D01*
X2431Y318D02*
X2437Y318D01*
X2734Y318D02*
X2739Y318D01*
X2431Y317D02*
X2436Y317D01*
X2734Y317D02*
X2739Y317D01*
X2430Y316D02*
X2436Y316D01*
X2735Y316D02*
X2739Y316D01*
X2430Y315D02*
X2435Y315D01*
X2735Y315D02*
X2739Y315D01*
X2429Y314D02*
X2434Y314D01*
X2735Y314D02*
X2739Y314D01*
X2428Y313D02*
X2434Y313D01*
X2735Y313D02*
X2740Y313D01*
X2428Y312D02*
X2433Y312D01*
X2735Y312D02*
X2740Y312D01*
X2427Y311D02*
X2433Y311D01*
X2735Y311D02*
X2740Y311D01*
X2427Y310D02*
X2432Y310D01*
X2736Y310D02*
X2740Y310D01*
X2426Y309D02*
X2431Y309D01*
X2736Y309D02*
X2740Y309D01*
X2425Y308D02*
X2431Y308D01*
X2736Y308D02*
X2741Y308D01*
X2425Y307D02*
X2430Y307D01*
X2736Y307D02*
X2741Y307D01*
X2424Y306D02*
X2430Y306D01*
X2736Y306D02*
X2741Y306D01*
X2424Y305D02*
X2429Y305D01*
X2737Y305D02*
X2741Y305D01*
X2423Y304D02*
X2429Y304D01*
X2737Y304D02*
X2741Y304D01*
X2422Y303D02*
X2428Y303D01*
X2737Y303D02*
X2741Y303D01*
X2422Y302D02*
X2427Y302D01*
X2737Y302D02*
X2741Y302D01*
X2421Y301D02*
X2427Y301D01*
X2737Y301D02*
X2741Y301D01*
X2421Y300D02*
X2426Y300D01*
X2737Y300D02*
X2742Y300D01*
X2420Y299D02*
X2426Y299D01*
X2736Y299D02*
X2742Y299D01*
X2420Y298D02*
X2425Y298D01*
X2733Y298D02*
X2742Y298D01*
X2419Y297D02*
X2424Y297D01*
X2731Y297D02*
X2741Y297D01*
X2418Y296D02*
X2424Y296D01*
X2730Y296D02*
X2741Y296D01*
X2418Y295D02*
X2423Y295D01*
X2728Y295D02*
X2740Y295D01*
X2417Y294D02*
X2423Y294D01*
X2726Y294D02*
X2739Y294D01*
X2417Y293D02*
X2422Y293D01*
X2724Y293D02*
X2737Y293D01*
X2416Y292D02*
X2421Y292D01*
X2723Y292D02*
X2736Y292D01*
X2415Y291D02*
X2421Y291D01*
X2721Y291D02*
X2735Y291D01*
X2415Y290D02*
X2420Y290D01*
X2719Y290D02*
X2734Y290D01*
X2414Y289D02*
X2420Y289D01*
X2717Y289D02*
X2732Y289D01*
X2414Y288D02*
X2419Y288D01*
X2716Y288D02*
X2731Y288D01*
X2413Y287D02*
X2418Y287D01*
X2714Y287D02*
X2730Y287D01*
X2412Y286D02*
X2418Y286D01*
X2712Y286D02*
X2729Y286D01*
X2412Y285D02*
X2417Y285D01*
X2711Y285D02*
X2727Y285D01*
X2411Y284D02*
X2417Y284D01*
X2709Y284D02*
X2726Y284D01*
X2411Y283D02*
X2416Y283D01*
X2707Y283D02*
X2725Y283D01*
X2410Y282D02*
X2415Y282D01*
X2706Y282D02*
X2724Y282D01*
X2409Y281D02*
X2415Y281D01*
X2704Y281D02*
X2722Y281D01*
X2409Y280D02*
X2414Y280D01*
X2702Y280D02*
X2721Y280D01*
X2408Y279D02*
X2414Y279D01*
X2701Y279D02*
X2720Y279D01*
X2408Y278D02*
X2413Y278D01*
X2699Y278D02*
X2719Y278D01*
X2407Y277D02*
X2413Y277D01*
X2697Y277D02*
X2717Y277D01*
X2406Y276D02*
X2412Y276D01*
X2696Y276D02*
X2716Y276D01*
X2406Y275D02*
X2411Y275D01*
X2694Y275D02*
X2715Y275D01*
X2405Y274D02*
X2411Y274D01*
X2692Y274D02*
X2714Y274D01*
X2405Y273D02*
X2410Y273D01*
X2691Y273D02*
X2712Y273D01*
X2404Y272D02*
X2410Y272D01*
X2689Y272D02*
X2711Y272D01*
X2404Y271D02*
X2409Y271D01*
X2687Y271D02*
X2710Y271D01*
X2403Y270D02*
X2408Y270D01*
X2685Y270D02*
X2709Y270D01*
X2402Y269D02*
X2408Y269D01*
X2684Y269D02*
X2707Y269D01*
X2402Y268D02*
X2407Y268D01*
X2682Y268D02*
X2706Y268D01*
X2401Y267D02*
X2407Y267D01*
X2680Y267D02*
X2705Y267D01*
X2401Y266D02*
X2406Y266D01*
X2679Y266D02*
X2704Y266D01*
X2400Y265D02*
X2405Y265D01*
X2677Y265D02*
X2702Y265D01*
X2399Y264D02*
X2405Y264D01*
X2675Y264D02*
X2701Y264D01*
X2399Y263D02*
X2404Y263D01*
X2674Y263D02*
X2700Y263D01*
X2398Y262D02*
X2404Y262D01*
X2672Y262D02*
X2699Y262D01*
X2398Y261D02*
X2403Y261D01*
X2670Y261D02*
X2697Y261D01*
X2397Y260D02*
X2402Y260D01*
X2669Y260D02*
X2696Y260D01*
X2397Y259D02*
X2402Y259D01*
X2667Y259D02*
X2695Y259D01*
X2396Y258D02*
X2401Y258D01*
X2666Y258D02*
X2694Y258D01*
X2395Y257D02*
X2401Y257D01*
X2664Y257D02*
X2692Y257D01*
X2395Y256D02*
X2400Y256D01*
X2662Y256D02*
X2691Y256D01*
X2394Y255D02*
X2400Y255D01*
X2661Y255D02*
X2690Y255D01*
X2394Y254D02*
X2399Y254D01*
X2659Y254D02*
X2689Y254D01*
X2393Y253D02*
X2398Y253D01*
X2657Y253D02*
X2687Y253D01*
X2392Y252D02*
X2398Y252D01*
X2656Y252D02*
X2686Y252D01*
X2392Y251D02*
X2397Y251D01*
X2654Y251D02*
X2685Y251D01*
X2391Y250D02*
X2397Y250D01*
X2652Y250D02*
X2684Y250D01*
X2391Y249D02*
X2396Y249D01*
X2651Y249D02*
X2682Y249D01*
X2390Y248D02*
X2395Y248D01*
X2649Y248D02*
X2681Y248D01*
X2390Y247D02*
X2395Y247D01*
X2647Y247D02*
X2680Y247D01*
X2389Y246D02*
X2394Y246D01*
X2646Y246D02*
X2679Y246D01*
X2388Y245D02*
X2394Y245D01*
X2644Y245D02*
X2678Y245D01*
X2388Y244D02*
X2393Y244D01*
X2643Y244D02*
X2716Y244D01*
X2387Y243D02*
X2393Y243D01*
X2641Y243D02*
X2723Y243D01*
X2387Y242D02*
X2392Y242D01*
X2639Y242D02*
X2727Y242D01*
X2386Y241D02*
X2391Y241D01*
X2638Y241D02*
X2729Y241D01*
X2386Y240D02*
X2391Y240D01*
X2636Y240D02*
X2731Y240D01*
X2385Y239D02*
X2390Y239D01*
X2634Y239D02*
X2732Y239D01*
X2384Y238D02*
X2390Y238D01*
X2633Y238D02*
X2732Y238D01*
X2384Y237D02*
X2389Y237D01*
X2631Y237D02*
X2733Y237D01*
X2383Y236D02*
X2389Y236D01*
X2630Y236D02*
X2733Y236D01*
X2383Y235D02*
X2388Y235D01*
X2628Y235D02*
X2733Y235D01*
X2382Y234D02*
X2388Y234D01*
X2627Y234D02*
X2733Y234D01*
X2382Y233D02*
X2387Y233D01*
X2625Y233D02*
X2734Y233D01*
X2381Y232D02*
X2387Y232D01*
X2624Y232D02*
X2734Y232D01*
X2380Y231D02*
X2386Y231D01*
X2623Y231D02*
X2681Y231D01*
X2722Y231D02*
X2723Y231D01*
X2727Y231D02*
X2733Y231D01*
X2380Y230D02*
X2386Y230D01*
X2622Y230D02*
X2670Y230D01*
X2726Y230D02*
X2733Y230D01*
X2380Y229D02*
X2385Y229D01*
X2623Y229D02*
X2660Y229D01*
X2725Y229D02*
X2733Y229D01*
X2380Y228D02*
X2386Y228D01*
X2623Y228D02*
X2651Y228D01*
X2724Y228D02*
X2733Y228D01*
X2381Y227D02*
X2387Y227D01*
X2625Y227D02*
X2642Y227D01*
X2723Y227D02*
X2732Y227D01*
X2382Y226D02*
X2388Y226D01*
X2630Y226D02*
X2631Y226D01*
X2722Y226D02*
X2732Y226D01*
X2383Y225D02*
X2389Y225D01*
X2721Y225D02*
X2731Y225D01*
X2384Y224D02*
X2390Y224D01*
X2720Y224D02*
X2731Y224D01*
X2385Y223D02*
X2391Y223D01*
X2719Y223D02*
X2730Y223D01*
X2386Y222D02*
X2392Y222D01*
X2719Y222D02*
X2730Y222D01*
X2387Y221D02*
X2393Y221D01*
X2718Y221D02*
X2729Y221D01*
X2388Y220D02*
X2394Y220D01*
X2717Y220D02*
X2728Y220D01*
X2389Y219D02*
X2395Y219D01*
X2716Y219D02*
X2727Y219D01*
X2390Y218D02*
X2396Y218D01*
X2715Y218D02*
X2727Y218D01*
X2391Y217D02*
X2397Y217D01*
X2714Y217D02*
X2726Y217D01*
X2392Y216D02*
X2398Y216D01*
X2713Y216D02*
X2725Y216D01*
X2393Y215D02*
X2399Y215D01*
X2711Y215D02*
X2724Y215D01*
X2394Y214D02*
X2400Y214D01*
X2710Y214D02*
X2723Y214D01*
X2395Y213D02*
X2401Y213D01*
X2709Y213D02*
X2722Y213D01*
X2396Y212D02*
X2402Y212D01*
X2708Y212D02*
X2722Y212D01*
X2397Y211D02*
X2403Y211D01*
X2707Y211D02*
X2720Y211D01*
X2398Y210D02*
X2404Y210D01*
X2706Y210D02*
X2719Y210D01*
X2399Y209D02*
X2405Y209D01*
X2705Y209D02*
X2718Y209D01*
X2400Y208D02*
X2406Y208D01*
X2698Y208D02*
X2716Y208D01*
X2401Y207D02*
X2407Y207D01*
X2671Y207D02*
X2714Y207D01*
X2402Y206D02*
X2408Y206D01*
X2655Y206D02*
X2712Y206D01*
X2403Y205D02*
X2409Y205D01*
X2650Y205D02*
X2710Y205D01*
X2404Y204D02*
X2410Y204D01*
X2647Y204D02*
X2707Y204D01*
X2405Y203D02*
X2411Y203D01*
X2644Y203D02*
X2699Y203D01*
X2406Y202D02*
X2412Y202D01*
X2640Y202D02*
X2676Y202D01*
X2407Y201D02*
X2414Y201D01*
X2634Y201D02*
X2658Y201D01*
X2408Y200D02*
X2415Y200D01*
X2625Y200D02*
X2652Y200D01*
X2409Y199D02*
X2416Y199D01*
X2615Y199D02*
X2648Y199D01*
X2410Y198D02*
X2417Y198D01*
X2604Y198D02*
X2645Y198D01*
X2411Y197D02*
X2418Y197D01*
X2593Y197D02*
X2641Y197D01*
X2412Y196D02*
X2419Y196D01*
X2583Y196D02*
X2636Y196D01*
X2413Y195D02*
X2420Y195D01*
X2572Y195D02*
X2629Y195D01*
X2414Y194D02*
X2421Y194D01*
X2564Y194D02*
X2619Y194D01*
X2415Y193D02*
X2422Y193D01*
X2558Y193D02*
X2614Y193D01*
X2416Y192D02*
X2423Y192D01*
X2554Y192D02*
X2613Y192D01*
X2417Y191D02*
X2424Y191D01*
X2550Y191D02*
X2613Y191D01*
X2418Y190D02*
X2425Y190D01*
X2546Y190D02*
X2612Y190D01*
X2419Y189D02*
X2426Y189D01*
X2543Y189D02*
X2612Y189D01*
X2420Y188D02*
X2427Y188D01*
X2539Y188D02*
X2611Y188D01*
X2421Y187D02*
X2428Y187D01*
X2537Y187D02*
X2611Y187D01*
X2422Y186D02*
X2429Y186D01*
X2535Y186D02*
X2610Y186D01*
X2423Y185D02*
X2430Y185D01*
X2534Y185D02*
X2610Y185D01*
X2424Y184D02*
X2431Y184D01*
X2534Y184D02*
X2609Y184D01*
X2425Y183D02*
X2432Y183D01*
X2533Y183D02*
X2609Y183D01*
X2426Y182D02*
X2433Y182D01*
X2532Y182D02*
X2608Y182D01*
X2427Y181D02*
X2434Y181D01*
X2532Y181D02*
X2608Y181D01*
X2428Y180D02*
X2435Y180D01*
X2531Y180D02*
X2607Y180D01*
X2429Y179D02*
X2436Y179D01*
X2530Y179D02*
X2607Y179D01*
X2431Y178D02*
X2437Y178D01*
X2529Y178D02*
X2606Y178D01*
X2432Y177D02*
X2438Y177D01*
X2529Y177D02*
X2606Y177D01*
X2433Y176D02*
X2439Y176D01*
X2528Y176D02*
X2605Y176D01*
X2434Y175D02*
X2440Y175D01*
X2527Y175D02*
X2605Y175D01*
X2435Y174D02*
X2442Y174D01*
X2527Y174D02*
X2604Y174D01*
X2436Y173D02*
X2443Y173D01*
X2526Y173D02*
X2603Y173D01*
X2437Y172D02*
X2444Y172D01*
X2525Y172D02*
X2603Y172D01*
X2438Y171D02*
X2445Y171D01*
X2524Y171D02*
X2602Y171D01*
X2439Y170D02*
X2446Y170D01*
X2524Y170D02*
X2601Y170D01*
X2440Y169D02*
X2447Y169D01*
X2523Y169D02*
X2600Y169D01*
X2441Y168D02*
X2448Y168D01*
X2522Y168D02*
X2599Y168D01*
X2442Y167D02*
X2449Y167D01*
X2522Y167D02*
X2598Y167D01*
X2443Y166D02*
X2450Y166D01*
X2521Y166D02*
X2597Y166D01*
X2444Y165D02*
X2451Y165D01*
X2520Y165D02*
X2596Y165D01*
X2445Y164D02*
X2452Y164D01*
X2519Y164D02*
X2595Y164D01*
X2446Y163D02*
X2453Y163D01*
X2519Y163D02*
X2594Y163D01*
X2447Y162D02*
X2454Y162D01*
X2518Y162D02*
X2593Y162D01*
X2448Y161D02*
X2455Y161D01*
X2517Y161D02*
X2592Y161D01*
X2449Y160D02*
X2456Y160D01*
X2517Y160D02*
X2590Y160D01*
X2450Y159D02*
X2457Y159D01*
X2516Y159D02*
X2588Y159D01*
X2451Y158D02*
X2458Y158D01*
X2515Y158D02*
X2586Y158D01*
X2452Y157D02*
X2459Y157D01*
X2514Y157D02*
X2583Y157D01*
X2453Y156D02*
X2460Y156D01*
X2514Y156D02*
X2580Y156D01*
X2454Y155D02*
X2461Y155D01*
X2513Y155D02*
X2577Y155D01*
X2455Y154D02*
X2462Y154D01*
X2512Y154D02*
X2574Y154D01*
X2456Y153D02*
X2463Y153D01*
X2512Y153D02*
X2571Y153D01*
X2458Y152D02*
X2464Y152D01*
X2511Y152D02*
X2568Y152D01*
X2459Y151D02*
X2465Y151D01*
X2510Y151D02*
X2565Y151D01*
X2460Y150D02*
X2466Y150D01*
X2509Y150D02*
X2562Y150D01*
X2461Y149D02*
X2467Y149D01*
X2509Y149D02*
X2559Y149D01*
X2462Y148D02*
X2469Y148D01*
X2508Y148D02*
X2556Y148D01*
X2463Y147D02*
X2470Y147D01*
X2507Y147D02*
X2553Y147D01*
X2464Y146D02*
X2471Y146D01*
X2507Y146D02*
X2550Y146D01*
X2465Y145D02*
X2472Y145D01*
X2506Y145D02*
X2546Y145D01*
X2466Y144D02*
X2473Y144D01*
X2505Y144D02*
X2543Y144D01*
X2467Y143D02*
X2474Y143D01*
X2504Y143D02*
X2540Y143D01*
X2468Y142D02*
X2475Y142D01*
X2502Y142D02*
X2537Y142D01*
X2469Y141D02*
X2476Y141D01*
X2500Y141D02*
X2534Y141D01*
X2470Y140D02*
X2477Y140D01*
X2499Y140D02*
X2531Y140D01*
X2471Y139D02*
X2478Y139D01*
X2497Y139D02*
X2528Y139D01*
X2472Y138D02*
X2479Y138D01*
X2496Y138D02*
X2525Y138D01*
X2473Y137D02*
X2480Y137D01*
X2495Y137D02*
X2522Y137D01*
X2474Y136D02*
X2481Y136D01*
X2493Y136D02*
X2518Y136D01*
X2475Y135D02*
X2482Y135D01*
X2492Y135D02*
X2515Y135D01*
X2476Y134D02*
X2483Y134D01*
X2490Y134D02*
X2512Y134D01*
X2478Y133D02*
X2484Y133D01*
X2489Y133D02*
X2509Y133D01*
X2479Y132D02*
X2506Y132D01*
X2480Y131D02*
X2503Y131D01*
X2481Y130D02*
X2500Y130D01*
X2482Y129D02*
X2496Y129D01*
X2483Y128D02*
X2493Y128D01*
X2484Y127D02*
X2490Y127D01*
X2486Y126D02*
X2486Y126D01*
D02*
G04 End of Copper0*
M02*