G04 MADE WITH FRITZING*
G04 WWW.FRITZING.ORG*
G04 DOUBLE SIDED*
G04 HOLES PLATED*
G04 CONTOUR ON CENTER OF CONTOUR VECTOR*
%ASAXBY*%
%FSLAX23Y23*%
%MOIN*%
%OFA0B0*%
%SFA1.0B1.0*%
%ADD10C,0.065972*%
%ADD11C,0.075000*%
%ADD12C,0.039370*%
%ADD13C,0.078000*%
%ADD14C,0.070000*%
%ADD15C,0.062992*%
%ADD16C,0.090000*%
%ADD17C,0.059370*%
%ADD18C,0.087695*%
%ADD19C,0.087722*%
%ADD20C,0.070925*%
%ADD21C,0.070866*%
%ADD22R,0.062992X0.062992*%
%ADD23R,0.075000X0.075000*%
%ADD24R,0.069972X0.070000*%
%ADD25C,0.024000*%
%ADD26C,0.012000*%
%ADD27C,0.016000*%
%ADD28R,0.001000X0.001000*%
%LNCOPPER1*%
G90*
G70*
G54D10*
X1484Y792D03*
X1484Y892D03*
X1484Y992D03*
X1484Y1092D03*
X1484Y1192D03*
X1484Y1292D03*
X1484Y792D03*
X1484Y892D03*
X1484Y992D03*
X1484Y1092D03*
X1484Y1192D03*
X1484Y1292D03*
G54D11*
X1647Y382D03*
X1647Y482D03*
X1647Y582D03*
X1647Y682D03*
X1647Y782D03*
X1647Y882D03*
X1647Y982D03*
X1647Y1082D03*
X1647Y1182D03*
X1647Y1282D03*
X1647Y1382D03*
X1647Y1482D03*
X1647Y1582D03*
X1314Y1682D03*
X1314Y1582D03*
X1314Y1482D03*
X1314Y1382D03*
X1314Y1282D03*
X1314Y1182D03*
X1314Y1082D03*
X1314Y982D03*
X1314Y882D03*
X1314Y782D03*
X1314Y682D03*
X1314Y582D03*
X1314Y482D03*
X1314Y382D03*
X1647Y1682D03*
X1647Y382D03*
X1647Y482D03*
X1647Y582D03*
X1647Y682D03*
X1647Y782D03*
X1647Y882D03*
X1647Y982D03*
X1647Y1082D03*
X1647Y1182D03*
X1647Y1282D03*
X1647Y1382D03*
X1647Y1482D03*
X1647Y1582D03*
X1314Y1682D03*
X1314Y1582D03*
X1314Y1482D03*
X1314Y1382D03*
X1314Y1282D03*
X1314Y1182D03*
X1314Y1082D03*
X1314Y982D03*
X1314Y882D03*
X1314Y782D03*
X1314Y682D03*
X1314Y582D03*
X1314Y482D03*
X1314Y382D03*
X1647Y1682D03*
G54D12*
X2194Y1482D03*
X1514Y112D03*
X1444Y212D03*
X1744Y2432D03*
X2294Y1472D03*
G54D13*
X1714Y1882D03*
X1614Y1882D03*
X1354Y1882D03*
X1254Y1882D03*
X884Y1882D03*
X784Y1882D03*
X1154Y1082D03*
X1154Y982D03*
X1154Y882D03*
X1154Y782D03*
X1154Y682D03*
X1154Y582D03*
X324Y1082D03*
X324Y982D03*
X324Y882D03*
X324Y782D03*
X1174Y1682D03*
X1174Y1582D03*
X1174Y1482D03*
X1174Y1382D03*
G54D14*
X1774Y1082D03*
X1774Y982D03*
G54D15*
X184Y1182D03*
X184Y1280D03*
G54D11*
X174Y942D03*
X174Y542D03*
G54D13*
X1884Y2382D03*
X1884Y2282D03*
X1884Y2182D03*
X2254Y1602D03*
X1784Y632D03*
X1784Y732D03*
X1784Y832D03*
X324Y482D03*
X475Y2482D03*
X575Y2482D03*
X2784Y2082D03*
X2784Y2182D03*
X1944Y1382D03*
X1944Y1282D03*
X1944Y1182D03*
X1944Y1082D03*
X1944Y982D03*
X1944Y882D03*
X1944Y782D03*
X1944Y682D03*
X2044Y682D03*
X2044Y782D03*
X2044Y882D03*
X2044Y982D03*
X2044Y1082D03*
X2044Y1182D03*
X2044Y1282D03*
X2044Y1382D03*
G54D16*
X2584Y1385D03*
X2584Y1679D03*
X2584Y1088D03*
X2485Y1188D03*
X2484Y1582D03*
X2977Y1188D03*
X2977Y1582D03*
X2584Y1385D03*
X2584Y1679D03*
X2584Y1088D03*
X2485Y1188D03*
X2484Y1582D03*
X2977Y1188D03*
X2977Y1582D03*
G54D14*
X1264Y2112D03*
X1364Y2112D03*
X1264Y2302D03*
X1364Y2302D03*
G54D17*
X684Y2232D03*
X984Y2232D03*
X684Y2032D03*
X984Y2032D03*
X684Y2232D03*
X984Y2232D03*
X684Y2032D03*
X984Y2032D03*
G54D18*
X184Y2082D03*
G54D19*
X381Y2279D03*
X381Y2180D03*
G54D18*
X381Y1984D03*
G54D19*
X381Y1885D03*
G54D11*
X1484Y2482D03*
X1484Y2082D03*
X1674Y2482D03*
X1674Y2082D03*
X984Y2412D03*
X1084Y2412D03*
X704Y2412D03*
X804Y2412D03*
G54D14*
X424Y1682D03*
X424Y1582D03*
X424Y1482D03*
X424Y1382D03*
X424Y1282D03*
X424Y1182D03*
X424Y1082D03*
X424Y982D03*
X424Y882D03*
X424Y782D03*
X424Y682D03*
X424Y582D03*
X424Y482D03*
X424Y382D03*
X424Y282D03*
X1024Y1682D03*
X1024Y1582D03*
X1024Y1482D03*
X1024Y1382D03*
X1024Y1282D03*
X1024Y1182D03*
X1024Y1082D03*
X1024Y982D03*
X1024Y882D03*
X1024Y782D03*
X1024Y682D03*
X1024Y582D03*
X1024Y482D03*
X1024Y382D03*
X1024Y282D03*
G54D20*
X1994Y1812D03*
G54D21*
X1994Y1619D03*
G54D22*
X184Y1182D03*
G54D23*
X984Y2412D03*
X704Y2412D03*
G54D24*
X424Y1682D03*
G54D25*
X1054Y882D02*
X1124Y882D01*
D02*
X1054Y982D02*
X1124Y982D01*
D02*
X1054Y1082D02*
X1124Y1082D01*
D02*
X395Y1082D02*
X355Y1082D01*
D02*
X1054Y582D02*
X1124Y582D01*
D02*
X1054Y682D02*
X1124Y682D01*
D02*
X1054Y782D02*
X1124Y782D01*
D02*
X395Y482D02*
X355Y482D01*
D02*
X424Y1802D02*
X485Y1852D01*
D02*
X355Y1752D02*
X424Y1802D01*
D02*
X355Y1632D02*
X355Y1752D01*
D02*
X401Y1599D02*
X355Y1632D01*
D02*
X395Y782D02*
X355Y782D01*
D02*
X395Y882D02*
X355Y882D01*
D02*
X395Y982D02*
X355Y982D01*
G54D26*
D02*
X1585Y1132D02*
X1544Y1092D01*
D02*
X1865Y1282D02*
X1714Y1132D01*
D02*
X1544Y1092D02*
X1506Y1092D01*
D02*
X1714Y1132D02*
X1585Y1132D01*
G54D25*
D02*
X2014Y1082D02*
X1975Y1082D01*
G54D26*
D02*
X1927Y1065D02*
X1895Y1033D01*
D02*
X1920Y1282D02*
X1865Y1282D01*
D02*
X1895Y1033D02*
X1825Y1033D01*
D02*
X1825Y1033D02*
X1575Y1033D01*
D02*
X1524Y1032D02*
X1499Y1007D01*
D02*
X1575Y1033D02*
X1524Y1032D01*
G54D25*
D02*
X1975Y1282D02*
X2014Y1282D01*
G54D27*
D02*
X1472Y2463D02*
X1452Y2432D01*
D02*
X1452Y2240D02*
X1376Y2129D01*
D02*
X1452Y2432D02*
X1452Y2240D01*
D02*
X1098Y2394D02*
X1225Y2221D01*
D02*
X1394Y2221D02*
X1452Y2240D01*
D02*
X1225Y2221D02*
X1394Y2221D01*
D02*
X1604Y2072D02*
X1564Y2021D01*
D02*
X1604Y2412D02*
X1604Y2072D01*
D02*
X1658Y2466D02*
X1604Y2412D01*
D02*
X1045Y2331D02*
X825Y2331D01*
D02*
X825Y2331D02*
X810Y2390D01*
D02*
X1084Y2272D02*
X1045Y2331D01*
D02*
X1114Y2231D02*
X1084Y2272D01*
D02*
X1164Y2162D02*
X1114Y2231D01*
D02*
X1164Y2072D02*
X1164Y2162D01*
D02*
X1188Y2024D02*
X1164Y2072D01*
D02*
X1564Y2021D02*
X1188Y2024D01*
G54D25*
D02*
X1764Y1582D02*
X1724Y1542D01*
D02*
X1724Y1542D02*
X1715Y1252D01*
D02*
X1945Y1582D02*
X1764Y1582D01*
D02*
X1715Y1252D02*
X1666Y1202D01*
D02*
X1973Y1603D02*
X1945Y1582D01*
G54D27*
D02*
X1245Y302D02*
X1294Y262D01*
D02*
X1384Y282D02*
X1676Y281D01*
D02*
X1294Y262D02*
X1384Y282D01*
D02*
X1245Y1102D02*
X1245Y302D01*
D02*
X1676Y281D02*
X1723Y321D01*
D02*
X1723Y321D02*
X2143Y673D01*
D02*
X1205Y1232D02*
X1245Y1102D01*
D02*
X1104Y1352D02*
X1104Y1292D01*
D02*
X1104Y1292D02*
X1205Y1232D01*
D02*
X2144Y813D02*
X2065Y868D01*
D02*
X2143Y673D02*
X2144Y813D01*
D02*
X1394Y1123D02*
X1468Y1179D01*
D02*
X1384Y282D02*
X1394Y1123D01*
D02*
X1714Y682D02*
X1764Y718D01*
G54D25*
D02*
X665Y1762D02*
X705Y1803D01*
D02*
X664Y1352D02*
X665Y1762D01*
D02*
X705Y1803D02*
X1024Y1802D01*
G54D27*
D02*
X1723Y321D02*
X1714Y682D01*
G54D25*
D02*
X1024Y1802D02*
X1704Y1802D01*
D02*
X664Y1122D02*
X664Y1352D01*
D02*
X614Y1082D02*
X664Y1122D01*
D02*
X454Y1082D02*
X614Y1082D01*
D02*
X2125Y1521D02*
X2178Y1491D01*
D02*
X2054Y1702D02*
X2125Y1521D01*
D02*
X1774Y1702D02*
X2054Y1702D01*
D02*
X1704Y1802D02*
X1774Y1702D01*
D02*
X194Y2119D02*
X245Y2323D01*
D02*
X634Y1851D02*
X575Y1692D01*
D02*
X575Y1692D02*
X453Y1684D01*
D02*
X755Y1876D02*
X634Y1851D01*
D02*
X444Y2360D02*
X657Y2247D01*
D02*
X245Y2323D02*
X444Y2360D01*
D02*
X2068Y1163D02*
X2245Y1023D01*
D02*
X2245Y523D02*
X1785Y113D01*
D02*
X2245Y1023D02*
X2245Y523D01*
D02*
X1785Y113D02*
X1533Y112D01*
D02*
X1105Y212D02*
X1046Y263D01*
D02*
X1425Y212D02*
X1105Y212D01*
D02*
X165Y1701D02*
X94Y2092D01*
D02*
X264Y1533D02*
X165Y1701D01*
D02*
X255Y642D02*
X264Y1533D01*
D02*
X305Y582D02*
X255Y642D01*
D02*
X405Y581D02*
X305Y582D01*
D02*
X395Y580D02*
X405Y581D01*
D02*
X94Y2092D02*
X154Y2372D01*
D02*
X154Y2372D02*
X323Y2403D01*
D02*
X1725Y2553D02*
X1764Y2492D01*
D02*
X1764Y2492D02*
X1750Y2450D01*
D02*
X396Y2552D02*
X1725Y2553D01*
D02*
X323Y2403D02*
X396Y2552D01*
D02*
X2761Y2163D02*
X2333Y1822D01*
D02*
X2345Y1342D02*
X2459Y1217D01*
D02*
X2333Y1822D02*
X2345Y1342D01*
D02*
X485Y1852D02*
X564Y1952D01*
D02*
X2224Y1952D02*
X2333Y1822D01*
D02*
X564Y1952D02*
X2224Y1952D01*
D02*
X2279Y1461D02*
X2068Y1300D01*
G54D27*
D02*
X1046Y1374D02*
X1104Y1352D01*
D02*
X1104Y1352D02*
X1152Y1372D01*
G54D25*
D02*
X1054Y1582D02*
X1144Y1582D01*
D02*
X1054Y1682D02*
X1144Y1682D01*
D02*
X1748Y982D02*
X1675Y982D01*
D02*
X1748Y1082D02*
X1675Y1082D01*
D02*
X2684Y1513D02*
X2604Y1424D01*
D02*
X2674Y1982D02*
X2684Y1513D01*
D02*
X2762Y2062D02*
X2674Y1982D01*
D02*
X484Y382D02*
X835Y151D01*
D02*
X454Y382D02*
X484Y382D01*
D02*
X2604Y1424D02*
X2602Y1419D01*
D02*
X2194Y593D02*
X2194Y961D01*
D02*
X1704Y161D02*
X2194Y593D01*
D02*
X835Y151D02*
X1704Y161D01*
D02*
X2194Y961D02*
X2068Y1063D01*
G54D28*
X655Y2262D02*
X713Y2262D01*
X955Y2262D02*
X1013Y2262D01*
X655Y2261D02*
X713Y2261D01*
X955Y2261D02*
X1013Y2261D01*
X655Y2260D02*
X713Y2260D01*
X955Y2260D02*
X1013Y2260D01*
X655Y2259D02*
X713Y2259D01*
X955Y2259D02*
X1013Y2259D01*
X655Y2258D02*
X713Y2258D01*
X955Y2258D02*
X1013Y2258D01*
X655Y2257D02*
X713Y2257D01*
X955Y2257D02*
X1013Y2257D01*
X655Y2256D02*
X713Y2256D01*
X955Y2256D02*
X1013Y2256D01*
X655Y2255D02*
X713Y2255D01*
X955Y2255D02*
X1013Y2255D01*
X655Y2254D02*
X713Y2254D01*
X955Y2254D02*
X1013Y2254D01*
X655Y2253D02*
X713Y2253D01*
X955Y2253D02*
X1013Y2253D01*
X655Y2252D02*
X679Y2252D01*
X689Y2252D02*
X713Y2252D01*
X955Y2252D02*
X979Y2252D01*
X989Y2252D02*
X1013Y2252D01*
X655Y2251D02*
X676Y2251D01*
X692Y2251D02*
X713Y2251D01*
X955Y2251D02*
X976Y2251D01*
X992Y2251D02*
X1013Y2251D01*
X655Y2250D02*
X674Y2250D01*
X694Y2250D02*
X713Y2250D01*
X955Y2250D02*
X974Y2250D01*
X994Y2250D02*
X1013Y2250D01*
X655Y2249D02*
X672Y2249D01*
X695Y2249D02*
X713Y2249D01*
X955Y2249D02*
X972Y2249D01*
X995Y2249D02*
X1013Y2249D01*
X655Y2248D02*
X671Y2248D01*
X697Y2248D02*
X713Y2248D01*
X955Y2248D02*
X971Y2248D01*
X997Y2248D02*
X1013Y2248D01*
X655Y2247D02*
X670Y2247D01*
X698Y2247D02*
X713Y2247D01*
X955Y2247D02*
X970Y2247D01*
X998Y2247D02*
X1013Y2247D01*
X655Y2246D02*
X669Y2246D01*
X699Y2246D02*
X713Y2246D01*
X955Y2246D02*
X969Y2246D01*
X999Y2246D02*
X1013Y2246D01*
X655Y2245D02*
X668Y2245D01*
X700Y2245D02*
X713Y2245D01*
X955Y2245D02*
X968Y2245D01*
X1000Y2245D02*
X1013Y2245D01*
X655Y2244D02*
X667Y2244D01*
X700Y2244D02*
X713Y2244D01*
X955Y2244D02*
X967Y2244D01*
X1000Y2244D02*
X1013Y2244D01*
X655Y2243D02*
X667Y2243D01*
X701Y2243D02*
X713Y2243D01*
X955Y2243D02*
X966Y2243D01*
X1001Y2243D02*
X1013Y2243D01*
X655Y2242D02*
X666Y2242D01*
X702Y2242D02*
X713Y2242D01*
X955Y2242D02*
X966Y2242D01*
X1002Y2242D02*
X1013Y2242D01*
X655Y2241D02*
X665Y2241D01*
X702Y2241D02*
X713Y2241D01*
X955Y2241D02*
X965Y2241D01*
X1002Y2241D02*
X1013Y2241D01*
X655Y2240D02*
X665Y2240D01*
X703Y2240D02*
X713Y2240D01*
X955Y2240D02*
X965Y2240D01*
X1003Y2240D02*
X1013Y2240D01*
X655Y2239D02*
X665Y2239D01*
X703Y2239D02*
X713Y2239D01*
X955Y2239D02*
X965Y2239D01*
X1003Y2239D02*
X1013Y2239D01*
X655Y2238D02*
X664Y2238D01*
X703Y2238D02*
X713Y2238D01*
X955Y2238D02*
X964Y2238D01*
X1003Y2238D02*
X1013Y2238D01*
X655Y2237D02*
X664Y2237D01*
X703Y2237D02*
X713Y2237D01*
X955Y2237D02*
X964Y2237D01*
X1003Y2237D02*
X1013Y2237D01*
X655Y2236D02*
X664Y2236D01*
X704Y2236D02*
X713Y2236D01*
X955Y2236D02*
X964Y2236D01*
X1004Y2236D02*
X1013Y2236D01*
X655Y2235D02*
X664Y2235D01*
X704Y2235D02*
X713Y2235D01*
X955Y2235D02*
X964Y2235D01*
X1004Y2235D02*
X1013Y2235D01*
X655Y2234D02*
X664Y2234D01*
X704Y2234D02*
X713Y2234D01*
X955Y2234D02*
X964Y2234D01*
X1004Y2234D02*
X1013Y2234D01*
X655Y2233D02*
X664Y2233D01*
X704Y2233D02*
X713Y2233D01*
X955Y2233D02*
X964Y2233D01*
X1004Y2233D02*
X1013Y2233D01*
X655Y2232D02*
X664Y2232D01*
X704Y2232D02*
X713Y2232D01*
X955Y2232D02*
X964Y2232D01*
X1004Y2232D02*
X1013Y2232D01*
X655Y2231D02*
X664Y2231D01*
X704Y2231D02*
X713Y2231D01*
X955Y2231D02*
X964Y2231D01*
X1004Y2231D02*
X1013Y2231D01*
X655Y2230D02*
X664Y2230D01*
X704Y2230D02*
X713Y2230D01*
X955Y2230D02*
X964Y2230D01*
X1004Y2230D02*
X1013Y2230D01*
X655Y2229D02*
X664Y2229D01*
X704Y2229D02*
X713Y2229D01*
X955Y2229D02*
X964Y2229D01*
X1003Y2229D02*
X1013Y2229D01*
X655Y2228D02*
X664Y2228D01*
X703Y2228D02*
X713Y2228D01*
X955Y2228D02*
X964Y2228D01*
X1003Y2228D02*
X1013Y2228D01*
X655Y2227D02*
X665Y2227D01*
X703Y2227D02*
X713Y2227D01*
X955Y2227D02*
X965Y2227D01*
X1003Y2227D02*
X1013Y2227D01*
X655Y2226D02*
X665Y2226D01*
X703Y2226D02*
X713Y2226D01*
X955Y2226D02*
X965Y2226D01*
X1003Y2226D02*
X1013Y2226D01*
X655Y2225D02*
X665Y2225D01*
X702Y2225D02*
X713Y2225D01*
X955Y2225D02*
X965Y2225D01*
X1002Y2225D02*
X1013Y2225D01*
X655Y2224D02*
X666Y2224D01*
X702Y2224D02*
X713Y2224D01*
X955Y2224D02*
X966Y2224D01*
X1002Y2224D02*
X1013Y2224D01*
X655Y2223D02*
X666Y2223D01*
X701Y2223D02*
X713Y2223D01*
X955Y2223D02*
X966Y2223D01*
X1001Y2223D02*
X1013Y2223D01*
X655Y2222D02*
X667Y2222D01*
X701Y2222D02*
X713Y2222D01*
X955Y2222D02*
X967Y2222D01*
X1001Y2222D02*
X1013Y2222D01*
X655Y2221D02*
X668Y2221D01*
X700Y2221D02*
X713Y2221D01*
X955Y2221D02*
X968Y2221D01*
X1000Y2221D02*
X1013Y2221D01*
X655Y2220D02*
X668Y2220D01*
X699Y2220D02*
X713Y2220D01*
X955Y2220D02*
X968Y2220D01*
X999Y2220D02*
X1013Y2220D01*
X655Y2219D02*
X669Y2219D01*
X698Y2219D02*
X713Y2219D01*
X955Y2219D02*
X969Y2219D01*
X998Y2219D02*
X1013Y2219D01*
X655Y2218D02*
X670Y2218D01*
X697Y2218D02*
X713Y2218D01*
X955Y2218D02*
X970Y2218D01*
X997Y2218D02*
X1013Y2218D01*
X655Y2217D02*
X672Y2217D01*
X696Y2217D02*
X713Y2217D01*
X955Y2217D02*
X972Y2217D01*
X996Y2217D02*
X1013Y2217D01*
X655Y2216D02*
X673Y2216D01*
X694Y2216D02*
X713Y2216D01*
X955Y2216D02*
X973Y2216D01*
X994Y2216D02*
X1013Y2216D01*
X655Y2215D02*
X675Y2215D01*
X693Y2215D02*
X713Y2215D01*
X955Y2215D02*
X975Y2215D01*
X992Y2215D02*
X1013Y2215D01*
X655Y2214D02*
X678Y2214D01*
X690Y2214D02*
X713Y2214D01*
X955Y2214D02*
X978Y2214D01*
X990Y2214D02*
X1013Y2214D01*
X655Y2213D02*
X713Y2213D01*
X955Y2213D02*
X1013Y2213D01*
X655Y2212D02*
X713Y2212D01*
X955Y2212D02*
X1013Y2212D01*
X655Y2211D02*
X713Y2211D01*
X955Y2211D02*
X1013Y2211D01*
X655Y2210D02*
X713Y2210D01*
X955Y2210D02*
X1013Y2210D01*
X655Y2209D02*
X713Y2209D01*
X955Y2209D02*
X1013Y2209D01*
X655Y2208D02*
X713Y2208D01*
X955Y2208D02*
X1013Y2208D01*
X655Y2207D02*
X713Y2207D01*
X955Y2207D02*
X1013Y2207D01*
X655Y2206D02*
X713Y2206D01*
X955Y2206D02*
X1013Y2206D01*
X655Y2205D02*
X713Y2205D01*
X955Y2205D02*
X1013Y2205D01*
X655Y2204D02*
X713Y2204D01*
X955Y2204D02*
X1013Y2204D01*
X655Y2062D02*
X713Y2062D01*
X955Y2062D02*
X1013Y2062D01*
X655Y2061D02*
X713Y2061D01*
X955Y2061D02*
X1013Y2061D01*
X655Y2060D02*
X713Y2060D01*
X955Y2060D02*
X1013Y2060D01*
X655Y2059D02*
X713Y2059D01*
X955Y2059D02*
X1013Y2059D01*
X655Y2058D02*
X713Y2058D01*
X955Y2058D02*
X1013Y2058D01*
X655Y2057D02*
X713Y2057D01*
X955Y2057D02*
X1013Y2057D01*
X655Y2056D02*
X713Y2056D01*
X955Y2056D02*
X1013Y2056D01*
X655Y2055D02*
X713Y2055D01*
X955Y2055D02*
X1013Y2055D01*
X655Y2054D02*
X713Y2054D01*
X955Y2054D02*
X1013Y2054D01*
X655Y2053D02*
X713Y2053D01*
X955Y2053D02*
X1013Y2053D01*
X655Y2052D02*
X679Y2052D01*
X689Y2052D02*
X713Y2052D01*
X955Y2052D02*
X979Y2052D01*
X989Y2052D02*
X1013Y2052D01*
X655Y2051D02*
X676Y2051D01*
X692Y2051D02*
X713Y2051D01*
X955Y2051D02*
X976Y2051D01*
X992Y2051D02*
X1013Y2051D01*
X655Y2050D02*
X674Y2050D01*
X694Y2050D02*
X713Y2050D01*
X955Y2050D02*
X974Y2050D01*
X994Y2050D02*
X1013Y2050D01*
X655Y2049D02*
X672Y2049D01*
X696Y2049D02*
X713Y2049D01*
X955Y2049D02*
X972Y2049D01*
X995Y2049D02*
X1013Y2049D01*
X655Y2048D02*
X671Y2048D01*
X697Y2048D02*
X713Y2048D01*
X955Y2048D02*
X971Y2048D01*
X997Y2048D02*
X1013Y2048D01*
X655Y2047D02*
X670Y2047D01*
X698Y2047D02*
X713Y2047D01*
X955Y2047D02*
X970Y2047D01*
X998Y2047D02*
X1013Y2047D01*
X655Y2046D02*
X669Y2046D01*
X699Y2046D02*
X713Y2046D01*
X955Y2046D02*
X969Y2046D01*
X999Y2046D02*
X1013Y2046D01*
X655Y2045D02*
X668Y2045D01*
X700Y2045D02*
X713Y2045D01*
X955Y2045D02*
X968Y2045D01*
X1000Y2045D02*
X1013Y2045D01*
X655Y2044D02*
X667Y2044D01*
X700Y2044D02*
X713Y2044D01*
X955Y2044D02*
X967Y2044D01*
X1000Y2044D02*
X1013Y2044D01*
X655Y2043D02*
X666Y2043D01*
X701Y2043D02*
X713Y2043D01*
X955Y2043D02*
X966Y2043D01*
X1001Y2043D02*
X1013Y2043D01*
X655Y2042D02*
X666Y2042D01*
X702Y2042D02*
X713Y2042D01*
X955Y2042D02*
X966Y2042D01*
X1002Y2042D02*
X1013Y2042D01*
X655Y2041D02*
X665Y2041D01*
X702Y2041D02*
X713Y2041D01*
X955Y2041D02*
X965Y2041D01*
X1002Y2041D02*
X1013Y2041D01*
X655Y2040D02*
X665Y2040D01*
X703Y2040D02*
X713Y2040D01*
X955Y2040D02*
X965Y2040D01*
X1003Y2040D02*
X1013Y2040D01*
X655Y2039D02*
X665Y2039D01*
X703Y2039D02*
X713Y2039D01*
X955Y2039D02*
X965Y2039D01*
X1003Y2039D02*
X1013Y2039D01*
X655Y2038D02*
X664Y2038D01*
X703Y2038D02*
X713Y2038D01*
X955Y2038D02*
X964Y2038D01*
X1003Y2038D02*
X1013Y2038D01*
X655Y2037D02*
X664Y2037D01*
X703Y2037D02*
X713Y2037D01*
X955Y2037D02*
X964Y2037D01*
X1003Y2037D02*
X1013Y2037D01*
X655Y2036D02*
X664Y2036D01*
X704Y2036D02*
X713Y2036D01*
X955Y2036D02*
X964Y2036D01*
X1004Y2036D02*
X1013Y2036D01*
X655Y2035D02*
X664Y2035D01*
X704Y2035D02*
X713Y2035D01*
X955Y2035D02*
X964Y2035D01*
X1004Y2035D02*
X1013Y2035D01*
X655Y2034D02*
X664Y2034D01*
X704Y2034D02*
X713Y2034D01*
X955Y2034D02*
X964Y2034D01*
X1004Y2034D02*
X1013Y2034D01*
X655Y2033D02*
X664Y2033D01*
X704Y2033D02*
X713Y2033D01*
X955Y2033D02*
X964Y2033D01*
X1004Y2033D02*
X1013Y2033D01*
X655Y2032D02*
X664Y2032D01*
X704Y2032D02*
X713Y2032D01*
X955Y2032D02*
X964Y2032D01*
X1004Y2032D02*
X1013Y2032D01*
X655Y2031D02*
X664Y2031D01*
X704Y2031D02*
X713Y2031D01*
X955Y2031D02*
X964Y2031D01*
X1004Y2031D02*
X1013Y2031D01*
X655Y2030D02*
X664Y2030D01*
X704Y2030D02*
X713Y2030D01*
X955Y2030D02*
X964Y2030D01*
X1004Y2030D02*
X1013Y2030D01*
X655Y2029D02*
X664Y2029D01*
X704Y2029D02*
X713Y2029D01*
X955Y2029D02*
X964Y2029D01*
X1003Y2029D02*
X1013Y2029D01*
X655Y2028D02*
X664Y2028D01*
X703Y2028D02*
X713Y2028D01*
X955Y2028D02*
X964Y2028D01*
X1003Y2028D02*
X1013Y2028D01*
X655Y2027D02*
X665Y2027D01*
X703Y2027D02*
X713Y2027D01*
X955Y2027D02*
X965Y2027D01*
X1003Y2027D02*
X1013Y2027D01*
X655Y2026D02*
X665Y2026D01*
X703Y2026D02*
X713Y2026D01*
X955Y2026D02*
X965Y2026D01*
X1003Y2026D02*
X1013Y2026D01*
X655Y2025D02*
X665Y2025D01*
X702Y2025D02*
X713Y2025D01*
X955Y2025D02*
X965Y2025D01*
X1002Y2025D02*
X1013Y2025D01*
X655Y2024D02*
X666Y2024D01*
X702Y2024D02*
X713Y2024D01*
X955Y2024D02*
X966Y2024D01*
X1002Y2024D02*
X1013Y2024D01*
X655Y2023D02*
X666Y2023D01*
X701Y2023D02*
X713Y2023D01*
X955Y2023D02*
X966Y2023D01*
X1001Y2023D02*
X1013Y2023D01*
X655Y2022D02*
X667Y2022D01*
X701Y2022D02*
X713Y2022D01*
X955Y2022D02*
X967Y2022D01*
X1001Y2022D02*
X1013Y2022D01*
X655Y2021D02*
X668Y2021D01*
X700Y2021D02*
X713Y2021D01*
X955Y2021D02*
X968Y2021D01*
X1000Y2021D02*
X1013Y2021D01*
X655Y2020D02*
X669Y2020D01*
X699Y2020D02*
X713Y2020D01*
X955Y2020D02*
X968Y2020D01*
X999Y2020D02*
X1013Y2020D01*
X655Y2019D02*
X669Y2019D01*
X698Y2019D02*
X713Y2019D01*
X955Y2019D02*
X969Y2019D01*
X998Y2019D02*
X1013Y2019D01*
X655Y2018D02*
X671Y2018D01*
X697Y2018D02*
X713Y2018D01*
X955Y2018D02*
X970Y2018D01*
X997Y2018D02*
X1013Y2018D01*
X655Y2017D02*
X672Y2017D01*
X696Y2017D02*
X713Y2017D01*
X955Y2017D02*
X972Y2017D01*
X996Y2017D02*
X1013Y2017D01*
X655Y2016D02*
X673Y2016D01*
X694Y2016D02*
X713Y2016D01*
X955Y2016D02*
X973Y2016D01*
X994Y2016D02*
X1013Y2016D01*
X655Y2015D02*
X675Y2015D01*
X692Y2015D02*
X713Y2015D01*
X955Y2015D02*
X975Y2015D01*
X992Y2015D02*
X1013Y2015D01*
X655Y2014D02*
X678Y2014D01*
X689Y2014D02*
X713Y2014D01*
X955Y2014D02*
X978Y2014D01*
X989Y2014D02*
X1013Y2014D01*
X655Y2013D02*
X713Y2013D01*
X955Y2013D02*
X1013Y2013D01*
X655Y2012D02*
X713Y2012D01*
X955Y2012D02*
X1013Y2012D01*
X655Y2011D02*
X713Y2011D01*
X955Y2011D02*
X1013Y2011D01*
X655Y2010D02*
X713Y2010D01*
X955Y2010D02*
X1013Y2010D01*
X655Y2009D02*
X713Y2009D01*
X955Y2009D02*
X1013Y2009D01*
X655Y2008D02*
X713Y2008D01*
X955Y2008D02*
X1013Y2008D01*
X655Y2007D02*
X713Y2007D01*
X955Y2007D02*
X1013Y2007D01*
X655Y2006D02*
X713Y2006D01*
X955Y2006D02*
X1013Y2006D01*
X655Y2005D02*
X713Y2005D01*
X955Y2005D02*
X1013Y2005D01*
X655Y2004D02*
X713Y2004D01*
X955Y2004D02*
X1013Y2004D01*
X1482Y1326D02*
X1485Y1326D01*
X1476Y1325D02*
X1491Y1325D01*
X1473Y1324D02*
X1494Y1324D01*
X1471Y1323D02*
X1497Y1323D01*
X1468Y1322D02*
X1499Y1322D01*
X1467Y1321D02*
X1500Y1321D01*
X1465Y1320D02*
X1502Y1320D01*
X1464Y1319D02*
X1503Y1319D01*
X1463Y1318D02*
X1505Y1318D01*
X1461Y1317D02*
X1506Y1317D01*
X1460Y1316D02*
X1507Y1316D01*
X1459Y1315D02*
X1508Y1315D01*
X1459Y1314D02*
X1509Y1314D01*
X1458Y1313D02*
X1509Y1313D01*
X1457Y1312D02*
X1510Y1312D01*
X1457Y1311D02*
X1511Y1311D01*
X1456Y1310D02*
X1511Y1310D01*
X1455Y1309D02*
X1512Y1309D01*
X1455Y1308D02*
X1478Y1308D01*
X1489Y1308D02*
X1512Y1308D01*
X1454Y1307D02*
X1476Y1307D01*
X1491Y1307D02*
X1513Y1307D01*
X1454Y1306D02*
X1474Y1306D01*
X1493Y1306D02*
X1513Y1306D01*
X1454Y1305D02*
X1473Y1305D01*
X1494Y1305D02*
X1514Y1305D01*
X1453Y1304D02*
X1472Y1304D01*
X1495Y1304D02*
X1514Y1304D01*
X1453Y1303D02*
X1471Y1303D01*
X1496Y1303D02*
X1514Y1303D01*
X1453Y1302D02*
X1470Y1302D01*
X1497Y1302D02*
X1515Y1302D01*
X1452Y1301D02*
X1470Y1301D01*
X1498Y1301D02*
X1515Y1301D01*
X1452Y1300D02*
X1469Y1300D01*
X1498Y1300D02*
X1515Y1300D01*
X1452Y1299D02*
X1468Y1299D01*
X1499Y1299D02*
X1515Y1299D01*
X1452Y1298D02*
X1468Y1298D01*
X1499Y1298D02*
X1516Y1298D01*
X1451Y1297D02*
X1468Y1297D01*
X1499Y1297D02*
X1516Y1297D01*
X1451Y1296D02*
X1468Y1296D01*
X1500Y1296D02*
X1516Y1296D01*
X1451Y1295D02*
X1468Y1295D01*
X1500Y1295D02*
X1516Y1295D01*
X1451Y1294D02*
X1468Y1294D01*
X1500Y1294D02*
X1516Y1294D01*
X1451Y1293D02*
X1468Y1293D01*
X1500Y1293D02*
X1516Y1293D01*
X1451Y1292D02*
X1468Y1292D01*
X1500Y1292D02*
X1516Y1292D01*
X1451Y1291D02*
X1468Y1291D01*
X1500Y1291D02*
X1516Y1291D01*
X1451Y1290D02*
X1468Y1290D01*
X1499Y1290D02*
X1516Y1290D01*
X1451Y1289D02*
X1468Y1289D01*
X1499Y1289D02*
X1516Y1289D01*
X1452Y1288D02*
X1468Y1288D01*
X1499Y1288D02*
X1516Y1288D01*
X1452Y1287D02*
X1469Y1287D01*
X1499Y1287D02*
X1515Y1287D01*
X1452Y1286D02*
X1469Y1286D01*
X1498Y1286D02*
X1515Y1286D01*
X1452Y1285D02*
X1470Y1285D01*
X1498Y1285D02*
X1515Y1285D01*
X1453Y1284D02*
X1470Y1284D01*
X1497Y1284D02*
X1515Y1284D01*
X1453Y1283D02*
X1471Y1283D01*
X1496Y1283D02*
X1514Y1283D01*
X1453Y1282D02*
X1472Y1282D01*
X1495Y1282D02*
X1514Y1282D01*
X1454Y1281D02*
X1473Y1281D01*
X1494Y1281D02*
X1514Y1281D01*
X1454Y1280D02*
X1475Y1280D01*
X1493Y1280D02*
X1513Y1280D01*
X1455Y1279D02*
X1476Y1279D01*
X1491Y1279D02*
X1513Y1279D01*
X1455Y1278D02*
X1479Y1278D01*
X1488Y1278D02*
X1512Y1278D01*
X1456Y1277D02*
X1512Y1277D01*
X1456Y1276D02*
X1511Y1276D01*
X1457Y1275D02*
X1511Y1275D01*
X1457Y1274D02*
X1510Y1274D01*
X1458Y1273D02*
X1509Y1273D01*
X1459Y1272D02*
X1508Y1272D01*
X1460Y1271D02*
X1508Y1271D01*
X1461Y1270D02*
X1507Y1270D01*
X1462Y1269D02*
X1506Y1269D01*
X1463Y1268D02*
X1504Y1268D01*
X1464Y1267D02*
X1503Y1267D01*
X1466Y1266D02*
X1502Y1266D01*
X1467Y1265D02*
X1500Y1265D01*
X1469Y1264D02*
X1498Y1264D01*
X1471Y1263D02*
X1496Y1263D01*
X1474Y1262D02*
X1493Y1262D01*
X1477Y1261D02*
X1490Y1261D01*
X1481Y1226D02*
X1486Y1226D01*
X1476Y1225D02*
X1491Y1225D01*
X1473Y1224D02*
X1494Y1224D01*
X1471Y1223D02*
X1497Y1223D01*
X1468Y1222D02*
X1499Y1222D01*
X1467Y1221D02*
X1501Y1221D01*
X1465Y1220D02*
X1502Y1220D01*
X1464Y1219D02*
X1504Y1219D01*
X1462Y1218D02*
X1505Y1218D01*
X1461Y1217D02*
X1506Y1217D01*
X1460Y1216D02*
X1507Y1216D01*
X1459Y1215D02*
X1508Y1215D01*
X1459Y1214D02*
X1509Y1214D01*
X1458Y1213D02*
X1509Y1213D01*
X1457Y1212D02*
X1510Y1212D01*
X1457Y1211D02*
X1511Y1211D01*
X1456Y1210D02*
X1511Y1210D01*
X1455Y1209D02*
X1512Y1209D01*
X1455Y1208D02*
X1478Y1208D01*
X1489Y1208D02*
X1512Y1208D01*
X1454Y1207D02*
X1476Y1207D01*
X1492Y1207D02*
X1513Y1207D01*
X1454Y1206D02*
X1474Y1206D01*
X1493Y1206D02*
X1513Y1206D01*
X1454Y1205D02*
X1473Y1205D01*
X1494Y1205D02*
X1514Y1205D01*
X1453Y1204D02*
X1472Y1204D01*
X1495Y1204D02*
X1514Y1204D01*
X1453Y1203D02*
X1471Y1203D01*
X1496Y1203D02*
X1514Y1203D01*
X1453Y1202D02*
X1470Y1202D01*
X1497Y1202D02*
X1515Y1202D01*
X1452Y1201D02*
X1470Y1201D01*
X1498Y1201D02*
X1515Y1201D01*
X1452Y1200D02*
X1469Y1200D01*
X1498Y1200D02*
X1515Y1200D01*
X1452Y1199D02*
X1468Y1199D01*
X1499Y1199D02*
X1515Y1199D01*
X1452Y1198D02*
X1468Y1198D01*
X1499Y1198D02*
X1516Y1198D01*
X1451Y1197D02*
X1468Y1197D01*
X1499Y1197D02*
X1516Y1197D01*
X1451Y1196D02*
X1468Y1196D01*
X1500Y1196D02*
X1516Y1196D01*
X1451Y1195D02*
X1468Y1195D01*
X1500Y1195D02*
X1516Y1195D01*
X1451Y1194D02*
X1468Y1194D01*
X1500Y1194D02*
X1516Y1194D01*
X1451Y1193D02*
X1468Y1193D01*
X1500Y1193D02*
X1516Y1193D01*
X1451Y1192D02*
X1468Y1192D01*
X1500Y1192D02*
X1516Y1192D01*
X1451Y1191D02*
X1468Y1191D01*
X1500Y1191D02*
X1516Y1191D01*
X1451Y1190D02*
X1468Y1190D01*
X1500Y1190D02*
X1516Y1190D01*
X1451Y1189D02*
X1468Y1189D01*
X1499Y1189D02*
X1516Y1189D01*
X1452Y1188D02*
X1468Y1188D01*
X1499Y1188D02*
X1516Y1188D01*
X1452Y1187D02*
X1469Y1187D01*
X1499Y1187D02*
X1515Y1187D01*
X1452Y1186D02*
X1469Y1186D01*
X1498Y1186D02*
X1515Y1186D01*
X1452Y1185D02*
X1470Y1185D01*
X1498Y1185D02*
X1515Y1185D01*
X1453Y1184D02*
X1470Y1184D01*
X1497Y1184D02*
X1515Y1184D01*
X1453Y1183D02*
X1471Y1183D01*
X1496Y1183D02*
X1514Y1183D01*
X1453Y1182D02*
X1472Y1182D01*
X1495Y1182D02*
X1514Y1182D01*
X1454Y1181D02*
X1473Y1181D01*
X1494Y1181D02*
X1514Y1181D01*
X1454Y1180D02*
X1475Y1180D01*
X1493Y1180D02*
X1513Y1180D01*
X1455Y1179D02*
X1476Y1179D01*
X1491Y1179D02*
X1513Y1179D01*
X1455Y1178D02*
X1479Y1178D01*
X1488Y1178D02*
X1512Y1178D01*
X1456Y1177D02*
X1512Y1177D01*
X1456Y1176D02*
X1511Y1176D01*
X1457Y1175D02*
X1511Y1175D01*
X1457Y1174D02*
X1510Y1174D01*
X1458Y1173D02*
X1509Y1173D01*
X1459Y1172D02*
X1508Y1172D01*
X1460Y1171D02*
X1507Y1171D01*
X1461Y1170D02*
X1507Y1170D01*
X1462Y1169D02*
X1505Y1169D01*
X1463Y1168D02*
X1504Y1168D01*
X1464Y1167D02*
X1503Y1167D01*
X1466Y1166D02*
X1502Y1166D01*
X1467Y1165D02*
X1500Y1165D01*
X1469Y1164D02*
X1498Y1164D01*
X1471Y1163D02*
X1496Y1163D01*
X1474Y1162D02*
X1493Y1162D01*
X1477Y1161D02*
X1490Y1161D01*
X1481Y1126D02*
X1486Y1126D01*
X1476Y1125D02*
X1491Y1125D01*
X1473Y1124D02*
X1494Y1124D01*
X1470Y1123D02*
X1497Y1123D01*
X1468Y1122D02*
X1499Y1122D01*
X1467Y1121D02*
X1501Y1121D01*
X1465Y1120D02*
X1502Y1120D01*
X1464Y1119D02*
X1504Y1119D01*
X1462Y1118D02*
X1505Y1118D01*
X1461Y1117D02*
X1506Y1117D01*
X1460Y1116D02*
X1507Y1116D01*
X1459Y1115D02*
X1508Y1115D01*
X1459Y1114D02*
X1509Y1114D01*
X1458Y1113D02*
X1509Y1113D01*
X1457Y1112D02*
X1510Y1112D01*
X1457Y1111D02*
X1511Y1111D01*
X1456Y1110D02*
X1511Y1110D01*
X1455Y1109D02*
X1512Y1109D01*
X1455Y1108D02*
X1478Y1108D01*
X1489Y1108D02*
X1512Y1108D01*
X1454Y1107D02*
X1476Y1107D01*
X1492Y1107D02*
X1513Y1107D01*
X1454Y1106D02*
X1474Y1106D01*
X1493Y1106D02*
X1513Y1106D01*
X1454Y1105D02*
X1473Y1105D01*
X1494Y1105D02*
X1514Y1105D01*
X1453Y1104D02*
X1472Y1104D01*
X1495Y1104D02*
X1514Y1104D01*
X1453Y1103D02*
X1471Y1103D01*
X1496Y1103D02*
X1514Y1103D01*
X1452Y1102D02*
X1470Y1102D01*
X1497Y1102D02*
X1515Y1102D01*
X1452Y1101D02*
X1469Y1101D01*
X1498Y1101D02*
X1515Y1101D01*
X1452Y1100D02*
X1469Y1100D01*
X1498Y1100D02*
X1515Y1100D01*
X1452Y1099D02*
X1468Y1099D01*
X1499Y1099D02*
X1515Y1099D01*
X1452Y1098D02*
X1468Y1098D01*
X1499Y1098D02*
X1516Y1098D01*
X1451Y1097D02*
X1468Y1097D01*
X1499Y1097D02*
X1516Y1097D01*
X1451Y1096D02*
X1468Y1096D01*
X1500Y1096D02*
X1516Y1096D01*
X1451Y1095D02*
X1468Y1095D01*
X1500Y1095D02*
X1516Y1095D01*
X1451Y1094D02*
X1468Y1094D01*
X1500Y1094D02*
X1516Y1094D01*
X1451Y1093D02*
X1468Y1093D01*
X1500Y1093D02*
X1516Y1093D01*
X1451Y1092D02*
X1468Y1092D01*
X1500Y1092D02*
X1516Y1092D01*
X1451Y1091D02*
X1468Y1091D01*
X1500Y1091D02*
X1516Y1091D01*
X1451Y1090D02*
X1468Y1090D01*
X1499Y1090D02*
X1516Y1090D01*
X1452Y1089D02*
X1468Y1089D01*
X1499Y1089D02*
X1516Y1089D01*
X1452Y1088D02*
X1468Y1088D01*
X1499Y1088D02*
X1516Y1088D01*
X1452Y1087D02*
X1469Y1087D01*
X1499Y1087D02*
X1515Y1087D01*
X1452Y1086D02*
X1469Y1086D01*
X1498Y1086D02*
X1515Y1086D01*
X1452Y1085D02*
X1470Y1085D01*
X1497Y1085D02*
X1515Y1085D01*
X1453Y1084D02*
X1471Y1084D01*
X1497Y1084D02*
X1515Y1084D01*
X1453Y1083D02*
X1471Y1083D01*
X1496Y1083D02*
X1514Y1083D01*
X1453Y1082D02*
X1472Y1082D01*
X1495Y1082D02*
X1514Y1082D01*
X1454Y1081D02*
X1473Y1081D01*
X1494Y1081D02*
X1514Y1081D01*
X1454Y1080D02*
X1475Y1080D01*
X1493Y1080D02*
X1513Y1080D01*
X1455Y1079D02*
X1476Y1079D01*
X1491Y1079D02*
X1513Y1079D01*
X1455Y1078D02*
X1479Y1078D01*
X1488Y1078D02*
X1512Y1078D01*
X1456Y1077D02*
X1512Y1077D01*
X1456Y1076D02*
X1511Y1076D01*
X1457Y1075D02*
X1510Y1075D01*
X1457Y1074D02*
X1510Y1074D01*
X1458Y1073D02*
X1509Y1073D01*
X1459Y1072D02*
X1508Y1072D01*
X1460Y1071D02*
X1507Y1071D01*
X1461Y1070D02*
X1507Y1070D01*
X1462Y1069D02*
X1505Y1069D01*
X1463Y1068D02*
X1504Y1068D01*
X1464Y1067D02*
X1503Y1067D01*
X1466Y1066D02*
X1502Y1066D01*
X1467Y1065D02*
X1500Y1065D01*
X1469Y1064D02*
X1498Y1064D01*
X1471Y1063D02*
X1496Y1063D01*
X1474Y1062D02*
X1493Y1062D01*
X1478Y1061D02*
X1490Y1061D01*
X1481Y1026D02*
X1487Y1026D01*
X1476Y1025D02*
X1491Y1025D01*
X1473Y1024D02*
X1494Y1024D01*
X1470Y1023D02*
X1497Y1023D01*
X1468Y1022D02*
X1499Y1022D01*
X1467Y1021D02*
X1501Y1021D01*
X1465Y1020D02*
X1502Y1020D01*
X1464Y1019D02*
X1504Y1019D01*
X1462Y1018D02*
X1505Y1018D01*
X1461Y1017D02*
X1506Y1017D01*
X1460Y1016D02*
X1507Y1016D01*
X1459Y1015D02*
X1508Y1015D01*
X1459Y1014D02*
X1509Y1014D01*
X1458Y1013D02*
X1509Y1013D01*
X1457Y1012D02*
X1510Y1012D01*
X1456Y1011D02*
X1511Y1011D01*
X1456Y1010D02*
X1511Y1010D01*
X1455Y1009D02*
X1512Y1009D01*
X1455Y1008D02*
X1478Y1008D01*
X1490Y1008D02*
X1512Y1008D01*
X1454Y1007D02*
X1476Y1007D01*
X1492Y1007D02*
X1513Y1007D01*
X1454Y1006D02*
X1474Y1006D01*
X1493Y1006D02*
X1513Y1006D01*
X1454Y1005D02*
X1473Y1005D01*
X1494Y1005D02*
X1514Y1005D01*
X1453Y1004D02*
X1472Y1004D01*
X1495Y1004D02*
X1514Y1004D01*
X1453Y1003D02*
X1471Y1003D01*
X1496Y1003D02*
X1514Y1003D01*
X1452Y1002D02*
X1470Y1002D01*
X1497Y1002D02*
X1515Y1002D01*
X1452Y1001D02*
X1469Y1001D01*
X1498Y1001D02*
X1515Y1001D01*
X1452Y1000D02*
X1469Y1000D01*
X1498Y1000D02*
X1515Y1000D01*
X1452Y999D02*
X1468Y999D01*
X1499Y999D02*
X1515Y999D01*
X1452Y998D02*
X1468Y998D01*
X1499Y998D02*
X1516Y998D01*
X1451Y997D02*
X1468Y997D01*
X1499Y997D02*
X1516Y997D01*
X1451Y996D02*
X1468Y996D01*
X1500Y996D02*
X1516Y996D01*
X1451Y995D02*
X1468Y995D01*
X1500Y995D02*
X1516Y995D01*
X1451Y994D02*
X1468Y994D01*
X1500Y994D02*
X1516Y994D01*
X1451Y993D02*
X1468Y993D01*
X1500Y993D02*
X1516Y993D01*
X1451Y992D02*
X1468Y992D01*
X1500Y992D02*
X1516Y992D01*
X1451Y991D02*
X1468Y991D01*
X1500Y991D02*
X1516Y991D01*
X1451Y990D02*
X1468Y990D01*
X1499Y990D02*
X1516Y990D01*
X1452Y989D02*
X1468Y989D01*
X1499Y989D02*
X1516Y989D01*
X1452Y988D02*
X1468Y988D01*
X1499Y988D02*
X1516Y988D01*
X1452Y987D02*
X1469Y987D01*
X1499Y987D02*
X1515Y987D01*
X1452Y986D02*
X1469Y986D01*
X1498Y986D02*
X1515Y986D01*
X1452Y985D02*
X1470Y985D01*
X1497Y985D02*
X1515Y985D01*
X1453Y984D02*
X1471Y984D01*
X1497Y984D02*
X1515Y984D01*
X1453Y983D02*
X1471Y983D01*
X1496Y983D02*
X1514Y983D01*
X1453Y982D02*
X1472Y982D01*
X1495Y982D02*
X1514Y982D01*
X1454Y981D02*
X1473Y981D01*
X1494Y981D02*
X1514Y981D01*
X1454Y980D02*
X1475Y980D01*
X1493Y980D02*
X1513Y980D01*
X1455Y979D02*
X1476Y979D01*
X1491Y979D02*
X1513Y979D01*
X1455Y978D02*
X1479Y978D01*
X1488Y978D02*
X1512Y978D01*
X1456Y977D02*
X1512Y977D01*
X1456Y976D02*
X1511Y976D01*
X1457Y975D02*
X1510Y975D01*
X1457Y974D02*
X1510Y974D01*
X1458Y973D02*
X1509Y973D01*
X1459Y972D02*
X1508Y972D01*
X1460Y971D02*
X1507Y971D01*
X1461Y970D02*
X1506Y970D01*
X1462Y969D02*
X1505Y969D01*
X1463Y968D02*
X1504Y968D01*
X1464Y967D02*
X1503Y967D01*
X1466Y966D02*
X1502Y966D01*
X1467Y965D02*
X1500Y965D01*
X1469Y964D02*
X1498Y964D01*
X1471Y963D02*
X1496Y963D01*
X1474Y962D02*
X1493Y962D01*
X1478Y961D02*
X1490Y961D01*
X1481Y926D02*
X1487Y926D01*
X1476Y925D02*
X1492Y925D01*
X1473Y924D02*
X1495Y924D01*
X1470Y923D02*
X1497Y923D01*
X1468Y922D02*
X1499Y922D01*
X1467Y921D02*
X1501Y921D01*
X1465Y920D02*
X1502Y920D01*
X1464Y919D02*
X1504Y919D01*
X1462Y918D02*
X1505Y918D01*
X1461Y917D02*
X1506Y917D01*
X1460Y916D02*
X1507Y916D01*
X1459Y915D02*
X1508Y915D01*
X1459Y914D02*
X1509Y914D01*
X1458Y913D02*
X1509Y913D01*
X1457Y912D02*
X1510Y912D01*
X1456Y911D02*
X1511Y911D01*
X1456Y910D02*
X1511Y910D01*
X1455Y909D02*
X1512Y909D01*
X1455Y908D02*
X1478Y908D01*
X1490Y908D02*
X1512Y908D01*
X1454Y907D02*
X1476Y907D01*
X1492Y907D02*
X1513Y907D01*
X1454Y906D02*
X1474Y906D01*
X1493Y906D02*
X1513Y906D01*
X1454Y905D02*
X1473Y905D01*
X1494Y905D02*
X1514Y905D01*
X1453Y904D02*
X1472Y904D01*
X1495Y904D02*
X1514Y904D01*
X1453Y903D02*
X1471Y903D01*
X1496Y903D02*
X1514Y903D01*
X1452Y902D02*
X1470Y902D01*
X1497Y902D02*
X1515Y902D01*
X1452Y901D02*
X1469Y901D01*
X1498Y901D02*
X1515Y901D01*
X1452Y900D02*
X1469Y900D01*
X1498Y900D02*
X1515Y900D01*
X1452Y899D02*
X1468Y899D01*
X1499Y899D02*
X1515Y899D01*
X1452Y898D02*
X1468Y898D01*
X1499Y898D02*
X1516Y898D01*
X1451Y897D02*
X1468Y897D01*
X1499Y897D02*
X1516Y897D01*
X1451Y896D02*
X1468Y896D01*
X1500Y896D02*
X1516Y896D01*
X1451Y895D02*
X1468Y895D01*
X1500Y895D02*
X1516Y895D01*
X1451Y894D02*
X1468Y894D01*
X1500Y894D02*
X1516Y894D01*
X1451Y893D02*
X1468Y893D01*
X1500Y893D02*
X1516Y893D01*
X1451Y892D02*
X1468Y892D01*
X1500Y892D02*
X1516Y892D01*
X1451Y891D02*
X1468Y891D01*
X1500Y891D02*
X1516Y891D01*
X1451Y890D02*
X1468Y890D01*
X1499Y890D02*
X1516Y890D01*
X1452Y889D02*
X1468Y889D01*
X1499Y889D02*
X1516Y889D01*
X1452Y888D02*
X1468Y888D01*
X1499Y888D02*
X1516Y888D01*
X1452Y887D02*
X1469Y887D01*
X1499Y887D02*
X1515Y887D01*
X1452Y886D02*
X1469Y886D01*
X1498Y886D02*
X1515Y886D01*
X1452Y885D02*
X1470Y885D01*
X1497Y885D02*
X1515Y885D01*
X1453Y884D02*
X1471Y884D01*
X1497Y884D02*
X1515Y884D01*
X1453Y883D02*
X1471Y883D01*
X1496Y883D02*
X1514Y883D01*
X1453Y882D02*
X1472Y882D01*
X1495Y882D02*
X1514Y882D01*
X1454Y881D02*
X1474Y881D01*
X1494Y881D02*
X1514Y881D01*
X1454Y880D02*
X1475Y880D01*
X1492Y880D02*
X1513Y880D01*
X1455Y879D02*
X1477Y879D01*
X1491Y879D02*
X1513Y879D01*
X1455Y878D02*
X1480Y878D01*
X1488Y878D02*
X1512Y878D01*
X1456Y877D02*
X1512Y877D01*
X1456Y876D02*
X1511Y876D01*
X1457Y875D02*
X1510Y875D01*
X1457Y874D02*
X1510Y874D01*
X1458Y873D02*
X1509Y873D01*
X1459Y872D02*
X1508Y872D01*
X1460Y871D02*
X1507Y871D01*
X1461Y870D02*
X1506Y870D01*
X1462Y869D02*
X1505Y869D01*
X1463Y868D02*
X1504Y868D01*
X1464Y867D02*
X1503Y867D01*
X1466Y866D02*
X1501Y866D01*
X1467Y865D02*
X1500Y865D01*
X1469Y864D02*
X1498Y864D01*
X1471Y863D02*
X1496Y863D01*
X1474Y862D02*
X1493Y862D01*
X1478Y861D02*
X1489Y861D01*
X1480Y826D02*
X1487Y826D01*
X1476Y825D02*
X1492Y825D01*
X1473Y824D02*
X1495Y824D01*
X1470Y823D02*
X1497Y823D01*
X1468Y822D02*
X1499Y822D01*
X1466Y821D02*
X1501Y821D01*
X1465Y820D02*
X1502Y820D01*
X1464Y819D02*
X1504Y819D01*
X1462Y818D02*
X1505Y818D01*
X1461Y817D02*
X1506Y817D01*
X1460Y816D02*
X1507Y816D01*
X1459Y815D02*
X1508Y815D01*
X1459Y814D02*
X1509Y814D01*
X1458Y813D02*
X1509Y813D01*
X1457Y812D02*
X1510Y812D01*
X1456Y811D02*
X1511Y811D01*
X1456Y810D02*
X1511Y810D01*
X1455Y809D02*
X1512Y809D01*
X1455Y808D02*
X1477Y808D01*
X1490Y808D02*
X1512Y808D01*
X1454Y807D02*
X1475Y807D01*
X1492Y807D02*
X1513Y807D01*
X1454Y806D02*
X1474Y806D01*
X1493Y806D02*
X1513Y806D01*
X1453Y805D02*
X1473Y805D01*
X1494Y805D02*
X1514Y805D01*
X1453Y804D02*
X1472Y804D01*
X1495Y804D02*
X1514Y804D01*
X1453Y803D02*
X1471Y803D01*
X1496Y803D02*
X1515Y803D01*
X1452Y802D02*
X1470Y802D01*
X1497Y802D02*
X1515Y802D01*
X1452Y801D02*
X1469Y801D01*
X1498Y801D02*
X1515Y801D01*
X1452Y800D02*
X1469Y800D01*
X1498Y800D02*
X1515Y800D01*
X1452Y799D02*
X1468Y799D01*
X1499Y799D02*
X1516Y799D01*
X1452Y798D02*
X1468Y798D01*
X1499Y798D02*
X1516Y798D01*
X1451Y797D02*
X1468Y797D01*
X1499Y797D02*
X1516Y797D01*
X1451Y796D02*
X1468Y796D01*
X1500Y796D02*
X1516Y796D01*
X1451Y795D02*
X1468Y795D01*
X1500Y795D02*
X1516Y795D01*
X1451Y794D02*
X1468Y794D01*
X1500Y794D02*
X1516Y794D01*
X1451Y793D02*
X1468Y793D01*
X1500Y793D02*
X1516Y793D01*
X1451Y792D02*
X1468Y792D01*
X1500Y792D02*
X1516Y792D01*
X1451Y791D02*
X1468Y791D01*
X1500Y791D02*
X1516Y791D01*
X1451Y790D02*
X1468Y790D01*
X1499Y790D02*
X1516Y790D01*
X1452Y789D02*
X1468Y789D01*
X1499Y789D02*
X1516Y789D01*
X1452Y788D02*
X1468Y788D01*
X1499Y788D02*
X1516Y788D01*
X1452Y787D02*
X1469Y787D01*
X1499Y787D02*
X1515Y787D01*
X1452Y786D02*
X1469Y786D01*
X1498Y786D02*
X1515Y786D01*
X1452Y785D02*
X1470Y785D01*
X1497Y785D02*
X1515Y785D01*
X1453Y784D02*
X1471Y784D01*
X1497Y784D02*
X1515Y784D01*
X1453Y783D02*
X1471Y783D01*
X1496Y783D02*
X1514Y783D01*
X1453Y782D02*
X1472Y782D01*
X1495Y782D02*
X1514Y782D01*
X1454Y781D02*
X1474Y781D01*
X1494Y781D02*
X1514Y781D01*
X1454Y780D02*
X1475Y780D01*
X1492Y780D02*
X1513Y780D01*
X1455Y779D02*
X1477Y779D01*
X1491Y779D02*
X1513Y779D01*
X1455Y778D02*
X1480Y778D01*
X1488Y778D02*
X1512Y778D01*
X1456Y777D02*
X1512Y777D01*
X1456Y776D02*
X1511Y776D01*
X1457Y775D02*
X1510Y775D01*
X1458Y774D02*
X1510Y774D01*
X1458Y773D02*
X1509Y773D01*
X1459Y772D02*
X1508Y772D01*
X1460Y771D02*
X1507Y771D01*
X1461Y770D02*
X1506Y770D01*
X1462Y769D02*
X1505Y769D01*
X1463Y768D02*
X1504Y768D01*
X1464Y767D02*
X1503Y767D01*
X1466Y766D02*
X1501Y766D01*
X1468Y765D02*
X1500Y765D01*
X1469Y764D02*
X1498Y764D01*
X1472Y763D02*
X1496Y763D01*
X1474Y762D02*
X1493Y762D01*
X1478Y761D02*
X1489Y761D01*
D02*
G04 End of Copper1*
M02*