G04 MADE WITH FRITZING*
G04 WWW.FRITZING.ORG*
G04 DOUBLE SIDED*
G04 HOLES PLATED*
G04 CONTOUR ON CENTER OF CONTOUR VECTOR*
%ASAXBY*%
%FSLAX23Y23*%
%MOIN*%
%OFA0B0*%
%SFA1.0B1.0*%
%ADD10C,0.039370*%
%ADD11C,0.100000*%
%ADD12C,0.065972*%
%ADD13C,0.075000*%
%ADD14C,0.078000*%
%ADD15C,0.070000*%
%ADD16C,0.062992*%
%ADD17C,0.090000*%
%ADD18C,0.059370*%
%ADD19C,0.087695*%
%ADD20C,0.087722*%
%ADD21C,0.070925*%
%ADD22C,0.070866*%
%ADD23R,0.062992X0.062992*%
%ADD24R,0.075000X0.075000*%
%ADD25R,0.069972X0.070000*%
%ADD26C,0.016000*%
%ADD27C,0.012000*%
%ADD28C,0.024000*%
%ADD29R,0.001000X0.001000*%
%LNCOPPER1*%
G90*
G70*
G54D10*
X752Y2003D03*
X1384Y1533D03*
X2856Y443D03*
X1534Y1632D03*
X1736Y1632D03*
X1825Y62D03*
X1736Y363D03*
G54D11*
X2964Y1905D03*
X2964Y2102D03*
X2964Y2299D03*
X2964Y1905D03*
X2964Y2102D03*
X2964Y2299D03*
X2964Y455D03*
X2964Y652D03*
X2964Y849D03*
X2964Y455D03*
X2964Y652D03*
X2964Y849D03*
G54D10*
X1936Y1095D03*
G54D12*
X1484Y792D03*
X1484Y892D03*
X1484Y992D03*
X1484Y1092D03*
X1484Y1192D03*
X1484Y1292D03*
X1484Y792D03*
X1484Y892D03*
X1484Y992D03*
X1484Y1092D03*
X1484Y1192D03*
X1484Y1292D03*
G54D13*
X1644Y382D03*
X1644Y482D03*
X1644Y582D03*
X1644Y682D03*
X1644Y782D03*
X1644Y882D03*
X1644Y982D03*
X1644Y1082D03*
X1644Y1182D03*
X1644Y1282D03*
X1644Y1382D03*
X1644Y1482D03*
X1644Y1582D03*
X1312Y1682D03*
X1312Y1582D03*
X1312Y1482D03*
X1312Y1382D03*
X1312Y1282D03*
X1312Y1182D03*
X1312Y1082D03*
X1312Y982D03*
X1312Y882D03*
X1312Y782D03*
X1312Y682D03*
X1312Y582D03*
X1312Y482D03*
X1312Y382D03*
X1644Y1682D03*
X1644Y382D03*
X1644Y482D03*
X1644Y582D03*
X1644Y682D03*
X1644Y782D03*
X1644Y882D03*
X1644Y982D03*
X1644Y1082D03*
X1644Y1182D03*
X1644Y1282D03*
X1644Y1382D03*
X1644Y1482D03*
X1644Y1582D03*
X1312Y1682D03*
X1312Y1582D03*
X1312Y1482D03*
X1312Y1382D03*
X1312Y1282D03*
X1312Y1182D03*
X1312Y1082D03*
X1312Y982D03*
X1312Y882D03*
X1312Y782D03*
X1312Y682D03*
X1312Y582D03*
X1312Y482D03*
X1312Y382D03*
X1644Y1682D03*
G54D10*
X2124Y1442D03*
X1514Y112D03*
X1444Y212D03*
X1744Y2432D03*
G54D14*
X1714Y1882D03*
X1614Y1882D03*
X1354Y1882D03*
X1254Y1882D03*
X884Y1892D03*
X784Y1892D03*
X1154Y1082D03*
X1154Y982D03*
X1154Y882D03*
X1154Y782D03*
X1154Y682D03*
X1154Y582D03*
X304Y1282D03*
X304Y1182D03*
X304Y1082D03*
X304Y982D03*
X304Y882D03*
X304Y782D03*
X1174Y1682D03*
X1174Y1582D03*
X1174Y1482D03*
X1174Y1382D03*
G54D15*
X1794Y1082D03*
X1794Y982D03*
G54D16*
X159Y1586D03*
X159Y1684D03*
G54D13*
X154Y1212D03*
X154Y812D03*
G54D14*
X2254Y1572D03*
X324Y482D03*
X444Y2482D03*
X544Y2482D03*
X2917Y1377D03*
X2917Y1377D03*
X2813Y1178D03*
X2813Y1378D03*
X2813Y1578D03*
X2813Y1178D03*
X2813Y1378D03*
X2813Y1578D03*
X2518Y1885D03*
X2418Y1885D03*
G54D15*
X1264Y2112D03*
X1364Y2112D03*
G54D17*
X2524Y1379D03*
X2524Y1673D03*
X2524Y1082D03*
X2425Y1182D03*
X2425Y1576D03*
X2917Y1182D03*
X2917Y1576D03*
X2524Y1379D03*
X2524Y1673D03*
X2524Y1082D03*
X2425Y1182D03*
X2425Y1576D03*
X2917Y1182D03*
X2917Y1576D03*
G54D15*
X1264Y2302D03*
X1364Y2302D03*
G54D18*
X1894Y2242D03*
X2194Y2242D03*
X1894Y2042D03*
X2194Y2042D03*
X1894Y2242D03*
X2194Y2242D03*
X1894Y2042D03*
X2194Y2042D03*
X2358Y2243D03*
X2658Y2243D03*
X2358Y2043D03*
X2658Y2043D03*
X2358Y2243D03*
X2658Y2243D03*
X2358Y2043D03*
X2658Y2043D03*
X684Y2242D03*
X984Y2242D03*
X684Y2042D03*
X984Y2042D03*
X684Y2242D03*
X984Y2242D03*
X684Y2042D03*
X984Y2042D03*
G54D19*
X148Y2085D03*
G54D20*
X344Y2282D03*
X344Y2184D03*
G54D19*
X344Y1987D03*
G54D20*
X344Y1888D03*
G54D13*
X1484Y2482D03*
X1484Y2082D03*
X1674Y2482D03*
X1674Y2082D03*
X1004Y2462D03*
X1104Y2462D03*
X744Y2462D03*
X844Y2462D03*
G54D15*
X424Y1682D03*
X424Y1582D03*
X424Y1482D03*
X424Y1382D03*
X424Y1282D03*
X424Y1182D03*
X424Y1082D03*
X424Y982D03*
X424Y882D03*
X424Y782D03*
X424Y682D03*
X424Y582D03*
X424Y482D03*
X424Y382D03*
X424Y282D03*
X1024Y1682D03*
X1024Y1582D03*
X1024Y1482D03*
X1024Y1382D03*
X1024Y1282D03*
X1024Y1182D03*
X1024Y1082D03*
X1024Y982D03*
X1024Y882D03*
X1024Y782D03*
X1024Y682D03*
X1024Y582D03*
X1024Y482D03*
X1024Y382D03*
X1024Y282D03*
G54D21*
X1924Y1595D03*
G54D22*
X1924Y1402D03*
G54D10*
X1821Y1750D03*
X2132Y1937D03*
G54D23*
X159Y1586D03*
G54D24*
X1004Y2462D03*
X744Y2462D03*
G54D25*
X424Y1682D03*
G54D26*
X903Y2001D02*
X766Y2003D01*
D02*
X932Y1985D02*
X903Y2001D01*
D02*
X1815Y1983D02*
X1095Y1983D01*
D02*
X1095Y1983D02*
X932Y1985D01*
D02*
X1874Y2027D02*
X1815Y1983D01*
G54D27*
D02*
X2258Y1070D02*
X2404Y1071D01*
D02*
X2715Y1382D02*
X2788Y1379D01*
D02*
X2404Y1071D02*
X2715Y1382D01*
D02*
X1804Y1462D02*
X2034Y1462D01*
D02*
X1754Y1432D02*
X1804Y1462D01*
D02*
X2034Y1462D02*
X2064Y1402D01*
D02*
X1545Y1432D02*
X1754Y1432D01*
D02*
X1396Y1526D02*
X1545Y1432D01*
D02*
X2064Y1402D02*
X2258Y1070D01*
G54D28*
D02*
X2870Y1653D02*
X2831Y1602D01*
D02*
X3055Y1772D02*
X2870Y1653D01*
D02*
X2683Y1802D02*
X2926Y1891D01*
D02*
X2856Y762D02*
X2933Y824D01*
D02*
X2856Y462D02*
X2856Y762D01*
G54D27*
D02*
X1548Y1632D02*
X1722Y1632D01*
G54D28*
D02*
X3055Y1772D02*
X3054Y2212D01*
D02*
X3054Y1231D02*
X3055Y1772D01*
D02*
X3054Y952D02*
X3054Y1231D01*
D02*
X3054Y2212D02*
X2994Y2271D01*
D02*
X2991Y880D02*
X3054Y952D01*
D02*
X335Y1182D02*
X395Y1182D01*
D02*
X335Y1282D02*
X395Y1282D01*
D02*
X1054Y882D02*
X1124Y882D01*
D02*
X1054Y982D02*
X1124Y982D01*
D02*
X1054Y1082D02*
X1124Y1082D01*
D02*
X395Y1082D02*
X335Y1082D01*
D02*
X1054Y582D02*
X1124Y582D01*
D02*
X1054Y682D02*
X1124Y682D01*
D02*
X1054Y782D02*
X1124Y782D01*
D02*
X395Y482D02*
X355Y482D01*
D02*
X424Y1802D02*
X485Y1852D01*
D02*
X355Y1752D02*
X424Y1802D01*
D02*
X355Y1632D02*
X355Y1752D01*
D02*
X401Y1599D02*
X355Y1632D01*
D02*
X395Y782D02*
X335Y782D01*
D02*
X395Y882D02*
X335Y882D01*
D02*
X395Y982D02*
X335Y982D01*
G54D27*
D02*
X1585Y1132D02*
X1544Y1092D01*
D02*
X1544Y1092D02*
X1506Y1092D01*
D02*
X1714Y1132D02*
X1585Y1132D01*
D02*
X1756Y1185D02*
X1714Y1132D01*
D02*
X1893Y1032D02*
X1575Y1033D01*
D02*
X1524Y1032D02*
X1499Y1007D01*
D02*
X1575Y1033D02*
X1524Y1032D01*
G54D26*
D02*
X1471Y2464D02*
X1433Y2413D01*
D02*
X1366Y2227D02*
X1365Y2133D01*
D02*
X1433Y2413D02*
X1429Y2287D01*
D02*
X1115Y2441D02*
X1225Y2221D01*
D02*
X1317Y2226D02*
X1366Y2227D01*
D02*
X1225Y2221D02*
X1317Y2226D01*
D02*
X1604Y2072D02*
X1555Y2022D01*
D02*
X1604Y2412D02*
X1604Y2072D01*
D02*
X1658Y2466D02*
X1604Y2412D01*
D02*
X1045Y2331D02*
X895Y2332D01*
D02*
X895Y2332D02*
X853Y2441D01*
D02*
X1084Y2272D02*
X1045Y2331D01*
D02*
X1114Y2231D02*
X1084Y2272D01*
D02*
X1164Y2162D02*
X1114Y2231D01*
D02*
X1164Y2072D02*
X1164Y2162D01*
D02*
X1236Y2023D02*
X1164Y2072D01*
D02*
X1555Y2022D02*
X1236Y2023D01*
G54D28*
D02*
X1804Y1401D02*
X1661Y1205D01*
D02*
X1898Y1402D02*
X1804Y1401D01*
G54D26*
D02*
X1245Y302D02*
X1294Y262D01*
D02*
X1394Y283D02*
X1676Y281D01*
D02*
X1294Y262D02*
X1394Y282D01*
D02*
X1244Y702D02*
X1245Y302D01*
D02*
X1245Y1102D02*
X1244Y702D01*
D02*
X1676Y281D02*
X1728Y352D01*
D02*
X1205Y1232D02*
X1245Y1102D01*
D02*
X1104Y1352D02*
X1104Y1292D01*
D02*
X1104Y1292D02*
X1205Y1232D01*
D02*
X1394Y1122D02*
X1468Y1179D01*
D02*
X1394Y283D02*
X1394Y1122D01*
D02*
X1832Y891D02*
X1802Y963D01*
D02*
X1759Y714D02*
X1832Y891D01*
G54D28*
D02*
X665Y1762D02*
X705Y1803D01*
D02*
X659Y1185D02*
X665Y1762D01*
D02*
X705Y1803D02*
X1024Y1802D01*
G54D26*
D02*
X1813Y621D02*
X1759Y714D01*
D02*
X1739Y376D02*
X1813Y621D01*
G54D28*
D02*
X1024Y1802D02*
X1704Y1802D01*
D02*
X584Y1082D02*
X659Y1185D01*
D02*
X454Y1082D02*
X584Y1082D01*
D02*
X2125Y1521D02*
X2124Y1461D01*
D02*
X2054Y1702D02*
X2125Y1521D01*
D02*
X1868Y1804D02*
X2054Y1702D01*
D02*
X1704Y1802D02*
X1868Y1804D01*
D02*
X162Y2120D02*
X245Y2323D01*
D02*
X634Y1851D02*
X575Y1692D01*
D02*
X575Y1692D02*
X453Y1684D01*
D02*
X755Y1884D02*
X634Y1851D01*
D02*
X444Y2360D02*
X657Y2256D01*
D02*
X315Y2351D02*
X444Y2360D01*
D02*
X245Y2323D02*
X315Y2351D01*
G54D26*
D02*
X1941Y1082D02*
X2015Y871D01*
D02*
X2015Y871D02*
X1785Y113D01*
D02*
X1785Y113D02*
X1528Y112D01*
D02*
X1105Y212D02*
X1042Y267D01*
D02*
X1431Y212D02*
X1105Y212D01*
G54D28*
D02*
X125Y1983D02*
X60Y2048D01*
D02*
X256Y1891D02*
X125Y1983D01*
D02*
X264Y1533D02*
X256Y1891D01*
D02*
X223Y711D02*
X223Y1391D01*
D02*
X223Y1391D02*
X264Y1533D01*
D02*
X255Y642D02*
X223Y711D01*
D02*
X305Y582D02*
X255Y642D01*
D02*
X405Y581D02*
X305Y582D01*
D02*
X395Y580D02*
X405Y581D01*
D02*
X60Y2048D02*
X111Y2368D01*
D02*
X111Y2368D02*
X305Y2442D01*
D02*
X1673Y2582D02*
X1764Y2492D01*
D02*
X1764Y2492D02*
X1750Y2450D01*
D02*
X425Y2581D02*
X1673Y2582D01*
D02*
X305Y2442D02*
X425Y2581D01*
D02*
X2388Y1881D02*
X2035Y1830D01*
D02*
X2335Y1333D02*
X2405Y1215D01*
D02*
X2177Y1715D02*
X2335Y1654D01*
D02*
X2335Y1654D02*
X2335Y1333D01*
D02*
X2035Y1830D02*
X2177Y1715D01*
D02*
X485Y1852D02*
X564Y1952D01*
D02*
X1912Y1954D02*
X2035Y1830D01*
D02*
X564Y1952D02*
X1912Y1954D01*
G54D27*
D02*
X2076Y909D02*
X1975Y1185D01*
D02*
X1829Y75D02*
X2076Y909D01*
D02*
X1975Y1185D02*
X1756Y1185D01*
G54D26*
D02*
X1046Y1374D02*
X1104Y1352D01*
D02*
X1104Y1352D02*
X1152Y1372D01*
G54D28*
D02*
X1054Y1582D02*
X1144Y1582D01*
D02*
X1054Y1682D02*
X1144Y1682D01*
D02*
X1768Y982D02*
X1673Y982D01*
D02*
X1768Y1082D02*
X1673Y1082D01*
D02*
X2684Y1513D02*
X2604Y1424D01*
D02*
X2683Y1802D02*
X2684Y1513D01*
D02*
X2545Y1871D02*
X2683Y1802D01*
G54D27*
D02*
X484Y382D02*
X842Y161D01*
D02*
X448Y382D02*
X484Y382D01*
G54D28*
D02*
X2604Y1424D02*
X2558Y1398D01*
G54D27*
D02*
X1739Y163D02*
X1956Y853D01*
D02*
X842Y161D02*
X1739Y163D01*
D02*
X1956Y853D02*
X1893Y1032D01*
G54D28*
D02*
X785Y1748D02*
X738Y1704D01*
D02*
X2230Y1942D02*
X2151Y1938D01*
D02*
X738Y1704D02*
X733Y1159D01*
D02*
X1802Y1750D02*
X785Y1748D01*
D02*
X733Y1159D02*
X554Y894D01*
D02*
X2334Y2024D02*
X2230Y1942D01*
D02*
X554Y894D02*
X446Y801D01*
G54D26*
D02*
X1429Y2287D02*
X1366Y2227D01*
G54D29*
X2328Y2273D02*
X2386Y2273D01*
X2628Y2273D02*
X2686Y2273D01*
X655Y2272D02*
X713Y2272D01*
X955Y2272D02*
X1013Y2272D01*
X1864Y2272D02*
X1923Y2272D01*
X2164Y2272D02*
X2223Y2272D01*
X2328Y2272D02*
X2386Y2272D01*
X2627Y2272D02*
X2686Y2272D01*
X655Y2271D02*
X713Y2271D01*
X955Y2271D02*
X1013Y2271D01*
X1864Y2271D02*
X1923Y2271D01*
X2164Y2271D02*
X2223Y2271D01*
X2328Y2271D02*
X2386Y2271D01*
X2627Y2271D02*
X2686Y2271D01*
X655Y2270D02*
X713Y2270D01*
X955Y2270D02*
X1013Y2270D01*
X1864Y2270D02*
X1923Y2270D01*
X2164Y2270D02*
X2223Y2270D01*
X2328Y2270D02*
X2386Y2270D01*
X2627Y2270D02*
X2686Y2270D01*
X655Y2269D02*
X713Y2269D01*
X955Y2269D02*
X1013Y2269D01*
X1864Y2269D02*
X1923Y2269D01*
X2164Y2269D02*
X2223Y2269D01*
X2328Y2269D02*
X2386Y2269D01*
X2627Y2269D02*
X2686Y2269D01*
X655Y2268D02*
X713Y2268D01*
X955Y2268D02*
X1013Y2268D01*
X1864Y2268D02*
X1923Y2268D01*
X2164Y2268D02*
X2223Y2268D01*
X2328Y2268D02*
X2386Y2268D01*
X2627Y2268D02*
X2686Y2268D01*
X655Y2267D02*
X713Y2267D01*
X955Y2267D02*
X1013Y2267D01*
X1864Y2267D02*
X1923Y2267D01*
X2164Y2267D02*
X2223Y2267D01*
X2328Y2267D02*
X2386Y2267D01*
X2627Y2267D02*
X2686Y2267D01*
X655Y2266D02*
X713Y2266D01*
X955Y2266D02*
X1013Y2266D01*
X1864Y2266D02*
X1923Y2266D01*
X2164Y2266D02*
X2223Y2266D01*
X2328Y2266D02*
X2386Y2266D01*
X2627Y2266D02*
X2686Y2266D01*
X655Y2265D02*
X713Y2265D01*
X955Y2265D02*
X1013Y2265D01*
X1864Y2265D02*
X1923Y2265D01*
X2164Y2265D02*
X2223Y2265D01*
X2328Y2265D02*
X2386Y2265D01*
X2627Y2265D02*
X2686Y2265D01*
X655Y2264D02*
X713Y2264D01*
X955Y2264D02*
X1013Y2264D01*
X1864Y2264D02*
X1923Y2264D01*
X2164Y2264D02*
X2223Y2264D01*
X2328Y2264D02*
X2386Y2264D01*
X2627Y2264D02*
X2686Y2264D01*
X655Y2263D02*
X713Y2263D01*
X955Y2263D02*
X1013Y2263D01*
X1864Y2263D02*
X1923Y2263D01*
X2164Y2263D02*
X2223Y2263D01*
X2328Y2263D02*
X2352Y2263D01*
X2361Y2263D02*
X2386Y2263D01*
X2627Y2263D02*
X2652Y2263D01*
X2661Y2263D02*
X2686Y2263D01*
X655Y2262D02*
X679Y2262D01*
X689Y2262D02*
X713Y2262D01*
X955Y2262D02*
X979Y2262D01*
X989Y2262D02*
X1013Y2262D01*
X1864Y2262D02*
X1889Y2262D01*
X1898Y2262D02*
X1923Y2262D01*
X2164Y2262D02*
X2189Y2262D01*
X2198Y2262D02*
X2223Y2262D01*
X2328Y2262D02*
X2349Y2262D01*
X2364Y2262D02*
X2386Y2262D01*
X2627Y2262D02*
X2649Y2262D01*
X2664Y2262D02*
X2686Y2262D01*
X655Y2261D02*
X676Y2261D01*
X692Y2261D02*
X713Y2261D01*
X955Y2261D02*
X976Y2261D01*
X992Y2261D02*
X1013Y2261D01*
X1864Y2261D02*
X1886Y2261D01*
X1902Y2261D02*
X1923Y2261D01*
X2164Y2261D02*
X2186Y2261D01*
X2201Y2261D02*
X2223Y2261D01*
X2328Y2261D02*
X2347Y2261D01*
X2367Y2261D02*
X2386Y2261D01*
X2627Y2261D02*
X2647Y2261D01*
X2666Y2261D02*
X2686Y2261D01*
X655Y2260D02*
X674Y2260D01*
X694Y2260D02*
X713Y2260D01*
X955Y2260D02*
X974Y2260D01*
X994Y2260D02*
X1013Y2260D01*
X1864Y2260D02*
X1884Y2260D01*
X1903Y2260D02*
X1923Y2260D01*
X2164Y2260D02*
X2184Y2260D01*
X2203Y2260D02*
X2223Y2260D01*
X2328Y2260D02*
X2345Y2260D01*
X2368Y2260D02*
X2386Y2260D01*
X2627Y2260D02*
X2645Y2260D01*
X2668Y2260D02*
X2686Y2260D01*
X655Y2259D02*
X672Y2259D01*
X695Y2259D02*
X713Y2259D01*
X955Y2259D02*
X972Y2259D01*
X995Y2259D02*
X1013Y2259D01*
X1864Y2259D02*
X1882Y2259D01*
X1905Y2259D02*
X1923Y2259D01*
X2164Y2259D02*
X2182Y2259D01*
X2205Y2259D02*
X2223Y2259D01*
X2328Y2259D02*
X2344Y2259D01*
X2370Y2259D02*
X2386Y2259D01*
X2627Y2259D02*
X2644Y2259D01*
X2669Y2259D02*
X2686Y2259D01*
X655Y2258D02*
X671Y2258D01*
X697Y2258D02*
X713Y2258D01*
X955Y2258D02*
X971Y2258D01*
X997Y2258D02*
X1013Y2258D01*
X1864Y2258D02*
X1881Y2258D01*
X1906Y2258D02*
X1923Y2258D01*
X2164Y2258D02*
X2181Y2258D01*
X2206Y2258D02*
X2223Y2258D01*
X2328Y2258D02*
X2343Y2258D01*
X2371Y2258D02*
X2386Y2258D01*
X2627Y2258D02*
X2643Y2258D01*
X2671Y2258D02*
X2686Y2258D01*
X655Y2257D02*
X670Y2257D01*
X698Y2257D02*
X713Y2257D01*
X955Y2257D02*
X970Y2257D01*
X998Y2257D02*
X1013Y2257D01*
X1864Y2257D02*
X1879Y2257D01*
X1908Y2257D02*
X1923Y2257D01*
X2164Y2257D02*
X2179Y2257D01*
X2208Y2257D02*
X2223Y2257D01*
X2328Y2257D02*
X2342Y2257D01*
X2372Y2257D02*
X2386Y2257D01*
X2627Y2257D02*
X2642Y2257D01*
X2672Y2257D02*
X2686Y2257D01*
X655Y2256D02*
X669Y2256D01*
X699Y2256D02*
X713Y2256D01*
X955Y2256D02*
X969Y2256D01*
X999Y2256D02*
X1013Y2256D01*
X1864Y2256D02*
X1879Y2256D01*
X1909Y2256D02*
X1923Y2256D01*
X2164Y2256D02*
X2178Y2256D01*
X2209Y2256D02*
X2223Y2256D01*
X2328Y2256D02*
X2341Y2256D01*
X2373Y2256D02*
X2386Y2256D01*
X2627Y2256D02*
X2641Y2256D01*
X2672Y2256D02*
X2686Y2256D01*
X655Y2255D02*
X668Y2255D01*
X700Y2255D02*
X713Y2255D01*
X955Y2255D02*
X968Y2255D01*
X1000Y2255D02*
X1013Y2255D01*
X1864Y2255D02*
X1878Y2255D01*
X1909Y2255D02*
X1923Y2255D01*
X2164Y2255D02*
X2178Y2255D01*
X2209Y2255D02*
X2223Y2255D01*
X2328Y2255D02*
X2340Y2255D01*
X2373Y2255D02*
X2386Y2255D01*
X2627Y2255D02*
X2640Y2255D01*
X2673Y2255D02*
X2686Y2255D01*
X655Y2254D02*
X667Y2254D01*
X700Y2254D02*
X713Y2254D01*
X955Y2254D02*
X967Y2254D01*
X1000Y2254D02*
X1013Y2254D01*
X1864Y2254D02*
X1877Y2254D01*
X1910Y2254D02*
X1923Y2254D01*
X2164Y2254D02*
X2177Y2254D01*
X2210Y2254D02*
X2223Y2254D01*
X2328Y2254D02*
X2340Y2254D01*
X2374Y2254D02*
X2386Y2254D01*
X2627Y2254D02*
X2639Y2254D01*
X2674Y2254D02*
X2686Y2254D01*
X655Y2253D02*
X667Y2253D01*
X701Y2253D02*
X713Y2253D01*
X955Y2253D02*
X966Y2253D01*
X1001Y2253D02*
X1013Y2253D01*
X1864Y2253D02*
X1876Y2253D01*
X1911Y2253D02*
X1923Y2253D01*
X2164Y2253D02*
X2176Y2253D01*
X2211Y2253D02*
X2223Y2253D01*
X2328Y2253D02*
X2339Y2253D01*
X2375Y2253D02*
X2386Y2253D01*
X2627Y2253D02*
X2639Y2253D01*
X2674Y2253D02*
X2686Y2253D01*
X655Y2252D02*
X666Y2252D01*
X702Y2252D02*
X713Y2252D01*
X955Y2252D02*
X966Y2252D01*
X1002Y2252D02*
X1013Y2252D01*
X1864Y2252D02*
X1876Y2252D01*
X1911Y2252D02*
X1923Y2252D01*
X2164Y2252D02*
X2176Y2252D01*
X2211Y2252D02*
X2223Y2252D01*
X2328Y2252D02*
X2338Y2252D01*
X2375Y2252D02*
X2386Y2252D01*
X2627Y2252D02*
X2638Y2252D01*
X2675Y2252D02*
X2686Y2252D01*
X655Y2251D02*
X665Y2251D01*
X702Y2251D02*
X713Y2251D01*
X955Y2251D02*
X965Y2251D01*
X1002Y2251D02*
X1013Y2251D01*
X1864Y2251D02*
X1875Y2251D01*
X1912Y2251D02*
X1923Y2251D01*
X2164Y2251D02*
X2175Y2251D01*
X2212Y2251D02*
X2223Y2251D01*
X2328Y2251D02*
X2338Y2251D01*
X2375Y2251D02*
X2386Y2251D01*
X2627Y2251D02*
X2638Y2251D01*
X2675Y2251D02*
X2686Y2251D01*
X655Y2250D02*
X665Y2250D01*
X703Y2250D02*
X713Y2250D01*
X955Y2250D02*
X965Y2250D01*
X1003Y2250D02*
X1013Y2250D01*
X1864Y2250D02*
X1875Y2250D01*
X1912Y2250D02*
X1923Y2250D01*
X2164Y2250D02*
X2175Y2250D01*
X2212Y2250D02*
X2223Y2250D01*
X2328Y2250D02*
X2338Y2250D01*
X2376Y2250D02*
X2386Y2250D01*
X2627Y2250D02*
X2638Y2250D01*
X2676Y2250D02*
X2686Y2250D01*
X655Y2249D02*
X665Y2249D01*
X703Y2249D02*
X713Y2249D01*
X955Y2249D02*
X965Y2249D01*
X1003Y2249D02*
X1013Y2249D01*
X1864Y2249D02*
X1874Y2249D01*
X1913Y2249D02*
X1923Y2249D01*
X2164Y2249D02*
X2174Y2249D01*
X2213Y2249D02*
X2223Y2249D01*
X2328Y2249D02*
X2337Y2249D01*
X2376Y2249D02*
X2386Y2249D01*
X2627Y2249D02*
X2637Y2249D01*
X2676Y2249D02*
X2686Y2249D01*
X655Y2248D02*
X664Y2248D01*
X703Y2248D02*
X713Y2248D01*
X955Y2248D02*
X964Y2248D01*
X1003Y2248D02*
X1013Y2248D01*
X1864Y2248D02*
X1874Y2248D01*
X1913Y2248D02*
X1923Y2248D01*
X2164Y2248D02*
X2174Y2248D01*
X2213Y2248D02*
X2223Y2248D01*
X2328Y2248D02*
X2337Y2248D01*
X2376Y2248D02*
X2386Y2248D01*
X2627Y2248D02*
X2637Y2248D01*
X2676Y2248D02*
X2686Y2248D01*
X655Y2247D02*
X664Y2247D01*
X703Y2247D02*
X713Y2247D01*
X955Y2247D02*
X964Y2247D01*
X1003Y2247D02*
X1013Y2247D01*
X1864Y2247D02*
X1874Y2247D01*
X1913Y2247D02*
X1923Y2247D01*
X2164Y2247D02*
X2174Y2247D01*
X2213Y2247D02*
X2223Y2247D01*
X2328Y2247D02*
X2337Y2247D01*
X2377Y2247D02*
X2386Y2247D01*
X2627Y2247D02*
X2637Y2247D01*
X2677Y2247D02*
X2686Y2247D01*
X655Y2246D02*
X664Y2246D01*
X704Y2246D02*
X713Y2246D01*
X955Y2246D02*
X964Y2246D01*
X1004Y2246D02*
X1013Y2246D01*
X1864Y2246D02*
X1874Y2246D01*
X1913Y2246D02*
X1923Y2246D01*
X2164Y2246D02*
X2174Y2246D01*
X2213Y2246D02*
X2223Y2246D01*
X2328Y2246D02*
X2337Y2246D01*
X2377Y2246D02*
X2386Y2246D01*
X2627Y2246D02*
X2637Y2246D01*
X2677Y2246D02*
X2686Y2246D01*
X655Y2245D02*
X664Y2245D01*
X704Y2245D02*
X713Y2245D01*
X955Y2245D02*
X964Y2245D01*
X1004Y2245D02*
X1013Y2245D01*
X1864Y2245D02*
X1874Y2245D01*
X1913Y2245D02*
X1923Y2245D01*
X2164Y2245D02*
X2174Y2245D01*
X2213Y2245D02*
X2223Y2245D01*
X2328Y2245D02*
X2337Y2245D01*
X2377Y2245D02*
X2386Y2245D01*
X2627Y2245D02*
X2637Y2245D01*
X2677Y2245D02*
X2686Y2245D01*
X655Y2244D02*
X664Y2244D01*
X704Y2244D02*
X713Y2244D01*
X955Y2244D02*
X964Y2244D01*
X1004Y2244D02*
X1013Y2244D01*
X1864Y2244D02*
X1873Y2244D01*
X1914Y2244D02*
X1923Y2244D01*
X2164Y2244D02*
X2173Y2244D01*
X2214Y2244D02*
X2223Y2244D01*
X2328Y2244D02*
X2337Y2244D01*
X2377Y2244D02*
X2386Y2244D01*
X2627Y2244D02*
X2637Y2244D01*
X2677Y2244D02*
X2686Y2244D01*
X655Y2243D02*
X664Y2243D01*
X704Y2243D02*
X713Y2243D01*
X955Y2243D02*
X964Y2243D01*
X1004Y2243D02*
X1013Y2243D01*
X1864Y2243D02*
X1873Y2243D01*
X1914Y2243D02*
X1923Y2243D01*
X2164Y2243D02*
X2173Y2243D01*
X2214Y2243D02*
X2223Y2243D01*
X2328Y2243D02*
X2337Y2243D01*
X2377Y2243D02*
X2386Y2243D01*
X2627Y2243D02*
X2637Y2243D01*
X2677Y2243D02*
X2686Y2243D01*
X655Y2242D02*
X664Y2242D01*
X704Y2242D02*
X713Y2242D01*
X955Y2242D02*
X964Y2242D01*
X1004Y2242D02*
X1013Y2242D01*
X1864Y2242D02*
X1873Y2242D01*
X1914Y2242D02*
X1923Y2242D01*
X2164Y2242D02*
X2173Y2242D01*
X2214Y2242D02*
X2223Y2242D01*
X2328Y2242D02*
X2337Y2242D01*
X2377Y2242D02*
X2386Y2242D01*
X2627Y2242D02*
X2637Y2242D01*
X2677Y2242D02*
X2686Y2242D01*
X655Y2241D02*
X664Y2241D01*
X704Y2241D02*
X713Y2241D01*
X955Y2241D02*
X964Y2241D01*
X1004Y2241D02*
X1013Y2241D01*
X1864Y2241D02*
X1874Y2241D01*
X1914Y2241D02*
X1923Y2241D01*
X2164Y2241D02*
X2173Y2241D01*
X2213Y2241D02*
X2223Y2241D01*
X2328Y2241D02*
X2337Y2241D01*
X2377Y2241D02*
X2386Y2241D01*
X2627Y2241D02*
X2637Y2241D01*
X2677Y2241D02*
X2686Y2241D01*
X655Y2240D02*
X664Y2240D01*
X704Y2240D02*
X713Y2240D01*
X955Y2240D02*
X964Y2240D01*
X1004Y2240D02*
X1013Y2240D01*
X1864Y2240D02*
X1874Y2240D01*
X1913Y2240D02*
X1923Y2240D01*
X2164Y2240D02*
X2174Y2240D01*
X2213Y2240D02*
X2223Y2240D01*
X2328Y2240D02*
X2337Y2240D01*
X2377Y2240D02*
X2386Y2240D01*
X2627Y2240D02*
X2637Y2240D01*
X2676Y2240D02*
X2686Y2240D01*
X655Y2239D02*
X664Y2239D01*
X704Y2239D02*
X713Y2239D01*
X955Y2239D02*
X964Y2239D01*
X1003Y2239D02*
X1013Y2239D01*
X1864Y2239D02*
X1874Y2239D01*
X1913Y2239D02*
X1923Y2239D01*
X2164Y2239D02*
X2174Y2239D01*
X2213Y2239D02*
X2223Y2239D01*
X2328Y2239D02*
X2337Y2239D01*
X2376Y2239D02*
X2386Y2239D01*
X2627Y2239D02*
X2637Y2239D01*
X2676Y2239D02*
X2686Y2239D01*
X655Y2238D02*
X664Y2238D01*
X703Y2238D02*
X713Y2238D01*
X955Y2238D02*
X964Y2238D01*
X1003Y2238D02*
X1013Y2238D01*
X1864Y2238D02*
X1874Y2238D01*
X1913Y2238D02*
X1923Y2238D01*
X2164Y2238D02*
X2174Y2238D01*
X2213Y2238D02*
X2223Y2238D01*
X2328Y2238D02*
X2338Y2238D01*
X2376Y2238D02*
X2386Y2238D01*
X2627Y2238D02*
X2637Y2238D01*
X2676Y2238D02*
X2686Y2238D01*
X655Y2237D02*
X665Y2237D01*
X703Y2237D02*
X713Y2237D01*
X955Y2237D02*
X965Y2237D01*
X1003Y2237D02*
X1013Y2237D01*
X1864Y2237D02*
X1874Y2237D01*
X1913Y2237D02*
X1923Y2237D01*
X2164Y2237D02*
X2174Y2237D01*
X2213Y2237D02*
X2223Y2237D01*
X2328Y2237D02*
X2338Y2237D01*
X2376Y2237D02*
X2386Y2237D01*
X2627Y2237D02*
X2638Y2237D01*
X2676Y2237D02*
X2686Y2237D01*
X655Y2236D02*
X665Y2236D01*
X703Y2236D02*
X713Y2236D01*
X955Y2236D02*
X965Y2236D01*
X1003Y2236D02*
X1013Y2236D01*
X1864Y2236D02*
X1875Y2236D01*
X1912Y2236D02*
X1923Y2236D01*
X2164Y2236D02*
X2175Y2236D01*
X2212Y2236D02*
X2223Y2236D01*
X2328Y2236D02*
X2338Y2236D01*
X2375Y2236D02*
X2386Y2236D01*
X2627Y2236D02*
X2638Y2236D01*
X2675Y2236D02*
X2686Y2236D01*
X655Y2235D02*
X665Y2235D01*
X702Y2235D02*
X713Y2235D01*
X955Y2235D02*
X965Y2235D01*
X1002Y2235D02*
X1013Y2235D01*
X1864Y2235D02*
X1875Y2235D01*
X1912Y2235D02*
X1923Y2235D01*
X2164Y2235D02*
X2175Y2235D01*
X2212Y2235D02*
X2223Y2235D01*
X2328Y2235D02*
X2339Y2235D01*
X2375Y2235D02*
X2386Y2235D01*
X2627Y2235D02*
X2639Y2235D01*
X2675Y2235D02*
X2686Y2235D01*
X655Y2234D02*
X666Y2234D01*
X702Y2234D02*
X713Y2234D01*
X955Y2234D02*
X966Y2234D01*
X1002Y2234D02*
X1013Y2234D01*
X1864Y2234D02*
X1876Y2234D01*
X1912Y2234D02*
X1923Y2234D01*
X2164Y2234D02*
X2175Y2234D01*
X2211Y2234D02*
X2223Y2234D01*
X2328Y2234D02*
X2339Y2234D01*
X2374Y2234D02*
X2386Y2234D01*
X2627Y2234D02*
X2639Y2234D01*
X2674Y2234D02*
X2686Y2234D01*
X655Y2233D02*
X666Y2233D01*
X701Y2233D02*
X713Y2233D01*
X955Y2233D02*
X966Y2233D01*
X1001Y2233D02*
X1013Y2233D01*
X1864Y2233D02*
X1876Y2233D01*
X1911Y2233D02*
X1923Y2233D01*
X2164Y2233D02*
X2176Y2233D01*
X2211Y2233D02*
X2223Y2233D01*
X2328Y2233D02*
X2340Y2233D01*
X2374Y2233D02*
X2386Y2233D01*
X2627Y2233D02*
X2640Y2233D01*
X2674Y2233D02*
X2686Y2233D01*
X655Y2232D02*
X667Y2232D01*
X701Y2232D02*
X713Y2232D01*
X955Y2232D02*
X967Y2232D01*
X1001Y2232D02*
X1013Y2232D01*
X1864Y2232D02*
X1877Y2232D01*
X1910Y2232D02*
X1923Y2232D01*
X2164Y2232D02*
X2177Y2232D01*
X2210Y2232D02*
X2223Y2232D01*
X2328Y2232D02*
X2341Y2232D01*
X2373Y2232D02*
X2386Y2232D01*
X2627Y2232D02*
X2640Y2232D01*
X2673Y2232D02*
X2686Y2232D01*
X655Y2231D02*
X668Y2231D01*
X700Y2231D02*
X713Y2231D01*
X955Y2231D02*
X968Y2231D01*
X1000Y2231D02*
X1013Y2231D01*
X1864Y2231D02*
X1877Y2231D01*
X1910Y2231D02*
X1923Y2231D01*
X2164Y2231D02*
X2177Y2231D01*
X2210Y2231D02*
X2223Y2231D01*
X2328Y2231D02*
X2341Y2231D01*
X2372Y2231D02*
X2386Y2231D01*
X2627Y2231D02*
X2641Y2231D01*
X2672Y2231D02*
X2686Y2231D01*
X655Y2230D02*
X668Y2230D01*
X699Y2230D02*
X713Y2230D01*
X955Y2230D02*
X968Y2230D01*
X999Y2230D02*
X1013Y2230D01*
X1864Y2230D02*
X1878Y2230D01*
X1909Y2230D02*
X1923Y2230D01*
X2164Y2230D02*
X2178Y2230D01*
X2209Y2230D02*
X2223Y2230D01*
X2328Y2230D02*
X2342Y2230D01*
X2371Y2230D02*
X2386Y2230D01*
X2627Y2230D02*
X2642Y2230D01*
X2671Y2230D02*
X2686Y2230D01*
X655Y2229D02*
X669Y2229D01*
X698Y2229D02*
X713Y2229D01*
X955Y2229D02*
X969Y2229D01*
X998Y2229D02*
X1013Y2229D01*
X1864Y2229D02*
X1879Y2229D01*
X1908Y2229D02*
X1923Y2229D01*
X2164Y2229D02*
X2179Y2229D01*
X2208Y2229D02*
X2223Y2229D01*
X2328Y2229D02*
X2343Y2229D01*
X2370Y2229D02*
X2386Y2229D01*
X2627Y2229D02*
X2643Y2229D01*
X2670Y2229D02*
X2686Y2229D01*
X655Y2228D02*
X670Y2228D01*
X697Y2228D02*
X713Y2228D01*
X955Y2228D02*
X970Y2228D01*
X997Y2228D02*
X1013Y2228D01*
X1864Y2228D02*
X1880Y2228D01*
X1907Y2228D02*
X1923Y2228D01*
X2164Y2228D02*
X2180Y2228D01*
X2207Y2228D02*
X2223Y2228D01*
X2328Y2228D02*
X2345Y2228D01*
X2369Y2228D02*
X2386Y2228D01*
X2627Y2228D02*
X2645Y2228D01*
X2669Y2228D02*
X2686Y2228D01*
X655Y2227D02*
X672Y2227D01*
X696Y2227D02*
X713Y2227D01*
X955Y2227D02*
X972Y2227D01*
X996Y2227D02*
X1013Y2227D01*
X1864Y2227D02*
X1881Y2227D01*
X1906Y2227D02*
X1923Y2227D01*
X2164Y2227D02*
X2181Y2227D01*
X2206Y2227D02*
X2223Y2227D01*
X2328Y2227D02*
X2346Y2227D01*
X2367Y2227D02*
X2386Y2227D01*
X2627Y2227D02*
X2646Y2227D01*
X2667Y2227D02*
X2686Y2227D01*
X655Y2226D02*
X673Y2226D01*
X694Y2226D02*
X713Y2226D01*
X955Y2226D02*
X973Y2226D01*
X994Y2226D02*
X1013Y2226D01*
X1864Y2226D02*
X1883Y2226D01*
X1904Y2226D02*
X1923Y2226D01*
X2164Y2226D02*
X2183Y2226D01*
X2204Y2226D02*
X2223Y2226D01*
X2328Y2226D02*
X2348Y2226D01*
X2366Y2226D02*
X2386Y2226D01*
X2627Y2226D02*
X2648Y2226D01*
X2666Y2226D02*
X2686Y2226D01*
X655Y2225D02*
X675Y2225D01*
X693Y2225D02*
X713Y2225D01*
X955Y2225D02*
X975Y2225D01*
X992Y2225D02*
X1013Y2225D01*
X1864Y2225D02*
X1885Y2225D01*
X1902Y2225D02*
X1923Y2225D01*
X2164Y2225D02*
X2185Y2225D01*
X2202Y2225D02*
X2223Y2225D01*
X2328Y2225D02*
X2351Y2225D01*
X2363Y2225D02*
X2386Y2225D01*
X2627Y2225D02*
X2651Y2225D01*
X2663Y2225D02*
X2686Y2225D01*
X655Y2224D02*
X678Y2224D01*
X690Y2224D02*
X713Y2224D01*
X955Y2224D02*
X978Y2224D01*
X990Y2224D02*
X1013Y2224D01*
X1864Y2224D02*
X1888Y2224D01*
X1899Y2224D02*
X1923Y2224D01*
X2164Y2224D02*
X2188Y2224D01*
X2199Y2224D02*
X2223Y2224D01*
X2328Y2224D02*
X2386Y2224D01*
X2627Y2224D02*
X2686Y2224D01*
X655Y2223D02*
X713Y2223D01*
X955Y2223D02*
X1013Y2223D01*
X1864Y2223D02*
X1923Y2223D01*
X2164Y2223D02*
X2223Y2223D01*
X2328Y2223D02*
X2386Y2223D01*
X2627Y2223D02*
X2686Y2223D01*
X655Y2222D02*
X713Y2222D01*
X955Y2222D02*
X1013Y2222D01*
X1864Y2222D02*
X1923Y2222D01*
X2164Y2222D02*
X2223Y2222D01*
X2328Y2222D02*
X2386Y2222D01*
X2627Y2222D02*
X2686Y2222D01*
X655Y2221D02*
X713Y2221D01*
X955Y2221D02*
X1013Y2221D01*
X1864Y2221D02*
X1923Y2221D01*
X2164Y2221D02*
X2223Y2221D01*
X2328Y2221D02*
X2386Y2221D01*
X2627Y2221D02*
X2686Y2221D01*
X655Y2220D02*
X713Y2220D01*
X955Y2220D02*
X1013Y2220D01*
X1864Y2220D02*
X1923Y2220D01*
X2164Y2220D02*
X2223Y2220D01*
X2328Y2220D02*
X2386Y2220D01*
X2627Y2220D02*
X2686Y2220D01*
X655Y2219D02*
X713Y2219D01*
X955Y2219D02*
X1013Y2219D01*
X1864Y2219D02*
X1923Y2219D01*
X2164Y2219D02*
X2223Y2219D01*
X2328Y2219D02*
X2386Y2219D01*
X2627Y2219D02*
X2686Y2219D01*
X655Y2218D02*
X713Y2218D01*
X955Y2218D02*
X1013Y2218D01*
X1864Y2218D02*
X1923Y2218D01*
X2164Y2218D02*
X2223Y2218D01*
X2328Y2218D02*
X2386Y2218D01*
X2627Y2218D02*
X2686Y2218D01*
X655Y2217D02*
X713Y2217D01*
X955Y2217D02*
X1013Y2217D01*
X1864Y2217D02*
X1923Y2217D01*
X2164Y2217D02*
X2223Y2217D01*
X2328Y2217D02*
X2386Y2217D01*
X2627Y2217D02*
X2686Y2217D01*
X655Y2216D02*
X713Y2216D01*
X955Y2216D02*
X1013Y2216D01*
X1864Y2216D02*
X1923Y2216D01*
X2164Y2216D02*
X2223Y2216D01*
X2328Y2216D02*
X2386Y2216D01*
X2627Y2216D02*
X2686Y2216D01*
X655Y2215D02*
X713Y2215D01*
X955Y2215D02*
X1013Y2215D01*
X1864Y2215D02*
X1923Y2215D01*
X2164Y2215D02*
X2223Y2215D01*
X2328Y2215D02*
X2386Y2215D01*
X2627Y2215D02*
X2686Y2215D01*
X655Y2214D02*
X713Y2214D01*
X955Y2214D02*
X1013Y2214D01*
X1864Y2214D02*
X1923Y2214D01*
X2164Y2214D02*
X2223Y2214D01*
X2328Y2073D02*
X2386Y2073D01*
X2628Y2073D02*
X2686Y2073D01*
X655Y2072D02*
X713Y2072D01*
X955Y2072D02*
X1013Y2072D01*
X1864Y2072D02*
X1923Y2072D01*
X2164Y2072D02*
X2223Y2072D01*
X2328Y2072D02*
X2386Y2072D01*
X2627Y2072D02*
X2686Y2072D01*
X655Y2071D02*
X713Y2071D01*
X955Y2071D02*
X1013Y2071D01*
X1864Y2071D02*
X1923Y2071D01*
X2164Y2071D02*
X2223Y2071D01*
X2328Y2071D02*
X2386Y2071D01*
X2627Y2071D02*
X2686Y2071D01*
X655Y2070D02*
X713Y2070D01*
X955Y2070D02*
X1013Y2070D01*
X1864Y2070D02*
X1923Y2070D01*
X2164Y2070D02*
X2223Y2070D01*
X2328Y2070D02*
X2386Y2070D01*
X2627Y2070D02*
X2686Y2070D01*
X655Y2069D02*
X713Y2069D01*
X955Y2069D02*
X1013Y2069D01*
X1864Y2069D02*
X1923Y2069D01*
X2164Y2069D02*
X2223Y2069D01*
X2328Y2069D02*
X2386Y2069D01*
X2627Y2069D02*
X2686Y2069D01*
X655Y2068D02*
X713Y2068D01*
X955Y2068D02*
X1013Y2068D01*
X1864Y2068D02*
X1923Y2068D01*
X2164Y2068D02*
X2223Y2068D01*
X2328Y2068D02*
X2386Y2068D01*
X2627Y2068D02*
X2686Y2068D01*
X655Y2067D02*
X713Y2067D01*
X955Y2067D02*
X1013Y2067D01*
X1864Y2067D02*
X1923Y2067D01*
X2164Y2067D02*
X2223Y2067D01*
X2328Y2067D02*
X2386Y2067D01*
X2627Y2067D02*
X2686Y2067D01*
X655Y2066D02*
X713Y2066D01*
X955Y2066D02*
X1013Y2066D01*
X1864Y2066D02*
X1923Y2066D01*
X2164Y2066D02*
X2223Y2066D01*
X2328Y2066D02*
X2386Y2066D01*
X2627Y2066D02*
X2686Y2066D01*
X655Y2065D02*
X713Y2065D01*
X955Y2065D02*
X1013Y2065D01*
X1864Y2065D02*
X1923Y2065D01*
X2164Y2065D02*
X2223Y2065D01*
X2328Y2065D02*
X2386Y2065D01*
X2627Y2065D02*
X2686Y2065D01*
X655Y2064D02*
X713Y2064D01*
X955Y2064D02*
X1013Y2064D01*
X1864Y2064D02*
X1923Y2064D01*
X2164Y2064D02*
X2223Y2064D01*
X2328Y2064D02*
X2386Y2064D01*
X2627Y2064D02*
X2686Y2064D01*
X655Y2063D02*
X713Y2063D01*
X955Y2063D02*
X1013Y2063D01*
X1864Y2063D02*
X1923Y2063D01*
X2164Y2063D02*
X2223Y2063D01*
X2328Y2063D02*
X2352Y2063D01*
X2361Y2063D02*
X2386Y2063D01*
X2627Y2063D02*
X2652Y2063D01*
X2661Y2063D02*
X2686Y2063D01*
X655Y2062D02*
X679Y2062D01*
X689Y2062D02*
X713Y2062D01*
X955Y2062D02*
X979Y2062D01*
X989Y2062D02*
X1013Y2062D01*
X1864Y2062D02*
X1889Y2062D01*
X1899Y2062D02*
X1923Y2062D01*
X2164Y2062D02*
X2188Y2062D01*
X2198Y2062D02*
X2223Y2062D01*
X2328Y2062D02*
X2349Y2062D01*
X2365Y2062D02*
X2386Y2062D01*
X2627Y2062D02*
X2649Y2062D01*
X2665Y2062D02*
X2686Y2062D01*
X655Y2061D02*
X676Y2061D01*
X692Y2061D02*
X713Y2061D01*
X955Y2061D02*
X976Y2061D01*
X992Y2061D02*
X1013Y2061D01*
X1864Y2061D02*
X1885Y2061D01*
X1902Y2061D02*
X1923Y2061D01*
X2164Y2061D02*
X2185Y2061D01*
X2202Y2061D02*
X2223Y2061D01*
X2328Y2061D02*
X2347Y2061D01*
X2367Y2061D02*
X2386Y2061D01*
X2627Y2061D02*
X2647Y2061D01*
X2667Y2061D02*
X2686Y2061D01*
X655Y2060D02*
X674Y2060D01*
X694Y2060D02*
X713Y2060D01*
X955Y2060D02*
X974Y2060D01*
X994Y2060D02*
X1013Y2060D01*
X1864Y2060D02*
X1884Y2060D01*
X1904Y2060D02*
X1923Y2060D01*
X2164Y2060D02*
X2183Y2060D01*
X2204Y2060D02*
X2223Y2060D01*
X2328Y2060D02*
X2345Y2060D01*
X2368Y2060D02*
X2386Y2060D01*
X2627Y2060D02*
X2645Y2060D01*
X2668Y2060D02*
X2686Y2060D01*
X655Y2059D02*
X672Y2059D01*
X696Y2059D02*
X713Y2059D01*
X955Y2059D02*
X972Y2059D01*
X995Y2059D02*
X1013Y2059D01*
X1864Y2059D02*
X1882Y2059D01*
X1905Y2059D02*
X1923Y2059D01*
X2164Y2059D02*
X2182Y2059D01*
X2205Y2059D02*
X2223Y2059D01*
X2328Y2059D02*
X2344Y2059D01*
X2370Y2059D02*
X2386Y2059D01*
X2627Y2059D02*
X2644Y2059D01*
X2670Y2059D02*
X2686Y2059D01*
X655Y2058D02*
X671Y2058D01*
X697Y2058D02*
X713Y2058D01*
X955Y2058D02*
X971Y2058D01*
X997Y2058D02*
X1013Y2058D01*
X1864Y2058D02*
X1881Y2058D01*
X1906Y2058D02*
X1923Y2058D01*
X2164Y2058D02*
X2181Y2058D01*
X2206Y2058D02*
X2223Y2058D01*
X2328Y2058D02*
X2343Y2058D01*
X2371Y2058D02*
X2386Y2058D01*
X2627Y2058D02*
X2643Y2058D01*
X2671Y2058D02*
X2686Y2058D01*
X655Y2057D02*
X670Y2057D01*
X698Y2057D02*
X713Y2057D01*
X955Y2057D02*
X970Y2057D01*
X998Y2057D02*
X1013Y2057D01*
X1864Y2057D02*
X1879Y2057D01*
X1908Y2057D02*
X1923Y2057D01*
X2164Y2057D02*
X2179Y2057D01*
X2208Y2057D02*
X2223Y2057D01*
X2328Y2057D02*
X2342Y2057D01*
X2372Y2057D02*
X2386Y2057D01*
X2627Y2057D02*
X2642Y2057D01*
X2672Y2057D02*
X2686Y2057D01*
X655Y2056D02*
X669Y2056D01*
X699Y2056D02*
X713Y2056D01*
X955Y2056D02*
X969Y2056D01*
X999Y2056D02*
X1013Y2056D01*
X1864Y2056D02*
X1878Y2056D01*
X1909Y2056D02*
X1923Y2056D01*
X2164Y2056D02*
X2178Y2056D01*
X2209Y2056D02*
X2223Y2056D01*
X2328Y2056D02*
X2341Y2056D01*
X2373Y2056D02*
X2386Y2056D01*
X2627Y2056D02*
X2641Y2056D01*
X2673Y2056D02*
X2686Y2056D01*
X655Y2055D02*
X668Y2055D01*
X700Y2055D02*
X713Y2055D01*
X955Y2055D02*
X968Y2055D01*
X1000Y2055D02*
X1013Y2055D01*
X1864Y2055D02*
X1878Y2055D01*
X1909Y2055D02*
X1923Y2055D01*
X2164Y2055D02*
X2178Y2055D01*
X2209Y2055D02*
X2223Y2055D01*
X2328Y2055D02*
X2340Y2055D01*
X2373Y2055D02*
X2386Y2055D01*
X2627Y2055D02*
X2640Y2055D01*
X2673Y2055D02*
X2686Y2055D01*
X655Y2054D02*
X667Y2054D01*
X700Y2054D02*
X713Y2054D01*
X955Y2054D02*
X967Y2054D01*
X1000Y2054D02*
X1013Y2054D01*
X1864Y2054D02*
X1877Y2054D01*
X1910Y2054D02*
X1923Y2054D01*
X2164Y2054D02*
X2177Y2054D01*
X2210Y2054D02*
X2223Y2054D01*
X2328Y2054D02*
X2339Y2054D01*
X2374Y2054D02*
X2386Y2054D01*
X2627Y2054D02*
X2639Y2054D01*
X2674Y2054D02*
X2686Y2054D01*
X655Y2053D02*
X666Y2053D01*
X701Y2053D02*
X713Y2053D01*
X955Y2053D02*
X966Y2053D01*
X1001Y2053D02*
X1013Y2053D01*
X1864Y2053D02*
X1876Y2053D01*
X1911Y2053D02*
X1923Y2053D01*
X2164Y2053D02*
X2176Y2053D01*
X2211Y2053D02*
X2223Y2053D01*
X2328Y2053D02*
X2339Y2053D01*
X2375Y2053D02*
X2386Y2053D01*
X2627Y2053D02*
X2639Y2053D01*
X2674Y2053D02*
X2686Y2053D01*
X655Y2052D02*
X666Y2052D01*
X702Y2052D02*
X713Y2052D01*
X955Y2052D02*
X966Y2052D01*
X1002Y2052D02*
X1013Y2052D01*
X1864Y2052D02*
X1876Y2052D01*
X1911Y2052D02*
X1923Y2052D01*
X2164Y2052D02*
X2176Y2052D01*
X2211Y2052D02*
X2223Y2052D01*
X2328Y2052D02*
X2338Y2052D01*
X2375Y2052D02*
X2386Y2052D01*
X2627Y2052D02*
X2638Y2052D01*
X2675Y2052D02*
X2686Y2052D01*
X655Y2051D02*
X665Y2051D01*
X702Y2051D02*
X713Y2051D01*
X955Y2051D02*
X965Y2051D01*
X1002Y2051D02*
X1013Y2051D01*
X1864Y2051D02*
X1875Y2051D01*
X1912Y2051D02*
X1923Y2051D01*
X2164Y2051D02*
X2175Y2051D01*
X2212Y2051D02*
X2223Y2051D01*
X2328Y2051D02*
X2338Y2051D01*
X2376Y2051D02*
X2386Y2051D01*
X2627Y2051D02*
X2638Y2051D01*
X2675Y2051D02*
X2686Y2051D01*
X655Y2050D02*
X665Y2050D01*
X703Y2050D02*
X713Y2050D01*
X955Y2050D02*
X965Y2050D01*
X1003Y2050D02*
X1013Y2050D01*
X1864Y2050D02*
X1875Y2050D01*
X1912Y2050D02*
X1923Y2050D01*
X2164Y2050D02*
X2175Y2050D01*
X2212Y2050D02*
X2223Y2050D01*
X2328Y2050D02*
X2338Y2050D01*
X2376Y2050D02*
X2386Y2050D01*
X2627Y2050D02*
X2638Y2050D01*
X2676Y2050D02*
X2686Y2050D01*
X655Y2049D02*
X665Y2049D01*
X703Y2049D02*
X713Y2049D01*
X955Y2049D02*
X965Y2049D01*
X1003Y2049D02*
X1013Y2049D01*
X1864Y2049D02*
X1874Y2049D01*
X1913Y2049D02*
X1923Y2049D01*
X2164Y2049D02*
X2174Y2049D01*
X2213Y2049D02*
X2223Y2049D01*
X2328Y2049D02*
X2337Y2049D01*
X2376Y2049D02*
X2386Y2049D01*
X2627Y2049D02*
X2637Y2049D01*
X2676Y2049D02*
X2686Y2049D01*
X655Y2048D02*
X664Y2048D01*
X703Y2048D02*
X713Y2048D01*
X955Y2048D02*
X964Y2048D01*
X1003Y2048D02*
X1013Y2048D01*
X1864Y2048D02*
X1874Y2048D01*
X1913Y2048D02*
X1923Y2048D01*
X2164Y2048D02*
X2174Y2048D01*
X2213Y2048D02*
X2223Y2048D01*
X2328Y2048D02*
X2337Y2048D01*
X2376Y2048D02*
X2386Y2048D01*
X2627Y2048D02*
X2637Y2048D01*
X2676Y2048D02*
X2686Y2048D01*
X655Y2047D02*
X664Y2047D01*
X703Y2047D02*
X713Y2047D01*
X955Y2047D02*
X964Y2047D01*
X1003Y2047D02*
X1013Y2047D01*
X1864Y2047D02*
X1874Y2047D01*
X1913Y2047D02*
X1923Y2047D01*
X2164Y2047D02*
X2174Y2047D01*
X2213Y2047D02*
X2223Y2047D01*
X2328Y2047D02*
X2337Y2047D01*
X2377Y2047D02*
X2386Y2047D01*
X2627Y2047D02*
X2637Y2047D01*
X2677Y2047D02*
X2686Y2047D01*
X655Y2046D02*
X664Y2046D01*
X704Y2046D02*
X713Y2046D01*
X955Y2046D02*
X964Y2046D01*
X1004Y2046D02*
X1013Y2046D01*
X1864Y2046D02*
X1874Y2046D01*
X1913Y2046D02*
X1923Y2046D01*
X2164Y2046D02*
X2174Y2046D01*
X2213Y2046D02*
X2223Y2046D01*
X2328Y2046D02*
X2337Y2046D01*
X2377Y2046D02*
X2386Y2046D01*
X2627Y2046D02*
X2637Y2046D01*
X2677Y2046D02*
X2686Y2046D01*
X655Y2045D02*
X664Y2045D01*
X704Y2045D02*
X713Y2045D01*
X955Y2045D02*
X964Y2045D01*
X1004Y2045D02*
X1013Y2045D01*
X1864Y2045D02*
X1874Y2045D01*
X1914Y2045D02*
X1923Y2045D01*
X2164Y2045D02*
X2174Y2045D01*
X2213Y2045D02*
X2223Y2045D01*
X2328Y2045D02*
X2337Y2045D01*
X2377Y2045D02*
X2386Y2045D01*
X2627Y2045D02*
X2637Y2045D01*
X2677Y2045D02*
X2686Y2045D01*
X655Y2044D02*
X664Y2044D01*
X704Y2044D02*
X713Y2044D01*
X955Y2044D02*
X964Y2044D01*
X1004Y2044D02*
X1013Y2044D01*
X1864Y2044D02*
X1873Y2044D01*
X1914Y2044D02*
X1923Y2044D01*
X2164Y2044D02*
X2173Y2044D01*
X2214Y2044D02*
X2223Y2044D01*
X2328Y2044D02*
X2337Y2044D01*
X2377Y2044D02*
X2386Y2044D01*
X2627Y2044D02*
X2637Y2044D01*
X2677Y2044D02*
X2686Y2044D01*
X655Y2043D02*
X664Y2043D01*
X704Y2043D02*
X713Y2043D01*
X955Y2043D02*
X964Y2043D01*
X1004Y2043D02*
X1013Y2043D01*
X1864Y2043D02*
X1873Y2043D01*
X1914Y2043D02*
X1923Y2043D01*
X2164Y2043D02*
X2173Y2043D01*
X2214Y2043D02*
X2223Y2043D01*
X2328Y2043D02*
X2337Y2043D01*
X2377Y2043D02*
X2386Y2043D01*
X2627Y2043D02*
X2637Y2043D01*
X2677Y2043D02*
X2686Y2043D01*
X655Y2042D02*
X664Y2042D01*
X704Y2042D02*
X713Y2042D01*
X955Y2042D02*
X964Y2042D01*
X1004Y2042D02*
X1013Y2042D01*
X1864Y2042D02*
X1873Y2042D01*
X1914Y2042D02*
X1923Y2042D01*
X2164Y2042D02*
X2173Y2042D01*
X2214Y2042D02*
X2223Y2042D01*
X2328Y2042D02*
X2337Y2042D01*
X2377Y2042D02*
X2386Y2042D01*
X2627Y2042D02*
X2637Y2042D01*
X2677Y2042D02*
X2686Y2042D01*
X655Y2041D02*
X664Y2041D01*
X704Y2041D02*
X713Y2041D01*
X955Y2041D02*
X964Y2041D01*
X1004Y2041D02*
X1013Y2041D01*
X1864Y2041D02*
X1874Y2041D01*
X1914Y2041D02*
X1923Y2041D01*
X2164Y2041D02*
X2173Y2041D01*
X2213Y2041D02*
X2223Y2041D01*
X2328Y2041D02*
X2337Y2041D01*
X2377Y2041D02*
X2386Y2041D01*
X2627Y2041D02*
X2637Y2041D01*
X2677Y2041D02*
X2686Y2041D01*
X655Y2040D02*
X664Y2040D01*
X704Y2040D02*
X713Y2040D01*
X955Y2040D02*
X964Y2040D01*
X1004Y2040D02*
X1013Y2040D01*
X1864Y2040D02*
X1874Y2040D01*
X1913Y2040D02*
X1923Y2040D01*
X2164Y2040D02*
X2174Y2040D01*
X2213Y2040D02*
X2223Y2040D01*
X2328Y2040D02*
X2337Y2040D01*
X2377Y2040D02*
X2386Y2040D01*
X2627Y2040D02*
X2637Y2040D01*
X2676Y2040D02*
X2686Y2040D01*
X655Y2039D02*
X664Y2039D01*
X704Y2039D02*
X713Y2039D01*
X955Y2039D02*
X964Y2039D01*
X1003Y2039D02*
X1013Y2039D01*
X1864Y2039D02*
X1874Y2039D01*
X1913Y2039D02*
X1923Y2039D01*
X2164Y2039D02*
X2174Y2039D01*
X2213Y2039D02*
X2223Y2039D01*
X2328Y2039D02*
X2337Y2039D01*
X2376Y2039D02*
X2386Y2039D01*
X2627Y2039D02*
X2637Y2039D01*
X2676Y2039D02*
X2686Y2039D01*
X655Y2038D02*
X664Y2038D01*
X703Y2038D02*
X713Y2038D01*
X955Y2038D02*
X964Y2038D01*
X1003Y2038D02*
X1013Y2038D01*
X1864Y2038D02*
X1874Y2038D01*
X1913Y2038D02*
X1923Y2038D01*
X2164Y2038D02*
X2174Y2038D01*
X2213Y2038D02*
X2223Y2038D01*
X2328Y2038D02*
X2338Y2038D01*
X2376Y2038D02*
X2386Y2038D01*
X2627Y2038D02*
X2637Y2038D01*
X2676Y2038D02*
X2686Y2038D01*
X655Y2037D02*
X665Y2037D01*
X703Y2037D02*
X713Y2037D01*
X955Y2037D02*
X965Y2037D01*
X1003Y2037D02*
X1013Y2037D01*
X1864Y2037D02*
X1874Y2037D01*
X1913Y2037D02*
X1923Y2037D01*
X2164Y2037D02*
X2174Y2037D01*
X2213Y2037D02*
X2223Y2037D01*
X2328Y2037D02*
X2338Y2037D01*
X2376Y2037D02*
X2386Y2037D01*
X2627Y2037D02*
X2638Y2037D01*
X2676Y2037D02*
X2686Y2037D01*
X655Y2036D02*
X665Y2036D01*
X703Y2036D02*
X713Y2036D01*
X955Y2036D02*
X965Y2036D01*
X1003Y2036D02*
X1013Y2036D01*
X1864Y2036D02*
X1875Y2036D01*
X1912Y2036D02*
X1923Y2036D01*
X2164Y2036D02*
X2175Y2036D01*
X2212Y2036D02*
X2223Y2036D01*
X2328Y2036D02*
X2338Y2036D01*
X2375Y2036D02*
X2386Y2036D01*
X2627Y2036D02*
X2638Y2036D01*
X2675Y2036D02*
X2686Y2036D01*
X655Y2035D02*
X665Y2035D01*
X702Y2035D02*
X713Y2035D01*
X955Y2035D02*
X965Y2035D01*
X1002Y2035D02*
X1013Y2035D01*
X1864Y2035D02*
X1875Y2035D01*
X1912Y2035D02*
X1923Y2035D01*
X2164Y2035D02*
X2175Y2035D01*
X2212Y2035D02*
X2223Y2035D01*
X2328Y2035D02*
X2339Y2035D01*
X2375Y2035D02*
X2386Y2035D01*
X2627Y2035D02*
X2639Y2035D01*
X2675Y2035D02*
X2686Y2035D01*
X655Y2034D02*
X666Y2034D01*
X702Y2034D02*
X713Y2034D01*
X955Y2034D02*
X966Y2034D01*
X1002Y2034D02*
X1013Y2034D01*
X1864Y2034D02*
X1876Y2034D01*
X1911Y2034D02*
X1923Y2034D01*
X2164Y2034D02*
X2176Y2034D01*
X2211Y2034D02*
X2223Y2034D01*
X2328Y2034D02*
X2339Y2034D01*
X2374Y2034D02*
X2386Y2034D01*
X2627Y2034D02*
X2639Y2034D01*
X2674Y2034D02*
X2686Y2034D01*
X655Y2033D02*
X666Y2033D01*
X701Y2033D02*
X713Y2033D01*
X955Y2033D02*
X966Y2033D01*
X1001Y2033D02*
X1013Y2033D01*
X1864Y2033D02*
X1876Y2033D01*
X1911Y2033D02*
X1923Y2033D01*
X2164Y2033D02*
X2176Y2033D01*
X2211Y2033D02*
X2223Y2033D01*
X2328Y2033D02*
X2340Y2033D01*
X2374Y2033D02*
X2386Y2033D01*
X2627Y2033D02*
X2640Y2033D01*
X2674Y2033D02*
X2686Y2033D01*
X655Y2032D02*
X667Y2032D01*
X701Y2032D02*
X713Y2032D01*
X955Y2032D02*
X967Y2032D01*
X1001Y2032D02*
X1013Y2032D01*
X1864Y2032D02*
X1877Y2032D01*
X1910Y2032D02*
X1923Y2032D01*
X2164Y2032D02*
X2177Y2032D01*
X2210Y2032D02*
X2223Y2032D01*
X2328Y2032D02*
X2341Y2032D01*
X2373Y2032D02*
X2386Y2032D01*
X2627Y2032D02*
X2641Y2032D01*
X2673Y2032D02*
X2686Y2032D01*
X655Y2031D02*
X668Y2031D01*
X700Y2031D02*
X713Y2031D01*
X955Y2031D02*
X968Y2031D01*
X1000Y2031D02*
X1013Y2031D01*
X1864Y2031D02*
X1877Y2031D01*
X1910Y2031D02*
X1923Y2031D01*
X2164Y2031D02*
X2177Y2031D01*
X2210Y2031D02*
X2223Y2031D01*
X2328Y2031D02*
X2341Y2031D01*
X2372Y2031D02*
X2386Y2031D01*
X2627Y2031D02*
X2641Y2031D01*
X2672Y2031D02*
X2686Y2031D01*
X655Y2030D02*
X669Y2030D01*
X699Y2030D02*
X713Y2030D01*
X955Y2030D02*
X968Y2030D01*
X999Y2030D02*
X1013Y2030D01*
X1864Y2030D02*
X1878Y2030D01*
X1909Y2030D02*
X1923Y2030D01*
X2164Y2030D02*
X2178Y2030D01*
X2209Y2030D02*
X2223Y2030D01*
X2328Y2030D02*
X2342Y2030D01*
X2371Y2030D02*
X2386Y2030D01*
X2627Y2030D02*
X2642Y2030D01*
X2671Y2030D02*
X2686Y2030D01*
X655Y2029D02*
X669Y2029D01*
X698Y2029D02*
X713Y2029D01*
X955Y2029D02*
X969Y2029D01*
X998Y2029D02*
X1013Y2029D01*
X1864Y2029D02*
X1879Y2029D01*
X1908Y2029D02*
X1923Y2029D01*
X2164Y2029D02*
X2179Y2029D01*
X2208Y2029D02*
X2223Y2029D01*
X2328Y2029D02*
X2343Y2029D01*
X2370Y2029D02*
X2386Y2029D01*
X2627Y2029D02*
X2643Y2029D01*
X2670Y2029D02*
X2686Y2029D01*
X655Y2028D02*
X671Y2028D01*
X697Y2028D02*
X713Y2028D01*
X955Y2028D02*
X970Y2028D01*
X997Y2028D02*
X1013Y2028D01*
X1864Y2028D02*
X1880Y2028D01*
X1907Y2028D02*
X1923Y2028D01*
X2164Y2028D02*
X2180Y2028D01*
X2207Y2028D02*
X2223Y2028D01*
X2328Y2028D02*
X2345Y2028D01*
X2369Y2028D02*
X2386Y2028D01*
X2627Y2028D02*
X2645Y2028D01*
X2669Y2028D02*
X2686Y2028D01*
X655Y2027D02*
X672Y2027D01*
X696Y2027D02*
X713Y2027D01*
X955Y2027D02*
X972Y2027D01*
X996Y2027D02*
X1013Y2027D01*
X1864Y2027D02*
X1882Y2027D01*
X1906Y2027D02*
X1923Y2027D01*
X2164Y2027D02*
X2181Y2027D01*
X2205Y2027D02*
X2223Y2027D01*
X2328Y2027D02*
X2346Y2027D01*
X2367Y2027D02*
X2386Y2027D01*
X2627Y2027D02*
X2646Y2027D01*
X2667Y2027D02*
X2686Y2027D01*
X655Y2026D02*
X673Y2026D01*
X694Y2026D02*
X713Y2026D01*
X955Y2026D02*
X973Y2026D01*
X994Y2026D02*
X1013Y2026D01*
X1864Y2026D02*
X1883Y2026D01*
X1904Y2026D02*
X1923Y2026D01*
X2164Y2026D02*
X2183Y2026D01*
X2204Y2026D02*
X2223Y2026D01*
X2328Y2026D02*
X2348Y2026D01*
X2365Y2026D02*
X2386Y2026D01*
X2627Y2026D02*
X2648Y2026D01*
X2665Y2026D02*
X2686Y2026D01*
X655Y2025D02*
X675Y2025D01*
X692Y2025D02*
X713Y2025D01*
X955Y2025D02*
X975Y2025D01*
X992Y2025D02*
X1013Y2025D01*
X1864Y2025D02*
X1885Y2025D01*
X1902Y2025D02*
X1923Y2025D01*
X2164Y2025D02*
X2185Y2025D01*
X2202Y2025D02*
X2223Y2025D01*
X2328Y2025D02*
X2351Y2025D01*
X2363Y2025D02*
X2386Y2025D01*
X2627Y2025D02*
X2651Y2025D01*
X2663Y2025D02*
X2686Y2025D01*
X655Y2024D02*
X678Y2024D01*
X689Y2024D02*
X713Y2024D01*
X955Y2024D02*
X978Y2024D01*
X989Y2024D02*
X1013Y2024D01*
X1864Y2024D02*
X1888Y2024D01*
X1899Y2024D02*
X1923Y2024D01*
X2164Y2024D02*
X2188Y2024D01*
X2199Y2024D02*
X2223Y2024D01*
X2328Y2024D02*
X2386Y2024D01*
X2627Y2024D02*
X2686Y2024D01*
X655Y2023D02*
X713Y2023D01*
X955Y2023D02*
X1013Y2023D01*
X1864Y2023D02*
X1923Y2023D01*
X2164Y2023D02*
X2223Y2023D01*
X2328Y2023D02*
X2386Y2023D01*
X2627Y2023D02*
X2686Y2023D01*
X655Y2022D02*
X713Y2022D01*
X955Y2022D02*
X1013Y2022D01*
X1864Y2022D02*
X1923Y2022D01*
X2164Y2022D02*
X2223Y2022D01*
X2328Y2022D02*
X2386Y2022D01*
X2627Y2022D02*
X2686Y2022D01*
X655Y2021D02*
X713Y2021D01*
X955Y2021D02*
X1013Y2021D01*
X1864Y2021D02*
X1923Y2021D01*
X2164Y2021D02*
X2223Y2021D01*
X2328Y2021D02*
X2386Y2021D01*
X2627Y2021D02*
X2686Y2021D01*
X655Y2020D02*
X713Y2020D01*
X955Y2020D02*
X1013Y2020D01*
X1864Y2020D02*
X1923Y2020D01*
X2164Y2020D02*
X2223Y2020D01*
X2328Y2020D02*
X2386Y2020D01*
X2627Y2020D02*
X2686Y2020D01*
X655Y2019D02*
X713Y2019D01*
X955Y2019D02*
X1013Y2019D01*
X1864Y2019D02*
X1923Y2019D01*
X2164Y2019D02*
X2223Y2019D01*
X2328Y2019D02*
X2386Y2019D01*
X2627Y2019D02*
X2686Y2019D01*
X655Y2018D02*
X713Y2018D01*
X955Y2018D02*
X1013Y2018D01*
X1864Y2018D02*
X1923Y2018D01*
X2164Y2018D02*
X2223Y2018D01*
X2328Y2018D02*
X2386Y2018D01*
X2627Y2018D02*
X2686Y2018D01*
X655Y2017D02*
X713Y2017D01*
X955Y2017D02*
X1013Y2017D01*
X1864Y2017D02*
X1923Y2017D01*
X2164Y2017D02*
X2223Y2017D01*
X2328Y2017D02*
X2386Y2017D01*
X2627Y2017D02*
X2686Y2017D01*
X655Y2016D02*
X713Y2016D01*
X955Y2016D02*
X1013Y2016D01*
X1864Y2016D02*
X1923Y2016D01*
X2164Y2016D02*
X2223Y2016D01*
X2328Y2016D02*
X2386Y2016D01*
X2627Y2016D02*
X2686Y2016D01*
X655Y2015D02*
X713Y2015D01*
X955Y2015D02*
X1013Y2015D01*
X1864Y2015D02*
X1923Y2015D01*
X2164Y2015D02*
X2223Y2015D01*
X2328Y2015D02*
X2386Y2015D01*
X2627Y2015D02*
X2686Y2015D01*
X655Y2014D02*
X713Y2014D01*
X955Y2014D02*
X1013Y2014D01*
X1864Y2014D02*
X1923Y2014D01*
X2164Y2014D02*
X2223Y2014D01*
X1482Y1326D02*
X1485Y1326D01*
X1476Y1325D02*
X1491Y1325D01*
X1473Y1324D02*
X1494Y1324D01*
X1471Y1323D02*
X1497Y1323D01*
X1468Y1322D02*
X1499Y1322D01*
X1467Y1321D02*
X1500Y1321D01*
X1465Y1320D02*
X1502Y1320D01*
X1464Y1319D02*
X1503Y1319D01*
X1463Y1318D02*
X1505Y1318D01*
X1461Y1317D02*
X1506Y1317D01*
X1460Y1316D02*
X1507Y1316D01*
X1459Y1315D02*
X1508Y1315D01*
X1459Y1314D02*
X1509Y1314D01*
X1458Y1313D02*
X1509Y1313D01*
X1457Y1312D02*
X1510Y1312D01*
X1457Y1311D02*
X1511Y1311D01*
X1456Y1310D02*
X1511Y1310D01*
X1455Y1309D02*
X1512Y1309D01*
X1455Y1308D02*
X1478Y1308D01*
X1489Y1308D02*
X1512Y1308D01*
X1454Y1307D02*
X1476Y1307D01*
X1491Y1307D02*
X1513Y1307D01*
X1454Y1306D02*
X1474Y1306D01*
X1493Y1306D02*
X1513Y1306D01*
X1454Y1305D02*
X1473Y1305D01*
X1494Y1305D02*
X1514Y1305D01*
X1453Y1304D02*
X1472Y1304D01*
X1495Y1304D02*
X1514Y1304D01*
X1453Y1303D02*
X1471Y1303D01*
X1496Y1303D02*
X1514Y1303D01*
X1453Y1302D02*
X1470Y1302D01*
X1497Y1302D02*
X1515Y1302D01*
X1452Y1301D02*
X1470Y1301D01*
X1498Y1301D02*
X1515Y1301D01*
X1452Y1300D02*
X1469Y1300D01*
X1498Y1300D02*
X1515Y1300D01*
X1452Y1299D02*
X1468Y1299D01*
X1499Y1299D02*
X1515Y1299D01*
X1452Y1298D02*
X1468Y1298D01*
X1499Y1298D02*
X1516Y1298D01*
X1451Y1297D02*
X1468Y1297D01*
X1499Y1297D02*
X1516Y1297D01*
X1451Y1296D02*
X1468Y1296D01*
X1500Y1296D02*
X1516Y1296D01*
X1451Y1295D02*
X1468Y1295D01*
X1500Y1295D02*
X1516Y1295D01*
X1451Y1294D02*
X1468Y1294D01*
X1500Y1294D02*
X1516Y1294D01*
X1451Y1293D02*
X1468Y1293D01*
X1500Y1293D02*
X1516Y1293D01*
X1451Y1292D02*
X1468Y1292D01*
X1500Y1292D02*
X1516Y1292D01*
X1451Y1291D02*
X1468Y1291D01*
X1500Y1291D02*
X1516Y1291D01*
X1451Y1290D02*
X1468Y1290D01*
X1499Y1290D02*
X1516Y1290D01*
X1451Y1289D02*
X1468Y1289D01*
X1499Y1289D02*
X1516Y1289D01*
X1452Y1288D02*
X1468Y1288D01*
X1499Y1288D02*
X1516Y1288D01*
X1452Y1287D02*
X1469Y1287D01*
X1499Y1287D02*
X1515Y1287D01*
X1452Y1286D02*
X1469Y1286D01*
X1498Y1286D02*
X1515Y1286D01*
X1452Y1285D02*
X1470Y1285D01*
X1498Y1285D02*
X1515Y1285D01*
X1453Y1284D02*
X1470Y1284D01*
X1497Y1284D02*
X1515Y1284D01*
X1453Y1283D02*
X1471Y1283D01*
X1496Y1283D02*
X1514Y1283D01*
X1453Y1282D02*
X1472Y1282D01*
X1495Y1282D02*
X1514Y1282D01*
X1454Y1281D02*
X1473Y1281D01*
X1494Y1281D02*
X1514Y1281D01*
X1454Y1280D02*
X1475Y1280D01*
X1493Y1280D02*
X1513Y1280D01*
X1455Y1279D02*
X1476Y1279D01*
X1491Y1279D02*
X1513Y1279D01*
X1455Y1278D02*
X1479Y1278D01*
X1488Y1278D02*
X1512Y1278D01*
X1456Y1277D02*
X1512Y1277D01*
X1456Y1276D02*
X1511Y1276D01*
X1457Y1275D02*
X1511Y1275D01*
X1457Y1274D02*
X1510Y1274D01*
X1458Y1273D02*
X1509Y1273D01*
X1459Y1272D02*
X1508Y1272D01*
X1460Y1271D02*
X1508Y1271D01*
X1461Y1270D02*
X1507Y1270D01*
X1462Y1269D02*
X1506Y1269D01*
X1463Y1268D02*
X1504Y1268D01*
X1464Y1267D02*
X1503Y1267D01*
X1466Y1266D02*
X1502Y1266D01*
X1467Y1265D02*
X1500Y1265D01*
X1469Y1264D02*
X1498Y1264D01*
X1471Y1263D02*
X1496Y1263D01*
X1474Y1262D02*
X1493Y1262D01*
X1477Y1261D02*
X1490Y1261D01*
X1481Y1226D02*
X1486Y1226D01*
X1476Y1225D02*
X1491Y1225D01*
X1473Y1224D02*
X1494Y1224D01*
X1471Y1223D02*
X1497Y1223D01*
X1468Y1222D02*
X1499Y1222D01*
X1467Y1221D02*
X1501Y1221D01*
X1465Y1220D02*
X1502Y1220D01*
X1464Y1219D02*
X1504Y1219D01*
X1462Y1218D02*
X1505Y1218D01*
X1461Y1217D02*
X1506Y1217D01*
X1460Y1216D02*
X1507Y1216D01*
X1459Y1215D02*
X1508Y1215D01*
X1459Y1214D02*
X1509Y1214D01*
X1458Y1213D02*
X1509Y1213D01*
X1457Y1212D02*
X1510Y1212D01*
X1457Y1211D02*
X1511Y1211D01*
X1456Y1210D02*
X1511Y1210D01*
X1455Y1209D02*
X1512Y1209D01*
X1455Y1208D02*
X1478Y1208D01*
X1489Y1208D02*
X1512Y1208D01*
X1454Y1207D02*
X1476Y1207D01*
X1492Y1207D02*
X1513Y1207D01*
X1454Y1206D02*
X1474Y1206D01*
X1493Y1206D02*
X1513Y1206D01*
X1454Y1205D02*
X1473Y1205D01*
X1494Y1205D02*
X1514Y1205D01*
X1453Y1204D02*
X1472Y1204D01*
X1495Y1204D02*
X1514Y1204D01*
X1453Y1203D02*
X1471Y1203D01*
X1496Y1203D02*
X1514Y1203D01*
X1453Y1202D02*
X1470Y1202D01*
X1497Y1202D02*
X1515Y1202D01*
X1452Y1201D02*
X1470Y1201D01*
X1498Y1201D02*
X1515Y1201D01*
X1452Y1200D02*
X1469Y1200D01*
X1498Y1200D02*
X1515Y1200D01*
X1452Y1199D02*
X1468Y1199D01*
X1499Y1199D02*
X1515Y1199D01*
X1452Y1198D02*
X1468Y1198D01*
X1499Y1198D02*
X1516Y1198D01*
X1451Y1197D02*
X1468Y1197D01*
X1499Y1197D02*
X1516Y1197D01*
X1451Y1196D02*
X1468Y1196D01*
X1500Y1196D02*
X1516Y1196D01*
X1451Y1195D02*
X1468Y1195D01*
X1500Y1195D02*
X1516Y1195D01*
X1451Y1194D02*
X1468Y1194D01*
X1500Y1194D02*
X1516Y1194D01*
X1451Y1193D02*
X1468Y1193D01*
X1500Y1193D02*
X1516Y1193D01*
X1451Y1192D02*
X1468Y1192D01*
X1500Y1192D02*
X1516Y1192D01*
X1451Y1191D02*
X1468Y1191D01*
X1500Y1191D02*
X1516Y1191D01*
X1451Y1190D02*
X1468Y1190D01*
X1500Y1190D02*
X1516Y1190D01*
X1451Y1189D02*
X1468Y1189D01*
X1499Y1189D02*
X1516Y1189D01*
X1452Y1188D02*
X1468Y1188D01*
X1499Y1188D02*
X1516Y1188D01*
X1452Y1187D02*
X1469Y1187D01*
X1499Y1187D02*
X1515Y1187D01*
X1452Y1186D02*
X1469Y1186D01*
X1498Y1186D02*
X1515Y1186D01*
X1452Y1185D02*
X1470Y1185D01*
X1498Y1185D02*
X1515Y1185D01*
X1453Y1184D02*
X1470Y1184D01*
X1497Y1184D02*
X1515Y1184D01*
X1453Y1183D02*
X1471Y1183D01*
X1496Y1183D02*
X1514Y1183D01*
X1453Y1182D02*
X1472Y1182D01*
X1495Y1182D02*
X1514Y1182D01*
X1454Y1181D02*
X1473Y1181D01*
X1494Y1181D02*
X1514Y1181D01*
X1454Y1180D02*
X1475Y1180D01*
X1493Y1180D02*
X1513Y1180D01*
X1455Y1179D02*
X1476Y1179D01*
X1491Y1179D02*
X1513Y1179D01*
X1455Y1178D02*
X1479Y1178D01*
X1488Y1178D02*
X1512Y1178D01*
X1456Y1177D02*
X1512Y1177D01*
X1456Y1176D02*
X1511Y1176D01*
X1457Y1175D02*
X1511Y1175D01*
X1457Y1174D02*
X1510Y1174D01*
X1458Y1173D02*
X1509Y1173D01*
X1459Y1172D02*
X1508Y1172D01*
X1460Y1171D02*
X1507Y1171D01*
X1461Y1170D02*
X1507Y1170D01*
X1462Y1169D02*
X1505Y1169D01*
X1463Y1168D02*
X1504Y1168D01*
X1464Y1167D02*
X1503Y1167D01*
X1466Y1166D02*
X1502Y1166D01*
X1467Y1165D02*
X1500Y1165D01*
X1469Y1164D02*
X1498Y1164D01*
X1471Y1163D02*
X1496Y1163D01*
X1474Y1162D02*
X1493Y1162D01*
X1477Y1161D02*
X1490Y1161D01*
X1481Y1126D02*
X1486Y1126D01*
X1476Y1125D02*
X1491Y1125D01*
X1473Y1124D02*
X1494Y1124D01*
X1470Y1123D02*
X1497Y1123D01*
X1468Y1122D02*
X1499Y1122D01*
X1467Y1121D02*
X1501Y1121D01*
X1465Y1120D02*
X1502Y1120D01*
X1464Y1119D02*
X1504Y1119D01*
X1462Y1118D02*
X1505Y1118D01*
X1461Y1117D02*
X1506Y1117D01*
X1460Y1116D02*
X1507Y1116D01*
X1459Y1115D02*
X1508Y1115D01*
X1459Y1114D02*
X1509Y1114D01*
X1458Y1113D02*
X1509Y1113D01*
X1457Y1112D02*
X1510Y1112D01*
X1457Y1111D02*
X1511Y1111D01*
X1456Y1110D02*
X1511Y1110D01*
X1455Y1109D02*
X1512Y1109D01*
X1455Y1108D02*
X1478Y1108D01*
X1489Y1108D02*
X1512Y1108D01*
X1454Y1107D02*
X1476Y1107D01*
X1492Y1107D02*
X1513Y1107D01*
X1454Y1106D02*
X1474Y1106D01*
X1493Y1106D02*
X1513Y1106D01*
X1454Y1105D02*
X1473Y1105D01*
X1494Y1105D02*
X1514Y1105D01*
X1453Y1104D02*
X1472Y1104D01*
X1495Y1104D02*
X1514Y1104D01*
X1453Y1103D02*
X1471Y1103D01*
X1496Y1103D02*
X1514Y1103D01*
X1452Y1102D02*
X1470Y1102D01*
X1497Y1102D02*
X1515Y1102D01*
X1452Y1101D02*
X1469Y1101D01*
X1498Y1101D02*
X1515Y1101D01*
X1452Y1100D02*
X1469Y1100D01*
X1498Y1100D02*
X1515Y1100D01*
X1452Y1099D02*
X1468Y1099D01*
X1499Y1099D02*
X1515Y1099D01*
X1452Y1098D02*
X1468Y1098D01*
X1499Y1098D02*
X1516Y1098D01*
X1451Y1097D02*
X1468Y1097D01*
X1499Y1097D02*
X1516Y1097D01*
X1451Y1096D02*
X1468Y1096D01*
X1500Y1096D02*
X1516Y1096D01*
X1451Y1095D02*
X1468Y1095D01*
X1500Y1095D02*
X1516Y1095D01*
X1451Y1094D02*
X1468Y1094D01*
X1500Y1094D02*
X1516Y1094D01*
X1451Y1093D02*
X1468Y1093D01*
X1500Y1093D02*
X1516Y1093D01*
X1451Y1092D02*
X1468Y1092D01*
X1500Y1092D02*
X1516Y1092D01*
X1451Y1091D02*
X1468Y1091D01*
X1500Y1091D02*
X1516Y1091D01*
X1451Y1090D02*
X1468Y1090D01*
X1499Y1090D02*
X1516Y1090D01*
X1452Y1089D02*
X1468Y1089D01*
X1499Y1089D02*
X1516Y1089D01*
X1452Y1088D02*
X1468Y1088D01*
X1499Y1088D02*
X1516Y1088D01*
X1452Y1087D02*
X1469Y1087D01*
X1499Y1087D02*
X1515Y1087D01*
X1452Y1086D02*
X1469Y1086D01*
X1498Y1086D02*
X1515Y1086D01*
X1452Y1085D02*
X1470Y1085D01*
X1497Y1085D02*
X1515Y1085D01*
X1453Y1084D02*
X1471Y1084D01*
X1497Y1084D02*
X1515Y1084D01*
X1453Y1083D02*
X1471Y1083D01*
X1496Y1083D02*
X1514Y1083D01*
X1453Y1082D02*
X1472Y1082D01*
X1495Y1082D02*
X1514Y1082D01*
X1454Y1081D02*
X1473Y1081D01*
X1494Y1081D02*
X1514Y1081D01*
X1454Y1080D02*
X1475Y1080D01*
X1493Y1080D02*
X1513Y1080D01*
X1455Y1079D02*
X1476Y1079D01*
X1491Y1079D02*
X1513Y1079D01*
X1455Y1078D02*
X1479Y1078D01*
X1488Y1078D02*
X1512Y1078D01*
X1456Y1077D02*
X1512Y1077D01*
X1456Y1076D02*
X1511Y1076D01*
X1457Y1075D02*
X1510Y1075D01*
X1457Y1074D02*
X1510Y1074D01*
X1458Y1073D02*
X1509Y1073D01*
X1459Y1072D02*
X1508Y1072D01*
X1460Y1071D02*
X1507Y1071D01*
X1461Y1070D02*
X1507Y1070D01*
X1462Y1069D02*
X1505Y1069D01*
X1463Y1068D02*
X1504Y1068D01*
X1464Y1067D02*
X1503Y1067D01*
X1466Y1066D02*
X1502Y1066D01*
X1467Y1065D02*
X1500Y1065D01*
X1469Y1064D02*
X1498Y1064D01*
X1471Y1063D02*
X1496Y1063D01*
X1474Y1062D02*
X1493Y1062D01*
X1478Y1061D02*
X1490Y1061D01*
X1481Y1026D02*
X1487Y1026D01*
X1476Y1025D02*
X1491Y1025D01*
X1473Y1024D02*
X1494Y1024D01*
X1470Y1023D02*
X1497Y1023D01*
X1468Y1022D02*
X1499Y1022D01*
X1467Y1021D02*
X1501Y1021D01*
X1465Y1020D02*
X1502Y1020D01*
X1464Y1019D02*
X1504Y1019D01*
X1462Y1018D02*
X1505Y1018D01*
X1461Y1017D02*
X1506Y1017D01*
X1460Y1016D02*
X1507Y1016D01*
X1459Y1015D02*
X1508Y1015D01*
X1459Y1014D02*
X1509Y1014D01*
X1458Y1013D02*
X1509Y1013D01*
X1457Y1012D02*
X1510Y1012D01*
X1456Y1011D02*
X1511Y1011D01*
X1456Y1010D02*
X1511Y1010D01*
X1455Y1009D02*
X1512Y1009D01*
X1455Y1008D02*
X1478Y1008D01*
X1490Y1008D02*
X1512Y1008D01*
X1454Y1007D02*
X1476Y1007D01*
X1492Y1007D02*
X1513Y1007D01*
X1454Y1006D02*
X1474Y1006D01*
X1493Y1006D02*
X1513Y1006D01*
X1454Y1005D02*
X1473Y1005D01*
X1494Y1005D02*
X1514Y1005D01*
X1453Y1004D02*
X1472Y1004D01*
X1495Y1004D02*
X1514Y1004D01*
X1453Y1003D02*
X1471Y1003D01*
X1496Y1003D02*
X1514Y1003D01*
X1452Y1002D02*
X1470Y1002D01*
X1497Y1002D02*
X1515Y1002D01*
X1452Y1001D02*
X1469Y1001D01*
X1498Y1001D02*
X1515Y1001D01*
X1452Y1000D02*
X1469Y1000D01*
X1498Y1000D02*
X1515Y1000D01*
X1452Y999D02*
X1468Y999D01*
X1499Y999D02*
X1515Y999D01*
X1452Y998D02*
X1468Y998D01*
X1499Y998D02*
X1516Y998D01*
X1451Y997D02*
X1468Y997D01*
X1499Y997D02*
X1516Y997D01*
X1451Y996D02*
X1468Y996D01*
X1500Y996D02*
X1516Y996D01*
X1451Y995D02*
X1468Y995D01*
X1500Y995D02*
X1516Y995D01*
X1451Y994D02*
X1468Y994D01*
X1500Y994D02*
X1516Y994D01*
X1451Y993D02*
X1468Y993D01*
X1500Y993D02*
X1516Y993D01*
X1451Y992D02*
X1468Y992D01*
X1500Y992D02*
X1516Y992D01*
X1451Y991D02*
X1468Y991D01*
X1500Y991D02*
X1516Y991D01*
X1451Y990D02*
X1468Y990D01*
X1499Y990D02*
X1516Y990D01*
X1452Y989D02*
X1468Y989D01*
X1499Y989D02*
X1516Y989D01*
X1452Y988D02*
X1468Y988D01*
X1499Y988D02*
X1516Y988D01*
X1452Y987D02*
X1469Y987D01*
X1499Y987D02*
X1515Y987D01*
X1452Y986D02*
X1469Y986D01*
X1498Y986D02*
X1515Y986D01*
X1452Y985D02*
X1470Y985D01*
X1497Y985D02*
X1515Y985D01*
X1453Y984D02*
X1471Y984D01*
X1497Y984D02*
X1515Y984D01*
X1453Y983D02*
X1471Y983D01*
X1496Y983D02*
X1514Y983D01*
X1453Y982D02*
X1472Y982D01*
X1495Y982D02*
X1514Y982D01*
X1454Y981D02*
X1473Y981D01*
X1494Y981D02*
X1514Y981D01*
X1454Y980D02*
X1475Y980D01*
X1493Y980D02*
X1513Y980D01*
X1455Y979D02*
X1476Y979D01*
X1491Y979D02*
X1513Y979D01*
X1455Y978D02*
X1479Y978D01*
X1488Y978D02*
X1512Y978D01*
X1456Y977D02*
X1512Y977D01*
X1456Y976D02*
X1511Y976D01*
X1457Y975D02*
X1510Y975D01*
X1457Y974D02*
X1510Y974D01*
X1458Y973D02*
X1509Y973D01*
X1459Y972D02*
X1508Y972D01*
X1460Y971D02*
X1507Y971D01*
X1461Y970D02*
X1506Y970D01*
X1462Y969D02*
X1505Y969D01*
X1463Y968D02*
X1504Y968D01*
X1464Y967D02*
X1503Y967D01*
X1466Y966D02*
X1502Y966D01*
X1467Y965D02*
X1500Y965D01*
X1469Y964D02*
X1498Y964D01*
X1471Y963D02*
X1496Y963D01*
X1474Y962D02*
X1493Y962D01*
X1478Y961D02*
X1490Y961D01*
X1481Y926D02*
X1487Y926D01*
X1476Y925D02*
X1492Y925D01*
X1473Y924D02*
X1495Y924D01*
X1470Y923D02*
X1497Y923D01*
X1468Y922D02*
X1499Y922D01*
X1467Y921D02*
X1501Y921D01*
X1465Y920D02*
X1502Y920D01*
X1464Y919D02*
X1504Y919D01*
X1462Y918D02*
X1505Y918D01*
X1461Y917D02*
X1506Y917D01*
X1460Y916D02*
X1507Y916D01*
X1459Y915D02*
X1508Y915D01*
X1459Y914D02*
X1509Y914D01*
X1458Y913D02*
X1509Y913D01*
X1457Y912D02*
X1510Y912D01*
X1456Y911D02*
X1511Y911D01*
X1456Y910D02*
X1511Y910D01*
X1455Y909D02*
X1512Y909D01*
X1455Y908D02*
X1478Y908D01*
X1490Y908D02*
X1512Y908D01*
X1454Y907D02*
X1476Y907D01*
X1492Y907D02*
X1513Y907D01*
X1454Y906D02*
X1474Y906D01*
X1493Y906D02*
X1513Y906D01*
X1454Y905D02*
X1473Y905D01*
X1494Y905D02*
X1514Y905D01*
X1453Y904D02*
X1472Y904D01*
X1495Y904D02*
X1514Y904D01*
X1453Y903D02*
X1471Y903D01*
X1496Y903D02*
X1514Y903D01*
X1452Y902D02*
X1470Y902D01*
X1497Y902D02*
X1515Y902D01*
X1452Y901D02*
X1469Y901D01*
X1498Y901D02*
X1515Y901D01*
X1452Y900D02*
X1469Y900D01*
X1498Y900D02*
X1515Y900D01*
X1452Y899D02*
X1468Y899D01*
X1499Y899D02*
X1515Y899D01*
X1452Y898D02*
X1468Y898D01*
X1499Y898D02*
X1516Y898D01*
X1451Y897D02*
X1468Y897D01*
X1499Y897D02*
X1516Y897D01*
X1451Y896D02*
X1468Y896D01*
X1500Y896D02*
X1516Y896D01*
X1451Y895D02*
X1468Y895D01*
X1500Y895D02*
X1516Y895D01*
X1451Y894D02*
X1468Y894D01*
X1500Y894D02*
X1516Y894D01*
X1451Y893D02*
X1468Y893D01*
X1500Y893D02*
X1516Y893D01*
X1451Y892D02*
X1468Y892D01*
X1500Y892D02*
X1516Y892D01*
X1451Y891D02*
X1468Y891D01*
X1500Y891D02*
X1516Y891D01*
X1451Y890D02*
X1468Y890D01*
X1499Y890D02*
X1516Y890D01*
X1452Y889D02*
X1468Y889D01*
X1499Y889D02*
X1516Y889D01*
X1452Y888D02*
X1468Y888D01*
X1499Y888D02*
X1516Y888D01*
X1452Y887D02*
X1469Y887D01*
X1499Y887D02*
X1515Y887D01*
X1452Y886D02*
X1469Y886D01*
X1498Y886D02*
X1515Y886D01*
X1452Y885D02*
X1470Y885D01*
X1497Y885D02*
X1515Y885D01*
X1453Y884D02*
X1471Y884D01*
X1497Y884D02*
X1515Y884D01*
X1453Y883D02*
X1471Y883D01*
X1496Y883D02*
X1514Y883D01*
X1453Y882D02*
X1472Y882D01*
X1495Y882D02*
X1514Y882D01*
X1454Y881D02*
X1474Y881D01*
X1494Y881D02*
X1514Y881D01*
X1454Y880D02*
X1475Y880D01*
X1492Y880D02*
X1513Y880D01*
X1455Y879D02*
X1477Y879D01*
X1491Y879D02*
X1513Y879D01*
X1455Y878D02*
X1480Y878D01*
X1488Y878D02*
X1512Y878D01*
X1456Y877D02*
X1512Y877D01*
X1456Y876D02*
X1511Y876D01*
X1457Y875D02*
X1510Y875D01*
X1457Y874D02*
X1510Y874D01*
X1458Y873D02*
X1509Y873D01*
X1459Y872D02*
X1508Y872D01*
X1460Y871D02*
X1507Y871D01*
X1461Y870D02*
X1506Y870D01*
X1462Y869D02*
X1505Y869D01*
X1463Y868D02*
X1504Y868D01*
X1464Y867D02*
X1503Y867D01*
X1466Y866D02*
X1501Y866D01*
X1467Y865D02*
X1500Y865D01*
X1469Y864D02*
X1498Y864D01*
X1471Y863D02*
X1496Y863D01*
X1474Y862D02*
X1493Y862D01*
X1478Y861D02*
X1489Y861D01*
X1480Y826D02*
X1487Y826D01*
X1476Y825D02*
X1492Y825D01*
X1473Y824D02*
X1495Y824D01*
X1470Y823D02*
X1497Y823D01*
X1468Y822D02*
X1499Y822D01*
X1466Y821D02*
X1501Y821D01*
X1465Y820D02*
X1502Y820D01*
X1464Y819D02*
X1504Y819D01*
X1462Y818D02*
X1505Y818D01*
X1461Y817D02*
X1506Y817D01*
X1460Y816D02*
X1507Y816D01*
X1459Y815D02*
X1508Y815D01*
X1459Y814D02*
X1509Y814D01*
X1458Y813D02*
X1509Y813D01*
X1457Y812D02*
X1510Y812D01*
X1456Y811D02*
X1511Y811D01*
X1456Y810D02*
X1511Y810D01*
X1455Y809D02*
X1512Y809D01*
X1455Y808D02*
X1477Y808D01*
X1490Y808D02*
X1512Y808D01*
X1454Y807D02*
X1475Y807D01*
X1492Y807D02*
X1513Y807D01*
X1454Y806D02*
X1474Y806D01*
X1493Y806D02*
X1513Y806D01*
X1453Y805D02*
X1473Y805D01*
X1494Y805D02*
X1514Y805D01*
X1453Y804D02*
X1472Y804D01*
X1495Y804D02*
X1514Y804D01*
X1453Y803D02*
X1471Y803D01*
X1496Y803D02*
X1515Y803D01*
X1452Y802D02*
X1470Y802D01*
X1497Y802D02*
X1515Y802D01*
X1452Y801D02*
X1469Y801D01*
X1498Y801D02*
X1515Y801D01*
X1452Y800D02*
X1469Y800D01*
X1498Y800D02*
X1515Y800D01*
X1452Y799D02*
X1468Y799D01*
X1499Y799D02*
X1516Y799D01*
X1452Y798D02*
X1468Y798D01*
X1499Y798D02*
X1516Y798D01*
X1451Y797D02*
X1468Y797D01*
X1499Y797D02*
X1516Y797D01*
X1451Y796D02*
X1468Y796D01*
X1500Y796D02*
X1516Y796D01*
X1451Y795D02*
X1468Y795D01*
X1500Y795D02*
X1516Y795D01*
X1451Y794D02*
X1468Y794D01*
X1500Y794D02*
X1516Y794D01*
X1451Y793D02*
X1468Y793D01*
X1500Y793D02*
X1516Y793D01*
X1451Y792D02*
X1468Y792D01*
X1500Y792D02*
X1516Y792D01*
X1451Y791D02*
X1468Y791D01*
X1500Y791D02*
X1516Y791D01*
X1451Y790D02*
X1468Y790D01*
X1499Y790D02*
X1516Y790D01*
X1452Y789D02*
X1468Y789D01*
X1499Y789D02*
X1516Y789D01*
X1452Y788D02*
X1468Y788D01*
X1499Y788D02*
X1516Y788D01*
X1452Y787D02*
X1469Y787D01*
X1499Y787D02*
X1515Y787D01*
X1452Y786D02*
X1469Y786D01*
X1498Y786D02*
X1515Y786D01*
X1452Y785D02*
X1470Y785D01*
X1497Y785D02*
X1515Y785D01*
X1453Y784D02*
X1471Y784D01*
X1497Y784D02*
X1515Y784D01*
X1453Y783D02*
X1471Y783D01*
X1496Y783D02*
X1514Y783D01*
X703Y782D02*
X707Y782D01*
X1453Y782D02*
X1472Y782D01*
X1495Y782D02*
X1514Y782D01*
X702Y781D02*
X709Y781D01*
X1454Y781D02*
X1474Y781D01*
X1494Y781D02*
X1514Y781D01*
X702Y780D02*
X711Y780D01*
X1454Y780D02*
X1475Y780D01*
X1492Y780D02*
X1513Y780D01*
X701Y779D02*
X712Y779D01*
X1455Y779D02*
X1477Y779D01*
X1491Y779D02*
X1513Y779D01*
X701Y778D02*
X713Y778D01*
X1455Y778D02*
X1480Y778D01*
X1488Y778D02*
X1512Y778D01*
X701Y777D02*
X714Y777D01*
X1456Y777D02*
X1512Y777D01*
X701Y776D02*
X716Y776D01*
X1456Y776D02*
X1511Y776D01*
X701Y775D02*
X717Y775D01*
X1457Y775D02*
X1510Y775D01*
X701Y774D02*
X718Y774D01*
X1458Y774D02*
X1510Y774D01*
X701Y773D02*
X719Y773D01*
X1458Y773D02*
X1509Y773D01*
X700Y772D02*
X720Y772D01*
X1459Y772D02*
X1508Y772D01*
X700Y771D02*
X720Y771D01*
X1460Y771D02*
X1507Y771D01*
X613Y770D02*
X614Y770D01*
X700Y770D02*
X721Y770D01*
X1461Y770D02*
X1506Y770D01*
X612Y769D02*
X616Y769D01*
X700Y769D02*
X722Y769D01*
X1462Y769D02*
X1505Y769D01*
X611Y768D02*
X618Y768D01*
X700Y768D02*
X723Y768D01*
X1463Y768D02*
X1504Y768D01*
X611Y767D02*
X619Y767D01*
X700Y767D02*
X724Y767D01*
X1464Y767D02*
X1503Y767D01*
X611Y766D02*
X621Y766D01*
X700Y766D02*
X725Y766D01*
X1466Y766D02*
X1501Y766D01*
X611Y765D02*
X622Y765D01*
X700Y765D02*
X712Y765D01*
X715Y765D02*
X725Y765D01*
X1468Y765D02*
X1500Y765D01*
X611Y764D02*
X623Y764D01*
X700Y764D02*
X711Y764D01*
X716Y764D02*
X726Y764D01*
X1469Y764D02*
X1498Y764D01*
X611Y763D02*
X625Y763D01*
X700Y763D02*
X711Y763D01*
X716Y763D02*
X727Y763D01*
X1472Y763D02*
X1496Y763D01*
X611Y762D02*
X626Y762D01*
X700Y762D02*
X711Y762D01*
X718Y762D02*
X728Y762D01*
X1474Y762D02*
X1493Y762D01*
X611Y761D02*
X627Y761D01*
X700Y761D02*
X711Y761D01*
X719Y761D02*
X728Y761D01*
X1478Y761D02*
X1489Y761D01*
X611Y760D02*
X628Y760D01*
X700Y760D02*
X711Y760D01*
X721Y760D02*
X729Y760D01*
X611Y759D02*
X629Y759D01*
X700Y759D02*
X711Y759D01*
X722Y759D02*
X730Y759D01*
X611Y758D02*
X630Y758D01*
X700Y758D02*
X711Y758D01*
X723Y758D02*
X731Y758D01*
X611Y757D02*
X632Y757D01*
X700Y757D02*
X712Y757D01*
X724Y757D02*
X732Y757D01*
X611Y756D02*
X633Y756D01*
X700Y756D02*
X712Y756D01*
X725Y756D02*
X733Y756D01*
X611Y755D02*
X634Y755D01*
X700Y755D02*
X712Y755D01*
X726Y755D02*
X733Y755D01*
X611Y754D02*
X635Y754D01*
X700Y754D02*
X713Y754D01*
X727Y754D02*
X734Y754D01*
X612Y753D02*
X637Y753D01*
X700Y753D02*
X713Y753D01*
X727Y753D02*
X736Y753D01*
X612Y752D02*
X639Y752D01*
X700Y752D02*
X713Y752D01*
X728Y752D02*
X737Y752D01*
X612Y751D02*
X640Y751D01*
X700Y751D02*
X714Y751D01*
X729Y751D02*
X738Y751D01*
X612Y750D02*
X641Y750D01*
X700Y750D02*
X714Y750D01*
X729Y750D02*
X739Y750D01*
X612Y749D02*
X641Y749D01*
X700Y749D02*
X714Y749D01*
X730Y749D02*
X741Y749D01*
X612Y748D02*
X642Y748D01*
X700Y748D02*
X715Y748D01*
X731Y748D02*
X743Y748D01*
X758Y748D02*
X810Y748D01*
X612Y747D02*
X642Y747D01*
X700Y747D02*
X715Y747D01*
X731Y747D02*
X746Y747D01*
X751Y747D02*
X816Y747D01*
X612Y746D02*
X642Y746D01*
X700Y746D02*
X715Y746D01*
X732Y746D02*
X821Y746D01*
X613Y745D02*
X643Y745D01*
X700Y745D02*
X715Y745D01*
X732Y745D02*
X827Y745D01*
X613Y744D02*
X643Y744D01*
X700Y744D02*
X715Y744D01*
X733Y744D02*
X832Y744D01*
X613Y743D02*
X643Y743D01*
X700Y743D02*
X716Y743D01*
X734Y743D02*
X837Y743D01*
X613Y742D02*
X644Y742D01*
X700Y742D02*
X716Y742D01*
X734Y742D02*
X842Y742D01*
X613Y741D02*
X644Y741D01*
X700Y741D02*
X716Y741D01*
X735Y741D02*
X846Y741D01*
X613Y740D02*
X645Y740D01*
X700Y740D02*
X716Y740D01*
X735Y740D02*
X850Y740D01*
X613Y739D02*
X631Y739D01*
X634Y739D02*
X646Y739D01*
X700Y739D02*
X716Y739D01*
X736Y739D02*
X853Y739D01*
X614Y738D02*
X629Y738D01*
X634Y738D02*
X646Y738D01*
X670Y738D02*
X716Y738D01*
X736Y738D02*
X855Y738D01*
X614Y737D02*
X629Y737D01*
X633Y737D02*
X647Y737D01*
X663Y737D02*
X716Y737D01*
X737Y737D02*
X857Y737D01*
X614Y736D02*
X628Y736D01*
X633Y736D02*
X648Y736D01*
X659Y736D02*
X716Y736D01*
X737Y736D02*
X746Y736D01*
X752Y736D02*
X858Y736D01*
X614Y735D02*
X628Y735D01*
X633Y735D02*
X649Y735D01*
X657Y735D02*
X717Y735D01*
X738Y735D02*
X746Y735D01*
X753Y735D02*
X858Y735D01*
X614Y734D02*
X627Y734D01*
X634Y734D02*
X650Y734D01*
X655Y734D02*
X680Y734D01*
X698Y734D02*
X719Y734D01*
X738Y734D02*
X746Y734D01*
X754Y734D02*
X859Y734D01*
X614Y733D02*
X627Y733D01*
X635Y733D02*
X671Y733D01*
X700Y733D02*
X720Y733D01*
X738Y733D02*
X747Y733D01*
X755Y733D02*
X836Y733D01*
X839Y733D02*
X858Y733D01*
X614Y732D02*
X627Y732D01*
X636Y732D02*
X665Y732D01*
X701Y732D02*
X719Y732D01*
X739Y732D02*
X750Y732D01*
X756Y732D02*
X834Y732D01*
X842Y732D02*
X858Y732D01*
X615Y731D02*
X626Y731D01*
X636Y731D02*
X661Y731D01*
X701Y731D02*
X719Y731D01*
X726Y731D02*
X729Y731D01*
X739Y731D02*
X753Y731D01*
X756Y731D02*
X803Y731D01*
X811Y731D02*
X834Y731D01*
X844Y731D02*
X857Y731D01*
X615Y730D02*
X626Y730D01*
X636Y730D02*
X658Y730D01*
X702Y730D02*
X731Y730D01*
X739Y730D02*
X753Y730D01*
X757Y730D02*
X802Y730D01*
X813Y730D02*
X835Y730D01*
X847Y730D02*
X855Y730D01*
X615Y729D02*
X626Y729D01*
X636Y729D02*
X656Y729D01*
X702Y729D02*
X732Y729D01*
X739Y729D02*
X754Y729D01*
X757Y729D02*
X802Y729D01*
X814Y729D02*
X837Y729D01*
X615Y728D02*
X626Y728D01*
X636Y728D02*
X654Y728D01*
X702Y728D02*
X733Y728D01*
X739Y728D02*
X754Y728D01*
X757Y728D02*
X803Y728D01*
X814Y728D02*
X840Y728D01*
X615Y727D02*
X626Y727D01*
X636Y727D02*
X653Y727D01*
X702Y727D02*
X766Y727D01*
X774Y727D02*
X805Y727D01*
X815Y727D02*
X844Y727D01*
X615Y726D02*
X626Y726D01*
X637Y726D02*
X652Y726D01*
X723Y726D02*
X766Y726D01*
X776Y726D02*
X807Y726D01*
X815Y726D02*
X848Y726D01*
X615Y725D02*
X626Y725D01*
X638Y725D02*
X651Y725D01*
X723Y725D02*
X766Y725D01*
X776Y725D02*
X811Y725D01*
X815Y725D02*
X853Y725D01*
X615Y724D02*
X626Y724D01*
X639Y724D02*
X651Y724D01*
X724Y724D02*
X758Y724D01*
X761Y724D02*
X766Y724D01*
X774Y724D02*
X792Y724D01*
X796Y724D02*
X834Y724D01*
X837Y724D02*
X858Y724D01*
X615Y723D02*
X626Y723D01*
X639Y723D02*
X650Y723D01*
X725Y723D02*
X757Y723D01*
X762Y723D02*
X766Y723D01*
X772Y723D02*
X790Y723D01*
X797Y723D02*
X834Y723D01*
X839Y723D02*
X859Y723D01*
X615Y722D02*
X626Y722D01*
X639Y722D02*
X650Y722D01*
X726Y722D02*
X756Y722D01*
X761Y722D02*
X767Y722D01*
X771Y722D02*
X790Y722D01*
X797Y722D02*
X835Y722D01*
X840Y722D02*
X859Y722D01*
X615Y721D02*
X626Y721D01*
X640Y721D02*
X650Y721D01*
X729Y721D02*
X756Y721D01*
X761Y721D02*
X767Y721D01*
X770Y721D02*
X790Y721D01*
X796Y721D02*
X803Y721D01*
X811Y721D02*
X837Y721D01*
X841Y721D02*
X859Y721D01*
X615Y720D02*
X626Y720D01*
X640Y720D02*
X650Y720D01*
X731Y720D02*
X757Y720D01*
X760Y720D02*
X790Y720D01*
X795Y720D02*
X803Y720D01*
X813Y720D02*
X818Y720D01*
X825Y720D02*
X839Y720D01*
X841Y720D02*
X859Y720D01*
X615Y719D02*
X626Y719D01*
X639Y719D02*
X650Y719D01*
X733Y719D02*
X805Y719D01*
X813Y719D02*
X818Y719D01*
X829Y719D02*
X859Y719D01*
X615Y718D02*
X626Y718D01*
X639Y718D02*
X650Y718D01*
X660Y718D02*
X663Y718D01*
X697Y718D02*
X697Y718D01*
X734Y718D02*
X806Y718D01*
X813Y718D02*
X818Y718D01*
X831Y718D02*
X859Y718D01*
X615Y717D02*
X627Y717D01*
X638Y717D02*
X650Y717D01*
X659Y717D02*
X663Y717D01*
X696Y717D02*
X697Y717D01*
X735Y717D02*
X807Y717D01*
X813Y717D02*
X820Y717D01*
X834Y717D02*
X859Y717D01*
X615Y716D02*
X627Y716D01*
X637Y716D02*
X646Y716D01*
X649Y716D02*
X650Y716D01*
X658Y716D02*
X662Y716D01*
X696Y716D02*
X697Y716D01*
X736Y716D02*
X781Y716D01*
X785Y716D02*
X809Y716D01*
X813Y716D02*
X825Y716D01*
X836Y716D02*
X859Y716D01*
X615Y715D02*
X628Y715D01*
X636Y715D02*
X644Y715D01*
X650Y715D02*
X650Y715D01*
X658Y715D02*
X661Y715D01*
X695Y715D02*
X697Y715D01*
X706Y715D02*
X706Y715D01*
X716Y715D02*
X716Y715D01*
X737Y715D02*
X781Y715D01*
X789Y715D02*
X810Y715D01*
X813Y715D02*
X828Y715D01*
X839Y715D02*
X859Y715D01*
X616Y714D02*
X629Y714D01*
X634Y714D02*
X643Y714D01*
X649Y714D02*
X650Y714D01*
X658Y714D02*
X660Y714D01*
X695Y714D02*
X697Y714D01*
X705Y714D02*
X706Y714D01*
X715Y714D02*
X716Y714D01*
X737Y714D02*
X783Y714D01*
X792Y714D02*
X830Y714D01*
X841Y714D02*
X859Y714D01*
X616Y713D02*
X642Y713D01*
X649Y713D02*
X650Y713D01*
X658Y713D02*
X659Y713D01*
X694Y713D02*
X697Y713D01*
X704Y713D02*
X706Y713D01*
X714Y713D02*
X716Y713D01*
X738Y713D02*
X762Y713D01*
X769Y713D02*
X786Y713D01*
X794Y713D02*
X832Y713D01*
X842Y713D02*
X859Y713D01*
X616Y712D02*
X642Y712D01*
X648Y712D02*
X650Y712D01*
X694Y712D02*
X696Y712D01*
X704Y712D02*
X706Y712D01*
X713Y712D02*
X716Y712D01*
X738Y712D02*
X762Y712D01*
X771Y712D02*
X791Y712D01*
X794Y712D02*
X834Y712D01*
X844Y712D02*
X859Y712D01*
X617Y711D02*
X642Y711D01*
X647Y711D02*
X650Y711D01*
X694Y711D02*
X696Y711D01*
X704Y711D02*
X706Y711D01*
X713Y711D02*
X715Y711D01*
X738Y711D02*
X762Y711D01*
X772Y711D02*
X823Y711D01*
X825Y711D02*
X835Y711D01*
X845Y711D02*
X859Y711D01*
X617Y710D02*
X642Y710D01*
X646Y710D02*
X650Y710D01*
X694Y710D02*
X695Y710D01*
X704Y710D02*
X705Y710D01*
X712Y710D02*
X715Y710D01*
X739Y710D02*
X763Y710D01*
X772Y710D02*
X823Y710D01*
X827Y710D02*
X837Y710D01*
X846Y710D02*
X859Y710D01*
X618Y709D02*
X650Y709D01*
X693Y709D02*
X695Y709D01*
X704Y709D02*
X705Y709D01*
X712Y709D02*
X715Y709D01*
X739Y709D02*
X764Y709D01*
X773Y709D02*
X825Y709D01*
X829Y709D02*
X838Y709D01*
X847Y709D02*
X859Y709D01*
X618Y708D02*
X650Y708D01*
X694Y708D02*
X694Y708D01*
X704Y708D02*
X705Y708D01*
X712Y708D02*
X714Y708D01*
X738Y708D02*
X766Y708D01*
X772Y708D02*
X826Y708D01*
X831Y708D02*
X840Y708D01*
X847Y708D02*
X859Y708D01*
X618Y707D02*
X651Y707D01*
X694Y707D02*
X694Y707D01*
X704Y707D02*
X704Y707D01*
X711Y707D02*
X714Y707D01*
X738Y707D02*
X768Y707D01*
X772Y707D02*
X781Y707D01*
X788Y707D02*
X827Y707D01*
X833Y707D02*
X843Y707D01*
X846Y707D02*
X859Y707D01*
X617Y706D02*
X651Y706D01*
X711Y706D02*
X714Y706D01*
X738Y706D02*
X781Y706D01*
X792Y706D02*
X828Y706D01*
X834Y706D02*
X859Y706D01*
X617Y705D02*
X653Y705D01*
X711Y705D02*
X713Y705D01*
X738Y705D02*
X781Y705D01*
X794Y705D02*
X830Y705D01*
X836Y705D02*
X859Y705D01*
X617Y704D02*
X653Y704D01*
X711Y704D02*
X713Y704D01*
X737Y704D02*
X783Y704D01*
X797Y704D02*
X831Y704D01*
X838Y704D02*
X859Y704D01*
X616Y703D02*
X654Y703D01*
X710Y703D02*
X712Y703D01*
X737Y703D02*
X785Y703D01*
X799Y703D02*
X833Y703D01*
X839Y703D02*
X859Y703D01*
X616Y702D02*
X654Y702D01*
X710Y702D02*
X712Y702D01*
X736Y702D02*
X787Y702D01*
X801Y702D02*
X834Y702D01*
X840Y702D02*
X859Y702D01*
X615Y701D02*
X655Y701D01*
X709Y701D02*
X711Y701D01*
X735Y701D02*
X769Y701D01*
X773Y701D02*
X788Y701D01*
X804Y701D02*
X835Y701D01*
X842Y701D02*
X859Y701D01*
X615Y700D02*
X641Y700D01*
X644Y700D02*
X655Y700D01*
X708Y700D02*
X711Y700D01*
X734Y700D02*
X767Y700D01*
X775Y700D02*
X788Y700D01*
X807Y700D02*
X815Y700D01*
X817Y700D02*
X837Y700D01*
X843Y700D02*
X859Y700D01*
X614Y699D02*
X640Y699D01*
X645Y699D02*
X655Y699D01*
X708Y699D02*
X710Y699D01*
X734Y699D02*
X767Y699D01*
X776Y699D02*
X788Y699D01*
X811Y699D02*
X813Y699D01*
X817Y699D02*
X838Y699D01*
X845Y699D02*
X858Y699D01*
X614Y698D02*
X639Y698D01*
X645Y698D02*
X655Y698D01*
X697Y698D02*
X697Y698D01*
X707Y698D02*
X709Y698D01*
X733Y698D02*
X754Y698D01*
X756Y698D02*
X767Y698D01*
X777Y698D02*
X788Y698D01*
X817Y698D02*
X824Y698D01*
X832Y698D02*
X839Y698D01*
X846Y698D02*
X858Y698D01*
X613Y697D02*
X639Y697D01*
X644Y697D02*
X656Y697D01*
X685Y697D02*
X687Y697D01*
X696Y697D02*
X697Y697D01*
X706Y697D02*
X709Y697D01*
X733Y697D02*
X754Y697D01*
X758Y697D02*
X768Y697D01*
X776Y697D02*
X787Y697D01*
X792Y697D02*
X796Y697D01*
X818Y697D02*
X824Y697D01*
X834Y697D02*
X841Y697D01*
X847Y697D02*
X858Y697D01*
X612Y696D02*
X639Y696D01*
X643Y696D02*
X649Y696D01*
X651Y696D02*
X656Y696D01*
X684Y696D02*
X687Y696D01*
X694Y696D02*
X697Y696D01*
X705Y696D02*
X708Y696D01*
X732Y696D02*
X755Y696D01*
X759Y696D02*
X801Y696D01*
X819Y696D02*
X825Y696D01*
X835Y696D02*
X842Y696D01*
X849Y696D02*
X858Y696D01*
X612Y695D02*
X639Y695D01*
X642Y695D02*
X647Y695D01*
X651Y695D02*
X656Y695D01*
X684Y695D02*
X686Y695D01*
X694Y695D02*
X697Y695D01*
X704Y695D02*
X707Y695D01*
X732Y695D02*
X755Y695D01*
X760Y695D02*
X805Y695D01*
X820Y695D02*
X825Y695D01*
X836Y695D02*
X843Y695D01*
X850Y695D02*
X858Y695D01*
X611Y694D02*
X646Y694D01*
X651Y694D02*
X656Y694D01*
X683Y694D02*
X685Y694D01*
X693Y694D02*
X696Y694D01*
X703Y694D02*
X707Y694D01*
X732Y694D02*
X755Y694D01*
X761Y694D02*
X808Y694D01*
X821Y694D02*
X826Y694D01*
X837Y694D02*
X845Y694D01*
X851Y694D02*
X858Y694D01*
X611Y693D02*
X625Y693D01*
X628Y693D02*
X645Y693D01*
X650Y693D02*
X655Y693D01*
X682Y693D02*
X684Y693D01*
X692Y693D02*
X696Y693D01*
X703Y693D02*
X706Y693D01*
X732Y693D02*
X745Y693D01*
X750Y693D02*
X756Y693D01*
X762Y693D02*
X811Y693D01*
X822Y693D02*
X828Y693D01*
X838Y693D02*
X846Y693D01*
X852Y693D02*
X858Y693D01*
X610Y692D02*
X624Y692D01*
X629Y692D02*
X643Y692D01*
X649Y692D02*
X655Y692D01*
X682Y692D02*
X683Y692D01*
X691Y692D02*
X696Y692D01*
X702Y692D02*
X705Y692D01*
X716Y692D02*
X720Y692D01*
X732Y692D02*
X744Y692D01*
X752Y692D02*
X756Y692D01*
X762Y692D02*
X813Y692D01*
X823Y692D02*
X830Y692D01*
X838Y692D02*
X847Y692D01*
X853Y692D02*
X858Y692D01*
X609Y691D02*
X623Y691D01*
X629Y691D02*
X643Y691D01*
X649Y691D02*
X654Y691D01*
X681Y691D02*
X683Y691D01*
X691Y691D02*
X695Y691D01*
X701Y691D02*
X705Y691D01*
X713Y691D02*
X721Y691D01*
X732Y691D02*
X744Y691D01*
X753Y691D02*
X757Y691D01*
X763Y691D02*
X775Y691D01*
X784Y691D02*
X800Y691D01*
X807Y691D02*
X815Y691D01*
X825Y691D02*
X848Y691D01*
X854Y691D02*
X858Y691D01*
X609Y690D02*
X623Y690D01*
X629Y690D02*
X642Y690D01*
X648Y690D02*
X653Y690D01*
X671Y690D02*
X672Y690D01*
X680Y690D02*
X683Y690D01*
X691Y690D02*
X694Y690D01*
X700Y690D02*
X705Y690D01*
X712Y690D02*
X722Y690D01*
X732Y690D02*
X744Y690D01*
X753Y690D02*
X757Y690D01*
X764Y690D02*
X774Y690D01*
X790Y690D02*
X799Y690D01*
X810Y690D02*
X817Y690D01*
X826Y690D02*
X849Y690D01*
X854Y690D02*
X858Y690D01*
X608Y689D02*
X622Y689D01*
X628Y689D02*
X641Y689D01*
X647Y689D02*
X652Y689D01*
X670Y689D02*
X672Y689D01*
X680Y689D02*
X683Y689D01*
X692Y689D02*
X693Y689D01*
X699Y689D02*
X704Y689D01*
X710Y689D02*
X722Y689D01*
X732Y689D02*
X744Y689D01*
X753Y689D02*
X757Y689D01*
X765Y689D02*
X774Y689D01*
X811Y689D02*
X818Y689D01*
X827Y689D02*
X850Y689D01*
X855Y689D02*
X858Y689D01*
X608Y688D02*
X622Y688D01*
X628Y688D02*
X640Y688D01*
X646Y688D02*
X651Y688D01*
X670Y688D02*
X672Y688D01*
X680Y688D02*
X683Y688D01*
X698Y688D02*
X704Y688D01*
X710Y688D02*
X723Y688D01*
X732Y688D02*
X744Y688D01*
X753Y688D02*
X758Y688D01*
X765Y688D02*
X775Y688D01*
X802Y688D02*
X803Y688D01*
X812Y688D02*
X819Y688D01*
X828Y688D02*
X850Y688D01*
X855Y688D02*
X858Y688D01*
X607Y687D02*
X621Y687D01*
X628Y687D02*
X639Y687D01*
X646Y687D02*
X649Y687D01*
X669Y687D02*
X672Y687D01*
X679Y687D02*
X683Y687D01*
X697Y687D02*
X703Y687D01*
X709Y687D02*
X723Y687D01*
X732Y687D02*
X745Y687D01*
X753Y687D02*
X758Y687D01*
X766Y687D02*
X776Y687D01*
X802Y687D02*
X805Y687D01*
X813Y687D02*
X819Y687D01*
X828Y687D02*
X843Y687D01*
X846Y687D02*
X850Y687D01*
X856Y687D02*
X858Y687D01*
X607Y686D02*
X621Y686D01*
X627Y686D02*
X638Y686D01*
X669Y686D02*
X672Y686D01*
X679Y686D02*
X683Y686D01*
X696Y686D02*
X702Y686D01*
X709Y686D02*
X723Y686D01*
X731Y686D02*
X745Y686D01*
X752Y686D02*
X759Y686D01*
X766Y686D02*
X786Y686D01*
X803Y686D02*
X807Y686D01*
X813Y686D02*
X819Y686D01*
X829Y686D02*
X845Y686D01*
X857Y686D02*
X858Y686D01*
X606Y685D02*
X621Y685D01*
X626Y685D02*
X638Y685D01*
X641Y685D02*
X643Y685D01*
X654Y685D02*
X657Y685D01*
X669Y685D02*
X671Y685D01*
X679Y685D02*
X683Y685D01*
X695Y685D02*
X701Y685D01*
X709Y685D02*
X724Y685D01*
X731Y685D02*
X746Y685D01*
X752Y685D02*
X760Y685D01*
X766Y685D02*
X790Y685D01*
X804Y685D02*
X810Y685D01*
X813Y685D02*
X819Y685D01*
X829Y685D02*
X846Y685D01*
X606Y684D02*
X622Y684D01*
X625Y684D02*
X637Y684D01*
X640Y684D02*
X643Y684D01*
X653Y684D02*
X659Y684D01*
X670Y684D02*
X671Y684D01*
X679Y684D02*
X683Y684D01*
X694Y684D02*
X700Y684D01*
X709Y684D02*
X725Y684D01*
X730Y684D02*
X747Y684D01*
X751Y684D02*
X761Y684D01*
X766Y684D02*
X793Y684D01*
X805Y684D02*
X820Y684D01*
X829Y684D02*
X848Y684D01*
X605Y683D02*
X630Y683D01*
X633Y683D02*
X637Y683D01*
X640Y683D02*
X643Y683D01*
X651Y683D02*
X660Y683D01*
X680Y683D02*
X683Y683D01*
X693Y683D02*
X699Y683D01*
X711Y683D02*
X716Y683D01*
X721Y683D02*
X726Y683D01*
X728Y683D02*
X795Y683D01*
X806Y683D02*
X823Y683D01*
X830Y683D02*
X850Y683D01*
X605Y682D02*
X629Y682D01*
X633Y682D02*
X637Y682D01*
X640Y682D02*
X643Y682D01*
X650Y682D02*
X661Y682D01*
X681Y682D02*
X682Y682D01*
X692Y682D02*
X697Y682D01*
X721Y682D02*
X797Y682D01*
X807Y682D02*
X824Y682D01*
X831Y682D02*
X852Y682D01*
X604Y681D02*
X627Y681D01*
X633Y681D02*
X643Y681D01*
X649Y681D02*
X662Y681D01*
X692Y681D02*
X696Y681D01*
X720Y681D02*
X799Y681D01*
X808Y681D02*
X825Y681D01*
X832Y681D02*
X854Y681D01*
X604Y680D02*
X626Y680D01*
X632Y680D02*
X642Y680D01*
X648Y680D02*
X662Y680D01*
X691Y680D02*
X694Y680D01*
X718Y680D02*
X744Y680D01*
X747Y680D02*
X768Y680D01*
X776Y680D02*
X787Y680D01*
X791Y680D02*
X800Y680D01*
X809Y680D02*
X826Y680D01*
X833Y680D02*
X855Y680D01*
X603Y679D02*
X626Y679D01*
X631Y679D02*
X642Y679D01*
X647Y679D02*
X663Y679D01*
X717Y679D02*
X743Y679D01*
X747Y679D02*
X767Y679D01*
X777Y679D02*
X785Y679D01*
X799Y679D02*
X802Y679D01*
X811Y679D02*
X827Y679D01*
X834Y679D02*
X856Y679D01*
X603Y678D02*
X625Y678D01*
X630Y678D02*
X642Y678D01*
X645Y678D02*
X664Y678D01*
X716Y678D02*
X728Y678D01*
X733Y678D02*
X742Y678D01*
X747Y678D02*
X757Y678D01*
X760Y678D02*
X766Y678D01*
X777Y678D02*
X785Y678D01*
X812Y678D02*
X827Y678D01*
X836Y678D02*
X857Y678D01*
X603Y677D02*
X625Y677D01*
X629Y677D02*
X632Y677D01*
X637Y677D02*
X641Y677D01*
X644Y677D02*
X650Y677D01*
X654Y677D02*
X664Y677D01*
X673Y677D02*
X676Y677D01*
X686Y677D02*
X687Y677D01*
X714Y677D02*
X724Y677D01*
X735Y677D02*
X742Y677D01*
X747Y677D02*
X757Y677D01*
X777Y677D02*
X786Y677D01*
X813Y677D02*
X828Y677D01*
X837Y677D02*
X857Y677D01*
X602Y676D02*
X625Y676D01*
X627Y676D02*
X632Y676D01*
X637Y676D02*
X641Y676D01*
X643Y676D02*
X648Y676D01*
X653Y676D02*
X664Y676D01*
X671Y676D02*
X676Y676D01*
X685Y676D02*
X687Y676D01*
X713Y676D02*
X722Y676D01*
X737Y676D02*
X743Y676D01*
X745Y676D02*
X758Y676D01*
X777Y676D02*
X788Y676D01*
X814Y676D02*
X828Y676D01*
X838Y676D02*
X857Y676D01*
X602Y675D02*
X631Y675D01*
X636Y675D02*
X647Y675D01*
X652Y675D02*
X665Y675D01*
X669Y675D02*
X675Y675D01*
X684Y675D02*
X687Y675D01*
X711Y675D02*
X720Y675D01*
X737Y675D02*
X758Y675D01*
X776Y675D02*
X789Y675D01*
X816Y675D02*
X829Y675D01*
X840Y675D02*
X856Y675D01*
X602Y674D02*
X630Y674D01*
X636Y674D02*
X646Y674D01*
X651Y674D02*
X673Y674D01*
X683Y674D02*
X686Y674D01*
X695Y674D02*
X698Y674D01*
X710Y674D02*
X718Y674D01*
X738Y674D02*
X761Y674D01*
X768Y674D02*
X769Y674D01*
X777Y674D02*
X778Y674D01*
X782Y674D02*
X791Y674D01*
X817Y674D02*
X829Y674D01*
X841Y674D02*
X856Y674D01*
X601Y673D02*
X630Y673D01*
X636Y673D02*
X645Y673D01*
X649Y673D02*
X672Y673D01*
X682Y673D02*
X686Y673D01*
X695Y673D02*
X699Y673D01*
X708Y673D02*
X716Y673D01*
X738Y673D02*
X751Y673D01*
X755Y673D02*
X771Y673D01*
X783Y673D02*
X793Y673D01*
X820Y673D02*
X829Y673D01*
X842Y673D02*
X855Y673D01*
X601Y672D02*
X630Y672D01*
X636Y672D02*
X645Y672D01*
X647Y672D02*
X671Y672D01*
X682Y672D02*
X685Y672D01*
X695Y672D02*
X700Y672D01*
X707Y672D02*
X715Y672D01*
X722Y672D02*
X725Y672D01*
X739Y672D02*
X749Y672D01*
X757Y672D02*
X772Y672D01*
X783Y672D02*
X796Y672D01*
X821Y672D02*
X830Y672D01*
X844Y672D02*
X855Y672D01*
X601Y671D02*
X629Y671D01*
X636Y671D02*
X637Y671D01*
X640Y671D02*
X671Y671D01*
X682Y671D02*
X683Y671D01*
X695Y671D02*
X699Y671D01*
X705Y671D02*
X714Y671D01*
X722Y671D02*
X729Y671D01*
X739Y671D02*
X749Y671D01*
X757Y671D02*
X772Y671D01*
X785Y671D02*
X799Y671D01*
X821Y671D02*
X831Y671D01*
X845Y671D02*
X854Y671D01*
X601Y670D02*
X617Y670D01*
X623Y670D02*
X629Y670D01*
X641Y670D02*
X661Y670D01*
X663Y670D02*
X670Y670D01*
X704Y670D02*
X713Y670D01*
X722Y670D02*
X732Y670D01*
X739Y670D02*
X749Y670D01*
X757Y670D02*
X772Y670D01*
X789Y670D02*
X804Y670D01*
X820Y670D02*
X832Y670D01*
X846Y670D02*
X854Y670D01*
X601Y669D02*
X615Y669D01*
X624Y669D02*
X628Y669D01*
X641Y669D02*
X659Y669D01*
X665Y669D02*
X670Y669D01*
X702Y669D02*
X711Y669D01*
X723Y669D02*
X734Y669D01*
X739Y669D02*
X750Y669D01*
X756Y669D02*
X762Y669D01*
X765Y669D02*
X773Y669D01*
X792Y669D02*
X833Y669D01*
X846Y669D02*
X854Y669D01*
X601Y668D02*
X615Y668D01*
X624Y668D02*
X628Y668D01*
X641Y668D02*
X647Y668D01*
X655Y668D02*
X658Y668D01*
X665Y668D02*
X670Y668D01*
X701Y668D02*
X710Y668D01*
X726Y668D02*
X762Y668D01*
X767Y668D02*
X774Y668D01*
X793Y668D02*
X834Y668D01*
X847Y668D02*
X854Y668D01*
X601Y667D02*
X614Y667D01*
X624Y667D02*
X628Y667D01*
X640Y667D02*
X644Y667D01*
X655Y667D02*
X657Y667D01*
X666Y667D02*
X669Y667D01*
X700Y667D02*
X709Y667D01*
X728Y667D02*
X762Y667D01*
X768Y667D02*
X775Y667D01*
X795Y667D02*
X836Y667D01*
X846Y667D02*
X854Y667D01*
X601Y666D02*
X614Y666D01*
X624Y666D02*
X628Y666D01*
X639Y666D02*
X643Y666D01*
X654Y666D02*
X656Y666D01*
X667Y666D02*
X669Y666D01*
X699Y666D02*
X708Y666D01*
X729Y666D02*
X763Y666D01*
X769Y666D02*
X777Y666D01*
X796Y666D02*
X841Y666D01*
X845Y666D02*
X854Y666D01*
X600Y665D02*
X614Y665D01*
X624Y665D02*
X627Y665D01*
X639Y665D02*
X642Y665D01*
X653Y665D02*
X655Y665D01*
X667Y665D02*
X669Y665D01*
X699Y665D02*
X707Y665D01*
X729Y665D02*
X733Y665D01*
X740Y665D02*
X763Y665D01*
X770Y665D02*
X778Y665D01*
X798Y665D02*
X806Y665D01*
X813Y665D02*
X854Y665D01*
X600Y664D02*
X614Y664D01*
X623Y664D02*
X627Y664D01*
X638Y664D02*
X641Y664D01*
X651Y664D02*
X654Y664D01*
X668Y664D02*
X669Y664D01*
X698Y664D02*
X706Y664D01*
X729Y664D02*
X731Y664D01*
X742Y664D02*
X763Y664D01*
X771Y664D02*
X780Y664D01*
X799Y664D02*
X805Y664D01*
X816Y664D02*
X826Y664D01*
X832Y664D02*
X855Y664D01*
X600Y663D02*
X614Y663D01*
X623Y663D02*
X627Y663D01*
X639Y663D02*
X639Y663D01*
X649Y663D02*
X652Y663D01*
X668Y663D02*
X669Y663D01*
X695Y663D02*
X706Y663D01*
X727Y663D02*
X731Y663D01*
X743Y663D02*
X763Y663D01*
X772Y663D02*
X781Y663D01*
X800Y663D02*
X805Y663D01*
X819Y663D02*
X823Y663D01*
X834Y663D02*
X855Y663D01*
X600Y662D02*
X614Y662D01*
X623Y662D02*
X627Y662D01*
X647Y662D02*
X651Y662D01*
X669Y662D02*
X669Y662D01*
X691Y662D02*
X706Y662D01*
X713Y662D02*
X718Y662D01*
X725Y662D02*
X731Y662D01*
X743Y662D02*
X750Y662D01*
X755Y662D02*
X763Y662D01*
X772Y662D02*
X783Y662D01*
X802Y662D02*
X806Y662D01*
X821Y662D02*
X823Y662D01*
X835Y662D02*
X856Y662D01*
X599Y661D02*
X614Y661D01*
X623Y661D02*
X626Y661D01*
X646Y661D02*
X649Y661D01*
X692Y661D02*
X717Y661D01*
X726Y661D02*
X733Y661D01*
X742Y661D02*
X749Y661D01*
X761Y661D02*
X763Y661D01*
X773Y661D02*
X785Y661D01*
X803Y661D02*
X807Y661D01*
X835Y661D02*
X838Y661D01*
X846Y661D02*
X857Y661D01*
X599Y660D02*
X615Y660D01*
X622Y660D02*
X626Y660D01*
X677Y660D02*
X678Y660D01*
X693Y660D02*
X714Y660D01*
X727Y660D02*
X748Y660D01*
X772Y660D02*
X786Y660D01*
X804Y660D02*
X809Y660D01*
X834Y660D02*
X836Y660D01*
X849Y660D02*
X857Y660D01*
X599Y659D02*
X615Y659D01*
X622Y659D02*
X626Y659D01*
X676Y659D02*
X678Y659D01*
X694Y659D02*
X711Y659D01*
X728Y659D02*
X748Y659D01*
X767Y659D02*
X777Y659D01*
X787Y659D02*
X787Y659D01*
X805Y659D02*
X811Y659D01*
X834Y659D02*
X835Y659D01*
X851Y659D02*
X858Y659D01*
X598Y658D02*
X615Y658D01*
X622Y658D02*
X626Y658D01*
X675Y658D02*
X678Y658D01*
X694Y658D02*
X708Y658D01*
X729Y658D02*
X746Y658D01*
X768Y658D02*
X777Y658D01*
X806Y658D02*
X813Y658D01*
X854Y658D02*
X858Y658D01*
X598Y657D02*
X616Y657D01*
X621Y657D02*
X625Y657D01*
X656Y657D02*
X658Y657D01*
X666Y657D02*
X667Y657D01*
X675Y657D02*
X677Y657D01*
X685Y657D02*
X687Y657D01*
X694Y657D02*
X706Y657D01*
X730Y657D02*
X742Y657D01*
X769Y657D02*
X777Y657D01*
X807Y657D02*
X815Y657D01*
X857Y657D02*
X858Y657D01*
X597Y656D02*
X617Y656D01*
X620Y656D02*
X625Y656D01*
X655Y656D02*
X657Y656D01*
X665Y656D02*
X667Y656D01*
X674Y656D02*
X677Y656D01*
X684Y656D02*
X687Y656D01*
X694Y656D02*
X703Y656D01*
X731Y656D02*
X741Y656D01*
X758Y656D02*
X761Y656D01*
X770Y656D02*
X778Y656D01*
X808Y656D02*
X817Y656D01*
X836Y656D02*
X844Y656D01*
X597Y655D02*
X624Y655D01*
X655Y655D02*
X657Y655D01*
X664Y655D02*
X666Y655D01*
X674Y655D02*
X676Y655D01*
X683Y655D02*
X687Y655D01*
X694Y655D02*
X701Y655D01*
X721Y655D02*
X741Y655D01*
X758Y655D02*
X762Y655D01*
X771Y655D02*
X779Y655D01*
X809Y655D02*
X818Y655D01*
X833Y655D02*
X847Y655D01*
X596Y654D02*
X624Y654D01*
X655Y654D02*
X657Y654D01*
X663Y654D02*
X666Y654D01*
X674Y654D02*
X675Y654D01*
X682Y654D02*
X687Y654D01*
X693Y654D02*
X700Y654D01*
X715Y654D02*
X734Y654D01*
X738Y654D02*
X742Y654D01*
X759Y654D02*
X764Y654D01*
X772Y654D02*
X781Y654D01*
X810Y654D02*
X819Y654D01*
X830Y654D02*
X849Y654D01*
X596Y653D02*
X623Y653D01*
X646Y653D02*
X648Y653D01*
X655Y653D02*
X656Y653D01*
X662Y653D02*
X666Y653D01*
X682Y653D02*
X686Y653D01*
X692Y653D02*
X698Y653D01*
X712Y653D02*
X734Y653D01*
X739Y653D02*
X742Y653D01*
X759Y653D02*
X765Y653D01*
X773Y653D02*
X783Y653D01*
X810Y653D02*
X820Y653D01*
X828Y653D02*
X851Y653D01*
X595Y652D02*
X622Y652D01*
X629Y652D02*
X630Y652D01*
X644Y652D02*
X647Y652D01*
X654Y652D02*
X656Y652D01*
X661Y652D02*
X665Y652D01*
X681Y652D02*
X685Y652D01*
X691Y652D02*
X697Y652D01*
X709Y652D02*
X733Y652D01*
X740Y652D02*
X744Y652D01*
X760Y652D02*
X766Y652D01*
X774Y652D02*
X785Y652D01*
X811Y652D02*
X820Y652D01*
X827Y652D02*
X853Y652D01*
X594Y651D02*
X620Y651D01*
X628Y651D02*
X631Y651D01*
X642Y651D02*
X647Y651D01*
X653Y651D02*
X655Y651D01*
X660Y651D02*
X665Y651D01*
X681Y651D02*
X684Y651D01*
X690Y651D02*
X695Y651D01*
X706Y651D02*
X733Y651D01*
X740Y651D02*
X745Y651D01*
X761Y651D02*
X767Y651D01*
X775Y651D02*
X794Y651D01*
X812Y651D02*
X820Y651D01*
X828Y651D02*
X855Y651D01*
X593Y650D02*
X617Y650D01*
X627Y650D02*
X630Y650D01*
X640Y650D02*
X646Y650D01*
X652Y650D02*
X655Y650D01*
X660Y650D02*
X665Y650D01*
X680Y650D02*
X684Y650D01*
X689Y650D02*
X694Y650D01*
X704Y650D02*
X734Y650D01*
X739Y650D02*
X748Y650D01*
X763Y650D02*
X768Y650D01*
X776Y650D02*
X795Y650D01*
X812Y650D02*
X820Y650D01*
X829Y650D02*
X856Y650D01*
X592Y649D02*
X616Y649D01*
X626Y649D02*
X630Y649D01*
X639Y649D02*
X646Y649D01*
X651Y649D02*
X654Y649D01*
X659Y649D02*
X664Y649D01*
X679Y649D02*
X683Y649D01*
X688Y649D02*
X693Y649D01*
X702Y649D02*
X714Y649D01*
X728Y649D02*
X734Y649D01*
X738Y649D02*
X750Y649D01*
X764Y649D02*
X769Y649D01*
X776Y649D02*
X780Y649D01*
X787Y649D02*
X794Y649D01*
X813Y649D02*
X821Y649D01*
X830Y649D02*
X857Y649D01*
X591Y648D02*
X615Y648D01*
X626Y648D02*
X630Y648D01*
X637Y648D02*
X645Y648D01*
X650Y648D02*
X654Y648D01*
X658Y648D02*
X664Y648D01*
X678Y648D02*
X683Y648D01*
X686Y648D02*
X691Y648D01*
X700Y648D02*
X708Y648D01*
X729Y648D02*
X750Y648D01*
X765Y648D02*
X771Y648D01*
X777Y648D02*
X779Y648D01*
X814Y648D02*
X821Y648D01*
X832Y648D02*
X855Y648D01*
X590Y647D02*
X615Y647D01*
X626Y647D02*
X630Y647D01*
X636Y647D02*
X645Y647D01*
X648Y647D02*
X653Y647D01*
X658Y647D02*
X664Y647D01*
X677Y647D02*
X690Y647D01*
X699Y647D02*
X703Y647D01*
X729Y647D02*
X748Y647D01*
X766Y647D02*
X772Y647D01*
X777Y647D02*
X780Y647D01*
X815Y647D02*
X822Y647D01*
X833Y647D02*
X839Y647D01*
X844Y647D02*
X853Y647D01*
X590Y646D02*
X615Y646D01*
X626Y646D02*
X629Y646D01*
X635Y646D02*
X653Y646D01*
X657Y646D02*
X663Y646D01*
X676Y646D02*
X689Y646D01*
X697Y646D02*
X699Y646D01*
X727Y646D02*
X746Y646D01*
X768Y646D02*
X775Y646D01*
X777Y646D02*
X780Y646D01*
X816Y646D02*
X823Y646D01*
X833Y646D02*
X838Y646D01*
X846Y646D02*
X852Y646D01*
X590Y645D02*
X615Y645D01*
X626Y645D02*
X629Y645D01*
X634Y645D02*
X652Y645D01*
X657Y645D02*
X663Y645D01*
X674Y645D02*
X688Y645D01*
X696Y645D02*
X697Y645D01*
X725Y645D02*
X745Y645D01*
X769Y645D02*
X782Y645D01*
X817Y645D02*
X824Y645D01*
X834Y645D02*
X838Y645D01*
X848Y645D02*
X852Y645D01*
X590Y644D02*
X609Y644D01*
X611Y644D02*
X615Y644D01*
X626Y644D02*
X629Y644D01*
X634Y644D02*
X652Y644D01*
X656Y644D02*
X662Y644D01*
X670Y644D02*
X687Y644D01*
X695Y644D02*
X696Y644D01*
X721Y644D02*
X745Y644D01*
X770Y644D02*
X783Y644D01*
X819Y644D02*
X827Y644D01*
X833Y644D02*
X839Y644D01*
X849Y644D02*
X853Y644D01*
X590Y643D02*
X607Y643D01*
X612Y643D02*
X615Y643D01*
X625Y643D02*
X629Y643D01*
X633Y643D02*
X651Y643D01*
X656Y643D02*
X662Y643D01*
X668Y643D02*
X686Y643D01*
X694Y643D02*
X695Y643D01*
X716Y643D02*
X746Y643D01*
X761Y643D02*
X764Y643D01*
X771Y643D02*
X784Y643D01*
X822Y643D02*
X840Y643D01*
X851Y643D02*
X854Y643D01*
X590Y642D02*
X607Y642D01*
X613Y642D02*
X616Y642D01*
X625Y642D02*
X629Y642D01*
X634Y642D02*
X651Y642D01*
X655Y642D02*
X662Y642D01*
X667Y642D02*
X685Y642D01*
X693Y642D02*
X695Y642D01*
X711Y642D02*
X732Y642D01*
X738Y642D02*
X747Y642D01*
X761Y642D02*
X765Y642D01*
X773Y642D02*
X784Y642D01*
X826Y642D02*
X840Y642D01*
X852Y642D02*
X855Y642D01*
X590Y641D02*
X607Y641D01*
X613Y641D02*
X616Y641D01*
X624Y641D02*
X629Y641D01*
X635Y641D02*
X650Y641D01*
X655Y641D02*
X661Y641D01*
X667Y641D02*
X685Y641D01*
X693Y641D02*
X696Y641D01*
X704Y641D02*
X732Y641D01*
X739Y641D02*
X748Y641D01*
X762Y641D02*
X766Y641D01*
X774Y641D02*
X783Y641D01*
X828Y641D02*
X842Y641D01*
X853Y641D02*
X856Y641D01*
X590Y640D02*
X607Y640D01*
X613Y640D02*
X616Y640D01*
X623Y640D02*
X629Y640D01*
X640Y640D02*
X650Y640D01*
X655Y640D02*
X661Y640D01*
X667Y640D02*
X684Y640D01*
X692Y640D02*
X733Y640D01*
X740Y640D02*
X749Y640D01*
X763Y640D02*
X767Y640D01*
X775Y640D02*
X783Y640D01*
X795Y640D02*
X796Y640D01*
X830Y640D02*
X843Y640D01*
X854Y640D02*
X857Y640D01*
X590Y639D02*
X608Y639D01*
X612Y639D02*
X617Y639D01*
X622Y639D02*
X628Y639D01*
X646Y639D02*
X650Y639D01*
X654Y639D02*
X660Y639D01*
X666Y639D02*
X684Y639D01*
X692Y639D02*
X714Y639D01*
X727Y639D02*
X734Y639D01*
X741Y639D02*
X750Y639D01*
X764Y639D02*
X767Y639D01*
X776Y639D02*
X783Y639D01*
X791Y639D02*
X800Y639D01*
X817Y639D02*
X822Y639D01*
X832Y639D02*
X844Y639D01*
X855Y639D02*
X857Y639D01*
X590Y638D02*
X617Y638D01*
X621Y638D02*
X628Y638D01*
X646Y638D02*
X649Y638D01*
X654Y638D02*
X660Y638D01*
X666Y638D02*
X684Y638D01*
X691Y638D02*
X707Y638D01*
X729Y638D02*
X735Y638D01*
X743Y638D02*
X752Y638D01*
X765Y638D02*
X768Y638D01*
X777Y638D02*
X783Y638D01*
X790Y638D02*
X801Y638D01*
X816Y638D02*
X823Y638D01*
X834Y638D02*
X846Y638D01*
X856Y638D02*
X858Y638D01*
X590Y637D02*
X628Y637D01*
X646Y637D02*
X649Y637D01*
X654Y637D02*
X659Y637D01*
X665Y637D02*
X684Y637D01*
X691Y637D02*
X703Y637D01*
X730Y637D02*
X736Y637D01*
X747Y637D02*
X753Y637D01*
X766Y637D02*
X769Y637D01*
X778Y637D02*
X783Y637D01*
X789Y637D02*
X801Y637D01*
X816Y637D02*
X823Y637D01*
X835Y637D02*
X848Y637D01*
X857Y637D02*
X858Y637D01*
X591Y636D02*
X628Y636D01*
X645Y636D02*
X649Y636D01*
X654Y636D02*
X659Y636D01*
X664Y636D02*
X685Y636D01*
X690Y636D02*
X700Y636D01*
X731Y636D02*
X737Y636D01*
X753Y636D02*
X754Y636D01*
X767Y636D02*
X770Y636D01*
X779Y636D02*
X783Y636D01*
X788Y636D02*
X801Y636D01*
X816Y636D02*
X822Y636D01*
X837Y636D02*
X850Y636D01*
X857Y636D02*
X858Y636D01*
X591Y635D02*
X620Y635D01*
X645Y635D02*
X649Y635D01*
X654Y635D02*
X659Y635D01*
X662Y635D02*
X686Y635D01*
X688Y635D02*
X698Y635D01*
X714Y635D02*
X721Y635D01*
X732Y635D02*
X739Y635D01*
X768Y635D02*
X771Y635D01*
X781Y635D02*
X784Y635D01*
X787Y635D02*
X800Y635D01*
X817Y635D02*
X822Y635D01*
X838Y635D02*
X853Y635D01*
X855Y635D02*
X858Y635D01*
X591Y634D02*
X619Y634D01*
X644Y634D02*
X648Y634D01*
X654Y634D02*
X667Y634D01*
X672Y634D02*
X697Y634D01*
X712Y634D02*
X722Y634D01*
X733Y634D02*
X741Y634D01*
X769Y634D02*
X772Y634D01*
X782Y634D02*
X790Y634D01*
X797Y634D02*
X797Y634D01*
X818Y634D02*
X821Y634D01*
X839Y634D02*
X858Y634D01*
X591Y633D02*
X618Y633D01*
X644Y633D02*
X648Y633D01*
X654Y633D02*
X665Y633D01*
X672Y633D02*
X698Y633D01*
X712Y633D02*
X721Y633D01*
X734Y633D02*
X743Y633D01*
X770Y633D02*
X774Y633D01*
X783Y633D02*
X791Y633D01*
X840Y633D02*
X858Y633D01*
X592Y632D02*
X618Y632D01*
X643Y632D02*
X647Y632D01*
X654Y632D02*
X664Y632D01*
X672Y632D02*
X706Y632D01*
X734Y632D02*
X747Y632D01*
X772Y632D02*
X775Y632D01*
X784Y632D02*
X791Y632D01*
X842Y632D02*
X857Y632D01*
X592Y631D02*
X617Y631D01*
X643Y631D02*
X646Y631D01*
X654Y631D02*
X663Y631D01*
X671Y631D02*
X675Y631D01*
X678Y631D02*
X707Y631D01*
X733Y631D02*
X758Y631D01*
X773Y631D02*
X776Y631D01*
X786Y631D02*
X792Y631D01*
X842Y631D02*
X857Y631D01*
X592Y630D02*
X618Y630D01*
X643Y630D02*
X645Y630D01*
X655Y630D02*
X663Y630D01*
X671Y630D02*
X674Y630D01*
X678Y630D02*
X683Y630D01*
X691Y630D02*
X706Y630D01*
X732Y630D02*
X764Y630D01*
X774Y630D02*
X777Y630D01*
X788Y630D02*
X793Y630D01*
X843Y630D02*
X855Y630D01*
X592Y629D02*
X618Y629D01*
X642Y629D02*
X644Y629D01*
X656Y629D02*
X663Y629D01*
X671Y629D02*
X673Y629D01*
X678Y629D02*
X683Y629D01*
X698Y629D02*
X703Y629D01*
X731Y629D02*
X745Y629D01*
X747Y629D02*
X768Y629D01*
X775Y629D02*
X778Y629D01*
X789Y629D02*
X793Y629D01*
X844Y629D02*
X851Y629D01*
X593Y628D02*
X619Y628D01*
X657Y628D02*
X662Y628D01*
X670Y628D02*
X673Y628D01*
X678Y628D02*
X682Y628D01*
X731Y628D02*
X742Y628D01*
X750Y628D02*
X769Y628D01*
X776Y628D02*
X780Y628D01*
X791Y628D02*
X794Y628D01*
X822Y628D02*
X824Y628D01*
X833Y628D02*
X833Y628D01*
X844Y628D02*
X849Y628D01*
X593Y627D02*
X619Y627D01*
X657Y627D02*
X662Y627D01*
X670Y627D02*
X673Y627D01*
X678Y627D02*
X682Y627D01*
X731Y627D02*
X740Y627D01*
X751Y627D02*
X761Y627D01*
X763Y627D02*
X771Y627D01*
X778Y627D02*
X781Y627D01*
X821Y627D02*
X826Y627D01*
X834Y627D02*
X835Y627D01*
X844Y627D02*
X849Y627D01*
X593Y626D02*
X620Y626D01*
X657Y626D02*
X662Y626D01*
X669Y626D02*
X673Y626D01*
X678Y626D02*
X682Y626D01*
X712Y626D02*
X712Y626D01*
X722Y626D02*
X725Y626D01*
X731Y626D02*
X739Y626D01*
X751Y626D02*
X757Y626D01*
X767Y626D02*
X771Y626D01*
X779Y626D02*
X782Y626D01*
X821Y626D02*
X827Y626D01*
X835Y626D02*
X836Y626D01*
X844Y626D02*
X850Y626D01*
X593Y625D02*
X620Y625D01*
X657Y625D02*
X662Y625D01*
X668Y625D02*
X673Y625D01*
X678Y625D02*
X682Y625D01*
X711Y625D02*
X713Y625D01*
X722Y625D02*
X727Y625D01*
X731Y625D02*
X738Y625D01*
X751Y625D02*
X755Y625D01*
X768Y625D02*
X771Y625D01*
X780Y625D02*
X783Y625D01*
X821Y625D02*
X828Y625D01*
X836Y625D02*
X839Y625D01*
X843Y625D02*
X851Y625D01*
X594Y624D02*
X619Y624D01*
X657Y624D02*
X662Y624D01*
X668Y624D02*
X673Y624D01*
X678Y624D02*
X682Y624D01*
X711Y624D02*
X713Y624D01*
X722Y624D02*
X728Y624D01*
X731Y624D02*
X737Y624D01*
X750Y624D02*
X753Y624D01*
X770Y624D02*
X772Y624D01*
X781Y624D02*
X785Y624D01*
X821Y624D02*
X829Y624D01*
X837Y624D02*
X852Y624D01*
X594Y623D02*
X617Y623D01*
X657Y623D02*
X663Y623D01*
X666Y623D02*
X673Y623D01*
X678Y623D02*
X682Y623D01*
X696Y623D02*
X700Y623D01*
X710Y623D02*
X714Y623D01*
X721Y623D02*
X729Y623D01*
X732Y623D02*
X737Y623D01*
X749Y623D02*
X752Y623D01*
X771Y623D02*
X771Y623D01*
X782Y623D02*
X786Y623D01*
X822Y623D02*
X830Y623D01*
X838Y623D02*
X853Y623D01*
X594Y622D02*
X615Y622D01*
X657Y622D02*
X673Y622D01*
X678Y622D02*
X682Y622D01*
X693Y622D02*
X701Y622D01*
X710Y622D02*
X714Y622D01*
X721Y622D02*
X737Y622D01*
X748Y622D02*
X751Y622D01*
X783Y622D02*
X787Y622D01*
X822Y622D02*
X823Y622D01*
X825Y622D02*
X830Y622D01*
X839Y622D02*
X854Y622D01*
X595Y621D02*
X612Y621D01*
X657Y621D02*
X673Y621D01*
X678Y621D02*
X682Y621D01*
X692Y621D02*
X702Y621D01*
X710Y621D02*
X715Y621D01*
X721Y621D02*
X737Y621D01*
X747Y621D02*
X750Y621D01*
X758Y621D02*
X764Y621D01*
X784Y621D02*
X788Y621D01*
X822Y621D02*
X823Y621D01*
X828Y621D02*
X830Y621D01*
X840Y621D02*
X854Y621D01*
X595Y620D02*
X611Y620D01*
X658Y620D02*
X673Y620D01*
X678Y620D02*
X682Y620D01*
X692Y620D02*
X703Y620D01*
X710Y620D02*
X717Y620D01*
X720Y620D02*
X737Y620D01*
X746Y620D02*
X749Y620D01*
X758Y620D02*
X765Y620D01*
X784Y620D02*
X789Y620D01*
X823Y620D02*
X824Y620D01*
X841Y620D02*
X855Y620D01*
X595Y619D02*
X609Y619D01*
X659Y619D02*
X673Y619D01*
X678Y619D02*
X681Y619D01*
X697Y619D02*
X703Y619D01*
X710Y619D02*
X730Y619D01*
X733Y619D02*
X738Y619D01*
X745Y619D02*
X748Y619D01*
X757Y619D02*
X765Y619D01*
X785Y619D02*
X790Y619D01*
X823Y619D02*
X825Y619D01*
X841Y619D02*
X856Y619D01*
X596Y618D02*
X608Y618D01*
X659Y618D02*
X674Y618D01*
X679Y618D02*
X681Y618D01*
X698Y618D02*
X703Y618D01*
X710Y618D02*
X730Y618D01*
X735Y618D02*
X738Y618D01*
X744Y618D02*
X748Y618D01*
X757Y618D02*
X766Y618D01*
X785Y618D02*
X791Y618D01*
X824Y618D02*
X826Y618D01*
X842Y618D02*
X856Y618D01*
X596Y617D02*
X607Y617D01*
X660Y617D02*
X674Y617D01*
X698Y617D02*
X703Y617D01*
X710Y617D02*
X730Y617D01*
X736Y617D02*
X747Y617D01*
X758Y617D02*
X764Y617D01*
X785Y617D02*
X792Y617D01*
X824Y617D02*
X826Y617D01*
X842Y617D02*
X857Y617D01*
X597Y616D02*
X606Y616D01*
X661Y616D02*
X675Y616D01*
X698Y616D02*
X703Y616D01*
X710Y616D02*
X722Y616D01*
X725Y616D02*
X731Y616D01*
X737Y616D02*
X746Y616D01*
X758Y616D02*
X762Y616D01*
X785Y616D02*
X792Y616D01*
X825Y616D02*
X827Y616D01*
X843Y616D02*
X857Y616D01*
X597Y615D02*
X605Y615D01*
X662Y615D02*
X676Y615D01*
X696Y615D02*
X703Y615D01*
X711Y615D02*
X722Y615D01*
X727Y615D02*
X732Y615D01*
X738Y615D02*
X745Y615D01*
X759Y615D02*
X762Y615D01*
X785Y615D02*
X792Y615D01*
X826Y615D02*
X827Y615D01*
X843Y615D02*
X857Y615D01*
X597Y614D02*
X604Y614D01*
X625Y614D02*
X629Y614D01*
X663Y614D02*
X678Y614D01*
X689Y614D02*
X703Y614D01*
X711Y614D02*
X715Y614D01*
X718Y614D02*
X722Y614D01*
X727Y614D02*
X732Y614D01*
X739Y614D02*
X745Y614D01*
X759Y614D02*
X762Y614D01*
X785Y614D02*
X791Y614D01*
X827Y614D02*
X828Y614D01*
X843Y614D02*
X848Y614D01*
X850Y614D02*
X858Y614D01*
X597Y613D02*
X604Y613D01*
X624Y613D02*
X630Y613D01*
X665Y613D02*
X679Y613D01*
X687Y613D02*
X703Y613D01*
X711Y613D02*
X715Y613D01*
X719Y613D02*
X723Y613D01*
X728Y613D02*
X733Y613D01*
X740Y613D02*
X744Y613D01*
X760Y613D02*
X762Y613D01*
X785Y613D02*
X791Y613D01*
X842Y613D02*
X847Y613D01*
X851Y613D02*
X858Y613D01*
X597Y612D02*
X604Y612D01*
X623Y612D02*
X630Y612D01*
X666Y612D02*
X679Y612D01*
X686Y612D02*
X703Y612D01*
X711Y612D02*
X715Y612D01*
X720Y612D02*
X723Y612D01*
X729Y612D02*
X734Y612D01*
X741Y612D02*
X744Y612D01*
X761Y612D02*
X763Y612D01*
X785Y612D02*
X791Y612D01*
X842Y612D02*
X847Y612D01*
X852Y612D02*
X858Y612D01*
X596Y611D02*
X604Y611D01*
X623Y611D02*
X629Y611D01*
X668Y611D02*
X679Y611D01*
X686Y611D02*
X696Y611D01*
X700Y611D02*
X704Y611D01*
X711Y611D02*
X714Y611D01*
X721Y611D02*
X724Y611D01*
X730Y611D02*
X734Y611D01*
X743Y611D02*
X744Y611D01*
X762Y611D02*
X763Y611D01*
X785Y611D02*
X792Y611D01*
X841Y611D02*
X847Y611D01*
X853Y611D02*
X858Y611D01*
X596Y610D02*
X605Y610D01*
X624Y610D02*
X629Y610D01*
X671Y610D02*
X678Y610D01*
X686Y610D02*
X696Y610D01*
X701Y610D02*
X704Y610D01*
X711Y610D02*
X714Y610D01*
X722Y610D02*
X724Y610D01*
X730Y610D02*
X735Y610D01*
X763Y610D02*
X763Y610D01*
X785Y610D02*
X793Y610D01*
X840Y610D02*
X847Y610D01*
X854Y610D02*
X857Y610D01*
X595Y609D02*
X605Y609D01*
X624Y609D02*
X628Y609D01*
X687Y609D02*
X696Y609D01*
X702Y609D02*
X705Y609D01*
X711Y609D02*
X714Y609D01*
X723Y609D02*
X724Y609D01*
X731Y609D02*
X735Y609D01*
X756Y609D02*
X758Y609D01*
X785Y609D02*
X793Y609D01*
X838Y609D02*
X847Y609D01*
X855Y609D02*
X857Y609D01*
X595Y608D02*
X606Y608D01*
X624Y608D02*
X628Y608D01*
X688Y608D02*
X696Y608D01*
X703Y608D02*
X708Y608D01*
X710Y608D02*
X714Y608D01*
X723Y608D02*
X725Y608D01*
X732Y608D02*
X735Y608D01*
X756Y608D02*
X759Y608D01*
X784Y608D02*
X794Y608D01*
X838Y608D02*
X847Y608D01*
X594Y607D02*
X608Y607D01*
X624Y607D02*
X627Y607D01*
X653Y607D02*
X654Y607D01*
X693Y607D02*
X696Y607D01*
X703Y607D02*
X714Y607D01*
X724Y607D02*
X725Y607D01*
X732Y607D02*
X735Y607D01*
X756Y607D02*
X760Y607D01*
X784Y607D02*
X793Y607D01*
X839Y607D02*
X847Y607D01*
X593Y606D02*
X609Y606D01*
X625Y606D02*
X626Y606D01*
X652Y606D02*
X655Y606D01*
X694Y606D02*
X696Y606D01*
X703Y606D02*
X714Y606D01*
X724Y606D02*
X726Y606D01*
X733Y606D02*
X735Y606D01*
X756Y606D02*
X760Y606D01*
X784Y606D02*
X787Y606D01*
X829Y606D02*
X831Y606D01*
X840Y606D02*
X847Y606D01*
X593Y605D02*
X613Y605D01*
X625Y605D02*
X626Y605D01*
X652Y605D02*
X656Y605D01*
X694Y605D02*
X697Y605D01*
X703Y605D02*
X714Y605D01*
X724Y605D02*
X726Y605D01*
X733Y605D02*
X735Y605D01*
X755Y605D02*
X761Y605D01*
X784Y605D02*
X788Y605D01*
X826Y605D02*
X833Y605D01*
X840Y605D02*
X847Y605D01*
X592Y604D02*
X613Y604D01*
X651Y604D02*
X657Y604D01*
X695Y604D02*
X697Y604D01*
X702Y604D02*
X714Y604D01*
X724Y604D02*
X727Y604D01*
X734Y604D02*
X735Y604D01*
X755Y604D02*
X760Y604D01*
X784Y604D02*
X789Y604D01*
X825Y604D02*
X833Y604D01*
X841Y604D02*
X847Y604D01*
X591Y603D02*
X613Y603D01*
X650Y603D02*
X657Y603D01*
X694Y603D02*
X713Y603D01*
X724Y603D02*
X727Y603D01*
X735Y603D02*
X735Y603D01*
X754Y603D02*
X760Y603D01*
X783Y603D02*
X790Y603D01*
X825Y603D02*
X834Y603D01*
X842Y603D02*
X847Y603D01*
X590Y602D02*
X613Y602D01*
X650Y602D02*
X658Y602D01*
X694Y602D02*
X713Y602D01*
X723Y602D02*
X727Y602D01*
X753Y602D02*
X759Y602D01*
X783Y602D02*
X792Y602D01*
X824Y602D02*
X834Y602D01*
X843Y602D02*
X847Y602D01*
X590Y601D02*
X614Y601D01*
X640Y601D02*
X641Y601D01*
X649Y601D02*
X658Y601D01*
X666Y601D02*
X671Y601D01*
X683Y601D02*
X704Y601D01*
X710Y601D02*
X713Y601D01*
X723Y601D02*
X727Y601D01*
X752Y601D02*
X758Y601D01*
X783Y601D02*
X793Y601D01*
X825Y601D02*
X833Y601D01*
X844Y601D02*
X847Y601D01*
X589Y600D02*
X602Y600D01*
X604Y600D02*
X614Y600D01*
X639Y600D02*
X641Y600D01*
X649Y600D02*
X658Y600D01*
X665Y600D02*
X672Y600D01*
X682Y600D02*
X702Y600D01*
X711Y600D02*
X713Y600D01*
X722Y600D02*
X727Y600D01*
X751Y600D02*
X757Y600D01*
X782Y600D02*
X794Y600D01*
X844Y600D02*
X847Y600D01*
X588Y599D02*
X599Y599D01*
X606Y599D02*
X615Y599D01*
X638Y599D02*
X641Y599D01*
X648Y599D02*
X658Y599D01*
X664Y599D02*
X672Y599D01*
X681Y599D02*
X701Y599D01*
X711Y599D02*
X713Y599D01*
X721Y599D02*
X727Y599D01*
X750Y599D02*
X757Y599D01*
X782Y599D02*
X790Y599D01*
X845Y599D02*
X847Y599D01*
X587Y598D02*
X598Y598D01*
X610Y598D02*
X616Y598D01*
X638Y598D02*
X641Y598D01*
X647Y598D02*
X658Y598D01*
X664Y598D02*
X671Y598D01*
X681Y598D02*
X699Y598D01*
X711Y598D02*
X713Y598D01*
X721Y598D02*
X726Y598D01*
X749Y598D02*
X757Y598D01*
X781Y598D02*
X787Y598D01*
X845Y598D02*
X847Y598D01*
X586Y597D02*
X597Y597D01*
X638Y597D02*
X640Y597D01*
X645Y597D02*
X657Y597D01*
X665Y597D02*
X670Y597D01*
X681Y597D02*
X698Y597D01*
X711Y597D02*
X713Y597D01*
X720Y597D02*
X726Y597D01*
X748Y597D02*
X757Y597D01*
X781Y597D02*
X787Y597D01*
X845Y597D02*
X847Y597D01*
X586Y596D02*
X597Y596D01*
X644Y596D02*
X649Y596D01*
X653Y596D02*
X655Y596D01*
X681Y596D02*
X697Y596D01*
X711Y596D02*
X713Y596D01*
X719Y596D02*
X725Y596D01*
X747Y596D02*
X758Y596D01*
X780Y596D02*
X788Y596D01*
X845Y596D02*
X847Y596D01*
X585Y595D02*
X596Y595D01*
X642Y595D02*
X647Y595D01*
X681Y595D02*
X687Y595D01*
X691Y595D02*
X696Y595D01*
X704Y595D02*
X705Y595D01*
X711Y595D02*
X713Y595D01*
X718Y595D02*
X724Y595D01*
X746Y595D02*
X753Y595D01*
X779Y595D02*
X789Y595D01*
X829Y595D02*
X830Y595D01*
X840Y595D02*
X841Y595D01*
X844Y595D02*
X847Y595D01*
X584Y594D02*
X597Y594D01*
X639Y594D02*
X646Y594D01*
X675Y594D02*
X675Y594D01*
X682Y594D02*
X686Y594D01*
X692Y594D02*
X694Y594D01*
X703Y594D02*
X705Y594D01*
X711Y594D02*
X713Y594D01*
X717Y594D02*
X723Y594D01*
X745Y594D02*
X753Y594D01*
X779Y594D02*
X790Y594D01*
X829Y594D02*
X832Y594D01*
X841Y594D02*
X847Y594D01*
X583Y593D02*
X599Y593D01*
X639Y593D02*
X647Y593D01*
X674Y593D02*
X676Y593D01*
X682Y593D02*
X686Y593D01*
X703Y593D02*
X705Y593D01*
X711Y593D02*
X713Y593D01*
X716Y593D02*
X722Y593D01*
X743Y593D02*
X753Y593D01*
X779Y593D02*
X791Y593D01*
X830Y593D02*
X833Y593D01*
X842Y593D02*
X847Y593D01*
X582Y592D02*
X600Y592D01*
X639Y592D02*
X647Y592D01*
X674Y592D02*
X676Y592D01*
X682Y592D02*
X686Y592D01*
X702Y592D02*
X704Y592D01*
X711Y592D02*
X713Y592D01*
X715Y592D02*
X721Y592D01*
X742Y592D02*
X753Y592D01*
X779Y592D02*
X792Y592D01*
X831Y592D02*
X834Y592D01*
X843Y592D02*
X847Y592D01*
X581Y591D02*
X600Y591D01*
X621Y591D02*
X622Y591D01*
X640Y591D02*
X648Y591D01*
X673Y591D02*
X676Y591D01*
X683Y591D02*
X685Y591D01*
X702Y591D02*
X703Y591D01*
X711Y591D02*
X720Y591D01*
X740Y591D02*
X753Y591D01*
X779Y591D02*
X783Y591D01*
X788Y591D02*
X793Y591D01*
X832Y591D02*
X834Y591D01*
X843Y591D02*
X847Y591D01*
X580Y590D02*
X599Y590D01*
X619Y590D02*
X622Y590D01*
X641Y590D02*
X650Y590D01*
X673Y590D02*
X676Y590D01*
X683Y590D02*
X685Y590D01*
X702Y590D02*
X702Y590D01*
X710Y590D02*
X718Y590D01*
X739Y590D02*
X742Y590D01*
X750Y590D02*
X753Y590D01*
X780Y590D02*
X783Y590D01*
X834Y590D02*
X835Y590D01*
X844Y590D02*
X847Y590D01*
X578Y589D02*
X599Y589D01*
X618Y589D02*
X622Y589D01*
X642Y589D02*
X651Y589D01*
X673Y589D02*
X676Y589D01*
X683Y589D02*
X685Y589D01*
X710Y589D02*
X717Y589D01*
X752Y589D02*
X753Y589D01*
X780Y589D02*
X783Y589D01*
X845Y589D02*
X847Y589D01*
X577Y588D02*
X588Y588D01*
X591Y588D02*
X599Y588D01*
X617Y588D02*
X621Y588D01*
X643Y588D02*
X652Y588D01*
X672Y588D02*
X676Y588D01*
X684Y588D02*
X684Y588D01*
X710Y588D02*
X716Y588D01*
X752Y588D02*
X753Y588D01*
X762Y588D02*
X769Y588D01*
X781Y588D02*
X783Y588D01*
X845Y588D02*
X847Y588D01*
X576Y587D02*
X587Y587D01*
X592Y587D02*
X599Y587D01*
X617Y587D02*
X620Y587D01*
X645Y587D02*
X653Y587D01*
X672Y587D02*
X675Y587D01*
X710Y587D02*
X715Y587D01*
X753Y587D02*
X753Y587D01*
X761Y587D02*
X768Y587D01*
X781Y587D02*
X783Y587D01*
X845Y587D02*
X847Y587D01*
X576Y586D02*
X586Y586D01*
X593Y586D02*
X599Y586D01*
X605Y586D02*
X606Y586D01*
X617Y586D02*
X619Y586D01*
X648Y586D02*
X653Y586D01*
X672Y586D02*
X675Y586D01*
X710Y586D02*
X712Y586D01*
X761Y586D02*
X767Y586D01*
X781Y586D02*
X783Y586D01*
X845Y586D02*
X847Y586D01*
X577Y585D02*
X585Y585D01*
X594Y585D02*
X599Y585D01*
X605Y585D02*
X608Y585D01*
X617Y585D02*
X617Y585D01*
X630Y585D02*
X630Y585D01*
X649Y585D02*
X652Y585D01*
X671Y585D02*
X675Y585D01*
X710Y585D02*
X711Y585D01*
X745Y585D02*
X746Y585D01*
X761Y585D02*
X766Y585D01*
X782Y585D02*
X783Y585D01*
X844Y585D02*
X847Y585D01*
X577Y584D02*
X584Y584D01*
X595Y584D02*
X600Y584D01*
X605Y584D02*
X608Y584D01*
X628Y584D02*
X630Y584D01*
X649Y584D02*
X652Y584D01*
X660Y584D02*
X661Y584D01*
X671Y584D02*
X674Y584D01*
X710Y584D02*
X710Y584D01*
X745Y584D02*
X747Y584D01*
X760Y584D02*
X765Y584D01*
X782Y584D02*
X784Y584D01*
X843Y584D02*
X847Y584D01*
X577Y583D02*
X583Y583D01*
X597Y583D02*
X601Y583D01*
X605Y583D02*
X608Y583D01*
X628Y583D02*
X630Y583D01*
X650Y583D02*
X652Y583D01*
X660Y583D02*
X661Y583D01*
X671Y583D02*
X674Y583D01*
X745Y583D02*
X748Y583D01*
X757Y583D02*
X764Y583D01*
X781Y583D02*
X784Y583D01*
X843Y583D02*
X846Y583D01*
X576Y582D02*
X582Y582D01*
X598Y582D02*
X609Y582D01*
X627Y582D02*
X629Y582D01*
X650Y582D02*
X653Y582D01*
X660Y582D02*
X661Y582D01*
X672Y582D02*
X673Y582D01*
X740Y582D02*
X740Y582D01*
X745Y582D02*
X748Y582D01*
X756Y582D02*
X763Y582D01*
X781Y582D02*
X784Y582D01*
X843Y582D02*
X846Y582D01*
X573Y581D02*
X581Y581D01*
X599Y581D02*
X613Y581D01*
X627Y581D02*
X629Y581D01*
X651Y581D02*
X654Y581D01*
X660Y581D02*
X661Y581D01*
X740Y581D02*
X740Y581D01*
X756Y581D02*
X762Y581D01*
X782Y581D02*
X784Y581D01*
X843Y581D02*
X846Y581D01*
X570Y580D02*
X580Y580D01*
X601Y580D02*
X615Y580D01*
X627Y580D02*
X629Y580D01*
X636Y580D02*
X637Y580D01*
X651Y580D02*
X655Y580D01*
X661Y580D02*
X661Y580D01*
X740Y580D02*
X741Y580D01*
X756Y580D02*
X761Y580D01*
X782Y580D02*
X784Y580D01*
X803Y580D02*
X804Y580D01*
X823Y580D02*
X825Y580D01*
X844Y580D02*
X846Y580D01*
X567Y579D02*
X580Y579D01*
X602Y579D02*
X616Y579D01*
X627Y579D02*
X629Y579D01*
X632Y579D02*
X641Y579D01*
X651Y579D02*
X656Y579D01*
X740Y579D02*
X741Y579D01*
X757Y579D02*
X759Y579D01*
X783Y579D02*
X784Y579D01*
X802Y579D02*
X804Y579D01*
X822Y579D02*
X826Y579D01*
X845Y579D02*
X845Y579D01*
X565Y578D02*
X579Y578D01*
X604Y578D02*
X616Y578D01*
X627Y578D02*
X643Y578D01*
X652Y578D02*
X655Y578D01*
X722Y578D02*
X724Y578D01*
X740Y578D02*
X741Y578D01*
X772Y578D02*
X774Y578D01*
X801Y578D02*
X804Y578D01*
X822Y578D02*
X827Y578D01*
X564Y577D02*
X578Y577D01*
X607Y577D02*
X615Y577D01*
X627Y577D02*
X644Y577D01*
X709Y577D02*
X709Y577D01*
X720Y577D02*
X725Y577D01*
X740Y577D02*
X740Y577D01*
X771Y577D02*
X777Y577D01*
X801Y577D02*
X804Y577D01*
X822Y577D02*
X828Y577D01*
X562Y576D02*
X577Y576D01*
X612Y576D02*
X612Y576D01*
X628Y576D02*
X644Y576D01*
X707Y576D02*
X711Y576D01*
X774Y576D02*
X779Y576D01*
X800Y576D02*
X803Y576D01*
X822Y576D02*
X829Y576D01*
X560Y575D02*
X577Y575D01*
X628Y575D02*
X643Y575D01*
X707Y575D02*
X712Y575D01*
X777Y575D02*
X780Y575D01*
X800Y575D02*
X803Y575D01*
X821Y575D02*
X824Y575D01*
X828Y575D02*
X830Y575D01*
X559Y574D02*
X576Y574D01*
X629Y574D02*
X642Y574D01*
X706Y574D02*
X713Y574D01*
X735Y574D02*
X735Y574D01*
X778Y574D02*
X782Y574D01*
X799Y574D02*
X803Y574D01*
X821Y574D02*
X823Y574D01*
X830Y574D02*
X830Y574D01*
X557Y573D02*
X576Y573D01*
X633Y573D02*
X641Y573D01*
X706Y573D02*
X714Y573D01*
X735Y573D02*
X735Y573D01*
X780Y573D02*
X782Y573D01*
X799Y573D02*
X803Y573D01*
X821Y573D02*
X823Y573D01*
X831Y573D02*
X831Y573D01*
X556Y572D02*
X576Y572D01*
X634Y572D02*
X639Y572D01*
X706Y572D02*
X708Y572D01*
X712Y572D02*
X715Y572D01*
X735Y572D02*
X736Y572D01*
X761Y572D02*
X761Y572D01*
X781Y572D02*
X783Y572D01*
X799Y572D02*
X802Y572D01*
X821Y572D02*
X823Y572D01*
X555Y571D02*
X575Y571D01*
X613Y571D02*
X615Y571D01*
X635Y571D02*
X638Y571D01*
X691Y571D02*
X691Y571D01*
X706Y571D02*
X708Y571D01*
X715Y571D02*
X715Y571D01*
X734Y571D02*
X736Y571D01*
X761Y571D02*
X762Y571D01*
X781Y571D02*
X783Y571D01*
X798Y571D02*
X802Y571D01*
X821Y571D02*
X823Y571D01*
X553Y570D02*
X575Y570D01*
X612Y570D02*
X615Y570D01*
X691Y570D02*
X692Y570D01*
X705Y570D02*
X709Y570D01*
X733Y570D02*
X735Y570D01*
X761Y570D02*
X763Y570D01*
X782Y570D02*
X783Y570D01*
X798Y570D02*
X802Y570D01*
X821Y570D02*
X823Y570D01*
X552Y569D02*
X575Y569D01*
X610Y569D02*
X615Y569D01*
X671Y569D02*
X671Y569D01*
X690Y569D02*
X692Y569D01*
X704Y569D02*
X709Y569D01*
X719Y569D02*
X722Y569D01*
X732Y569D02*
X735Y569D01*
X760Y569D02*
X763Y569D01*
X784Y569D02*
X784Y569D01*
X797Y569D02*
X801Y569D01*
X820Y569D02*
X823Y569D01*
X552Y568D02*
X576Y568D01*
X609Y568D02*
X616Y568D01*
X671Y568D02*
X671Y568D01*
X690Y568D02*
X692Y568D01*
X703Y568D02*
X709Y568D01*
X716Y568D02*
X723Y568D01*
X731Y568D02*
X735Y568D01*
X759Y568D02*
X763Y568D01*
X797Y568D02*
X801Y568D01*
X820Y568D02*
X824Y568D01*
X551Y567D02*
X576Y567D01*
X608Y567D02*
X617Y567D01*
X671Y567D02*
X672Y567D01*
X690Y567D02*
X692Y567D01*
X703Y567D02*
X709Y567D01*
X714Y567D02*
X722Y567D01*
X728Y567D02*
X734Y567D01*
X757Y567D02*
X763Y567D01*
X797Y567D02*
X801Y567D01*
X820Y567D02*
X825Y567D01*
X840Y567D02*
X840Y567D01*
X551Y566D02*
X576Y566D01*
X606Y566D02*
X618Y566D01*
X671Y566D02*
X672Y566D01*
X689Y566D02*
X693Y566D01*
X701Y566D02*
X707Y566D01*
X717Y566D02*
X720Y566D01*
X756Y566D02*
X763Y566D01*
X796Y566D02*
X800Y566D01*
X820Y566D02*
X826Y566D01*
X840Y566D02*
X841Y566D01*
X551Y565D02*
X577Y565D01*
X605Y565D02*
X610Y565D01*
X612Y565D02*
X620Y565D01*
X671Y565D02*
X671Y565D01*
X689Y565D02*
X693Y565D01*
X700Y565D02*
X704Y565D01*
X754Y565D02*
X763Y565D01*
X796Y565D02*
X800Y565D01*
X820Y565D02*
X827Y565D01*
X840Y565D02*
X841Y565D01*
X551Y564D02*
X577Y564D01*
X585Y564D02*
X587Y564D01*
X605Y564D02*
X605Y564D01*
X614Y564D02*
X621Y564D01*
X671Y564D02*
X671Y564D01*
X689Y564D02*
X694Y564D01*
X699Y564D02*
X703Y564D01*
X752Y564D02*
X763Y564D01*
X796Y564D02*
X800Y564D01*
X820Y564D02*
X828Y564D01*
X839Y564D02*
X842Y564D01*
X551Y563D02*
X578Y563D01*
X584Y563D02*
X587Y563D01*
X614Y563D02*
X621Y563D01*
X688Y563D02*
X703Y563D01*
X750Y563D02*
X763Y563D01*
X796Y563D02*
X799Y563D01*
X819Y563D02*
X830Y563D01*
X839Y563D02*
X842Y563D01*
X551Y562D02*
X579Y562D01*
X584Y562D02*
X587Y562D01*
X615Y562D02*
X620Y562D01*
X688Y562D02*
X703Y562D01*
X747Y562D02*
X754Y562D01*
X760Y562D02*
X762Y562D01*
X796Y562D02*
X799Y562D01*
X819Y562D02*
X832Y562D01*
X839Y562D02*
X842Y562D01*
X551Y561D02*
X579Y561D01*
X584Y561D02*
X587Y561D01*
X616Y561D02*
X619Y561D01*
X688Y561D02*
X703Y561D01*
X745Y561D02*
X754Y561D01*
X796Y561D02*
X798Y561D01*
X819Y561D02*
X833Y561D01*
X839Y561D02*
X842Y561D01*
X551Y560D02*
X580Y560D01*
X584Y560D02*
X586Y560D01*
X687Y560D02*
X703Y560D01*
X741Y560D02*
X754Y560D01*
X796Y560D02*
X798Y560D01*
X818Y560D02*
X825Y560D01*
X839Y560D02*
X842Y560D01*
X551Y559D02*
X581Y559D01*
X644Y559D02*
X649Y559D01*
X686Y559D02*
X704Y559D01*
X738Y559D02*
X755Y559D01*
X796Y559D02*
X797Y559D01*
X818Y559D02*
X824Y559D01*
X838Y559D02*
X842Y559D01*
X551Y558D02*
X582Y558D01*
X642Y558D02*
X650Y558D01*
X685Y558D02*
X705Y558D01*
X733Y558D02*
X755Y558D01*
X789Y558D02*
X790Y558D01*
X817Y558D02*
X823Y558D01*
X838Y558D02*
X842Y558D01*
X551Y557D02*
X583Y557D01*
X640Y557D02*
X650Y557D01*
X680Y557D02*
X712Y557D01*
X719Y557D02*
X755Y557D01*
X786Y557D02*
X791Y557D01*
X817Y557D02*
X823Y557D01*
X838Y557D02*
X842Y557D01*
X551Y556D02*
X584Y556D01*
X638Y556D02*
X650Y556D01*
X661Y556D02*
X754Y556D01*
X785Y556D02*
X790Y556D01*
X816Y556D02*
X823Y556D01*
X838Y556D02*
X841Y556D01*
X551Y555D02*
X585Y555D01*
X637Y555D02*
X645Y555D01*
X658Y555D02*
X751Y555D01*
X784Y555D02*
X789Y555D01*
X816Y555D02*
X823Y555D01*
X838Y555D02*
X841Y555D01*
X551Y554D02*
X586Y554D01*
X636Y554D02*
X644Y554D01*
X656Y554D02*
X742Y554D01*
X778Y554D02*
X788Y554D01*
X815Y554D02*
X823Y554D01*
X838Y554D02*
X841Y554D01*
X552Y553D02*
X587Y553D01*
X635Y553D02*
X644Y553D01*
X655Y553D02*
X740Y553D01*
X778Y553D02*
X787Y553D01*
X815Y553D02*
X823Y553D01*
X839Y553D02*
X841Y553D01*
X552Y552D02*
X588Y552D01*
X635Y552D02*
X644Y552D01*
X654Y552D02*
X739Y552D01*
X777Y552D02*
X786Y552D01*
X814Y552D02*
X823Y552D01*
X839Y552D02*
X840Y552D01*
X552Y551D02*
X589Y551D01*
X634Y551D02*
X645Y551D01*
X654Y551D02*
X740Y551D01*
X776Y551D02*
X786Y551D01*
X813Y551D02*
X824Y551D01*
X839Y551D02*
X840Y551D01*
X552Y550D02*
X590Y550D01*
X632Y550D02*
X645Y550D01*
X653Y550D02*
X663Y550D01*
X667Y550D02*
X741Y550D01*
X772Y550D02*
X786Y550D01*
X812Y550D02*
X825Y550D01*
X839Y550D02*
X840Y550D01*
X552Y549D02*
X591Y549D01*
X631Y549D02*
X646Y549D01*
X652Y549D02*
X662Y549D01*
X668Y549D02*
X743Y549D01*
X771Y549D02*
X786Y549D01*
X811Y549D02*
X825Y549D01*
X552Y548D02*
X590Y548D01*
X628Y548D02*
X646Y548D01*
X651Y548D02*
X662Y548D01*
X667Y548D02*
X755Y548D01*
X770Y548D02*
X786Y548D01*
X810Y548D02*
X826Y548D01*
X553Y547D02*
X582Y547D01*
X623Y547D02*
X647Y547D01*
X650Y547D02*
X662Y547D01*
X667Y547D02*
X761Y547D01*
X770Y547D02*
X787Y547D01*
X809Y547D02*
X821Y547D01*
X825Y547D02*
X827Y547D01*
X553Y546D02*
X578Y546D01*
X620Y546D02*
X662Y546D01*
X666Y546D02*
X787Y546D01*
X808Y546D02*
X819Y546D01*
X553Y545D02*
X576Y545D01*
X618Y545D02*
X629Y545D01*
X632Y545D02*
X661Y545D01*
X666Y545D02*
X700Y545D01*
X703Y545D02*
X788Y545D01*
X807Y545D02*
X819Y545D01*
X554Y544D02*
X576Y544D01*
X615Y544D02*
X625Y544D01*
X634Y544D02*
X661Y544D01*
X665Y544D02*
X676Y544D01*
X680Y544D02*
X695Y544D01*
X713Y544D02*
X788Y544D01*
X805Y544D02*
X819Y544D01*
X555Y543D02*
X558Y543D01*
X562Y543D02*
X576Y543D01*
X613Y543D02*
X624Y543D01*
X635Y543D02*
X660Y543D01*
X665Y543D02*
X673Y543D01*
X680Y543D02*
X693Y543D01*
X722Y543D02*
X790Y543D01*
X803Y543D02*
X819Y543D01*
X563Y542D02*
X578Y542D01*
X611Y542D02*
X622Y542D01*
X634Y542D02*
X659Y542D01*
X664Y542D02*
X672Y542D01*
X680Y542D02*
X692Y542D01*
X732Y542D02*
X793Y542D01*
X799Y542D02*
X819Y542D01*
X856Y542D02*
X858Y542D01*
X563Y541D02*
X580Y541D01*
X608Y541D02*
X622Y541D01*
X634Y541D02*
X657Y541D01*
X663Y541D02*
X670Y541D01*
X679Y541D02*
X690Y541D01*
X743Y541D02*
X819Y541D01*
X855Y541D02*
X858Y541D01*
X563Y540D02*
X585Y540D01*
X605Y540D02*
X621Y540D01*
X631Y540D02*
X656Y540D01*
X663Y540D02*
X669Y540D01*
X678Y540D02*
X689Y540D01*
X754Y540D02*
X819Y540D01*
X855Y540D02*
X858Y540D01*
X564Y539D02*
X621Y539D01*
X627Y539D02*
X655Y539D01*
X662Y539D02*
X668Y539D01*
X677Y539D02*
X688Y539D01*
X762Y539D02*
X820Y539D01*
X854Y539D02*
X858Y539D01*
X565Y538D02*
X654Y538D01*
X661Y538D02*
X667Y538D01*
X676Y538D02*
X687Y538D01*
X768Y538D02*
X821Y538D01*
X855Y538D02*
X858Y538D01*
X565Y537D02*
X654Y537D01*
X660Y537D02*
X667Y537D01*
X674Y537D02*
X686Y537D01*
X772Y537D02*
X821Y537D01*
X855Y537D02*
X857Y537D01*
X566Y536D02*
X614Y536D01*
X618Y536D02*
X654Y536D01*
X659Y536D02*
X667Y536D01*
X672Y536D02*
X685Y536D01*
X775Y536D02*
X815Y536D01*
X818Y536D02*
X822Y536D01*
X567Y535D02*
X598Y535D01*
X601Y535D02*
X611Y535D01*
X619Y535D02*
X683Y535D01*
X777Y535D02*
X814Y535D01*
X821Y535D02*
X823Y535D01*
X567Y534D02*
X596Y534D01*
X603Y534D02*
X610Y534D01*
X619Y534D02*
X631Y534D01*
X633Y534D02*
X682Y534D01*
X779Y534D02*
X798Y534D01*
X801Y534D02*
X814Y534D01*
X823Y534D02*
X824Y534D01*
X568Y533D02*
X594Y533D01*
X604Y533D02*
X609Y533D01*
X619Y533D02*
X630Y533D01*
X634Y533D02*
X681Y533D01*
X781Y533D02*
X797Y533D01*
X803Y533D02*
X815Y533D01*
X825Y533D02*
X825Y533D01*
X569Y532D02*
X593Y532D01*
X604Y532D02*
X608Y532D01*
X620Y532D02*
X629Y532D01*
X635Y532D02*
X680Y532D01*
X783Y532D02*
X798Y532D01*
X805Y532D02*
X815Y532D01*
X826Y532D02*
X827Y532D01*
X832Y532D02*
X832Y532D01*
X572Y531D02*
X590Y531D01*
X603Y531D02*
X608Y531D01*
X614Y531D02*
X615Y531D01*
X620Y531D02*
X629Y531D01*
X635Y531D02*
X678Y531D01*
X784Y531D02*
X798Y531D01*
X806Y531D02*
X816Y531D01*
X832Y531D02*
X832Y531D01*
X600Y530D02*
X608Y530D01*
X613Y530D02*
X616Y530D01*
X621Y530D02*
X629Y530D01*
X634Y530D02*
X677Y530D01*
X786Y530D02*
X799Y530D01*
X807Y530D02*
X818Y530D01*
X831Y530D02*
X832Y530D01*
X597Y529D02*
X608Y529D01*
X611Y529D02*
X616Y529D01*
X622Y529D02*
X629Y529D01*
X634Y529D02*
X675Y529D01*
X787Y529D02*
X800Y529D01*
X809Y529D02*
X819Y529D01*
X831Y529D02*
X832Y529D01*
X596Y528D02*
X616Y528D01*
X623Y528D02*
X630Y528D01*
X633Y528D02*
X674Y528D01*
X788Y528D02*
X801Y528D01*
X810Y528D02*
X821Y528D01*
X830Y528D02*
X832Y528D01*
X595Y527D02*
X616Y527D01*
X625Y527D02*
X670Y527D01*
X789Y527D02*
X803Y527D01*
X812Y527D02*
X822Y527D01*
X830Y527D02*
X832Y527D01*
X853Y527D02*
X855Y527D01*
X595Y526D02*
X616Y526D01*
X626Y526D02*
X667Y526D01*
X791Y526D02*
X804Y526D01*
X819Y526D02*
X824Y526D01*
X829Y526D02*
X832Y526D01*
X851Y526D02*
X857Y526D01*
X594Y525D02*
X616Y525D01*
X626Y525D02*
X665Y525D01*
X792Y525D02*
X806Y525D01*
X821Y525D02*
X832Y525D01*
X594Y524D02*
X617Y524D01*
X626Y524D02*
X662Y524D01*
X794Y524D02*
X808Y524D01*
X822Y524D02*
X832Y524D01*
X593Y523D02*
X617Y523D01*
X626Y523D02*
X660Y523D01*
X796Y523D02*
X811Y523D01*
X823Y523D02*
X832Y523D01*
X593Y522D02*
X619Y522D01*
X624Y522D02*
X658Y522D01*
X798Y522D02*
X817Y522D01*
X823Y522D02*
X832Y522D01*
X593Y521D02*
X656Y521D01*
X801Y521D02*
X820Y521D01*
X824Y521D02*
X832Y521D01*
X853Y521D02*
X853Y521D01*
X592Y520D02*
X654Y520D01*
X803Y520D02*
X821Y520D01*
X824Y520D02*
X832Y520D01*
X852Y520D02*
X854Y520D01*
X592Y519D02*
X653Y519D01*
X806Y519D02*
X822Y519D01*
X825Y519D02*
X832Y519D01*
X851Y519D02*
X854Y519D01*
X592Y518D02*
X651Y518D01*
X808Y518D02*
X823Y518D01*
X825Y518D02*
X832Y518D01*
X850Y518D02*
X854Y518D01*
X592Y517D02*
X649Y517D01*
X810Y517D02*
X832Y517D01*
X849Y517D02*
X854Y517D01*
X591Y516D02*
X647Y516D01*
X812Y516D02*
X833Y516D01*
X848Y516D02*
X854Y516D01*
X591Y515D02*
X646Y515D01*
X814Y515D02*
X833Y515D01*
X847Y515D02*
X854Y515D01*
X591Y514D02*
X644Y514D01*
X815Y514D02*
X834Y514D01*
X846Y514D02*
X853Y514D01*
X591Y513D02*
X642Y513D01*
X817Y513D02*
X836Y513D01*
X844Y513D02*
X851Y513D01*
X591Y512D02*
X641Y512D01*
X818Y512D02*
X849Y512D01*
X590Y511D02*
X639Y511D01*
X820Y511D02*
X849Y511D01*
X590Y510D02*
X638Y510D01*
X821Y510D02*
X849Y510D01*
X590Y509D02*
X636Y509D01*
X822Y509D02*
X849Y509D01*
X590Y508D02*
X635Y508D01*
X823Y508D02*
X849Y508D01*
X590Y507D02*
X634Y507D01*
X825Y507D02*
X849Y507D01*
X590Y506D02*
X632Y506D01*
X826Y506D02*
X850Y506D01*
X590Y505D02*
X599Y505D01*
X605Y505D02*
X631Y505D01*
X827Y505D02*
X851Y505D01*
X590Y504D02*
X596Y504D01*
X606Y504D02*
X629Y504D01*
X828Y504D02*
X852Y504D01*
X589Y503D02*
X594Y503D01*
X605Y503D02*
X627Y503D01*
X829Y503D02*
X853Y503D01*
X589Y502D02*
X593Y502D01*
X605Y502D02*
X625Y502D01*
X830Y502D02*
X844Y502D01*
X849Y502D02*
X853Y502D01*
X589Y501D02*
X593Y501D01*
X603Y501D02*
X623Y501D01*
X831Y501D02*
X842Y501D01*
X850Y501D02*
X854Y501D01*
X589Y500D02*
X593Y500D01*
X602Y500D02*
X621Y500D01*
X832Y500D02*
X841Y500D01*
X851Y500D02*
X855Y500D01*
X589Y499D02*
X594Y499D01*
X599Y499D02*
X613Y499D01*
X833Y499D02*
X845Y499D01*
X852Y499D02*
X856Y499D01*
X589Y498D02*
X612Y498D01*
X834Y498D02*
X846Y498D01*
X853Y498D02*
X857Y498D01*
X589Y497D02*
X611Y497D01*
X835Y497D02*
X848Y497D01*
X854Y497D02*
X857Y497D01*
X589Y496D02*
X611Y496D01*
X836Y496D02*
X849Y496D01*
X855Y496D02*
X857Y496D01*
X589Y495D02*
X611Y495D01*
X837Y495D02*
X850Y495D01*
X856Y495D02*
X857Y495D01*
X589Y494D02*
X611Y494D01*
X838Y494D02*
X851Y494D01*
X589Y493D02*
X612Y493D01*
X839Y493D02*
X852Y493D01*
X590Y492D02*
X612Y492D01*
X840Y492D02*
X853Y492D01*
X590Y491D02*
X612Y491D01*
X841Y491D02*
X853Y491D01*
X591Y490D02*
X612Y490D01*
X843Y490D02*
X854Y490D01*
X591Y489D02*
X612Y489D01*
X844Y489D02*
X855Y489D01*
X592Y488D02*
X612Y488D01*
X845Y488D02*
X856Y488D01*
X593Y487D02*
X612Y487D01*
X846Y487D02*
X856Y487D01*
X594Y486D02*
X612Y486D01*
X848Y486D02*
X857Y486D01*
X595Y485D02*
X612Y485D01*
X849Y485D02*
X857Y485D01*
X596Y484D02*
X612Y484D01*
X851Y484D02*
X858Y484D01*
X597Y483D02*
X612Y483D01*
X853Y483D02*
X858Y483D01*
X599Y482D02*
X611Y482D01*
X855Y482D02*
X857Y482D01*
X600Y481D02*
X610Y481D01*
X601Y480D02*
X609Y480D01*
X603Y479D02*
X607Y479D01*
D02*
G04 End of Copper1*
M02*