G04 MADE WITH FRITZING*
G04 WWW.FRITZING.ORG*
G04 DOUBLE SIDED*
G04 HOLES PLATED*
G04 CONTOUR ON CENTER OF CONTOUR VECTOR*
%ASAXBY*%
%FSLAX23Y23*%
%MOIN*%
%OFA0B0*%
%SFA1.0B1.0*%
%ADD10C,0.085000*%
%ADD11C,0.049370*%
%ADD12C,0.088000*%
%ADD13C,0.080000*%
%ADD14C,0.072992*%
%ADD15C,0.096614*%
%ADD16C,0.100000*%
%ADD17C,0.069370*%
%ADD18C,0.097695*%
%ADD19C,0.097722*%
%ADD20C,0.054000*%
%ADD21C,0.080925*%
%ADD22C,0.080866*%
%ADD23R,0.072992X0.072992*%
%ADD24R,0.085000X0.085000*%
%ADD25R,0.079972X0.080000*%
%ADD26R,0.001000X0.001000*%
%LNMASK0*%
G90*
G70*
G54D10*
X1647Y382D03*
X1647Y482D03*
X1647Y582D03*
X1647Y682D03*
X1647Y782D03*
X1647Y882D03*
X1647Y982D03*
X1647Y1082D03*
X1647Y1182D03*
X1647Y1282D03*
X1647Y1382D03*
X1647Y1482D03*
X1647Y1582D03*
X1314Y1682D03*
X1314Y1582D03*
X1314Y1482D03*
X1314Y1382D03*
X1314Y1282D03*
X1314Y1182D03*
X1314Y1082D03*
X1314Y982D03*
X1314Y882D03*
X1314Y782D03*
X1314Y682D03*
X1314Y582D03*
X1314Y482D03*
X1314Y382D03*
X1647Y1682D03*
G54D11*
X2194Y1482D03*
X1514Y112D03*
X1444Y212D03*
X1744Y2432D03*
X2294Y1472D03*
G54D12*
X1714Y1882D03*
X1614Y1882D03*
X1354Y1882D03*
X1254Y1882D03*
X884Y1882D03*
X784Y1882D03*
X1154Y1082D03*
X1154Y982D03*
X1154Y882D03*
X1154Y782D03*
X1154Y682D03*
X1154Y582D03*
X324Y1082D03*
X324Y982D03*
X324Y882D03*
X324Y782D03*
X1174Y1682D03*
X1174Y1582D03*
X1174Y1482D03*
X1174Y1382D03*
G54D13*
X1774Y1082D03*
X1774Y982D03*
G54D14*
X184Y1182D03*
X184Y1280D03*
G54D10*
X174Y942D03*
X174Y542D03*
G54D12*
X1884Y2382D03*
X1884Y2282D03*
X1884Y2182D03*
X2254Y1602D03*
X1784Y632D03*
X1784Y732D03*
X1784Y832D03*
X324Y482D03*
X475Y2482D03*
X575Y2482D03*
X2784Y2082D03*
X2784Y2182D03*
X1944Y1382D03*
X1944Y1282D03*
X1944Y1182D03*
X1944Y1082D03*
X1944Y982D03*
X1944Y882D03*
X1944Y782D03*
X1944Y682D03*
X2044Y682D03*
X2044Y782D03*
X2044Y882D03*
X2044Y982D03*
X2044Y1082D03*
X2044Y1182D03*
X2044Y1282D03*
X2044Y1382D03*
G54D15*
X284Y2482D03*
X2884Y282D03*
X2884Y2482D03*
X284Y282D03*
G54D16*
X2584Y1385D03*
X2584Y1679D03*
X2584Y1088D03*
X2485Y1188D03*
X2484Y1582D03*
X2977Y1188D03*
X2977Y1582D03*
G54D13*
X1264Y2112D03*
X1364Y2112D03*
X1264Y2302D03*
X1364Y2302D03*
G54D17*
X684Y2232D03*
X984Y2232D03*
X684Y2032D03*
X984Y2032D03*
G54D18*
X184Y2082D03*
G54D19*
X381Y2279D03*
X381Y2180D03*
G54D18*
X381Y1984D03*
G54D19*
X381Y1885D03*
G54D20*
X86Y2279D03*
X86Y1885D03*
X184Y1885D03*
X381Y2082D03*
X184Y2279D03*
G54D10*
X1484Y2482D03*
X1484Y2082D03*
X1674Y2482D03*
X1674Y2082D03*
X984Y2412D03*
X1084Y2412D03*
X704Y2412D03*
X804Y2412D03*
G54D13*
X424Y1682D03*
X424Y1582D03*
X424Y1482D03*
X424Y1382D03*
X424Y1282D03*
X424Y1182D03*
X424Y1082D03*
X424Y982D03*
X424Y882D03*
X424Y782D03*
X424Y682D03*
X424Y582D03*
X424Y482D03*
X424Y382D03*
X424Y282D03*
X1024Y1682D03*
X1024Y1582D03*
X1024Y1482D03*
X1024Y1382D03*
X1024Y1282D03*
X1024Y1182D03*
X1024Y1082D03*
X1024Y982D03*
X1024Y882D03*
X1024Y782D03*
X1024Y682D03*
X1024Y582D03*
X1024Y482D03*
X1024Y382D03*
X1024Y282D03*
G54D21*
X1994Y1812D03*
G54D22*
X1994Y1619D03*
G54D23*
X184Y1182D03*
G54D24*
X984Y2412D03*
X704Y2412D03*
G54D25*
X424Y1682D03*
G54D26*
X650Y2267D02*
X718Y2267D01*
X950Y2267D02*
X1018Y2267D01*
X650Y2266D02*
X718Y2266D01*
X950Y2266D02*
X1018Y2266D01*
X650Y2265D02*
X718Y2265D01*
X950Y2265D02*
X1018Y2265D01*
X650Y2264D02*
X718Y2264D01*
X950Y2264D02*
X1018Y2264D01*
X650Y2263D02*
X718Y2263D01*
X950Y2263D02*
X1018Y2263D01*
X650Y2262D02*
X718Y2262D01*
X950Y2262D02*
X1018Y2262D01*
X650Y2261D02*
X718Y2261D01*
X950Y2261D02*
X1018Y2261D01*
X650Y2260D02*
X718Y2260D01*
X950Y2260D02*
X1018Y2260D01*
X650Y2259D02*
X718Y2259D01*
X950Y2259D02*
X1018Y2259D01*
X650Y2258D02*
X718Y2258D01*
X950Y2258D02*
X1018Y2258D01*
X650Y2257D02*
X718Y2257D01*
X950Y2257D02*
X1018Y2257D01*
X650Y2256D02*
X718Y2256D01*
X950Y2256D02*
X1018Y2256D01*
X650Y2255D02*
X718Y2255D01*
X950Y2255D02*
X1018Y2255D01*
X650Y2254D02*
X718Y2254D01*
X950Y2254D02*
X1018Y2254D01*
X650Y2253D02*
X718Y2253D01*
X950Y2253D02*
X1018Y2253D01*
X650Y2252D02*
X718Y2252D01*
X950Y2252D02*
X1018Y2252D01*
X650Y2251D02*
X718Y2251D01*
X950Y2251D02*
X1018Y2251D01*
X650Y2250D02*
X718Y2250D01*
X950Y2250D02*
X1018Y2250D01*
X650Y2249D02*
X718Y2249D01*
X950Y2249D02*
X1018Y2249D01*
X650Y2248D02*
X718Y2248D01*
X950Y2248D02*
X1018Y2248D01*
X650Y2247D02*
X679Y2247D01*
X688Y2247D02*
X718Y2247D01*
X950Y2247D02*
X979Y2247D01*
X988Y2247D02*
X1018Y2247D01*
X650Y2246D02*
X677Y2246D01*
X691Y2246D02*
X718Y2246D01*
X950Y2246D02*
X977Y2246D01*
X991Y2246D02*
X1018Y2246D01*
X650Y2245D02*
X675Y2245D01*
X693Y2245D02*
X718Y2245D01*
X950Y2245D02*
X975Y2245D01*
X992Y2245D02*
X1018Y2245D01*
X650Y2244D02*
X674Y2244D01*
X694Y2244D02*
X718Y2244D01*
X950Y2244D02*
X974Y2244D01*
X994Y2244D02*
X1018Y2244D01*
X650Y2243D02*
X673Y2243D01*
X695Y2243D02*
X718Y2243D01*
X950Y2243D02*
X973Y2243D01*
X995Y2243D02*
X1018Y2243D01*
X650Y2242D02*
X672Y2242D01*
X696Y2242D02*
X718Y2242D01*
X950Y2242D02*
X972Y2242D01*
X996Y2242D02*
X1018Y2242D01*
X650Y2241D02*
X671Y2241D01*
X696Y2241D02*
X718Y2241D01*
X950Y2241D02*
X971Y2241D01*
X996Y2241D02*
X1018Y2241D01*
X650Y2240D02*
X670Y2240D01*
X697Y2240D02*
X718Y2240D01*
X950Y2240D02*
X970Y2240D01*
X997Y2240D02*
X1018Y2240D01*
X650Y2239D02*
X670Y2239D01*
X698Y2239D02*
X718Y2239D01*
X950Y2239D02*
X970Y2239D01*
X998Y2239D02*
X1018Y2239D01*
X650Y2238D02*
X669Y2238D01*
X698Y2238D02*
X718Y2238D01*
X950Y2238D02*
X969Y2238D01*
X998Y2238D02*
X1018Y2238D01*
X650Y2237D02*
X669Y2237D01*
X698Y2237D02*
X718Y2237D01*
X950Y2237D02*
X969Y2237D01*
X998Y2237D02*
X1018Y2237D01*
X650Y2236D02*
X669Y2236D01*
X699Y2236D02*
X718Y2236D01*
X950Y2236D02*
X969Y2236D01*
X999Y2236D02*
X1018Y2236D01*
X650Y2235D02*
X669Y2235D01*
X699Y2235D02*
X718Y2235D01*
X950Y2235D02*
X969Y2235D01*
X999Y2235D02*
X1018Y2235D01*
X650Y2234D02*
X669Y2234D01*
X699Y2234D02*
X718Y2234D01*
X950Y2234D02*
X969Y2234D01*
X999Y2234D02*
X1018Y2234D01*
X650Y2233D02*
X669Y2233D01*
X699Y2233D02*
X718Y2233D01*
X950Y2233D02*
X969Y2233D01*
X999Y2233D02*
X1018Y2233D01*
X650Y2232D02*
X669Y2232D01*
X699Y2232D02*
X718Y2232D01*
X950Y2232D02*
X969Y2232D01*
X999Y2232D02*
X1018Y2232D01*
X650Y2231D02*
X669Y2231D01*
X699Y2231D02*
X718Y2231D01*
X950Y2231D02*
X969Y2231D01*
X999Y2231D02*
X1018Y2231D01*
X650Y2230D02*
X669Y2230D01*
X699Y2230D02*
X718Y2230D01*
X950Y2230D02*
X969Y2230D01*
X999Y2230D02*
X1018Y2230D01*
X650Y2229D02*
X669Y2229D01*
X698Y2229D02*
X718Y2229D01*
X950Y2229D02*
X969Y2229D01*
X998Y2229D02*
X1018Y2229D01*
X650Y2228D02*
X669Y2228D01*
X698Y2228D02*
X718Y2228D01*
X950Y2228D02*
X969Y2228D01*
X998Y2228D02*
X1018Y2228D01*
X650Y2227D02*
X670Y2227D01*
X698Y2227D02*
X718Y2227D01*
X950Y2227D02*
X970Y2227D01*
X998Y2227D02*
X1018Y2227D01*
X650Y2226D02*
X670Y2226D01*
X697Y2226D02*
X718Y2226D01*
X950Y2226D02*
X970Y2226D01*
X997Y2226D02*
X1018Y2226D01*
X650Y2225D02*
X671Y2225D01*
X697Y2225D02*
X718Y2225D01*
X950Y2225D02*
X971Y2225D01*
X997Y2225D02*
X1018Y2225D01*
X650Y2224D02*
X672Y2224D01*
X696Y2224D02*
X718Y2224D01*
X950Y2224D02*
X972Y2224D01*
X996Y2224D02*
X1018Y2224D01*
X650Y2223D02*
X672Y2223D01*
X695Y2223D02*
X718Y2223D01*
X950Y2223D02*
X972Y2223D01*
X995Y2223D02*
X1018Y2223D01*
X650Y2222D02*
X673Y2222D01*
X694Y2222D02*
X718Y2222D01*
X950Y2222D02*
X973Y2222D01*
X994Y2222D02*
X1018Y2222D01*
X650Y2221D02*
X675Y2221D01*
X693Y2221D02*
X718Y2221D01*
X950Y2221D02*
X975Y2221D01*
X993Y2221D02*
X1018Y2221D01*
X650Y2220D02*
X676Y2220D01*
X691Y2220D02*
X718Y2220D01*
X950Y2220D02*
X976Y2220D01*
X991Y2220D02*
X1018Y2220D01*
X650Y2219D02*
X678Y2219D01*
X689Y2219D02*
X718Y2219D01*
X950Y2219D02*
X978Y2219D01*
X989Y2219D02*
X1018Y2219D01*
X650Y2218D02*
X718Y2218D01*
X950Y2218D02*
X1018Y2218D01*
X650Y2217D02*
X718Y2217D01*
X950Y2217D02*
X1018Y2217D01*
X650Y2216D02*
X718Y2216D01*
X950Y2216D02*
X1018Y2216D01*
X650Y2215D02*
X718Y2215D01*
X950Y2215D02*
X1018Y2215D01*
X650Y2214D02*
X718Y2214D01*
X950Y2214D02*
X1018Y2214D01*
X650Y2213D02*
X718Y2213D01*
X950Y2213D02*
X1018Y2213D01*
X650Y2212D02*
X718Y2212D01*
X950Y2212D02*
X1018Y2212D01*
X650Y2211D02*
X718Y2211D01*
X950Y2211D02*
X1018Y2211D01*
X650Y2210D02*
X718Y2210D01*
X950Y2210D02*
X1018Y2210D01*
X650Y2209D02*
X718Y2209D01*
X950Y2209D02*
X1018Y2209D01*
X650Y2208D02*
X718Y2208D01*
X950Y2208D02*
X1018Y2208D01*
X650Y2207D02*
X718Y2207D01*
X950Y2207D02*
X1018Y2207D01*
X650Y2206D02*
X718Y2206D01*
X950Y2206D02*
X1018Y2206D01*
X650Y2205D02*
X718Y2205D01*
X950Y2205D02*
X1018Y2205D01*
X650Y2204D02*
X718Y2204D01*
X950Y2204D02*
X1018Y2204D01*
X650Y2203D02*
X718Y2203D01*
X950Y2203D02*
X1018Y2203D01*
X650Y2202D02*
X718Y2202D01*
X950Y2202D02*
X1018Y2202D01*
X650Y2201D02*
X718Y2201D01*
X950Y2201D02*
X1018Y2201D01*
X650Y2200D02*
X718Y2200D01*
X950Y2200D02*
X1018Y2200D01*
X650Y2199D02*
X718Y2199D01*
X950Y2199D02*
X1018Y2199D01*
X650Y2067D02*
X718Y2067D01*
X950Y2067D02*
X1018Y2067D01*
X650Y2066D02*
X718Y2066D01*
X950Y2066D02*
X1018Y2066D01*
X650Y2065D02*
X718Y2065D01*
X950Y2065D02*
X1018Y2065D01*
X650Y2064D02*
X718Y2064D01*
X950Y2064D02*
X1018Y2064D01*
X650Y2063D02*
X718Y2063D01*
X950Y2063D02*
X1018Y2063D01*
X650Y2062D02*
X718Y2062D01*
X950Y2062D02*
X1018Y2062D01*
X650Y2061D02*
X718Y2061D01*
X950Y2061D02*
X1018Y2061D01*
X650Y2060D02*
X718Y2060D01*
X950Y2060D02*
X1018Y2060D01*
X650Y2059D02*
X718Y2059D01*
X950Y2059D02*
X1018Y2059D01*
X650Y2058D02*
X718Y2058D01*
X950Y2058D02*
X1018Y2058D01*
X650Y2057D02*
X718Y2057D01*
X950Y2057D02*
X1018Y2057D01*
X650Y2056D02*
X718Y2056D01*
X950Y2056D02*
X1018Y2056D01*
X650Y2055D02*
X718Y2055D01*
X950Y2055D02*
X1018Y2055D01*
X650Y2054D02*
X718Y2054D01*
X950Y2054D02*
X1018Y2054D01*
X650Y2053D02*
X718Y2053D01*
X950Y2053D02*
X1018Y2053D01*
X650Y2052D02*
X718Y2052D01*
X950Y2052D02*
X1018Y2052D01*
X650Y2051D02*
X718Y2051D01*
X950Y2051D02*
X1018Y2051D01*
X650Y2050D02*
X718Y2050D01*
X950Y2050D02*
X1018Y2050D01*
X650Y2049D02*
X718Y2049D01*
X950Y2049D02*
X1018Y2049D01*
X650Y2048D02*
X718Y2048D01*
X950Y2048D02*
X1018Y2048D01*
X650Y2047D02*
X679Y2047D01*
X688Y2047D02*
X718Y2047D01*
X950Y2047D02*
X979Y2047D01*
X988Y2047D02*
X1018Y2047D01*
X650Y2046D02*
X677Y2046D01*
X691Y2046D02*
X718Y2046D01*
X950Y2046D02*
X977Y2046D01*
X991Y2046D02*
X1018Y2046D01*
X650Y2045D02*
X675Y2045D01*
X693Y2045D02*
X718Y2045D01*
X950Y2045D02*
X975Y2045D01*
X993Y2045D02*
X1018Y2045D01*
X650Y2044D02*
X674Y2044D01*
X694Y2044D02*
X718Y2044D01*
X950Y2044D02*
X974Y2044D01*
X994Y2044D02*
X1018Y2044D01*
X650Y2043D02*
X673Y2043D01*
X695Y2043D02*
X718Y2043D01*
X950Y2043D02*
X973Y2043D01*
X995Y2043D02*
X1018Y2043D01*
X650Y2042D02*
X672Y2042D01*
X696Y2042D02*
X718Y2042D01*
X950Y2042D02*
X972Y2042D01*
X996Y2042D02*
X1018Y2042D01*
X650Y2041D02*
X671Y2041D01*
X697Y2041D02*
X718Y2041D01*
X950Y2041D02*
X971Y2041D01*
X996Y2041D02*
X1018Y2041D01*
X650Y2040D02*
X670Y2040D01*
X697Y2040D02*
X718Y2040D01*
X950Y2040D02*
X970Y2040D01*
X997Y2040D02*
X1018Y2040D01*
X650Y2039D02*
X670Y2039D01*
X698Y2039D02*
X718Y2039D01*
X950Y2039D02*
X970Y2039D01*
X998Y2039D02*
X1018Y2039D01*
X650Y2038D02*
X669Y2038D01*
X698Y2038D02*
X718Y2038D01*
X950Y2038D02*
X969Y2038D01*
X998Y2038D02*
X1018Y2038D01*
X650Y2037D02*
X669Y2037D01*
X698Y2037D02*
X718Y2037D01*
X950Y2037D02*
X969Y2037D01*
X998Y2037D02*
X1018Y2037D01*
X650Y2036D02*
X669Y2036D01*
X699Y2036D02*
X718Y2036D01*
X950Y2036D02*
X969Y2036D01*
X999Y2036D02*
X1018Y2036D01*
X650Y2035D02*
X669Y2035D01*
X699Y2035D02*
X718Y2035D01*
X950Y2035D02*
X969Y2035D01*
X999Y2035D02*
X1018Y2035D01*
X650Y2034D02*
X669Y2034D01*
X699Y2034D02*
X718Y2034D01*
X950Y2034D02*
X969Y2034D01*
X999Y2034D02*
X1018Y2034D01*
X650Y2033D02*
X669Y2033D01*
X699Y2033D02*
X718Y2033D01*
X950Y2033D02*
X969Y2033D01*
X999Y2033D02*
X1018Y2033D01*
X650Y2032D02*
X669Y2032D01*
X699Y2032D02*
X718Y2032D01*
X950Y2032D02*
X969Y2032D01*
X999Y2032D02*
X1018Y2032D01*
X650Y2031D02*
X669Y2031D01*
X699Y2031D02*
X718Y2031D01*
X950Y2031D02*
X969Y2031D01*
X999Y2031D02*
X1018Y2031D01*
X650Y2030D02*
X669Y2030D01*
X699Y2030D02*
X718Y2030D01*
X950Y2030D02*
X969Y2030D01*
X999Y2030D02*
X1018Y2030D01*
X650Y2029D02*
X669Y2029D01*
X698Y2029D02*
X718Y2029D01*
X950Y2029D02*
X969Y2029D01*
X998Y2029D02*
X1018Y2029D01*
X650Y2028D02*
X669Y2028D01*
X698Y2028D02*
X718Y2028D01*
X950Y2028D02*
X969Y2028D01*
X998Y2028D02*
X1018Y2028D01*
X650Y2027D02*
X670Y2027D01*
X698Y2027D02*
X718Y2027D01*
X950Y2027D02*
X970Y2027D01*
X998Y2027D02*
X1018Y2027D01*
X650Y2026D02*
X670Y2026D01*
X697Y2026D02*
X718Y2026D01*
X950Y2026D02*
X970Y2026D01*
X997Y2026D02*
X1018Y2026D01*
X650Y2025D02*
X671Y2025D01*
X697Y2025D02*
X718Y2025D01*
X950Y2025D02*
X971Y2025D01*
X997Y2025D02*
X1018Y2025D01*
X650Y2024D02*
X672Y2024D01*
X696Y2024D02*
X718Y2024D01*
X950Y2024D02*
X972Y2024D01*
X996Y2024D02*
X1018Y2024D01*
X650Y2023D02*
X672Y2023D01*
X695Y2023D02*
X718Y2023D01*
X950Y2023D02*
X972Y2023D01*
X995Y2023D02*
X1018Y2023D01*
X650Y2022D02*
X673Y2022D01*
X694Y2022D02*
X718Y2022D01*
X950Y2022D02*
X973Y2022D01*
X994Y2022D02*
X1018Y2022D01*
X650Y2021D02*
X675Y2021D01*
X693Y2021D02*
X718Y2021D01*
X950Y2021D02*
X975Y2021D01*
X993Y2021D02*
X1018Y2021D01*
X650Y2020D02*
X676Y2020D01*
X691Y2020D02*
X718Y2020D01*
X950Y2020D02*
X976Y2020D01*
X991Y2020D02*
X1018Y2020D01*
X650Y2019D02*
X678Y2019D01*
X689Y2019D02*
X718Y2019D01*
X950Y2019D02*
X978Y2019D01*
X989Y2019D02*
X1018Y2019D01*
X650Y2018D02*
X718Y2018D01*
X950Y2018D02*
X1018Y2018D01*
X650Y2017D02*
X718Y2017D01*
X950Y2017D02*
X1018Y2017D01*
X650Y2016D02*
X718Y2016D01*
X950Y2016D02*
X1018Y2016D01*
X650Y2015D02*
X718Y2015D01*
X950Y2015D02*
X1018Y2015D01*
X650Y2014D02*
X718Y2014D01*
X950Y2014D02*
X1018Y2014D01*
X650Y2013D02*
X718Y2013D01*
X950Y2013D02*
X1018Y2013D01*
X650Y2012D02*
X718Y2012D01*
X950Y2012D02*
X1018Y2012D01*
X650Y2011D02*
X718Y2011D01*
X950Y2011D02*
X1018Y2011D01*
X650Y2010D02*
X718Y2010D01*
X950Y2010D02*
X1018Y2010D01*
X650Y2009D02*
X718Y2009D01*
X950Y2009D02*
X1018Y2009D01*
X650Y2008D02*
X718Y2008D01*
X950Y2008D02*
X1018Y2008D01*
X650Y2007D02*
X718Y2007D01*
X950Y2007D02*
X1018Y2007D01*
X650Y2006D02*
X718Y2006D01*
X950Y2006D02*
X1018Y2006D01*
X650Y2005D02*
X718Y2005D01*
X950Y2005D02*
X1018Y2005D01*
X650Y2004D02*
X718Y2004D01*
X950Y2004D02*
X1018Y2004D01*
X650Y2003D02*
X718Y2003D01*
X950Y2003D02*
X1018Y2003D01*
X650Y2002D02*
X718Y2002D01*
X950Y2002D02*
X1018Y2002D01*
X650Y2001D02*
X718Y2001D01*
X950Y2001D02*
X1018Y2001D01*
X650Y2000D02*
X718Y2000D01*
X950Y2000D02*
X1018Y2000D01*
X650Y1999D02*
X718Y1999D01*
X950Y1999D02*
X1018Y1999D01*
X1482Y1331D02*
X1485Y1331D01*
X1475Y1330D02*
X1492Y1330D01*
X1472Y1329D02*
X1495Y1329D01*
X1469Y1328D02*
X1498Y1328D01*
X1467Y1327D02*
X1500Y1327D01*
X1465Y1326D02*
X1502Y1326D01*
X1464Y1325D02*
X1504Y1325D01*
X1462Y1324D02*
X1505Y1324D01*
X1461Y1323D02*
X1506Y1323D01*
X1460Y1322D02*
X1508Y1322D01*
X1458Y1321D02*
X1509Y1321D01*
X1457Y1320D02*
X1510Y1320D01*
X1456Y1319D02*
X1511Y1319D01*
X1455Y1318D02*
X1512Y1318D01*
X1455Y1317D02*
X1513Y1317D01*
X1454Y1316D02*
X1513Y1316D01*
X1453Y1315D02*
X1514Y1315D01*
X1452Y1314D02*
X1515Y1314D01*
X1452Y1313D02*
X1515Y1313D01*
X1451Y1312D02*
X1516Y1312D01*
X1451Y1311D02*
X1517Y1311D01*
X1450Y1310D02*
X1517Y1310D01*
X1450Y1309D02*
X1518Y1309D01*
X1449Y1308D02*
X1518Y1308D01*
X1449Y1307D02*
X1518Y1307D01*
X1448Y1306D02*
X1519Y1306D01*
X1448Y1305D02*
X1519Y1305D01*
X1448Y1304D02*
X1519Y1304D01*
X1448Y1303D02*
X1520Y1303D01*
X1447Y1302D02*
X1520Y1302D01*
X1447Y1301D02*
X1520Y1301D01*
X1447Y1300D02*
X1520Y1300D01*
X1447Y1299D02*
X1521Y1299D01*
X1447Y1298D02*
X1521Y1298D01*
X1446Y1297D02*
X1521Y1297D01*
X1446Y1296D02*
X1521Y1296D01*
X1446Y1295D02*
X1521Y1295D01*
X1446Y1294D02*
X1521Y1294D01*
X1446Y1293D02*
X1521Y1293D01*
X1446Y1292D02*
X1521Y1292D01*
X1446Y1291D02*
X1521Y1291D01*
X1446Y1290D02*
X1521Y1290D01*
X1446Y1289D02*
X1521Y1289D01*
X1447Y1288D02*
X1521Y1288D01*
X1447Y1287D02*
X1521Y1287D01*
X1447Y1286D02*
X1520Y1286D01*
X1447Y1285D02*
X1520Y1285D01*
X1447Y1284D02*
X1520Y1284D01*
X1448Y1283D02*
X1520Y1283D01*
X1448Y1282D02*
X1519Y1282D01*
X1448Y1281D02*
X1519Y1281D01*
X1449Y1280D02*
X1519Y1280D01*
X1449Y1279D02*
X1518Y1279D01*
X1449Y1278D02*
X1518Y1278D01*
X1450Y1277D02*
X1517Y1277D01*
X1450Y1276D02*
X1517Y1276D01*
X1451Y1275D02*
X1516Y1275D01*
X1451Y1274D02*
X1516Y1274D01*
X1452Y1273D02*
X1515Y1273D01*
X1453Y1272D02*
X1515Y1272D01*
X1453Y1271D02*
X1514Y1271D01*
X1454Y1270D02*
X1513Y1270D01*
X1455Y1269D02*
X1512Y1269D01*
X1456Y1268D02*
X1512Y1268D01*
X1457Y1267D02*
X1511Y1267D01*
X1458Y1266D02*
X1510Y1266D01*
X1459Y1265D02*
X1509Y1265D01*
X1460Y1264D02*
X1507Y1264D01*
X1461Y1263D02*
X1506Y1263D01*
X1463Y1262D02*
X1505Y1262D01*
X1464Y1261D02*
X1503Y1261D01*
X1466Y1260D02*
X1502Y1260D01*
X1468Y1259D02*
X1500Y1259D01*
X1470Y1258D02*
X1497Y1258D01*
X1473Y1257D02*
X1495Y1257D01*
X1477Y1256D02*
X1491Y1256D01*
X1482Y1231D02*
X1486Y1231D01*
X1475Y1230D02*
X1492Y1230D01*
X1472Y1229D02*
X1496Y1229D01*
X1469Y1228D02*
X1498Y1228D01*
X1467Y1227D02*
X1500Y1227D01*
X1465Y1226D02*
X1502Y1226D01*
X1464Y1225D02*
X1504Y1225D01*
X1462Y1224D02*
X1505Y1224D01*
X1461Y1223D02*
X1507Y1223D01*
X1459Y1222D02*
X1508Y1222D01*
X1458Y1221D02*
X1509Y1221D01*
X1457Y1220D02*
X1510Y1220D01*
X1456Y1219D02*
X1511Y1219D01*
X1455Y1218D02*
X1512Y1218D01*
X1455Y1217D02*
X1513Y1217D01*
X1454Y1216D02*
X1513Y1216D01*
X1453Y1215D02*
X1514Y1215D01*
X1452Y1214D02*
X1515Y1214D01*
X1452Y1213D02*
X1515Y1213D01*
X1451Y1212D02*
X1516Y1212D01*
X1451Y1211D02*
X1517Y1211D01*
X1450Y1210D02*
X1517Y1210D01*
X1450Y1209D02*
X1518Y1209D01*
X1449Y1208D02*
X1518Y1208D01*
X1449Y1207D02*
X1518Y1207D01*
X1448Y1206D02*
X1519Y1206D01*
X1448Y1205D02*
X1519Y1205D01*
X1448Y1204D02*
X1519Y1204D01*
X1448Y1203D02*
X1520Y1203D01*
X1447Y1202D02*
X1520Y1202D01*
X1447Y1201D02*
X1520Y1201D01*
X1447Y1200D02*
X1520Y1200D01*
X1447Y1199D02*
X1521Y1199D01*
X1447Y1198D02*
X1521Y1198D01*
X1446Y1197D02*
X1521Y1197D01*
X1446Y1196D02*
X1521Y1196D01*
X1446Y1195D02*
X1521Y1195D01*
X1446Y1194D02*
X1521Y1194D01*
X1446Y1193D02*
X1521Y1193D01*
X1446Y1192D02*
X1521Y1192D01*
X1446Y1191D02*
X1521Y1191D01*
X1446Y1190D02*
X1521Y1190D01*
X1446Y1189D02*
X1521Y1189D01*
X1447Y1188D02*
X1521Y1188D01*
X1447Y1187D02*
X1521Y1187D01*
X1447Y1186D02*
X1520Y1186D01*
X1447Y1185D02*
X1520Y1185D01*
X1447Y1184D02*
X1520Y1184D01*
X1448Y1183D02*
X1520Y1183D01*
X1448Y1182D02*
X1519Y1182D01*
X1448Y1181D02*
X1519Y1181D01*
X1449Y1180D02*
X1519Y1180D01*
X1449Y1179D02*
X1518Y1179D01*
X1449Y1178D02*
X1518Y1178D01*
X1450Y1177D02*
X1517Y1177D01*
X1450Y1176D02*
X1517Y1176D01*
X1451Y1175D02*
X1516Y1175D01*
X1451Y1174D02*
X1516Y1174D01*
X1452Y1173D02*
X1515Y1173D01*
X1453Y1172D02*
X1515Y1172D01*
X1453Y1171D02*
X1514Y1171D01*
X1454Y1170D02*
X1513Y1170D01*
X1455Y1169D02*
X1512Y1169D01*
X1456Y1168D02*
X1511Y1168D01*
X1457Y1167D02*
X1511Y1167D01*
X1458Y1166D02*
X1510Y1166D01*
X1459Y1165D02*
X1509Y1165D01*
X1460Y1164D02*
X1507Y1164D01*
X1461Y1163D02*
X1506Y1163D01*
X1463Y1162D02*
X1505Y1162D01*
X1464Y1161D02*
X1503Y1161D01*
X1466Y1160D02*
X1502Y1160D01*
X1468Y1159D02*
X1500Y1159D01*
X1470Y1158D02*
X1497Y1158D01*
X1473Y1157D02*
X1495Y1157D01*
X1477Y1156D02*
X1490Y1156D01*
X1481Y1131D02*
X1487Y1131D01*
X1475Y1130D02*
X1492Y1130D01*
X1472Y1129D02*
X1496Y1129D01*
X1469Y1128D02*
X1498Y1128D01*
X1467Y1127D02*
X1500Y1127D01*
X1465Y1126D02*
X1502Y1126D01*
X1463Y1125D02*
X1504Y1125D01*
X1462Y1124D02*
X1505Y1124D01*
X1461Y1123D02*
X1507Y1123D01*
X1459Y1122D02*
X1508Y1122D01*
X1458Y1121D02*
X1509Y1121D01*
X1457Y1120D02*
X1510Y1120D01*
X1456Y1119D02*
X1511Y1119D01*
X1455Y1118D02*
X1512Y1118D01*
X1455Y1117D02*
X1513Y1117D01*
X1454Y1116D02*
X1513Y1116D01*
X1453Y1115D02*
X1514Y1115D01*
X1452Y1114D02*
X1515Y1114D01*
X1452Y1113D02*
X1515Y1113D01*
X1451Y1112D02*
X1516Y1112D01*
X1451Y1111D02*
X1517Y1111D01*
X1450Y1110D02*
X1517Y1110D01*
X1450Y1109D02*
X1518Y1109D01*
X1449Y1108D02*
X1518Y1108D01*
X1449Y1107D02*
X1518Y1107D01*
X1448Y1106D02*
X1519Y1106D01*
X1448Y1105D02*
X1519Y1105D01*
X1448Y1104D02*
X1519Y1104D01*
X1448Y1103D02*
X1520Y1103D01*
X1447Y1102D02*
X1520Y1102D01*
X1447Y1101D02*
X1520Y1101D01*
X1447Y1100D02*
X1520Y1100D01*
X1447Y1099D02*
X1521Y1099D01*
X1447Y1098D02*
X1521Y1098D01*
X1446Y1097D02*
X1521Y1097D01*
X1446Y1096D02*
X1521Y1096D01*
X1446Y1095D02*
X1521Y1095D01*
X1446Y1094D02*
X1521Y1094D01*
X1446Y1093D02*
X1521Y1093D01*
X1446Y1092D02*
X1521Y1092D01*
X1446Y1091D02*
X1521Y1091D01*
X1446Y1090D02*
X1521Y1090D01*
X1446Y1089D02*
X1521Y1089D01*
X1447Y1088D02*
X1521Y1088D01*
X1447Y1087D02*
X1520Y1087D01*
X1447Y1086D02*
X1520Y1086D01*
X1447Y1085D02*
X1520Y1085D01*
X1447Y1084D02*
X1520Y1084D01*
X1448Y1083D02*
X1520Y1083D01*
X1448Y1082D02*
X1519Y1082D01*
X1448Y1081D02*
X1519Y1081D01*
X1449Y1080D02*
X1519Y1080D01*
X1449Y1079D02*
X1518Y1079D01*
X1449Y1078D02*
X1518Y1078D01*
X1450Y1077D02*
X1517Y1077D01*
X1450Y1076D02*
X1517Y1076D01*
X1451Y1075D02*
X1516Y1075D01*
X1451Y1074D02*
X1516Y1074D01*
X1452Y1073D02*
X1515Y1073D01*
X1453Y1072D02*
X1515Y1072D01*
X1453Y1071D02*
X1514Y1071D01*
X1454Y1070D02*
X1513Y1070D01*
X1455Y1069D02*
X1512Y1069D01*
X1456Y1068D02*
X1511Y1068D01*
X1457Y1067D02*
X1511Y1067D01*
X1458Y1066D02*
X1510Y1066D01*
X1459Y1065D02*
X1508Y1065D01*
X1460Y1064D02*
X1507Y1064D01*
X1461Y1063D02*
X1506Y1063D01*
X1463Y1062D02*
X1505Y1062D01*
X1464Y1061D02*
X1503Y1061D01*
X1466Y1060D02*
X1501Y1060D01*
X1468Y1059D02*
X1499Y1059D01*
X1470Y1058D02*
X1497Y1058D01*
X1473Y1057D02*
X1494Y1057D01*
X1477Y1056D02*
X1490Y1056D01*
X1480Y1031D02*
X1487Y1031D01*
X1475Y1030D02*
X1492Y1030D01*
X1472Y1029D02*
X1496Y1029D01*
X1469Y1028D02*
X1498Y1028D01*
X1467Y1027D02*
X1500Y1027D01*
X1465Y1026D02*
X1502Y1026D01*
X1463Y1025D02*
X1504Y1025D01*
X1462Y1024D02*
X1505Y1024D01*
X1461Y1023D02*
X1507Y1023D01*
X1459Y1022D02*
X1508Y1022D01*
X1458Y1021D02*
X1509Y1021D01*
X1457Y1020D02*
X1510Y1020D01*
X1456Y1019D02*
X1511Y1019D01*
X1455Y1018D02*
X1512Y1018D01*
X1455Y1017D02*
X1513Y1017D01*
X1454Y1016D02*
X1513Y1016D01*
X1453Y1015D02*
X1514Y1015D01*
X1452Y1014D02*
X1515Y1014D01*
X1452Y1013D02*
X1515Y1013D01*
X1451Y1012D02*
X1516Y1012D01*
X1451Y1011D02*
X1517Y1011D01*
X1450Y1010D02*
X1517Y1010D01*
X1450Y1009D02*
X1518Y1009D01*
X1449Y1008D02*
X1518Y1008D01*
X1449Y1007D02*
X1518Y1007D01*
X1448Y1006D02*
X1519Y1006D01*
X1448Y1005D02*
X1519Y1005D01*
X1448Y1004D02*
X1519Y1004D01*
X1448Y1003D02*
X1520Y1003D01*
X1447Y1002D02*
X1520Y1002D01*
X1447Y1001D02*
X1520Y1001D01*
X1447Y1000D02*
X1520Y1000D01*
X1447Y999D02*
X1521Y999D01*
X1447Y998D02*
X1521Y998D01*
X1446Y997D02*
X1521Y997D01*
X1446Y996D02*
X1521Y996D01*
X1446Y995D02*
X1521Y995D01*
X1446Y994D02*
X1521Y994D01*
X1446Y993D02*
X1521Y993D01*
X1446Y992D02*
X1521Y992D01*
X1446Y991D02*
X1521Y991D01*
X1446Y990D02*
X1521Y990D01*
X1446Y989D02*
X1521Y989D01*
X1447Y988D02*
X1521Y988D01*
X1447Y987D02*
X1520Y987D01*
X1447Y986D02*
X1520Y986D01*
X1447Y985D02*
X1520Y985D01*
X1447Y984D02*
X1520Y984D01*
X1448Y983D02*
X1520Y983D01*
X1448Y982D02*
X1519Y982D01*
X1448Y981D02*
X1519Y981D01*
X1449Y980D02*
X1519Y980D01*
X1449Y979D02*
X1518Y979D01*
X1449Y978D02*
X1518Y978D01*
X1450Y977D02*
X1517Y977D01*
X1450Y976D02*
X1517Y976D01*
X1451Y975D02*
X1516Y975D01*
X1451Y974D02*
X1516Y974D01*
X1452Y973D02*
X1515Y973D01*
X1453Y972D02*
X1515Y972D01*
X1453Y971D02*
X1514Y971D01*
X1454Y970D02*
X1513Y970D01*
X1455Y969D02*
X1512Y969D01*
X1456Y968D02*
X1511Y968D01*
X1457Y967D02*
X1511Y967D01*
X1458Y966D02*
X1510Y966D01*
X1459Y965D02*
X1508Y965D01*
X1460Y964D02*
X1507Y964D01*
X1461Y963D02*
X1506Y963D01*
X1463Y962D02*
X1505Y962D01*
X1464Y961D02*
X1503Y961D01*
X1466Y960D02*
X1501Y960D01*
X1468Y959D02*
X1499Y959D01*
X1470Y958D02*
X1497Y958D01*
X1473Y957D02*
X1494Y957D01*
X1477Y956D02*
X1490Y956D01*
X1480Y931D02*
X1487Y931D01*
X1475Y930D02*
X1492Y930D01*
X1471Y929D02*
X1496Y929D01*
X1469Y928D02*
X1498Y928D01*
X1467Y927D02*
X1500Y927D01*
X1465Y926D02*
X1502Y926D01*
X1463Y925D02*
X1504Y925D01*
X1462Y924D02*
X1505Y924D01*
X1461Y923D02*
X1507Y923D01*
X1459Y922D02*
X1508Y922D01*
X1458Y921D02*
X1509Y921D01*
X1457Y920D02*
X1510Y920D01*
X1456Y919D02*
X1511Y919D01*
X1455Y918D02*
X1512Y918D01*
X1455Y917D02*
X1513Y917D01*
X1454Y916D02*
X1513Y916D01*
X1453Y915D02*
X1514Y915D01*
X1452Y914D02*
X1515Y914D01*
X1452Y913D02*
X1515Y913D01*
X1451Y912D02*
X1516Y912D01*
X1451Y911D02*
X1517Y911D01*
X1450Y910D02*
X1517Y910D01*
X1450Y909D02*
X1518Y909D01*
X1449Y908D02*
X1518Y908D01*
X1449Y907D02*
X1518Y907D01*
X1448Y906D02*
X1519Y906D01*
X1448Y905D02*
X1519Y905D01*
X1448Y904D02*
X1519Y904D01*
X1448Y903D02*
X1520Y903D01*
X1447Y902D02*
X1520Y902D01*
X1447Y901D02*
X1520Y901D01*
X1447Y900D02*
X1520Y900D01*
X1447Y899D02*
X1521Y899D01*
X1447Y898D02*
X1521Y898D01*
X1446Y897D02*
X1521Y897D01*
X1446Y896D02*
X1521Y896D01*
X1446Y895D02*
X1521Y895D01*
X1446Y894D02*
X1521Y894D01*
X1446Y893D02*
X1521Y893D01*
X1446Y892D02*
X1521Y892D01*
X1446Y891D02*
X1521Y891D01*
X1446Y890D02*
X1521Y890D01*
X1446Y889D02*
X1521Y889D01*
X1447Y888D02*
X1521Y888D01*
X1447Y887D02*
X1520Y887D01*
X1447Y886D02*
X1520Y886D01*
X1447Y885D02*
X1520Y885D01*
X1447Y884D02*
X1520Y884D01*
X1448Y883D02*
X1520Y883D01*
X1448Y882D02*
X1519Y882D01*
X1448Y881D02*
X1519Y881D01*
X1449Y880D02*
X1519Y880D01*
X1449Y879D02*
X1518Y879D01*
X1449Y878D02*
X1518Y878D01*
X1450Y877D02*
X1517Y877D01*
X1450Y876D02*
X1517Y876D01*
X1451Y875D02*
X1516Y875D01*
X1451Y874D02*
X1516Y874D01*
X1452Y873D02*
X1515Y873D01*
X1453Y872D02*
X1514Y872D01*
X1453Y871D02*
X1514Y871D01*
X1454Y870D02*
X1513Y870D01*
X1455Y869D02*
X1512Y869D01*
X1456Y868D02*
X1511Y868D01*
X1457Y867D02*
X1510Y867D01*
X1458Y866D02*
X1510Y866D01*
X1459Y865D02*
X1508Y865D01*
X1460Y864D02*
X1507Y864D01*
X1461Y863D02*
X1506Y863D01*
X1463Y862D02*
X1505Y862D01*
X1464Y861D02*
X1503Y861D01*
X1466Y860D02*
X1501Y860D01*
X1468Y859D02*
X1499Y859D01*
X1470Y858D02*
X1497Y858D01*
X1473Y857D02*
X1494Y857D01*
X1477Y856D02*
X1490Y856D01*
X1480Y831D02*
X1487Y831D01*
X1475Y830D02*
X1493Y830D01*
X1471Y829D02*
X1496Y829D01*
X1469Y828D02*
X1499Y828D01*
X1467Y827D02*
X1501Y827D01*
X1465Y826D02*
X1502Y826D01*
X1463Y825D02*
X1504Y825D01*
X1462Y824D02*
X1505Y824D01*
X1461Y823D02*
X1507Y823D01*
X1459Y822D02*
X1508Y822D01*
X1458Y821D02*
X1509Y821D01*
X1457Y820D02*
X1510Y820D01*
X1456Y819D02*
X1511Y819D01*
X1455Y818D02*
X1512Y818D01*
X1455Y817D02*
X1513Y817D01*
X1454Y816D02*
X1513Y816D01*
X1453Y815D02*
X1514Y815D01*
X1452Y814D02*
X1515Y814D01*
X1452Y813D02*
X1515Y813D01*
X1451Y812D02*
X1516Y812D01*
X1451Y811D02*
X1517Y811D01*
X1450Y810D02*
X1517Y810D01*
X1450Y809D02*
X1518Y809D01*
X1449Y808D02*
X1518Y808D01*
X1449Y807D02*
X1519Y807D01*
X1448Y806D02*
X1519Y806D01*
X1448Y805D02*
X1519Y805D01*
X1448Y804D02*
X1519Y804D01*
X1447Y803D02*
X1520Y803D01*
X1447Y802D02*
X1520Y802D01*
X1447Y801D02*
X1520Y801D01*
X1447Y800D02*
X1520Y800D01*
X1447Y799D02*
X1521Y799D01*
X1447Y798D02*
X1521Y798D01*
X1446Y797D02*
X1521Y797D01*
X1446Y796D02*
X1521Y796D01*
X1446Y795D02*
X1521Y795D01*
X1446Y794D02*
X1521Y794D01*
X1446Y793D02*
X1521Y793D01*
X1446Y792D02*
X1521Y792D01*
X1446Y791D02*
X1521Y791D01*
X1446Y790D02*
X1521Y790D01*
X1446Y789D02*
X1521Y789D01*
X1447Y788D02*
X1521Y788D01*
X1447Y787D02*
X1520Y787D01*
X1447Y786D02*
X1520Y786D01*
X1447Y785D02*
X1520Y785D01*
X1447Y784D02*
X1520Y784D01*
X1448Y783D02*
X1520Y783D01*
X1448Y782D02*
X1519Y782D01*
X1448Y781D02*
X1519Y781D01*
X1449Y780D02*
X1519Y780D01*
X1449Y779D02*
X1518Y779D01*
X1449Y778D02*
X1518Y778D01*
X1450Y777D02*
X1517Y777D01*
X1450Y776D02*
X1517Y776D01*
X1451Y775D02*
X1516Y775D01*
X1452Y774D02*
X1516Y774D01*
X1452Y773D02*
X1515Y773D01*
X1453Y772D02*
X1514Y772D01*
X1454Y771D02*
X1514Y771D01*
X1454Y770D02*
X1513Y770D01*
X1455Y769D02*
X1512Y769D01*
X1456Y768D02*
X1511Y768D01*
X1457Y767D02*
X1510Y767D01*
X1458Y766D02*
X1509Y766D01*
X1459Y765D02*
X1508Y765D01*
X1460Y764D02*
X1507Y764D01*
X1461Y763D02*
X1506Y763D01*
X1463Y762D02*
X1504Y762D01*
X1464Y761D02*
X1503Y761D01*
X1466Y760D02*
X1501Y760D01*
X1468Y759D02*
X1499Y759D01*
X1470Y758D02*
X1497Y758D01*
X1473Y757D02*
X1494Y757D01*
X1478Y756D02*
X1490Y756D01*
D02*
G04 End of Mask0*
M02*