; NON-PLATED HOLES START AT T1
; THROUGH (PLATED) HOLES START AT T100
M48
INCH
T1C0.086614
T2C0.044000
T100C0.053000
T101C0.059055
T102C0.015748
T103C0.031250
T104C0.031496
T105C0.030000
T106C0.034000
T107C0.031555
T108C0.052972
T109C0.031497
T110C0.039370
T111C0.035000
T112C0.036000
T113C0.055118
T114C0.038000
%
T1
X029144Y002520
X002544Y002520
X029144Y025120
X002544Y025120
T2
X003444Y020852
X000492Y018884
X000492Y022820
X001476Y022820
X001476Y018884
T100
X003444Y022820
X003444Y021836
X003444Y018884
T101
X029644Y022989
X029644Y004552
X029644Y019052
X029644Y008489
X029644Y021020
X029644Y006520
T102
X021244Y014420
X015344Y016320
X017444Y024320
X017355Y003627
X019361Y010949
X017356Y016321
X007524Y020026
X015144Y001120
X014444Y002120
X028556Y004426
X021316Y019374
X013841Y015327
X018214Y017503
X018246Y000617
T103
X014844Y010921
X014844Y012920
X014844Y007920
X014844Y011920
X014844Y009920
X014844Y008920
T104
X019244Y014020
T105
X013644Y023020
X012642Y023020
X017944Y010820
X012642Y021120
X017944Y009818
X013644Y021120
T106
X013119Y014820
X016444Y006820
X013119Y012820
X016444Y016820
X013119Y003820
X013119Y009820
X016444Y003820
X013119Y004820
X016444Y010820
X016444Y008820
X013119Y006820
X016444Y005820
X013119Y008820
X016444Y015820
X013119Y007820
X016444Y009820
X016444Y004820
X013119Y016820
X016444Y013820
X016444Y007820
X013119Y013820
X013119Y005820
X013119Y010820
X016444Y014820
X013119Y011820
X016444Y012820
X013119Y015820
X016444Y011820
T107
X019243Y015951
T108
X001476Y020852
X003444Y019868
T109
X001594Y015858
X001594Y016843
T110
X023577Y022429
X026577Y022429
X021944Y020420
X009844Y020420
X006844Y020420
X006844Y022420
X021944Y022420
X009844Y022420
X023577Y020429
X018944Y022420
X018944Y020420
X026577Y020429
T111
X014844Y024820
X010044Y024620
X008444Y024620
X016744Y020820
X016744Y024820
X014844Y020820
X007444Y024620
X011044Y024620
X001544Y012120
X001544Y008120
T112
X004244Y010820
X010244Y010820
X004244Y003820
X004244Y007820
X010244Y005820
X004244Y016820
X004244Y004820
X004244Y012820
X004244Y005820
X010244Y004820
X010244Y002820
X004244Y008820
X004244Y009820
X004244Y014820
X010244Y007820
X004244Y011820
X010244Y006820
X010244Y009820
X010244Y012820
X010244Y013820
X010244Y016820
X010244Y003820
X010244Y011820
X010244Y008820
X004244Y006820
X010244Y015820
X004244Y013820
X004244Y002820
X010244Y014820
X004244Y015820
T113
X024252Y011820
X025244Y010820
X029174Y011820
X025244Y016730
X024248Y015757
X029174Y015760
X025240Y013785
T114
X008844Y018920
X012544Y018820
X011744Y013820
X003044Y009820
X016144Y018820
X003244Y004820
X024181Y018847
X022544Y015720
X029174Y013774
X003044Y011820
X028128Y013782
X011744Y014820
X028128Y015782
X003044Y007820
X011744Y016820
X011544Y008820
X005444Y024820
X017144Y018820
X028128Y011782
X011544Y007820
X007844Y018920
X011544Y010820
X011744Y015820
X003044Y010820
X025181Y018847
X004444Y024820
X011544Y009820
X013544Y018820
X011544Y005820
X003044Y008820
X011544Y006820
X003044Y012820
T00
M30
