; NON-PLATED HOLES START AT T1
; THROUGH (PLATED) HOLES START AT T100
M48
INCH
T1C0.086614
T2C0.044000
T100C0.031555
T101C0.031497
T102C0.030000
T103C0.031250
T104C0.055118
T105C0.035000
T106C0.052972
T107C0.034000
T108C0.053000
T109C0.038000
T110C0.039370
T111C0.031496
T112C0.015748
T113C0.036000
%
T1
X028844Y024820
X002844Y002820
X002844Y024820
X028844Y002820
T2
X003812Y020820
X000860Y018852
X000860Y022788
X001844Y022788
X001844Y018852
T100
X019944Y018120
T101
X001844Y011820
X001844Y012804
T102
X012642Y023020
X017744Y010822
X013644Y021120
X017744Y009820
X012642Y021120
X013644Y023020
T103
X014844Y007920
X014844Y010921
X014844Y012920
X014844Y009920
X014844Y011920
X014844Y008920
T104
X025836Y013848
X029770Y011883
X025840Y010883
X029770Y015823
X024844Y015820
X025840Y016793
X024848Y011883
T105
X008044Y024120
X016744Y020820
X001744Y009420
X007044Y024120
X016744Y024820
X014844Y020820
X001744Y005420
X010844Y024120
X014844Y024820
X009844Y024120
T106
X001844Y020820
X003812Y019836
T107
X013119Y004820
X013119Y005820
X016444Y008820
X013119Y014820
X016444Y009820
X013119Y007820
X013119Y006820
X013119Y009820
X016444Y012820
X013119Y015820
X016444Y005820
X013119Y010820
X013119Y008820
X016444Y013820
X013119Y003820
X016444Y006820
X013119Y016820
X016444Y016820
X016444Y007820
X016444Y004820
X016444Y010820
X013119Y012820
X013119Y011820
X016444Y015820
X016444Y003820
X016444Y014820
X016444Y011820
X013119Y013820
T108
X003812Y018852
X003812Y021804
X003812Y022788
T109
X020444Y006820
X019444Y008820
X017844Y008320
X019444Y006820
X020444Y011820
X018844Y023820
X003244Y007820
X003244Y004820
X011744Y015820
X017844Y006320
X011544Y006820
X020444Y009820
X027844Y020820
X018844Y022820
X011544Y009820
X019444Y007820
X003244Y010820
X008844Y018820
X019444Y010820
X012544Y018820
X027844Y021820
X007844Y018820
X011744Y014820
X020444Y008820
X011744Y016820
X017144Y018820
X003244Y008820
X022544Y016020
X020444Y007820
X016144Y018820
X020444Y013820
X019444Y011820
X011544Y005820
X013544Y018820
X019444Y012820
X018844Y021820
X017844Y007320
X019444Y009820
X011744Y013820
X011544Y008820
X005746Y024821
X020444Y010820
X011544Y007820
X019444Y013820
X011544Y010820
X003244Y009820
X020444Y012820
X004746Y024821
T110
X009844Y020320
X009844Y022320
X006844Y022320
X006844Y020320
T111
X019944Y016189
T112
X015144Y001120
X017444Y024320
X021944Y014820
X022944Y014720
X014444Y002120
T113
X004244Y011820
X004244Y015820
X004244Y009820
X010244Y002820
X010244Y011820
X010244Y004820
X010244Y009820
X004244Y008820
X010244Y005820
X004244Y004820
X004244Y006820
X010244Y007820
X004244Y005820
X004244Y013820
X010244Y006820
X010244Y010820
X010244Y013820
X010244Y016820
X010244Y015820
X004244Y002820
X004244Y003820
X010244Y012820
X004244Y014820
X010244Y008820
X004244Y012820
X010244Y003820
X004244Y010820
X004244Y007820
X004244Y016820
X010244Y014820
T00
M30
